G04*
G04 #@! TF.GenerationSoftware,Altium Limited,Altium Designer,20.1.8 (145)*
G04*
G04 Layer_Color=8388736*
%FSLAX25Y25*%
%MOIN*%
G70*
G04*
G04 #@! TF.SameCoordinates,2B98FD46-9CAB-426A-9CBD-916E77886E0C*
G04*
G04*
G04 #@! TF.FilePolarity,Negative*
G04*
G01*
G75*
G04:AMPARAMS|DCode=25|XSize=39.5mil|YSize=39.5mil|CornerRadius=11.87mil|HoleSize=0mil|Usage=FLASHONLY|Rotation=180.000|XOffset=0mil|YOffset=0mil|HoleType=Round|Shape=RoundedRectangle|*
%AMROUNDEDRECTD25*
21,1,0.03950,0.01575,0,0,180.0*
21,1,0.01575,0.03950,0,0,180.0*
1,1,0.02375,-0.00787,0.00787*
1,1,0.02375,0.00787,0.00787*
1,1,0.02375,0.00787,-0.00787*
1,1,0.02375,-0.00787,-0.00787*
%
%ADD25ROUNDEDRECTD25*%
%ADD26R,0.03950X0.03950*%
%ADD27R,0.02769X0.04540*%
%ADD28R,0.07493X0.10642*%
%ADD29R,0.04540X0.02769*%
G04:AMPARAMS|DCode=30|XSize=39.5mil|YSize=39.5mil|CornerRadius=11.87mil|HoleSize=0mil|Usage=FLASHONLY|Rotation=90.000|XOffset=0mil|YOffset=0mil|HoleType=Round|Shape=RoundedRectangle|*
%AMROUNDEDRECTD30*
21,1,0.03950,0.01575,0,0,90.0*
21,1,0.01575,0.03950,0,0,90.0*
1,1,0.02375,0.00787,0.00787*
1,1,0.02375,0.00787,-0.00787*
1,1,0.02375,-0.00787,-0.00787*
1,1,0.02375,-0.00787,0.00787*
%
%ADD30ROUNDEDRECTD30*%
%ADD31R,0.03950X0.03950*%
%ADD32C,0.07887*%
%ADD33R,0.07887X0.07887*%
%ADD34R,0.05328X0.05328*%
%ADD35C,0.05328*%
%ADD36C,0.12611*%
%ADD37C,0.05918*%
%ADD38R,0.05918X0.05918*%
%ADD39C,0.06706*%
%ADD40R,0.06706X0.06706*%
%ADD41R,0.10642X0.10642*%
%ADD42C,0.10642*%
%ADD43C,0.06181*%
%ADD44R,0.06181X0.06181*%
%ADD45R,0.07493X0.07493*%
%ADD46C,0.07493*%
G04:AMPARAMS|DCode=47|XSize=86.74mil|YSize=70.99mil|CornerRadius=19.75mil|HoleSize=0mil|Usage=FLASHONLY|Rotation=270.000|XOffset=0mil|YOffset=0mil|HoleType=Round|Shape=RoundedRectangle|*
%AMROUNDEDRECTD47*
21,1,0.08674,0.03150,0,0,270.0*
21,1,0.04724,0.07099,0,0,270.0*
1,1,0.03950,-0.01575,-0.02362*
1,1,0.03950,-0.01575,0.02362*
1,1,0.03950,0.01575,0.02362*
1,1,0.03950,0.01575,-0.02362*
%
%ADD47ROUNDEDRECTD47*%
%ADD48O,0.07099X0.08674*%
%ADD49R,0.06706X0.06706*%
%ADD50C,0.08280*%
%ADD51C,0.05118*%
%ADD52R,0.05118X0.05118*%
%ADD53R,0.05118X0.05118*%
D25*
X280512Y175984D02*
D03*
Y166929D02*
D03*
X290748D02*
D03*
X290568Y175984D02*
D03*
X39173Y8661D02*
D03*
X96653D02*
D03*
D26*
X274606Y175984D02*
D03*
Y166929D02*
D03*
X296654D02*
D03*
X296473Y175984D02*
D03*
X33268Y8661D02*
D03*
X102559D02*
D03*
D27*
X186417Y101969D02*
D03*
X181299D02*
D03*
X93768Y163625D02*
D03*
X98886D02*
D03*
X98886Y154793D02*
D03*
X93768D02*
D03*
X106410D02*
D03*
X111528D02*
D03*
X111528Y163625D02*
D03*
X106410D02*
D03*
X119051Y154793D02*
D03*
X124169D02*
D03*
X124169Y163625D02*
D03*
X119051D02*
D03*
X131693Y154793D02*
D03*
X136811D02*
D03*
X136811Y163625D02*
D03*
X131693D02*
D03*
X38386Y18898D02*
D03*
X33268D02*
D03*
X102559D02*
D03*
X97441D02*
D03*
D28*
X75984Y161417D02*
D03*
Y145669D02*
D03*
Y61417D02*
D03*
Y45669D02*
D03*
Y79100D02*
D03*
Y94848D02*
D03*
Y112385D02*
D03*
Y128133D02*
D03*
D29*
X15748Y164370D02*
D03*
Y159252D02*
D03*
Y64584D02*
D03*
Y59466D02*
D03*
Y97654D02*
D03*
Y92536D02*
D03*
Y130922D02*
D03*
Y125804D02*
D03*
D30*
Y145473D02*
D03*
Y45866D02*
D03*
Y78937D02*
D03*
Y112205D02*
D03*
D31*
Y151378D02*
D03*
Y51772D02*
D03*
Y84842D02*
D03*
Y118110D02*
D03*
D32*
X186221Y62205D02*
D03*
X226339Y122126D02*
D03*
X216339D02*
D03*
X206339D02*
D03*
X196339D02*
D03*
X186339D02*
D03*
X176339D02*
D03*
X166339D02*
D03*
X156339D02*
D03*
X226339Y62126D02*
D03*
X216339D02*
D03*
X206339D02*
D03*
X196339D02*
D03*
X176339D02*
D03*
X166339D02*
D03*
D33*
X156339D02*
D03*
D34*
X276378Y124331D02*
D03*
Y79452D02*
D03*
X276378Y34191D02*
D03*
D35*
X276378Y132232D02*
D03*
Y140130D02*
D03*
Y148031D02*
D03*
Y87353D02*
D03*
Y95251D02*
D03*
Y103153D02*
D03*
X276378Y42092D02*
D03*
Y49990D02*
D03*
Y57892D02*
D03*
D36*
X287402Y195669D02*
D03*
Y13386D02*
D03*
X13386D02*
D03*
Y195669D02*
D03*
D37*
X76985Y183481D02*
D03*
D38*
Y197261D02*
D03*
D39*
X250394Y81102D02*
D03*
Y65354D02*
D03*
Y73228D02*
D03*
Y128347D02*
D03*
Y112598D02*
D03*
Y120472D02*
D03*
Y33858D02*
D03*
Y18110D02*
D03*
Y25984D02*
D03*
X108268Y186811D02*
D03*
X124016D02*
D03*
X116142D02*
D03*
D40*
X250394Y57480D02*
D03*
Y104724D02*
D03*
Y10236D02*
D03*
D41*
X124488Y17717D02*
D03*
D42*
X144488D02*
D03*
X164488D02*
D03*
D43*
X162284Y168110D02*
D03*
X172283D02*
D03*
X182283D02*
D03*
X192283D02*
D03*
X202284D02*
D03*
X212283D02*
D03*
X222284D02*
D03*
X232283D02*
D03*
X242284D02*
D03*
X252284D02*
D03*
X162284Y158110D02*
D03*
X172283D02*
D03*
X182283D02*
D03*
X192283D02*
D03*
X202284D02*
D03*
X212283D02*
D03*
X222284D02*
D03*
X232283D02*
D03*
X242284D02*
D03*
D44*
X252284D02*
D03*
D45*
X107953Y133465D02*
D03*
X107323Y106955D02*
D03*
X107480Y80446D02*
D03*
X108268Y53937D02*
D03*
D46*
X117953Y133465D02*
D03*
X127953D02*
D03*
X117323Y106955D02*
D03*
X127323D02*
D03*
X117480Y80446D02*
D03*
X127480D02*
D03*
X118268Y53937D02*
D03*
X128268D02*
D03*
D47*
X50984Y155315D02*
D03*
Y55462D02*
D03*
Y88746D02*
D03*
Y122030D02*
D03*
D48*
X41142Y155315D02*
D03*
Y55462D02*
D03*
Y88746D02*
D03*
Y122030D02*
D03*
D49*
X131890Y186811D02*
D03*
D50*
X57583Y16862D02*
D03*
X77583D02*
D03*
D51*
X229528Y16929D02*
D03*
X221654D02*
D03*
X213779D02*
D03*
X205906D02*
D03*
X198031D02*
D03*
X40945Y183268D02*
D03*
D52*
X190157Y16929D02*
D03*
D53*
X40945Y197047D02*
D03*
M02*
