G04*
G04 #@! TF.GenerationSoftware,Altium Limited,Altium Designer,20.1.8 (145)*
G04*
G04 Layer_Color=8421504*
%FSLAX25Y25*%
%MOIN*%
G70*
G04*
G04 #@! TF.SameCoordinates,2B98FD46-9CAB-426A-9CBD-916E77886E0C*
G04*
G04*
G04 #@! TF.FilePolarity,Positive*
G04*
G01*
G75*
G04:AMPARAMS|DCode=18|XSize=31.5mil|YSize=31.5mil|CornerRadius=7.87mil|HoleSize=0mil|Usage=FLASHONLY|Rotation=180.000|XOffset=0mil|YOffset=0mil|HoleType=Round|Shape=RoundedRectangle|*
%AMROUNDEDRECTD18*
21,1,0.03150,0.01575,0,0,180.0*
21,1,0.01575,0.03150,0,0,180.0*
1,1,0.01575,-0.00787,0.00787*
1,1,0.01575,0.00787,0.00787*
1,1,0.01575,0.00787,-0.00787*
1,1,0.01575,-0.00787,-0.00787*
%
%ADD18ROUNDEDRECTD18*%
%ADD19R,0.03150X0.03150*%
%ADD20R,0.01968X0.03740*%
%ADD21R,0.06693X0.09843*%
%ADD22R,0.03740X0.01968*%
G04:AMPARAMS|DCode=23|XSize=31.5mil|YSize=31.5mil|CornerRadius=7.87mil|HoleSize=0mil|Usage=FLASHONLY|Rotation=90.000|XOffset=0mil|YOffset=0mil|HoleType=Round|Shape=RoundedRectangle|*
%AMROUNDEDRECTD23*
21,1,0.03150,0.01575,0,0,90.0*
21,1,0.01575,0.03150,0,0,90.0*
1,1,0.01575,0.00787,0.00787*
1,1,0.01575,0.00787,-0.00787*
1,1,0.01575,-0.00787,-0.00787*
1,1,0.01575,-0.00787,0.00787*
%
%ADD23ROUNDEDRECTD23*%
%ADD24R,0.03150X0.03150*%
D18*
X280512Y175984D02*
D03*
Y166929D02*
D03*
X290748D02*
D03*
X290568Y175984D02*
D03*
X39173Y8661D02*
D03*
X96653D02*
D03*
D19*
X274606Y175984D02*
D03*
Y166929D02*
D03*
X296654D02*
D03*
X296473Y175984D02*
D03*
X33268Y8661D02*
D03*
X102559D02*
D03*
D20*
X186417Y101969D02*
D03*
X181299D02*
D03*
X93768Y163625D02*
D03*
X98886D02*
D03*
X98886Y154793D02*
D03*
X93768D02*
D03*
X106410D02*
D03*
X111528D02*
D03*
X111528Y163625D02*
D03*
X106410D02*
D03*
X119051Y154793D02*
D03*
X124169D02*
D03*
X124169Y163625D02*
D03*
X119051D02*
D03*
X131693Y154793D02*
D03*
X136811D02*
D03*
X136811Y163625D02*
D03*
X131693D02*
D03*
X38386Y18898D02*
D03*
X33268D02*
D03*
X102559D02*
D03*
X97441D02*
D03*
D21*
X75984Y161417D02*
D03*
Y145669D02*
D03*
Y61417D02*
D03*
Y45669D02*
D03*
Y79100D02*
D03*
Y94848D02*
D03*
Y112385D02*
D03*
Y128133D02*
D03*
D22*
X15748Y164370D02*
D03*
Y159252D02*
D03*
Y64584D02*
D03*
Y59466D02*
D03*
Y97654D02*
D03*
Y92536D02*
D03*
Y130922D02*
D03*
Y125804D02*
D03*
D23*
Y145473D02*
D03*
Y45866D02*
D03*
Y78937D02*
D03*
Y112205D02*
D03*
D24*
Y151378D02*
D03*
Y51772D02*
D03*
Y84842D02*
D03*
Y118110D02*
D03*
M02*
