G04*
G04 #@! TF.GenerationSoftware,Altium Limited,Altium Designer,20.1.8 (145)*
G04*
G04 Layer_Color=32896*
%FSLAX25Y25*%
%MOIN*%
G70*
G04*
G04 #@! TF.SameCoordinates,2B98FD46-9CAB-426A-9CBD-916E77886E0C*
G04*
G04*
G04 #@! TF.FilePolarity,Positive*
G04*
G01*
G75*
%ADD10C,0.00787*%
%ADD55C,0.01181*%
G36*
X215131Y111664D02*
X216058D01*
Y111560D01*
X216780D01*
Y111457D01*
X217295D01*
Y111354D01*
X217707D01*
Y111251D01*
X218120D01*
Y111148D01*
X218429D01*
Y111045D01*
X218738D01*
Y110942D01*
X219047D01*
Y110839D01*
X219357D01*
Y110736D01*
X219563D01*
Y110633D01*
X219872D01*
Y110530D01*
X220078D01*
Y110427D01*
X220284D01*
Y110324D01*
X220594D01*
Y110221D01*
X220800D01*
Y110118D01*
X221006D01*
Y110014D01*
X221212D01*
Y109911D01*
X221418D01*
Y109808D01*
X221521D01*
Y109705D01*
X221727D01*
Y109602D01*
X221933D01*
Y109499D01*
X222036D01*
Y109396D01*
X222243D01*
Y109293D01*
X222449D01*
Y109190D01*
X222552D01*
Y109087D01*
X222758D01*
Y108984D01*
X222861D01*
Y108881D01*
X222964D01*
Y108778D01*
X223170D01*
Y108675D01*
X223273D01*
Y108572D01*
X223479D01*
Y108468D01*
X223583D01*
Y108365D01*
X223686D01*
Y108262D01*
X223789D01*
Y108159D01*
X223995D01*
Y108056D01*
X224098D01*
Y107953D01*
X224201D01*
Y107850D01*
X224304D01*
Y107747D01*
X224407D01*
Y107644D01*
X224510D01*
Y107541D01*
X224613D01*
Y107438D01*
X224716D01*
Y107335D01*
X224819D01*
Y107232D01*
X224922D01*
Y107129D01*
X225025D01*
Y107026D01*
X225129D01*
Y106922D01*
X225232D01*
Y106819D01*
X225335D01*
Y106716D01*
X225438D01*
Y106613D01*
X225541D01*
Y106510D01*
X225644D01*
Y106407D01*
X225747D01*
Y106304D01*
X225850D01*
Y106201D01*
X225953D01*
Y106098D01*
X226056D01*
Y105995D01*
Y105892D01*
X226159D01*
Y105789D01*
X226262D01*
Y105686D01*
X226365D01*
Y105582D01*
X226468D01*
Y105479D01*
Y105376D01*
X226571D01*
Y105273D01*
X226675D01*
Y105170D01*
X226778D01*
Y105067D01*
Y104964D01*
X226881D01*
Y104861D01*
X226984D01*
Y104758D01*
Y104655D01*
X227087D01*
Y104552D01*
X227190D01*
Y104449D01*
Y104346D01*
X227293D01*
Y104243D01*
X227396D01*
Y104139D01*
Y104036D01*
X227499D01*
Y103933D01*
Y103830D01*
X227602D01*
Y103727D01*
Y103624D01*
X227705D01*
Y103521D01*
X227808D01*
Y103418D01*
Y103315D01*
X227911D01*
Y103212D01*
Y103109D01*
X228014D01*
Y103006D01*
Y102903D01*
X228117D01*
Y102800D01*
Y102697D01*
X228221D01*
Y102594D01*
Y102490D01*
X228324D01*
Y102387D01*
Y102284D01*
Y102181D01*
X228427D01*
Y102078D01*
Y101975D01*
X228530D01*
Y101872D01*
Y101769D01*
X228633D01*
Y101666D01*
Y101563D01*
Y101460D01*
X228736D01*
Y101357D01*
Y101254D01*
Y101151D01*
X228839D01*
Y101048D01*
Y100944D01*
Y100841D01*
X228942D01*
Y100738D01*
Y100635D01*
Y100532D01*
X229045D01*
Y100429D01*
Y100326D01*
Y100223D01*
X229148D01*
Y100120D01*
Y100017D01*
Y99914D01*
Y99811D01*
X229251D01*
Y99708D01*
Y99604D01*
Y99501D01*
Y99398D01*
X229354D01*
Y99295D01*
Y99192D01*
Y99089D01*
Y98986D01*
Y98883D01*
X229457D01*
Y98780D01*
Y98677D01*
Y98574D01*
Y98471D01*
Y98368D01*
Y98265D01*
X229560D01*
Y98162D01*
Y98058D01*
Y97955D01*
Y97852D01*
Y97749D01*
Y97646D01*
Y97543D01*
Y97440D01*
X229664D01*
Y97337D01*
Y97234D01*
Y97131D01*
Y97028D01*
Y96925D01*
Y96822D01*
Y96719D01*
Y96615D01*
Y96512D01*
Y96409D01*
Y96306D01*
Y96203D01*
Y96100D01*
Y95997D01*
Y95894D01*
Y95791D01*
Y95688D01*
Y95585D01*
Y95482D01*
Y95379D01*
Y95276D01*
Y95173D01*
Y95069D01*
Y94966D01*
Y94863D01*
Y94760D01*
Y94657D01*
Y94554D01*
Y94451D01*
Y94348D01*
Y94245D01*
Y94142D01*
X229560D01*
Y94039D01*
Y93936D01*
Y93833D01*
Y93730D01*
Y93626D01*
Y93523D01*
Y93420D01*
X229457D01*
Y93317D01*
Y93214D01*
Y93111D01*
Y93008D01*
Y92905D01*
Y92802D01*
X229354D01*
Y92699D01*
Y92596D01*
Y92493D01*
Y92390D01*
Y92287D01*
X229251D01*
Y92184D01*
Y92080D01*
Y91977D01*
Y91874D01*
X229148D01*
Y91771D01*
Y91668D01*
Y91565D01*
Y91462D01*
X229045D01*
Y91359D01*
Y91256D01*
Y91153D01*
X228942D01*
Y91050D01*
Y90947D01*
Y90844D01*
X228839D01*
Y90741D01*
Y90637D01*
Y90534D01*
X228736D01*
Y90431D01*
Y90328D01*
Y90225D01*
X228633D01*
Y90122D01*
Y90019D01*
Y89916D01*
X228530D01*
Y89813D01*
Y89710D01*
X228427D01*
Y89607D01*
Y89504D01*
X228324D01*
Y89401D01*
Y89298D01*
Y89195D01*
X228221D01*
Y89091D01*
Y88988D01*
X228117D01*
Y88885D01*
Y88782D01*
X228014D01*
Y88679D01*
Y88576D01*
X227911D01*
Y88473D01*
Y88370D01*
X227808D01*
Y88267D01*
Y88164D01*
X227705D01*
Y88061D01*
X227602D01*
Y87958D01*
Y87855D01*
X227499D01*
Y87752D01*
Y87648D01*
X227396D01*
Y87545D01*
X227293D01*
Y87442D01*
Y87339D01*
X227190D01*
Y87236D01*
Y87133D01*
X227087D01*
Y87030D01*
X226984D01*
Y86927D01*
Y86824D01*
X226881D01*
Y86721D01*
X226778D01*
Y86618D01*
X226675D01*
Y86515D01*
Y86412D01*
X226571D01*
Y86309D01*
X226468D01*
Y86206D01*
Y86102D01*
X226365D01*
Y85999D01*
X226262D01*
Y85896D01*
X226159D01*
Y85793D01*
X226056D01*
Y85690D01*
X225953D01*
Y85587D01*
Y85484D01*
X225850D01*
Y85381D01*
X225747D01*
Y85278D01*
X225644D01*
Y85175D01*
X225541D01*
Y85072D01*
X225438D01*
Y84969D01*
X225335D01*
Y84866D01*
X225232D01*
Y84763D01*
X225129D01*
Y84659D01*
X225025D01*
Y84556D01*
X224922D01*
Y84453D01*
X224819D01*
Y84350D01*
X224716D01*
Y84247D01*
X224613D01*
Y84144D01*
X224510D01*
Y84041D01*
X224407D01*
Y83938D01*
X224304D01*
Y83835D01*
X224201D01*
Y83732D01*
X223995D01*
Y83629D01*
X223892D01*
Y83526D01*
X223789D01*
Y83423D01*
X223686D01*
Y83320D01*
X223479D01*
Y83217D01*
X223376D01*
Y83113D01*
X223273D01*
Y83010D01*
X223067D01*
Y82907D01*
X222964D01*
Y82804D01*
X222758D01*
Y82701D01*
X222655D01*
Y82598D01*
X222449D01*
Y82495D01*
X222243D01*
Y82392D01*
X222140D01*
Y82289D01*
X221933D01*
Y82186D01*
X221727D01*
Y82083D01*
X221521D01*
Y81980D01*
X221418D01*
Y81877D01*
X221212D01*
Y81774D01*
X220903D01*
Y81670D01*
X220696D01*
Y81567D01*
X220490D01*
Y81464D01*
X220284D01*
Y81361D01*
X219975D01*
Y81258D01*
X219769D01*
Y81155D01*
X219460D01*
Y81052D01*
X219150D01*
Y80949D01*
X218841D01*
Y80846D01*
X218429D01*
Y80743D01*
X218120D01*
Y80640D01*
X217604D01*
Y80537D01*
X217192D01*
Y80434D01*
X216574D01*
Y80330D01*
X215749D01*
Y80228D01*
X212039D01*
Y80330D01*
X211214D01*
Y80434D01*
X210596D01*
Y80537D01*
X210080D01*
Y80640D01*
X209668D01*
Y80743D01*
X209256D01*
Y80846D01*
X208844D01*
Y80949D01*
X208534D01*
Y81052D01*
X208225D01*
Y81155D01*
X207916D01*
Y81258D01*
X207607D01*
Y81361D01*
X207297D01*
Y81464D01*
X207091D01*
Y81567D01*
X206782D01*
Y81670D01*
X206576D01*
Y81774D01*
X206267D01*
Y81877D01*
X206061D01*
Y81980D01*
X205855D01*
Y82083D01*
X205648D01*
Y82186D01*
X205442D01*
Y82289D01*
X205236D01*
Y82392D01*
X205030D01*
Y82495D01*
X204824D01*
Y82598D01*
X204618D01*
Y82701D01*
X204412D01*
Y82804D01*
X204205D01*
Y82907D01*
X204102D01*
Y83010D01*
X203896D01*
Y83113D01*
X203793D01*
Y83217D01*
X203690D01*
Y83320D01*
Y83423D01*
X203587D01*
Y83526D01*
X203484D01*
Y83629D01*
Y83732D01*
X203381D01*
Y83835D01*
Y83938D01*
Y84041D01*
X203278D01*
Y84144D01*
Y84247D01*
Y84350D01*
Y84453D01*
Y84556D01*
X203175D01*
Y84659D01*
Y84763D01*
Y84866D01*
Y84969D01*
Y85072D01*
Y85175D01*
Y85278D01*
Y85381D01*
Y85484D01*
Y85587D01*
Y85690D01*
Y85793D01*
Y85896D01*
Y85999D01*
Y86102D01*
Y86206D01*
Y86309D01*
Y86412D01*
Y86515D01*
Y86618D01*
Y86721D01*
Y86824D01*
Y86927D01*
Y87030D01*
Y87133D01*
Y87236D01*
Y87339D01*
Y87442D01*
Y87545D01*
Y87648D01*
Y87752D01*
Y87855D01*
Y87958D01*
Y88061D01*
Y88164D01*
Y88267D01*
Y88370D01*
Y88473D01*
Y88576D01*
Y88679D01*
Y88782D01*
Y88885D01*
Y88988D01*
Y89091D01*
Y89195D01*
Y89298D01*
Y89401D01*
Y89504D01*
Y89607D01*
Y89710D01*
Y89813D01*
Y89916D01*
Y90019D01*
Y90122D01*
Y90225D01*
Y90328D01*
Y90431D01*
Y90534D01*
Y90637D01*
Y90741D01*
Y90844D01*
Y90947D01*
Y91050D01*
Y91153D01*
Y91256D01*
Y91359D01*
Y91462D01*
Y91565D01*
Y91668D01*
Y91771D01*
Y91874D01*
Y91977D01*
Y92080D01*
Y92184D01*
Y92287D01*
Y92390D01*
Y92493D01*
Y92596D01*
Y92699D01*
Y92802D01*
Y92905D01*
Y93008D01*
Y93111D01*
Y93214D01*
Y93317D01*
Y93420D01*
Y93523D01*
Y93626D01*
Y93730D01*
Y93833D01*
Y93936D01*
Y94039D01*
Y94142D01*
Y94245D01*
Y94348D01*
Y94451D01*
Y94554D01*
Y94657D01*
Y94760D01*
X203278D01*
Y94863D01*
Y94966D01*
Y95069D01*
Y95173D01*
Y95276D01*
X203381D01*
Y95379D01*
Y95482D01*
Y95585D01*
X203484D01*
Y95688D01*
Y95791D01*
X203587D01*
Y95894D01*
X203690D01*
Y95997D01*
X203793D01*
Y96100D01*
Y96203D01*
X203999D01*
Y96306D01*
X204102D01*
Y96409D01*
X204205D01*
Y96512D01*
X204412D01*
Y96615D01*
X204721D01*
Y96719D01*
X205133D01*
Y96822D01*
X213069D01*
Y96719D01*
X213585D01*
Y96615D01*
X213791D01*
Y96512D01*
X213997D01*
Y96409D01*
X214100D01*
Y96306D01*
X214306D01*
Y96203D01*
X214409D01*
Y96100D01*
X214512D01*
Y95997D01*
X214616D01*
Y95894D01*
Y95791D01*
X214719D01*
Y95688D01*
Y95585D01*
X214822D01*
Y95482D01*
Y95379D01*
X214925D01*
Y95276D01*
Y95173D01*
Y95069D01*
Y94966D01*
X215028D01*
Y94863D01*
Y94760D01*
Y94657D01*
Y94554D01*
Y94451D01*
Y94348D01*
X214925D01*
Y94245D01*
Y94142D01*
Y94039D01*
Y93936D01*
X214822D01*
Y93833D01*
Y93730D01*
X214719D01*
Y93626D01*
Y93523D01*
X214616D01*
Y93420D01*
X214512D01*
Y93317D01*
X214409D01*
Y93214D01*
X214306D01*
Y93111D01*
X214203D01*
Y93008D01*
X214100D01*
Y92905D01*
X213894D01*
Y92802D01*
X213688D01*
Y92699D01*
X213482D01*
Y92596D01*
X207504D01*
Y92493D01*
X207401D01*
Y92390D01*
Y92287D01*
Y92184D01*
Y92080D01*
Y91977D01*
Y91874D01*
Y91771D01*
Y91668D01*
Y91565D01*
Y91462D01*
Y91359D01*
Y91256D01*
Y91153D01*
Y91050D01*
Y90947D01*
Y90844D01*
Y90741D01*
Y90637D01*
Y90534D01*
Y90431D01*
Y90328D01*
Y90225D01*
Y90122D01*
Y90019D01*
Y89916D01*
Y89813D01*
Y89710D01*
Y89607D01*
Y89504D01*
Y89401D01*
Y89298D01*
Y89195D01*
Y89091D01*
Y88988D01*
Y88885D01*
Y88782D01*
Y88679D01*
Y88576D01*
Y88473D01*
Y88370D01*
Y88267D01*
Y88164D01*
Y88061D01*
Y87958D01*
Y87855D01*
Y87752D01*
Y87648D01*
Y87545D01*
Y87442D01*
Y87339D01*
Y87236D01*
Y87133D01*
Y87030D01*
Y86927D01*
Y86824D01*
Y86721D01*
Y86618D01*
Y86515D01*
Y86412D01*
Y86309D01*
Y86206D01*
Y86102D01*
Y85999D01*
Y85896D01*
X207607D01*
Y85793D01*
X207813D01*
Y85690D01*
X208019D01*
Y85587D01*
X208328D01*
Y85484D01*
X208534D01*
Y85381D01*
X208844D01*
Y85278D01*
X209050D01*
Y85175D01*
X209359D01*
Y85072D01*
X209668D01*
Y84969D01*
X210080D01*
Y84866D01*
X210493D01*
Y84763D01*
X210905D01*
Y84659D01*
X211420D01*
Y84556D01*
X212142D01*
Y84453D01*
X213482D01*
Y84350D01*
X214306D01*
Y84453D01*
X215646D01*
Y84556D01*
X216368D01*
Y84659D01*
X216883D01*
Y84763D01*
X217295D01*
Y84866D01*
X217604D01*
Y84969D01*
X217914D01*
Y85072D01*
X218223D01*
Y85175D01*
X218532D01*
Y85278D01*
X218738D01*
Y85381D01*
X218944D01*
Y85484D01*
X219150D01*
Y85587D01*
X219357D01*
Y85690D01*
X219563D01*
Y85793D01*
X219769D01*
Y85896D01*
X219975D01*
Y85999D01*
X220181D01*
Y86102D01*
X220284D01*
Y86206D01*
X220490D01*
Y86309D01*
X220594D01*
Y86412D01*
X220800D01*
Y86515D01*
X220903D01*
Y86618D01*
X221006D01*
Y86721D01*
X221212D01*
Y86824D01*
X221315D01*
Y86927D01*
X221418D01*
Y87030D01*
X221521D01*
Y87133D01*
X221624D01*
Y87236D01*
X221727D01*
Y87339D01*
X221933D01*
Y87442D01*
X222036D01*
Y87545D01*
X222140D01*
Y87648D01*
X222243D01*
Y87752D01*
X222346D01*
Y87855D01*
X222449D01*
Y87958D01*
X222552D01*
Y88061D01*
Y88164D01*
X222655D01*
Y88267D01*
X222758D01*
Y88370D01*
X222861D01*
Y88473D01*
X222964D01*
Y88576D01*
X223067D01*
Y88679D01*
Y88782D01*
X223170D01*
Y88885D01*
X223273D01*
Y88988D01*
X223376D01*
Y89091D01*
Y89195D01*
X223479D01*
Y89298D01*
X223583D01*
Y89401D01*
Y89504D01*
X223686D01*
Y89607D01*
X223789D01*
Y89710D01*
Y89813D01*
X223892D01*
Y89916D01*
Y90019D01*
X223995D01*
Y90122D01*
X224098D01*
Y90225D01*
Y90328D01*
X224201D01*
Y90431D01*
Y90534D01*
X224304D01*
Y90637D01*
Y90741D01*
X224407D01*
Y90844D01*
Y90947D01*
X224510D01*
Y91050D01*
Y91153D01*
Y91256D01*
X224613D01*
Y91359D01*
Y91462D01*
X224716D01*
Y91565D01*
Y91668D01*
X224819D01*
Y91771D01*
Y91874D01*
Y91977D01*
X224922D01*
Y92080D01*
Y92184D01*
Y92287D01*
X225025D01*
Y92390D01*
Y92493D01*
Y92596D01*
Y92699D01*
X225129D01*
Y92802D01*
Y92905D01*
Y93008D01*
Y93111D01*
X225232D01*
Y93214D01*
Y93317D01*
Y93420D01*
Y93523D01*
X225335D01*
Y93626D01*
Y93730D01*
Y93833D01*
Y93936D01*
Y94039D01*
Y94142D01*
Y94245D01*
X225438D01*
Y94348D01*
Y94451D01*
Y94554D01*
Y94657D01*
Y94760D01*
Y94863D01*
Y94966D01*
Y95069D01*
Y95173D01*
Y95276D01*
Y95379D01*
Y95482D01*
Y95585D01*
Y95688D01*
X225541D01*
Y95791D01*
Y95894D01*
Y95997D01*
X225438D01*
Y96100D01*
Y96203D01*
Y96306D01*
Y96409D01*
Y96512D01*
Y96615D01*
Y96719D01*
Y96822D01*
Y96925D01*
Y97028D01*
Y97131D01*
Y97234D01*
Y97337D01*
Y97440D01*
X225335D01*
Y97543D01*
Y97646D01*
Y97749D01*
Y97852D01*
Y97955D01*
Y98058D01*
X225232D01*
Y98162D01*
Y98265D01*
Y98368D01*
Y98471D01*
Y98574D01*
X225129D01*
Y98677D01*
Y98780D01*
Y98883D01*
Y98986D01*
X225025D01*
Y99089D01*
Y99192D01*
Y99295D01*
Y99398D01*
X224922D01*
Y99501D01*
Y99604D01*
Y99708D01*
X224819D01*
Y99811D01*
Y99914D01*
X224716D01*
Y100017D01*
Y100120D01*
Y100223D01*
X224613D01*
Y100326D01*
Y100429D01*
X224510D01*
Y100532D01*
Y100635D01*
Y100738D01*
X224407D01*
Y100841D01*
Y100944D01*
X224304D01*
Y101048D01*
Y101151D01*
X224201D01*
Y101254D01*
Y101357D01*
X224098D01*
Y101460D01*
Y101563D01*
X223995D01*
Y101666D01*
X223892D01*
Y101769D01*
Y101872D01*
X223789D01*
Y101975D01*
Y102078D01*
X223686D01*
Y102181D01*
X223583D01*
Y102284D01*
Y102387D01*
X223479D01*
Y102490D01*
X223376D01*
Y102594D01*
Y102697D01*
X223273D01*
Y102800D01*
X223170D01*
Y102903D01*
X223067D01*
Y103006D01*
Y103109D01*
X222964D01*
Y103212D01*
X222861D01*
Y103315D01*
X222758D01*
Y103418D01*
X222655D01*
Y103521D01*
Y103624D01*
X222552D01*
Y103727D01*
X222449D01*
Y103830D01*
X222346D01*
Y103933D01*
X222243D01*
Y104036D01*
X222140D01*
Y104139D01*
X222036D01*
Y104243D01*
X221933D01*
Y104346D01*
X221830D01*
Y104449D01*
X221727D01*
Y104552D01*
X221624D01*
Y104655D01*
X221521D01*
Y104758D01*
X221315D01*
Y104861D01*
X221212D01*
Y104964D01*
X221109D01*
Y105067D01*
X221006D01*
Y105170D01*
X220800D01*
Y105273D01*
X220696D01*
Y105376D01*
X220594D01*
Y105479D01*
X220387D01*
Y105582D01*
X220284D01*
Y105686D01*
X220078D01*
Y105789D01*
X219975D01*
Y105892D01*
X219769D01*
Y105995D01*
X219563D01*
Y106098D01*
X219357D01*
Y106201D01*
X219254D01*
Y106304D01*
X219047D01*
Y106407D01*
X218841D01*
Y106510D01*
X218635D01*
Y106613D01*
X218326D01*
Y106716D01*
X218120D01*
Y106819D01*
X217811D01*
Y106922D01*
X217604D01*
Y107026D01*
X217295D01*
Y107129D01*
X216883D01*
Y107232D01*
X216471D01*
Y107335D01*
X215955D01*
Y107438D01*
X215028D01*
Y107541D01*
X213276D01*
Y107438D01*
X212451D01*
Y107335D01*
X211833D01*
Y107232D01*
X211317D01*
Y107129D01*
X210905D01*
Y107026D01*
X210596D01*
Y106922D01*
X210286D01*
Y106819D01*
X209977D01*
Y106716D01*
X209668D01*
Y106613D01*
X209359D01*
Y106510D01*
X209153D01*
Y106407D01*
X208844D01*
Y106304D01*
X208637D01*
Y106201D01*
X208431D01*
Y106098D01*
X208225D01*
Y105995D01*
X208019D01*
Y105892D01*
X207813D01*
Y105789D01*
X207607D01*
Y105686D01*
X207401D01*
Y105582D01*
X207194D01*
Y105479D01*
X206988D01*
Y105376D01*
X206782D01*
Y105273D01*
X206576D01*
Y105170D01*
X206473D01*
Y105067D01*
X206267D01*
Y104964D01*
X206061D01*
Y104861D01*
X205958D01*
Y104758D01*
X205751D01*
Y104655D01*
X205545D01*
Y104552D01*
X205339D01*
Y104449D01*
X205133D01*
Y104346D01*
X204515D01*
Y104243D01*
X204412D01*
Y104346D01*
X203896D01*
Y104449D01*
X203587D01*
Y104552D01*
X203381D01*
Y104655D01*
X203278D01*
Y104758D01*
X203072D01*
Y104861D01*
X202969D01*
Y104964D01*
X202866D01*
Y105067D01*
Y105170D01*
X202763D01*
Y105273D01*
X202659D01*
Y105376D01*
Y105479D01*
X202556D01*
Y105582D01*
Y105686D01*
X202453D01*
Y105789D01*
Y105892D01*
Y105995D01*
Y106098D01*
X202350D01*
Y106201D01*
Y106304D01*
Y106407D01*
Y106510D01*
Y106613D01*
X202453D01*
Y106716D01*
Y106819D01*
Y106922D01*
Y107026D01*
X202556D01*
Y107129D01*
Y107232D01*
Y107335D01*
X202659D01*
Y107438D01*
Y107541D01*
X202763D01*
Y107644D01*
X202866D01*
Y107747D01*
X202969D01*
Y107850D01*
X203072D01*
Y107953D01*
X203175D01*
Y108056D01*
X203278D01*
Y108159D01*
X203381D01*
Y108262D01*
X203587D01*
Y108365D01*
X203793D01*
Y108468D01*
X203896D01*
Y108572D01*
X204102D01*
Y108675D01*
X204309D01*
Y108778D01*
X204412D01*
Y108881D01*
X204618D01*
Y108984D01*
X204824D01*
Y109087D01*
X205030D01*
Y109190D01*
X205236D01*
Y109293D01*
X205442D01*
Y109396D01*
X205648D01*
Y109499D01*
X205855D01*
Y109602D01*
X206061D01*
Y109705D01*
X206267D01*
Y109808D01*
X206473D01*
Y109911D01*
X206679D01*
Y110014D01*
X206885D01*
Y110118D01*
X207091D01*
Y110221D01*
X207401D01*
Y110324D01*
X207607D01*
Y110427D01*
X207916D01*
Y110530D01*
X208122D01*
Y110633D01*
X208431D01*
Y110736D01*
X208740D01*
Y110839D01*
X209050D01*
Y110942D01*
X209359D01*
Y111045D01*
X209771D01*
Y111148D01*
X210080D01*
Y111251D01*
X210493D01*
Y111354D01*
X211008D01*
Y111457D01*
X211523D01*
Y111560D01*
X212142D01*
Y111664D01*
X213173D01*
Y111767D01*
X215131D01*
Y111664D01*
D02*
G37*
G36*
X172048Y111767D02*
X173079D01*
Y111664D01*
X173800D01*
Y111560D01*
X174315D01*
Y111457D01*
X174831D01*
Y111354D01*
X175243D01*
Y111251D01*
X175655D01*
Y111148D01*
X175964D01*
Y111045D01*
X176274D01*
Y110942D01*
X176583D01*
Y110839D01*
X176892D01*
Y110736D01*
X177201D01*
Y110633D01*
X177510D01*
Y110530D01*
X177717D01*
Y110427D01*
X178026D01*
Y110324D01*
X178232D01*
Y110221D01*
X178541D01*
Y110118D01*
X178747D01*
Y110014D01*
X178954D01*
Y109911D01*
X179160D01*
Y109808D01*
X179366D01*
Y109705D01*
X179572D01*
Y109602D01*
X179778D01*
Y109499D01*
X179984D01*
Y109396D01*
X180190D01*
Y109293D01*
X180396D01*
Y109190D01*
X180603D01*
Y109087D01*
X180706D01*
Y108984D01*
X180912D01*
Y108881D01*
X181118D01*
Y108778D01*
X181221D01*
Y108675D01*
X181427D01*
Y108572D01*
X181633D01*
Y108468D01*
X181736D01*
Y108365D01*
X181942D01*
Y108262D01*
X182046D01*
Y108159D01*
X182252D01*
Y108056D01*
X182355D01*
Y107953D01*
X182561D01*
Y107850D01*
X182664D01*
Y107747D01*
X182870D01*
Y107644D01*
X182973D01*
Y107541D01*
X183179D01*
Y107438D01*
X183282D01*
Y107335D01*
X183386D01*
Y107232D01*
X183592D01*
Y107129D01*
X183695D01*
Y107026D01*
X183798D01*
Y106922D01*
X184004D01*
Y106819D01*
X184107D01*
Y106716D01*
X184210D01*
Y106613D01*
X184416D01*
Y106510D01*
X184519D01*
Y106407D01*
X184622D01*
Y106304D01*
X184725D01*
Y106201D01*
X184932D01*
Y106098D01*
X185035D01*
Y105995D01*
X185138D01*
Y105892D01*
X185241D01*
Y105789D01*
X185447D01*
Y105686D01*
X185550D01*
Y105582D01*
X185653D01*
Y105479D01*
X185756D01*
Y105376D01*
X185859D01*
Y105273D01*
X185962D01*
Y105170D01*
X186168D01*
Y105067D01*
X186271D01*
Y104964D01*
X186374D01*
Y104861D01*
X186477D01*
Y104758D01*
X186581D01*
Y104655D01*
X186684D01*
Y104552D01*
X186787D01*
Y104449D01*
X186993D01*
Y104346D01*
X187096D01*
Y104243D01*
X187199D01*
Y104139D01*
X187302D01*
Y104036D01*
X187405D01*
Y103933D01*
X187508D01*
Y103830D01*
X187611D01*
Y103727D01*
X187714D01*
Y103624D01*
X187817D01*
Y103521D01*
X187920D01*
Y103418D01*
X188024D01*
Y103315D01*
X188230D01*
Y103212D01*
X188333D01*
Y103109D01*
X188436D01*
Y103006D01*
X188539D01*
Y102903D01*
X188642D01*
Y102800D01*
X188745D01*
Y102697D01*
X188848D01*
Y102594D01*
X188951D01*
Y102490D01*
X189054D01*
Y102387D01*
X189157D01*
Y102284D01*
X189260D01*
Y102181D01*
X189364D01*
Y102078D01*
X189467D01*
Y101975D01*
X189570D01*
Y101872D01*
X189673D01*
Y101769D01*
X189776D01*
Y101666D01*
X189879D01*
Y101563D01*
X189982D01*
Y101460D01*
X190085D01*
Y101357D01*
X190188D01*
Y101254D01*
X190291D01*
Y101151D01*
X190394D01*
Y101048D01*
X190497D01*
Y100944D01*
X190600D01*
Y100841D01*
X190703D01*
Y100738D01*
X190806D01*
Y100635D01*
X190910D01*
Y100532D01*
X191013D01*
Y100429D01*
X191116D01*
Y100326D01*
X191219D01*
Y100223D01*
X191322D01*
Y100120D01*
X191425D01*
Y100017D01*
X191528D01*
Y99914D01*
X191631D01*
Y99811D01*
X191734D01*
Y99708D01*
X191837D01*
Y99604D01*
X191940D01*
Y99501D01*
X192043D01*
Y99398D01*
X192146D01*
Y99295D01*
X192249D01*
Y99192D01*
X192352D01*
Y99089D01*
X192559D01*
Y99192D01*
X192662D01*
Y99295D01*
X192765D01*
Y99398D01*
X192868D01*
Y99501D01*
X192971D01*
Y99604D01*
X193074D01*
Y99708D01*
X193177D01*
Y99811D01*
X193280D01*
Y99914D01*
X193383D01*
Y100017D01*
X193486D01*
Y100120D01*
X193589D01*
Y100223D01*
X193692D01*
Y100326D01*
X193796D01*
Y100429D01*
X193898D01*
Y100532D01*
X194002D01*
Y100635D01*
X194208D01*
Y100738D01*
X194311D01*
Y100841D01*
X194414D01*
Y100944D01*
X194517D01*
Y101048D01*
X194620D01*
Y101151D01*
X194723D01*
Y101254D01*
X194826D01*
Y101357D01*
X194929D01*
Y101460D01*
X195032D01*
Y101563D01*
X195135D01*
Y101666D01*
X195238D01*
Y101769D01*
X195342D01*
Y101872D01*
X195548D01*
Y101975D01*
X195651D01*
Y102078D01*
X195754D01*
Y102181D01*
X195857D01*
Y102284D01*
X195960D01*
Y102387D01*
X196063D01*
Y102490D01*
X196166D01*
Y102594D01*
X196269D01*
Y102697D01*
X196372D01*
Y102800D01*
X196475D01*
Y102903D01*
X196681D01*
Y103006D01*
X196784D01*
Y103109D01*
X196888D01*
Y103212D01*
X196991D01*
Y103315D01*
X197094D01*
Y103418D01*
X197197D01*
Y103521D01*
X197300D01*
Y103624D01*
X197403D01*
Y103727D01*
X197609D01*
Y103830D01*
X197712D01*
Y103933D01*
X197815D01*
Y104036D01*
X197918D01*
Y104139D01*
X198021D01*
Y104243D01*
X198124D01*
Y104346D01*
X198227D01*
Y104449D01*
X198434D01*
Y104552D01*
X198537D01*
Y104655D01*
X198640D01*
Y104758D01*
X198743D01*
Y104861D01*
X198846D01*
Y104964D01*
X198949D01*
Y105067D01*
X199155D01*
Y105170D01*
X199258D01*
Y105273D01*
X199361D01*
Y105376D01*
X199464D01*
Y105479D01*
X199567D01*
Y105582D01*
X199774D01*
Y105686D01*
X199877D01*
Y105789D01*
X199980D01*
Y105892D01*
X200083D01*
Y105995D01*
X200289D01*
Y106098D01*
X200392D01*
Y106201D01*
X200495D01*
Y106304D01*
X200598D01*
Y106407D01*
X200804D01*
Y106510D01*
X200907D01*
Y106613D01*
X201010D01*
Y106716D01*
X201216D01*
Y106819D01*
X201320D01*
Y106922D01*
X201423D01*
Y107026D01*
X201629D01*
Y107129D01*
X201732D01*
Y107232D01*
X201835D01*
Y107335D01*
X202041D01*
Y107438D01*
X202144D01*
Y107541D01*
X202247D01*
Y107438D01*
Y107335D01*
X202144D01*
Y107232D01*
Y107129D01*
Y107026D01*
X202041D01*
Y106922D01*
Y106819D01*
Y106716D01*
Y106613D01*
Y106510D01*
Y106407D01*
Y106304D01*
Y106201D01*
Y106098D01*
Y105995D01*
Y105892D01*
Y105789D01*
X202144D01*
Y105686D01*
Y105582D01*
Y105479D01*
X202247D01*
Y105376D01*
Y105273D01*
X202350D01*
Y105170D01*
Y105067D01*
X202453D01*
Y104964D01*
Y104861D01*
X202556D01*
Y104758D01*
X202659D01*
Y104655D01*
X202763D01*
Y104552D01*
X202866D01*
Y104449D01*
X202969D01*
Y104346D01*
X203175D01*
Y104243D01*
X203381D01*
Y104139D01*
X203587D01*
Y104036D01*
X203896D01*
Y103933D01*
X204412D01*
Y103830D01*
X204309D01*
Y103727D01*
X204102D01*
Y103624D01*
X203999D01*
Y103521D01*
X203896D01*
Y103418D01*
X203690D01*
Y103315D01*
X203587D01*
Y103212D01*
X203484D01*
Y103109D01*
X203278D01*
Y103006D01*
X203175D01*
Y102903D01*
X203072D01*
Y102800D01*
X202969D01*
Y102697D01*
X202763D01*
Y102594D01*
X202659D01*
Y102490D01*
X202556D01*
Y102387D01*
X202453D01*
Y102284D01*
X202247D01*
Y102181D01*
X202144D01*
Y102078D01*
X202041D01*
Y101975D01*
X201938D01*
Y101872D01*
X201835D01*
Y101769D01*
X201732D01*
Y101666D01*
X201526D01*
Y101563D01*
X201423D01*
Y101460D01*
X201320D01*
Y101357D01*
X201216D01*
Y101254D01*
X201113D01*
Y101151D01*
X201010D01*
Y101048D01*
X200804D01*
Y100944D01*
X200701D01*
Y100841D01*
X200598D01*
Y100738D01*
X200495D01*
Y100635D01*
X200392D01*
Y100532D01*
X200289D01*
Y100429D01*
X200186D01*
Y100326D01*
X199980D01*
Y100223D01*
X199877D01*
Y100120D01*
X199774D01*
Y100017D01*
X199670D01*
Y99914D01*
X199567D01*
Y99811D01*
X199464D01*
Y99708D01*
X199361D01*
Y99604D01*
X199258D01*
Y99501D01*
X199052D01*
Y99398D01*
X198949D01*
Y99295D01*
X198846D01*
Y99192D01*
X198743D01*
Y99089D01*
X198640D01*
Y98986D01*
X198537D01*
Y98883D01*
X198434D01*
Y98780D01*
X198330D01*
Y98677D01*
X198227D01*
Y98574D01*
X198124D01*
Y98471D01*
X198021D01*
Y98368D01*
X197815D01*
Y98265D01*
X197712D01*
Y98162D01*
X197609D01*
Y98058D01*
X197506D01*
Y97955D01*
X197403D01*
Y97852D01*
X197300D01*
Y97749D01*
X197197D01*
Y97646D01*
X197094D01*
Y97543D01*
X196991D01*
Y97440D01*
X196888D01*
Y97337D01*
X196784D01*
Y97234D01*
X196681D01*
Y97131D01*
X196578D01*
Y97028D01*
X196372D01*
Y96925D01*
X196269D01*
Y96822D01*
X196166D01*
Y96719D01*
X196063D01*
Y96615D01*
X195960D01*
Y96512D01*
X195857D01*
Y96409D01*
X195754D01*
Y96306D01*
X195651D01*
Y96203D01*
X195548D01*
Y96100D01*
X195445D01*
Y95997D01*
Y95894D01*
Y95791D01*
X195548D01*
Y95688D01*
X195651D01*
Y95585D01*
X195754D01*
Y95482D01*
X195857D01*
Y95379D01*
X195960D01*
Y95276D01*
X196063D01*
Y95173D01*
X196166D01*
Y95069D01*
X196269D01*
Y94966D01*
X196372D01*
Y94863D01*
X196475D01*
Y94760D01*
X196578D01*
Y94657D01*
X196681D01*
Y94554D01*
X196784D01*
Y94451D01*
X196888D01*
Y94348D01*
X196991D01*
Y94245D01*
X197094D01*
Y94142D01*
X197197D01*
Y94039D01*
X197300D01*
Y93936D01*
X197403D01*
Y93833D01*
X197506D01*
Y93730D01*
X197609D01*
Y93626D01*
X197712D01*
Y93523D01*
X197815D01*
Y93420D01*
X197918D01*
Y93317D01*
X198021D01*
Y93214D01*
X198124D01*
Y93111D01*
X198227D01*
Y93008D01*
X198330D01*
Y92905D01*
X198434D01*
Y92802D01*
X198537D01*
Y92699D01*
X198640D01*
Y92596D01*
X198743D01*
Y92493D01*
X198846D01*
Y92390D01*
X198949D01*
Y92287D01*
X199052D01*
Y92184D01*
X199155D01*
Y92080D01*
X199258D01*
Y91977D01*
X199361D01*
Y91874D01*
X199464D01*
Y91771D01*
X199567D01*
Y91668D01*
X199670D01*
Y91565D01*
X199774D01*
Y91462D01*
X199877D01*
Y91359D01*
X199980D01*
Y91256D01*
X200083D01*
Y91153D01*
X200186D01*
Y91050D01*
X200289D01*
Y90947D01*
X200392D01*
Y90844D01*
X200598D01*
Y90741D01*
X200701D01*
Y90637D01*
X200804D01*
Y90534D01*
X200907D01*
Y90431D01*
X201010D01*
Y90328D01*
X201113D01*
Y90225D01*
X201216D01*
Y90122D01*
X201320D01*
Y90019D01*
X201423D01*
Y89916D01*
X201629D01*
Y89813D01*
X201732D01*
Y89710D01*
X201835D01*
Y89607D01*
X201938D01*
Y89504D01*
X202041D01*
Y89401D01*
X202144D01*
Y89298D01*
X202350D01*
Y89195D01*
X202453D01*
Y89091D01*
X202556D01*
Y88988D01*
X202659D01*
Y88885D01*
X202866D01*
Y88782D01*
Y88679D01*
Y88576D01*
Y88473D01*
Y88370D01*
Y88267D01*
Y88164D01*
Y88061D01*
Y87958D01*
Y87855D01*
Y87752D01*
Y87648D01*
Y87545D01*
Y87442D01*
Y87339D01*
Y87236D01*
Y87133D01*
Y87030D01*
Y86927D01*
Y86824D01*
Y86721D01*
Y86618D01*
Y86515D01*
Y86412D01*
Y86309D01*
Y86206D01*
Y86102D01*
Y85999D01*
Y85896D01*
Y85793D01*
Y85690D01*
Y85587D01*
Y85484D01*
Y85381D01*
Y85278D01*
Y85175D01*
Y85072D01*
Y84969D01*
Y84866D01*
Y84763D01*
Y84659D01*
Y84556D01*
Y84453D01*
Y84350D01*
Y84247D01*
Y84144D01*
Y84041D01*
X202969D01*
Y83938D01*
Y83835D01*
Y83732D01*
X203072D01*
Y83629D01*
Y83526D01*
X202969D01*
Y83629D01*
X202763D01*
Y83732D01*
X202556D01*
Y83835D01*
X202453D01*
Y83938D01*
X202247D01*
Y84041D01*
X202144D01*
Y84144D01*
X201938D01*
Y84247D01*
X201835D01*
Y84350D01*
X201629D01*
Y84453D01*
X201526D01*
Y84556D01*
X201320D01*
Y84659D01*
X201216D01*
Y84763D01*
X201113D01*
Y84866D01*
X200907D01*
Y84969D01*
X200804D01*
Y85072D01*
X200701D01*
Y85175D01*
X200495D01*
Y85278D01*
X200392D01*
Y85381D01*
X200289D01*
Y85484D01*
X200186D01*
Y85587D01*
X199980D01*
Y85690D01*
X199877D01*
Y85793D01*
X199774D01*
Y85896D01*
X199670D01*
Y85999D01*
X199464D01*
Y86102D01*
X199361D01*
Y86206D01*
X199258D01*
Y86309D01*
X199155D01*
Y86412D01*
X199052D01*
Y86515D01*
X198949D01*
Y86618D01*
X198743D01*
Y86721D01*
X198640D01*
Y86824D01*
X198537D01*
Y86927D01*
X198434D01*
Y87030D01*
X198330D01*
Y87133D01*
X198227D01*
Y87236D01*
X198124D01*
Y87339D01*
X198021D01*
Y87442D01*
X197815D01*
Y87545D01*
X197712D01*
Y87648D01*
X197609D01*
Y87752D01*
X197506D01*
Y87855D01*
X197403D01*
Y87958D01*
X197300D01*
Y88061D01*
X197197D01*
Y88164D01*
X197094D01*
Y88267D01*
X196991D01*
Y88370D01*
X196888D01*
Y88473D01*
X196784D01*
Y88576D01*
X196681D01*
Y88679D01*
X196578D01*
Y88782D01*
X196475D01*
Y88885D01*
X196269D01*
Y88988D01*
X196166D01*
Y89091D01*
X196063D01*
Y89195D01*
X195960D01*
Y89298D01*
X195857D01*
Y89401D01*
X195754D01*
Y89504D01*
X195651D01*
Y89607D01*
X195548D01*
Y89710D01*
X195445D01*
Y89813D01*
X195342D01*
Y89916D01*
X195238D01*
Y90019D01*
X195135D01*
Y90122D01*
X195032D01*
Y90225D01*
X194929D01*
Y90328D01*
X194826D01*
Y90431D01*
X194723D01*
Y90534D01*
X194620D01*
Y90637D01*
X194517D01*
Y90741D01*
X194414D01*
Y90844D01*
X194311D01*
Y90947D01*
X194208D01*
Y91050D01*
X194105D01*
Y91153D01*
X194002D01*
Y91256D01*
X193898D01*
Y91359D01*
X193796D01*
Y91462D01*
X193692D01*
Y91565D01*
Y91668D01*
X193589D01*
Y91771D01*
X193486D01*
Y91874D01*
X193383D01*
Y91977D01*
X193280D01*
Y92080D01*
X193177D01*
Y92184D01*
X193074D01*
Y92287D01*
X192971D01*
Y92390D01*
X192868D01*
Y92493D01*
X192765D01*
Y92596D01*
X192662D01*
Y92699D01*
X192559D01*
Y92802D01*
X192456D01*
Y92905D01*
X192352D01*
Y93008D01*
X192249D01*
Y92905D01*
X192146D01*
Y92802D01*
X192043D01*
Y92699D01*
X191837D01*
Y92596D01*
X191734D01*
Y92493D01*
X191631D01*
Y92390D01*
X191528D01*
Y92287D01*
X191425D01*
Y92184D01*
X191322D01*
Y92080D01*
X191219D01*
Y91977D01*
X191116D01*
Y91874D01*
X191013D01*
Y91771D01*
X190910D01*
Y91668D01*
X190806D01*
Y91565D01*
X190703D01*
Y91462D01*
X190600D01*
Y91359D01*
X190497D01*
Y91256D01*
X190394D01*
Y91153D01*
X190291D01*
Y91050D01*
X190188D01*
Y90947D01*
X190085D01*
Y90844D01*
X189982D01*
Y90741D01*
X189879D01*
Y90637D01*
X189776D01*
Y90534D01*
X189673D01*
Y90431D01*
X189570D01*
Y90328D01*
X189467D01*
Y90225D01*
X189364D01*
Y90122D01*
X189260D01*
Y90019D01*
X189157D01*
Y89916D01*
X188951D01*
Y89813D01*
X188848D01*
Y89710D01*
X188745D01*
Y89607D01*
X188642D01*
Y89504D01*
X188539D01*
Y89401D01*
X188436D01*
Y89298D01*
X188333D01*
Y89195D01*
X188230D01*
Y89091D01*
X188127D01*
Y88988D01*
X188024D01*
Y88885D01*
X187920D01*
Y88782D01*
X187817D01*
Y88679D01*
X187714D01*
Y88576D01*
X187611D01*
Y88473D01*
X187405D01*
Y88370D01*
X187302D01*
Y88267D01*
X187199D01*
Y88164D01*
X187096D01*
Y88061D01*
X186993D01*
Y87958D01*
X186787D01*
Y87855D01*
X186684D01*
Y87752D01*
X186581D01*
Y87648D01*
X186477D01*
Y87545D01*
X186374D01*
Y87442D01*
X186168D01*
Y87339D01*
X186065D01*
Y87236D01*
X185962D01*
Y87133D01*
X185859D01*
Y87030D01*
X185653D01*
Y86927D01*
X185550D01*
Y86824D01*
X185447D01*
Y86721D01*
X185344D01*
Y86618D01*
X185138D01*
Y86515D01*
X185035D01*
Y86412D01*
X184932D01*
Y86309D01*
X184725D01*
Y86206D01*
X184622D01*
Y86102D01*
X184519D01*
Y85999D01*
X184416D01*
Y85896D01*
X184210D01*
Y85793D01*
X184107D01*
Y85690D01*
X184004D01*
Y85587D01*
X183798D01*
Y85484D01*
X183695D01*
Y85381D01*
X183489D01*
Y85278D01*
X183386D01*
Y85175D01*
X183282D01*
Y85072D01*
X183076D01*
Y84969D01*
X182973D01*
Y84866D01*
X182767D01*
Y84763D01*
X182664D01*
Y84659D01*
X182458D01*
Y84556D01*
X182355D01*
Y84453D01*
X182149D01*
Y84350D01*
X182046D01*
Y84247D01*
X181839D01*
Y84144D01*
X181736D01*
Y84041D01*
X181530D01*
Y83938D01*
X181427D01*
Y83835D01*
X181221D01*
Y83732D01*
X181118D01*
Y83629D01*
X180912D01*
Y83526D01*
X180706D01*
Y83423D01*
X180603D01*
Y83320D01*
X180396D01*
Y83217D01*
X180190D01*
Y83113D01*
X179984D01*
Y83010D01*
X179881D01*
Y82907D01*
X179675D01*
Y82804D01*
X179469D01*
Y82701D01*
X179263D01*
Y82598D01*
X179057D01*
Y82495D01*
X178850D01*
Y82392D01*
X178644D01*
Y82289D01*
X178438D01*
Y82186D01*
X178232D01*
Y82083D01*
X178026D01*
Y81980D01*
X177717D01*
Y81877D01*
X177510D01*
Y81774D01*
X177304D01*
Y81670D01*
X176995D01*
Y81567D01*
X176789D01*
Y81464D01*
X176480D01*
Y81361D01*
X176171D01*
Y81258D01*
X175861D01*
Y81155D01*
X175552D01*
Y81052D01*
X175243D01*
Y80949D01*
X174934D01*
Y80846D01*
X174522D01*
Y80743D01*
X174109D01*
Y80640D01*
X173594D01*
Y80537D01*
X173079D01*
Y80434D01*
X172357D01*
Y80330D01*
X171017D01*
Y80228D01*
X169986D01*
Y80330D01*
X168750D01*
Y80434D01*
X168028D01*
Y80537D01*
X167513D01*
Y80640D01*
X166998D01*
Y80743D01*
X166585D01*
Y80846D01*
X166276D01*
Y80949D01*
X165967D01*
Y81052D01*
X165657D01*
Y81155D01*
X165348D01*
Y81258D01*
X165039D01*
Y81361D01*
X164833D01*
Y81464D01*
X164627D01*
Y81567D01*
X164318D01*
Y81670D01*
X164111D01*
Y81774D01*
X163905D01*
Y81877D01*
X163699D01*
Y81980D01*
X163493D01*
Y82083D01*
X163287D01*
Y82186D01*
X163081D01*
Y82289D01*
X162978D01*
Y82392D01*
X162772D01*
Y82495D01*
X162566D01*
Y82598D01*
X162462D01*
Y82701D01*
X162256D01*
Y82804D01*
X162153D01*
Y82907D01*
X161947D01*
Y83010D01*
X161844D01*
Y83113D01*
X161638D01*
Y83217D01*
X161535D01*
Y83320D01*
X161329D01*
Y83423D01*
X161226D01*
Y83526D01*
X161123D01*
Y83629D01*
X161019D01*
Y83732D01*
X160813D01*
Y83835D01*
X160710D01*
Y83938D01*
X160607D01*
Y84041D01*
X160504D01*
Y84144D01*
X160401D01*
Y84247D01*
X160195D01*
Y84350D01*
X160092D01*
Y84453D01*
X159989D01*
Y84556D01*
X159886D01*
Y84659D01*
X159783D01*
Y84763D01*
X159679D01*
Y84866D01*
X159576D01*
Y84969D01*
X159473D01*
Y85072D01*
X159370D01*
Y85175D01*
X159267D01*
Y85278D01*
X159164D01*
Y85381D01*
X159061D01*
Y85484D01*
X158958D01*
Y85587D01*
Y85690D01*
X158855D01*
Y85793D01*
X158752D01*
Y85896D01*
X158649D01*
Y85999D01*
X158546D01*
Y86102D01*
X158443D01*
Y86206D01*
Y86309D01*
X158340D01*
Y86412D01*
X158237D01*
Y86515D01*
X158133D01*
Y86618D01*
X158030D01*
Y86721D01*
Y86824D01*
X157927D01*
Y86927D01*
X157824D01*
Y87030D01*
Y87133D01*
X157721D01*
Y87236D01*
X157618D01*
Y87339D01*
Y87442D01*
X157515D01*
Y87545D01*
X157412D01*
Y87648D01*
Y87752D01*
X157309D01*
Y87855D01*
X157206D01*
Y87958D01*
Y88061D01*
X157103D01*
Y88164D01*
Y88267D01*
X157000D01*
Y88370D01*
X156897D01*
Y88473D01*
Y88576D01*
X156794D01*
Y88679D01*
Y88782D01*
X156691D01*
Y88885D01*
Y88988D01*
X156588D01*
Y89091D01*
Y89195D01*
X156484D01*
Y89298D01*
Y89401D01*
X156381D01*
Y89504D01*
Y89607D01*
X156278D01*
Y89710D01*
Y89813D01*
Y89916D01*
X156175D01*
Y90019D01*
Y90122D01*
X156072D01*
Y90225D01*
Y90328D01*
Y90431D01*
X155969D01*
Y90534D01*
Y90637D01*
Y90741D01*
X155866D01*
Y90844D01*
Y90947D01*
X155763D01*
Y91050D01*
Y91153D01*
Y91256D01*
X155660D01*
Y91359D01*
Y91462D01*
Y91565D01*
Y91668D01*
X155557D01*
Y91771D01*
Y91874D01*
Y91977D01*
X155454D01*
Y92080D01*
Y92184D01*
Y92287D01*
Y92390D01*
X155351D01*
Y92493D01*
Y92596D01*
Y92699D01*
Y92802D01*
X155247D01*
Y92905D01*
Y93008D01*
Y93111D01*
Y93214D01*
Y93317D01*
Y93420D01*
X155145D01*
Y93523D01*
Y93626D01*
Y93730D01*
Y93833D01*
Y93936D01*
Y94039D01*
X155041D01*
Y94142D01*
Y94245D01*
Y94348D01*
Y94451D01*
Y94554D01*
Y94657D01*
Y94760D01*
Y94863D01*
Y94966D01*
X154938D01*
Y95069D01*
Y95173D01*
Y95276D01*
Y95379D01*
Y95482D01*
Y95585D01*
Y95688D01*
Y95791D01*
Y95894D01*
Y95997D01*
Y96100D01*
Y96203D01*
Y96306D01*
Y96409D01*
Y96512D01*
Y96615D01*
Y96719D01*
Y96822D01*
Y96925D01*
Y97028D01*
Y97131D01*
Y97234D01*
Y97337D01*
Y97440D01*
X155041D01*
Y97543D01*
Y97646D01*
Y97749D01*
Y97852D01*
Y97955D01*
Y98058D01*
Y98162D01*
Y98265D01*
Y98368D01*
X155145D01*
Y98471D01*
Y98574D01*
Y98677D01*
Y98780D01*
Y98883D01*
Y98986D01*
X155247D01*
Y99089D01*
Y99192D01*
Y99295D01*
Y99398D01*
Y99501D01*
X155351D01*
Y99604D01*
Y99708D01*
Y99811D01*
Y99914D01*
Y100017D01*
X155454D01*
Y100120D01*
Y100223D01*
Y100326D01*
Y100429D01*
X155557D01*
Y100532D01*
Y100635D01*
Y100738D01*
X155660D01*
Y100841D01*
Y100944D01*
Y101048D01*
X155763D01*
Y101151D01*
Y101254D01*
Y101357D01*
X155866D01*
Y101460D01*
Y101563D01*
Y101666D01*
X155969D01*
Y101769D01*
Y101872D01*
Y101975D01*
X156072D01*
Y102078D01*
Y102181D01*
X156175D01*
Y102284D01*
Y102387D01*
Y102490D01*
X156278D01*
Y102594D01*
Y102697D01*
X156381D01*
Y102800D01*
Y102903D01*
X156484D01*
Y103006D01*
Y103109D01*
X156588D01*
Y103212D01*
Y103315D01*
Y103418D01*
X156691D01*
Y103521D01*
X156794D01*
Y103624D01*
Y103727D01*
X156897D01*
Y103830D01*
Y103933D01*
X157000D01*
Y104036D01*
Y104139D01*
X157103D01*
Y104243D01*
Y104346D01*
X157206D01*
Y104449D01*
X157309D01*
Y104552D01*
Y104655D01*
X157412D01*
Y104758D01*
X157515D01*
Y104861D01*
Y104964D01*
X157618D01*
Y105067D01*
Y105170D01*
X157721D01*
Y105273D01*
X157824D01*
Y105376D01*
X157927D01*
Y105479D01*
Y105582D01*
X158030D01*
Y105686D01*
X158133D01*
Y105789D01*
X158237D01*
Y105892D01*
Y105995D01*
X158340D01*
Y106098D01*
X158443D01*
Y106201D01*
X158546D01*
Y106304D01*
X158649D01*
Y106407D01*
Y106510D01*
X158752D01*
Y106613D01*
X158855D01*
Y106716D01*
X158958D01*
Y106819D01*
X159061D01*
Y106922D01*
X159164D01*
Y107026D01*
X159267D01*
Y107129D01*
X159370D01*
Y107232D01*
X159473D01*
Y107335D01*
X159576D01*
Y107438D01*
X159679D01*
Y107541D01*
X159783D01*
Y107644D01*
X159886D01*
Y107747D01*
X159989D01*
Y107850D01*
X160092D01*
Y107953D01*
X160195D01*
Y108056D01*
X160298D01*
Y108159D01*
X160401D01*
Y108262D01*
X160607D01*
Y108365D01*
X160710D01*
Y108468D01*
X160813D01*
Y108572D01*
X160916D01*
Y108675D01*
X161123D01*
Y108778D01*
X161226D01*
Y108881D01*
X161329D01*
Y108984D01*
X161535D01*
Y109087D01*
X161638D01*
Y109190D01*
X161844D01*
Y109293D01*
X161947D01*
Y109396D01*
X162153D01*
Y109499D01*
X162256D01*
Y109602D01*
X162462D01*
Y109705D01*
X162669D01*
Y109808D01*
X162772D01*
Y109911D01*
X162978D01*
Y110014D01*
X163184D01*
Y110118D01*
X163390D01*
Y110221D01*
X163596D01*
Y110324D01*
X163802D01*
Y110427D01*
X164008D01*
Y110530D01*
X164318D01*
Y110633D01*
X164524D01*
Y110736D01*
X164833D01*
Y110839D01*
X165039D01*
Y110942D01*
X165348D01*
Y111045D01*
X165657D01*
Y111148D01*
X165967D01*
Y111251D01*
X166379D01*
Y111354D01*
X166791D01*
Y111457D01*
X167204D01*
Y111560D01*
X167822D01*
Y111664D01*
X168440D01*
Y111767D01*
X169471D01*
Y111870D01*
X172048D01*
Y111767D01*
D02*
G37*
G36*
X177717Y77548D02*
X177614D01*
Y77445D01*
X177510D01*
Y77342D01*
Y77239D01*
X177407D01*
Y77135D01*
X177304D01*
Y77032D01*
Y76929D01*
X177201D01*
Y76826D01*
Y76723D01*
X177098D01*
Y76620D01*
X176995D01*
Y76517D01*
Y76414D01*
X176892D01*
Y76311D01*
Y76208D01*
X176789D01*
Y76105D01*
X176686D01*
Y76002D01*
Y75899D01*
X176583D01*
Y75796D01*
Y75692D01*
X176480D01*
Y75589D01*
X176377D01*
Y75486D01*
Y75383D01*
X176274D01*
Y75280D01*
X176171D01*
Y75177D01*
Y75074D01*
X176068D01*
Y74971D01*
Y74868D01*
X175964D01*
Y74765D01*
X175861D01*
Y74662D01*
Y74559D01*
X175758D01*
Y74456D01*
Y74353D01*
X175655D01*
Y74250D01*
X175552D01*
Y74146D01*
Y74043D01*
X175449D01*
Y73940D01*
Y73837D01*
X175346D01*
Y73734D01*
X175243D01*
Y73631D01*
Y73528D01*
Y73425D01*
Y73322D01*
Y73219D01*
Y73116D01*
Y73013D01*
Y72910D01*
Y72807D01*
Y72703D01*
Y72600D01*
Y72497D01*
Y72394D01*
Y72291D01*
Y72188D01*
Y72085D01*
Y71982D01*
Y71879D01*
Y71776D01*
Y71673D01*
Y71570D01*
X174728D01*
Y71673D01*
Y71776D01*
Y71879D01*
Y71982D01*
Y72085D01*
Y72188D01*
Y72291D01*
Y72394D01*
Y72497D01*
Y72600D01*
Y72703D01*
Y72807D01*
Y72910D01*
Y73013D01*
Y73116D01*
Y73219D01*
Y73322D01*
Y73425D01*
Y73528D01*
Y73631D01*
X174625D01*
Y73734D01*
Y73837D01*
X174522D01*
Y73940D01*
Y74043D01*
X174418D01*
Y74146D01*
X174315D01*
Y74250D01*
Y74353D01*
X174212D01*
Y74456D01*
Y74559D01*
X174109D01*
Y74662D01*
X174006D01*
Y74765D01*
Y74868D01*
X173903D01*
Y74971D01*
X173800D01*
Y75074D01*
Y75177D01*
X173697D01*
Y75280D01*
Y75383D01*
X173594D01*
Y75486D01*
X173491D01*
Y75589D01*
Y75692D01*
X173388D01*
Y75796D01*
Y75899D01*
X173285D01*
Y76002D01*
X173182D01*
Y76105D01*
Y76208D01*
X173079D01*
Y76311D01*
Y76414D01*
X172976D01*
Y76517D01*
X172872D01*
Y76620D01*
Y76723D01*
X172769D01*
Y76826D01*
X172666D01*
Y76929D01*
Y77032D01*
X172563D01*
Y77135D01*
Y77239D01*
X172460D01*
Y77342D01*
X172357D01*
Y77445D01*
Y77548D01*
X172254D01*
Y77651D01*
X172872D01*
Y77548D01*
Y77445D01*
X172976D01*
Y77342D01*
X173079D01*
Y77239D01*
Y77135D01*
X173182D01*
Y77032D01*
X173285D01*
Y76929D01*
Y76826D01*
X173388D01*
Y76723D01*
Y76620D01*
X173491D01*
Y76517D01*
X173594D01*
Y76414D01*
Y76311D01*
X173697D01*
Y76208D01*
Y76105D01*
X173800D01*
Y76002D01*
X173903D01*
Y75899D01*
Y75796D01*
X174006D01*
Y75692D01*
Y75589D01*
X174109D01*
Y75486D01*
X174212D01*
Y75383D01*
Y75280D01*
X174315D01*
Y75177D01*
Y75074D01*
X174418D01*
Y74971D01*
X174522D01*
Y74868D01*
Y74765D01*
X174625D01*
Y74662D01*
X174728D01*
Y74559D01*
Y74456D01*
X174831D01*
Y74353D01*
Y74250D01*
X175037D01*
Y74353D01*
Y74456D01*
X175140D01*
Y74559D01*
X175243D01*
Y74662D01*
Y74765D01*
X175346D01*
Y74868D01*
X175449D01*
Y74971D01*
Y75074D01*
X175552D01*
Y75177D01*
Y75280D01*
X175655D01*
Y75383D01*
X175758D01*
Y75486D01*
Y75589D01*
X175861D01*
Y75692D01*
Y75796D01*
X175964D01*
Y75899D01*
X176068D01*
Y76002D01*
Y76105D01*
X176171D01*
Y76208D01*
Y76311D01*
X176274D01*
Y76414D01*
X176377D01*
Y76517D01*
Y76620D01*
X176480D01*
Y76723D01*
X176583D01*
Y76826D01*
Y76929D01*
X176686D01*
Y77032D01*
Y77135D01*
X176789D01*
Y77239D01*
X176892D01*
Y77342D01*
Y77445D01*
X176995D01*
Y77548D01*
Y77651D01*
X177717D01*
Y77548D01*
D02*
G37*
G36*
X189364D02*
Y77445D01*
Y77342D01*
Y77239D01*
Y77135D01*
Y77032D01*
Y76929D01*
Y76826D01*
Y76723D01*
Y76620D01*
Y76517D01*
Y76414D01*
Y76311D01*
Y76208D01*
Y76105D01*
Y76002D01*
Y75899D01*
Y75796D01*
Y75692D01*
Y75589D01*
Y75486D01*
Y75383D01*
Y75280D01*
Y75177D01*
Y75074D01*
Y74971D01*
Y74868D01*
Y74765D01*
Y74662D01*
Y74559D01*
Y74456D01*
Y74353D01*
Y74250D01*
Y74146D01*
Y74043D01*
Y73940D01*
Y73837D01*
Y73734D01*
Y73631D01*
Y73528D01*
Y73425D01*
Y73322D01*
Y73219D01*
Y73116D01*
Y73013D01*
Y72910D01*
Y72807D01*
Y72703D01*
Y72600D01*
Y72497D01*
Y72394D01*
Y72291D01*
Y72188D01*
Y72085D01*
Y71982D01*
Y71879D01*
Y71776D01*
Y71673D01*
Y71570D01*
X188745D01*
Y71673D01*
Y71776D01*
Y71879D01*
Y71982D01*
Y72085D01*
Y72188D01*
Y72291D01*
Y72394D01*
Y72497D01*
Y72600D01*
Y72703D01*
Y72807D01*
Y72910D01*
Y73013D01*
Y73116D01*
Y73219D01*
Y73322D01*
Y73425D01*
Y73528D01*
Y73631D01*
Y73734D01*
Y73837D01*
Y73940D01*
Y74043D01*
Y74146D01*
Y74250D01*
Y74353D01*
Y74456D01*
Y74559D01*
Y74662D01*
Y74765D01*
Y74868D01*
Y74971D01*
Y75074D01*
Y75177D01*
Y75280D01*
Y75383D01*
Y75486D01*
Y75589D01*
Y75692D01*
Y75796D01*
Y75899D01*
Y76002D01*
Y76105D01*
Y76208D01*
Y76311D01*
Y76414D01*
Y76517D01*
X188642D01*
Y76414D01*
X188539D01*
Y76311D01*
Y76208D01*
X188436D01*
Y76105D01*
X188333D01*
Y76002D01*
X188230D01*
Y75899D01*
X188127D01*
Y75796D01*
Y75692D01*
X188024D01*
Y75589D01*
X187920D01*
Y75486D01*
X187817D01*
Y75383D01*
Y75280D01*
X187714D01*
Y75177D01*
X187611D01*
Y75074D01*
X187508D01*
Y74971D01*
X187405D01*
Y74868D01*
Y74765D01*
X187302D01*
Y74662D01*
X187199D01*
Y74559D01*
X187096D01*
Y74456D01*
X186993D01*
Y74353D01*
Y74250D01*
X186890D01*
Y74146D01*
X186787D01*
Y74043D01*
X186684D01*
Y73940D01*
X186581D01*
Y73837D01*
Y73734D01*
X186477D01*
Y73631D01*
X186374D01*
Y73528D01*
X186271D01*
Y73425D01*
X186168D01*
Y73322D01*
Y73219D01*
X186065D01*
Y73116D01*
X185962D01*
Y73013D01*
X185859D01*
Y72910D01*
Y72807D01*
X185756D01*
Y72703D01*
X185653D01*
Y72600D01*
X185550D01*
Y72497D01*
X185447D01*
Y72394D01*
Y72291D01*
X185344D01*
Y72188D01*
X185241D01*
Y72085D01*
X185138D01*
Y71982D01*
X185035D01*
Y71879D01*
Y71776D01*
X184932D01*
Y71673D01*
X184828D01*
Y71570D01*
X184313D01*
Y71673D01*
Y71776D01*
Y71879D01*
Y71982D01*
Y72085D01*
Y72188D01*
Y72291D01*
Y72394D01*
Y72497D01*
Y72600D01*
Y72703D01*
Y72807D01*
Y72910D01*
Y73013D01*
Y73116D01*
Y73219D01*
Y73322D01*
Y73425D01*
Y73528D01*
Y73631D01*
Y73734D01*
Y73837D01*
Y73940D01*
Y74043D01*
Y74146D01*
Y74250D01*
Y74353D01*
Y74456D01*
Y74559D01*
Y74662D01*
Y74765D01*
Y74868D01*
Y74971D01*
Y75074D01*
Y75177D01*
Y75280D01*
Y75383D01*
Y75486D01*
Y75589D01*
Y75692D01*
Y75796D01*
Y75899D01*
Y76002D01*
Y76105D01*
Y76208D01*
Y76311D01*
Y76414D01*
Y76517D01*
Y76620D01*
Y76723D01*
Y76826D01*
Y76929D01*
Y77032D01*
Y77135D01*
Y77239D01*
Y77342D01*
Y77445D01*
Y77548D01*
Y77651D01*
X184828D01*
Y77548D01*
Y77445D01*
Y77342D01*
Y77239D01*
Y77135D01*
Y77032D01*
Y76929D01*
Y76826D01*
Y76723D01*
Y76620D01*
Y76517D01*
Y76414D01*
Y76311D01*
Y76208D01*
Y76105D01*
Y76002D01*
Y75899D01*
Y75796D01*
Y75692D01*
Y75589D01*
Y75486D01*
Y75383D01*
Y75280D01*
Y75177D01*
Y75074D01*
Y74971D01*
Y74868D01*
Y74765D01*
Y74662D01*
Y74559D01*
Y74456D01*
Y74353D01*
Y74250D01*
Y74146D01*
Y74043D01*
Y73940D01*
Y73837D01*
Y73734D01*
Y73631D01*
Y73528D01*
Y73425D01*
Y73322D01*
Y73219D01*
Y73116D01*
Y73013D01*
Y72910D01*
Y72807D01*
X185035D01*
Y72910D01*
X185138D01*
Y73013D01*
X185241D01*
Y73116D01*
X185344D01*
Y73219D01*
Y73322D01*
X185447D01*
Y73425D01*
X185550D01*
Y73528D01*
X185653D01*
Y73631D01*
X185756D01*
Y73734D01*
Y73837D01*
X185859D01*
Y73940D01*
X185962D01*
Y74043D01*
X186065D01*
Y74146D01*
X186168D01*
Y74250D01*
Y74353D01*
X186271D01*
Y74456D01*
X186374D01*
Y74559D01*
X186477D01*
Y74662D01*
X186581D01*
Y74765D01*
Y74868D01*
X186684D01*
Y74971D01*
X186787D01*
Y75074D01*
X186890D01*
Y75177D01*
Y75280D01*
X186993D01*
Y75383D01*
X187096D01*
Y75486D01*
X187199D01*
Y75589D01*
X187302D01*
Y75692D01*
Y75796D01*
X187405D01*
Y75899D01*
X187508D01*
Y76002D01*
X187611D01*
Y76105D01*
X187714D01*
Y76208D01*
Y76311D01*
X187817D01*
Y76414D01*
X187920D01*
Y76517D01*
X188024D01*
Y76620D01*
X188127D01*
Y76723D01*
Y76826D01*
X188230D01*
Y76929D01*
X188333D01*
Y77032D01*
X188436D01*
Y77135D01*
X188539D01*
Y77239D01*
Y77342D01*
X188642D01*
Y77445D01*
X188745D01*
Y77548D01*
X188848D01*
Y77651D01*
X189364D01*
Y77548D01*
D02*
G37*
G36*
X199052D02*
Y77445D01*
Y77342D01*
Y77239D01*
Y77135D01*
Y77032D01*
Y76929D01*
Y76826D01*
Y76723D01*
Y76620D01*
Y76517D01*
Y76414D01*
Y76311D01*
Y76208D01*
Y76105D01*
Y76002D01*
Y75899D01*
Y75796D01*
Y75692D01*
Y75589D01*
Y75486D01*
Y75383D01*
Y75280D01*
Y75177D01*
Y75074D01*
Y74971D01*
Y74868D01*
Y74765D01*
Y74662D01*
Y74559D01*
Y74456D01*
Y74353D01*
Y74250D01*
Y74146D01*
Y74043D01*
Y73940D01*
Y73837D01*
Y73734D01*
Y73631D01*
Y73528D01*
Y73425D01*
Y73322D01*
Y73219D01*
Y73116D01*
Y73013D01*
Y72910D01*
Y72807D01*
Y72703D01*
Y72600D01*
Y72497D01*
Y72394D01*
Y72291D01*
Y72188D01*
Y72085D01*
Y71982D01*
Y71879D01*
Y71776D01*
Y71673D01*
Y71570D01*
X198537D01*
Y71673D01*
Y71776D01*
Y71879D01*
Y71982D01*
Y72085D01*
Y72188D01*
Y72291D01*
Y72394D01*
Y72497D01*
Y72600D01*
Y72703D01*
Y72807D01*
Y72910D01*
Y73013D01*
Y73116D01*
Y73219D01*
Y73322D01*
Y73425D01*
Y73528D01*
Y73631D01*
Y73734D01*
Y73837D01*
Y73940D01*
Y74043D01*
Y74146D01*
Y74250D01*
Y74353D01*
Y74456D01*
Y74559D01*
Y74662D01*
Y74765D01*
Y74868D01*
Y74971D01*
Y75074D01*
Y75177D01*
Y75280D01*
Y75383D01*
Y75486D01*
Y75589D01*
Y75692D01*
Y75796D01*
Y75899D01*
Y76002D01*
Y76105D01*
Y76208D01*
Y76311D01*
Y76414D01*
X198330D01*
Y76311D01*
X198227D01*
Y76208D01*
X198124D01*
Y76105D01*
Y76002D01*
X198021D01*
Y75899D01*
X197918D01*
Y75796D01*
X197815D01*
Y75692D01*
X197712D01*
Y75589D01*
Y75486D01*
X197609D01*
Y75383D01*
X197506D01*
Y75280D01*
X197403D01*
Y75177D01*
X197300D01*
Y75074D01*
Y74971D01*
X197197D01*
Y74868D01*
X197094D01*
Y74765D01*
X196991D01*
Y74662D01*
X196888D01*
Y74559D01*
Y74456D01*
X196784D01*
Y74353D01*
X196681D01*
Y74250D01*
X196578D01*
Y74146D01*
Y74043D01*
X196475D01*
Y73940D01*
X196372D01*
Y73837D01*
X196269D01*
Y73734D01*
X196166D01*
Y73631D01*
Y73528D01*
X196063D01*
Y73425D01*
X195960D01*
Y73322D01*
X195857D01*
Y73219D01*
X195754D01*
Y73116D01*
Y73013D01*
X195651D01*
Y72910D01*
X195548D01*
Y72807D01*
X195445D01*
Y72703D01*
X195342D01*
Y72600D01*
Y72497D01*
X195238D01*
Y72394D01*
X195135D01*
Y72291D01*
X195032D01*
Y72188D01*
X194929D01*
Y72085D01*
Y71982D01*
X194826D01*
Y71879D01*
X194723D01*
Y71776D01*
X194620D01*
Y71673D01*
X194517D01*
Y71570D01*
X194002D01*
Y71673D01*
Y71776D01*
Y71879D01*
Y71982D01*
Y72085D01*
Y72188D01*
Y72291D01*
Y72394D01*
Y72497D01*
Y72600D01*
Y72703D01*
Y72807D01*
Y72910D01*
Y73013D01*
Y73116D01*
Y73219D01*
Y73322D01*
Y73425D01*
Y73528D01*
Y73631D01*
Y73734D01*
Y73837D01*
Y73940D01*
Y74043D01*
Y74146D01*
Y74250D01*
Y74353D01*
Y74456D01*
Y74559D01*
Y74662D01*
Y74765D01*
Y74868D01*
Y74971D01*
Y75074D01*
Y75177D01*
Y75280D01*
Y75383D01*
Y75486D01*
Y75589D01*
Y75692D01*
Y75796D01*
Y75899D01*
Y76002D01*
Y76105D01*
Y76208D01*
Y76311D01*
Y76414D01*
Y76517D01*
Y76620D01*
Y76723D01*
Y76826D01*
Y76929D01*
Y77032D01*
Y77135D01*
Y77239D01*
Y77342D01*
Y77445D01*
Y77548D01*
Y77651D01*
X194620D01*
Y77548D01*
Y77445D01*
Y77342D01*
Y77239D01*
Y77135D01*
Y77032D01*
Y76929D01*
Y76826D01*
Y76723D01*
Y76620D01*
Y76517D01*
Y76414D01*
Y76311D01*
Y76208D01*
Y76105D01*
Y76002D01*
Y75899D01*
Y75796D01*
Y75692D01*
Y75589D01*
Y75486D01*
Y75383D01*
Y75280D01*
Y75177D01*
Y75074D01*
Y74971D01*
Y74868D01*
Y74765D01*
Y74662D01*
Y74559D01*
Y74456D01*
Y74353D01*
Y74250D01*
Y74146D01*
Y74043D01*
Y73940D01*
Y73837D01*
Y73734D01*
Y73631D01*
Y73528D01*
Y73425D01*
Y73322D01*
Y73219D01*
Y73116D01*
Y73013D01*
Y72910D01*
Y72807D01*
Y72703D01*
X194723D01*
Y72807D01*
X194826D01*
Y72910D01*
X194929D01*
Y73013D01*
Y73116D01*
X195032D01*
Y73219D01*
X195135D01*
Y73322D01*
X195238D01*
Y73425D01*
Y73528D01*
X195342D01*
Y73631D01*
X195445D01*
Y73734D01*
X195548D01*
Y73837D01*
X195651D01*
Y73940D01*
Y74043D01*
X195754D01*
Y74146D01*
X195857D01*
Y74250D01*
X195960D01*
Y74353D01*
X196063D01*
Y74456D01*
Y74559D01*
X196166D01*
Y74662D01*
X196269D01*
Y74765D01*
X196372D01*
Y74868D01*
X196475D01*
Y74971D01*
Y75074D01*
X196578D01*
Y75177D01*
X196681D01*
Y75280D01*
X196784D01*
Y75383D01*
X196888D01*
Y75486D01*
Y75589D01*
X196991D01*
Y75692D01*
X197094D01*
Y75796D01*
X197197D01*
Y75899D01*
X197300D01*
Y76002D01*
Y76105D01*
X197403D01*
Y76208D01*
X197506D01*
Y76311D01*
X197609D01*
Y76414D01*
X197712D01*
Y76517D01*
Y76620D01*
X197815D01*
Y76723D01*
X197918D01*
Y76826D01*
X198021D01*
Y76929D01*
Y77032D01*
X198124D01*
Y77135D01*
X198227D01*
Y77239D01*
X198330D01*
Y77342D01*
X198434D01*
Y77445D01*
Y77548D01*
X198537D01*
Y77651D01*
X199052D01*
Y77548D01*
D02*
G37*
G36*
X209771D02*
X210184D01*
Y77445D01*
X210390D01*
Y77342D01*
X210596D01*
Y77239D01*
X210802D01*
Y77135D01*
X211008D01*
Y77032D01*
X211111D01*
Y76929D01*
X211214D01*
Y76826D01*
X211317D01*
Y76723D01*
X211420D01*
Y76620D01*
X211523D01*
Y76517D01*
X211626D01*
Y76414D01*
Y76311D01*
X211730D01*
Y76208D01*
X211833D01*
Y76105D01*
Y76002D01*
X211936D01*
Y75899D01*
Y75796D01*
X212039D01*
Y75692D01*
Y75589D01*
Y75486D01*
X212142D01*
Y75383D01*
Y75280D01*
Y75177D01*
Y75074D01*
Y74971D01*
Y74868D01*
Y74765D01*
Y74662D01*
Y74559D01*
Y74456D01*
Y74353D01*
Y74250D01*
Y74146D01*
Y74043D01*
Y73940D01*
Y73837D01*
Y73734D01*
X212039D01*
Y73631D01*
Y73528D01*
Y73425D01*
X211936D01*
Y73322D01*
Y73219D01*
X211833D01*
Y73116D01*
Y73013D01*
X211730D01*
Y72910D01*
Y72807D01*
X211626D01*
Y72703D01*
X211523D01*
Y72600D01*
X211420D01*
Y72497D01*
X211317D01*
Y72394D01*
X211214D01*
Y72291D01*
X211111D01*
Y72188D01*
X211008D01*
Y72085D01*
X210802D01*
Y71982D01*
X210699D01*
Y71879D01*
X210493D01*
Y71776D01*
X210184D01*
Y71673D01*
X209874D01*
Y71570D01*
X208122D01*
Y71673D01*
X207710D01*
Y71776D01*
X207504D01*
Y71879D01*
X207297D01*
Y71982D01*
X207091D01*
Y72085D01*
X206988D01*
Y72188D01*
X206782D01*
Y72291D01*
Y72394D01*
Y72497D01*
Y72600D01*
Y72703D01*
Y72807D01*
Y72910D01*
Y73013D01*
Y73116D01*
Y73219D01*
Y73322D01*
Y73425D01*
Y73528D01*
Y73631D01*
Y73734D01*
Y73837D01*
Y73940D01*
Y74043D01*
Y74146D01*
Y74250D01*
Y74353D01*
Y74456D01*
Y74559D01*
X207297D01*
Y74456D01*
Y74353D01*
Y74250D01*
Y74146D01*
Y74043D01*
Y73940D01*
Y73837D01*
Y73734D01*
Y73631D01*
Y73528D01*
Y73425D01*
Y73322D01*
Y73219D01*
Y73116D01*
Y73013D01*
Y72910D01*
Y72807D01*
Y72703D01*
Y72600D01*
X207401D01*
Y72497D01*
X207504D01*
Y72394D01*
X207607D01*
Y72291D01*
X207916D01*
Y72188D01*
X208225D01*
Y72085D01*
X208844D01*
Y71982D01*
X209153D01*
Y72085D01*
X209771D01*
Y72188D01*
X210080D01*
Y72291D01*
X210286D01*
Y72394D01*
X210493D01*
Y72497D01*
X210596D01*
Y72600D01*
X210699D01*
Y72703D01*
X210802D01*
Y72807D01*
X210905D01*
Y72910D01*
X211008D01*
Y73013D01*
X211111D01*
Y73116D01*
X211214D01*
Y73219D01*
Y73322D01*
X211317D01*
Y73425D01*
X211420D01*
Y73528D01*
Y73631D01*
Y73734D01*
X211523D01*
Y73837D01*
Y73940D01*
Y74043D01*
X211626D01*
Y74146D01*
Y74250D01*
Y74353D01*
Y74456D01*
Y74559D01*
Y74662D01*
Y74765D01*
Y74868D01*
Y74971D01*
Y75074D01*
X211523D01*
Y75177D01*
Y75280D01*
Y75383D01*
Y75486D01*
X211420D01*
Y75589D01*
Y75692D01*
X211317D01*
Y75796D01*
Y75899D01*
X211214D01*
Y76002D01*
Y76105D01*
X211111D01*
Y76208D01*
X211008D01*
Y76311D01*
X210905D01*
Y76414D01*
X210802D01*
Y76517D01*
X210699D01*
Y76620D01*
X210596D01*
Y76723D01*
X210390D01*
Y76826D01*
X210286D01*
Y76929D01*
X209977D01*
Y77032D01*
X209668D01*
Y77135D01*
X208225D01*
Y77032D01*
X207916D01*
Y76929D01*
X207710D01*
Y76826D01*
X207504D01*
Y76723D01*
X207401D01*
Y76620D01*
X207297D01*
Y76517D01*
X206988D01*
Y76620D01*
X206885D01*
Y76723D01*
X206782D01*
Y76826D01*
Y76929D01*
X206885D01*
Y77032D01*
X206988D01*
Y77135D01*
X207194D01*
Y77239D01*
X207401D01*
Y77342D01*
X207607D01*
Y77445D01*
X207813D01*
Y77548D01*
X208225D01*
Y77651D01*
X209771D01*
Y77548D01*
D02*
G37*
G36*
X204927D02*
Y77445D01*
Y77342D01*
Y77239D01*
Y77135D01*
Y77032D01*
Y76929D01*
Y76826D01*
Y76723D01*
Y76620D01*
Y76517D01*
Y76414D01*
Y76311D01*
Y76208D01*
Y76105D01*
Y76002D01*
Y75899D01*
Y75796D01*
Y75692D01*
Y75589D01*
Y75486D01*
Y75383D01*
Y75280D01*
Y75177D01*
Y75074D01*
Y74971D01*
Y74868D01*
Y74765D01*
Y74662D01*
Y74559D01*
Y74456D01*
Y74353D01*
Y74250D01*
Y74146D01*
Y74043D01*
Y73940D01*
Y73837D01*
Y73734D01*
Y73631D01*
Y73528D01*
Y73425D01*
Y73322D01*
Y73219D01*
Y73116D01*
Y73013D01*
Y72910D01*
Y72807D01*
Y72703D01*
Y72600D01*
Y72497D01*
Y72394D01*
Y72291D01*
Y72188D01*
Y72085D01*
Y71982D01*
Y71879D01*
Y71776D01*
Y71673D01*
Y71570D01*
X200701D01*
Y71673D01*
Y71776D01*
Y71879D01*
Y71982D01*
Y72085D01*
X204309D01*
Y72188D01*
Y72291D01*
Y72394D01*
Y72497D01*
Y72600D01*
Y72703D01*
Y72807D01*
Y72910D01*
Y73013D01*
Y73116D01*
Y73219D01*
Y73322D01*
Y73425D01*
Y73528D01*
Y73631D01*
Y73734D01*
Y73837D01*
Y73940D01*
Y74043D01*
Y74146D01*
Y74250D01*
Y74353D01*
X204205D01*
Y74456D01*
X201216D01*
Y74559D01*
Y74662D01*
Y74765D01*
Y74868D01*
X204309D01*
Y74971D01*
Y75074D01*
Y75177D01*
Y75280D01*
Y75383D01*
Y75486D01*
Y75589D01*
Y75692D01*
Y75796D01*
Y75899D01*
Y76002D01*
Y76105D01*
Y76208D01*
Y76311D01*
Y76414D01*
Y76517D01*
Y76620D01*
Y76723D01*
Y76826D01*
Y76929D01*
Y77032D01*
Y77135D01*
X200804D01*
Y77239D01*
Y77342D01*
Y77445D01*
Y77548D01*
Y77651D01*
X204927D01*
Y77548D01*
D02*
G37*
G36*
X191940D02*
Y77445D01*
Y77342D01*
Y77239D01*
Y77135D01*
Y77032D01*
Y76929D01*
Y76826D01*
Y76723D01*
Y76620D01*
Y76517D01*
Y76414D01*
Y76311D01*
Y76208D01*
Y76105D01*
Y76002D01*
Y75899D01*
Y75796D01*
Y75692D01*
Y75589D01*
Y75486D01*
Y75383D01*
Y75280D01*
Y75177D01*
Y75074D01*
Y74971D01*
Y74868D01*
Y74765D01*
Y74662D01*
Y74559D01*
Y74456D01*
Y74353D01*
Y74250D01*
Y74146D01*
Y74043D01*
Y73940D01*
Y73837D01*
Y73734D01*
Y73631D01*
Y73528D01*
Y73425D01*
Y73322D01*
Y73219D01*
Y73116D01*
Y73013D01*
Y72910D01*
Y72807D01*
Y72703D01*
Y72600D01*
Y72497D01*
Y72394D01*
Y72291D01*
Y72188D01*
Y72085D01*
Y71982D01*
Y71879D01*
Y71776D01*
Y71673D01*
Y71570D01*
X191425D01*
Y71673D01*
Y71776D01*
Y71879D01*
Y71982D01*
Y72085D01*
Y72188D01*
Y72291D01*
Y72394D01*
Y72497D01*
Y72600D01*
Y72703D01*
Y72807D01*
Y72910D01*
Y73013D01*
Y73116D01*
Y73219D01*
Y73322D01*
Y73425D01*
Y73528D01*
Y73631D01*
Y73734D01*
Y73837D01*
Y73940D01*
Y74043D01*
Y74146D01*
Y74250D01*
Y74353D01*
Y74456D01*
Y74559D01*
Y74662D01*
Y74765D01*
Y74868D01*
Y74971D01*
Y75074D01*
Y75177D01*
Y75280D01*
Y75383D01*
Y75486D01*
Y75589D01*
Y75692D01*
Y75796D01*
Y75899D01*
Y76002D01*
Y76105D01*
Y76208D01*
Y76311D01*
Y76414D01*
Y76517D01*
Y76620D01*
Y76723D01*
Y76826D01*
Y76929D01*
Y77032D01*
Y77135D01*
Y77239D01*
Y77342D01*
Y77445D01*
Y77548D01*
Y77651D01*
X191940D01*
Y77548D01*
D02*
G37*
G36*
X182252D02*
Y77445D01*
Y77342D01*
Y77239D01*
Y77135D01*
Y77032D01*
Y76929D01*
Y76826D01*
Y76723D01*
Y76620D01*
Y76517D01*
Y76414D01*
Y76311D01*
Y76208D01*
Y76105D01*
Y76002D01*
Y75899D01*
Y75796D01*
Y75692D01*
Y75589D01*
Y75486D01*
Y75383D01*
Y75280D01*
Y75177D01*
Y75074D01*
Y74971D01*
Y74868D01*
Y74765D01*
Y74662D01*
Y74559D01*
Y74456D01*
Y74353D01*
Y74250D01*
Y74146D01*
Y74043D01*
Y73940D01*
Y73837D01*
Y73734D01*
Y73631D01*
Y73528D01*
Y73425D01*
Y73322D01*
Y73219D01*
Y73116D01*
Y73013D01*
Y72910D01*
Y72807D01*
Y72703D01*
Y72600D01*
Y72497D01*
Y72394D01*
Y72291D01*
Y72188D01*
Y72085D01*
Y71982D01*
Y71879D01*
Y71776D01*
Y71673D01*
Y71570D01*
X181633D01*
Y71673D01*
Y71776D01*
Y71879D01*
Y71982D01*
Y72085D01*
Y72188D01*
Y72291D01*
Y72394D01*
Y72497D01*
Y72600D01*
Y72703D01*
Y72807D01*
Y72910D01*
Y73013D01*
Y73116D01*
Y73219D01*
Y73322D01*
Y73425D01*
Y73528D01*
Y73631D01*
Y73734D01*
Y73837D01*
Y73940D01*
Y74043D01*
Y74146D01*
X178541D01*
Y74250D01*
Y74353D01*
Y74456D01*
Y74559D01*
Y74662D01*
X181633D01*
Y74765D01*
Y74868D01*
Y74971D01*
Y75074D01*
Y75177D01*
Y75280D01*
Y75383D01*
Y75486D01*
Y75589D01*
Y75692D01*
Y75796D01*
Y75899D01*
Y76002D01*
Y76105D01*
Y76208D01*
Y76311D01*
Y76414D01*
Y76517D01*
Y76620D01*
Y76723D01*
Y76826D01*
Y76929D01*
Y77032D01*
Y77135D01*
X178129D01*
Y77239D01*
Y77342D01*
Y77445D01*
Y77548D01*
Y77651D01*
X182252D01*
Y77548D01*
D02*
G37*
G36*
X68857Y34281D02*
X68849Y34222D01*
X68827Y34179D01*
X68813Y34142D01*
X68806Y34135D01*
X68762Y34099D01*
X68718Y34084D01*
X68682Y34077D01*
X68667D01*
X68616Y34084D01*
X68572Y34106D01*
X68543Y34120D01*
X68536Y34128D01*
X68499Y34171D01*
X68478Y34222D01*
X68463Y34259D01*
Y34266D01*
Y34273D01*
X68434Y34470D01*
X68412Y34580D01*
X68383Y34682D01*
X68354Y34769D01*
X68317Y34849D01*
X68288Y34908D01*
X68266Y34959D01*
X68252Y34988D01*
X68244Y34995D01*
X68171Y35090D01*
X68091Y35163D01*
X68055Y35185D01*
X68026Y35207D01*
X68011Y35214D01*
X68004Y35221D01*
Y35615D01*
X68857D01*
Y34281D01*
D02*
G37*
G36*
X66028Y35221D02*
X65933Y35148D01*
X65853Y35075D01*
X65831Y35046D01*
X65810Y35017D01*
X65802Y35002D01*
X65795Y34995D01*
X65744Y34908D01*
X65707Y34820D01*
X65671Y34733D01*
X65649Y34653D01*
X65627Y34580D01*
X65613Y34521D01*
X65605Y34485D01*
Y34470D01*
X65576Y34273D01*
X65562Y34208D01*
X65540Y34164D01*
X65518Y34135D01*
X65511Y34128D01*
X65467Y34099D01*
X65416Y34084D01*
X65387Y34077D01*
X65372D01*
X65314Y34084D01*
X65270Y34106D01*
X65241Y34128D01*
X65233Y34135D01*
X65197Y34186D01*
X65183Y34230D01*
X65175Y34266D01*
Y34281D01*
Y35615D01*
X66028D01*
Y35221D01*
D02*
G37*
G36*
X80790Y35688D02*
X80834Y35659D01*
X80871Y35629D01*
X80878Y35622D01*
Y35615D01*
X80907Y35578D01*
X80936Y35542D01*
X80965Y35506D01*
X80987Y35484D01*
X80994Y35476D01*
X81016Y35462D01*
X81046Y35454D01*
X81075D01*
X81118Y35462D01*
X81169Y35476D01*
X81213Y35491D01*
X81221Y35498D01*
X81228D01*
X81366Y35549D01*
X81505Y35593D01*
X81651Y35622D01*
X81789Y35651D01*
X81913Y35673D01*
X81964Y35680D01*
X82008Y35688D01*
X82044D01*
X82073Y35695D01*
X82095D01*
Y35345D01*
X82008Y35338D01*
X81928Y35323D01*
X81862Y35309D01*
X81804Y35294D01*
X81753Y35280D01*
X81716Y35265D01*
X81694Y35258D01*
X81687Y35250D01*
X81629Y35221D01*
X81570Y35185D01*
X81519Y35148D01*
X81476Y35105D01*
X81439Y35075D01*
X81410Y35046D01*
X81396Y35024D01*
X81388Y35017D01*
X81344Y34959D01*
X81301Y34901D01*
X81221Y34769D01*
X81191Y34718D01*
X81169Y34675D01*
X81155Y34645D01*
X81148Y34631D01*
X81104Y34543D01*
X81060Y34463D01*
X81031Y34390D01*
X81009Y34332D01*
X80987Y34281D01*
X80973Y34237D01*
X80965Y34215D01*
Y34208D01*
X80951Y34157D01*
X80936Y34120D01*
X80922Y34084D01*
X80914Y34062D01*
X80892Y34026D01*
X80885Y34018D01*
X80841Y33996D01*
X80798Y33982D01*
X80761Y33975D01*
X80747D01*
X80688Y33982D01*
X80645Y34011D01*
X80608Y34055D01*
X80586Y34099D01*
X80572Y34142D01*
X80564Y34186D01*
Y34215D01*
Y34222D01*
Y35484D01*
X80572Y35557D01*
X80586Y35615D01*
X80601Y35644D01*
X80608Y35651D01*
X80645Y35680D01*
X80681Y35695D01*
X80717Y35702D01*
X80761D01*
X80790Y35688D01*
D02*
G37*
G36*
X55210Y34478D02*
X55297Y34456D01*
X55370Y34427D01*
X55436Y34390D01*
X55487Y34354D01*
X55523Y34324D01*
X55552Y34303D01*
X55560Y34295D01*
X55618Y34222D01*
X55662Y34150D01*
X55698Y34077D01*
X55720Y34004D01*
X55735Y33946D01*
X55742Y33894D01*
Y33865D01*
Y33851D01*
X55735Y33756D01*
X55713Y33668D01*
X55684Y33595D01*
X55647Y33530D01*
X55618Y33479D01*
X55589Y33443D01*
X55567Y33413D01*
X55560Y33406D01*
X55487Y33348D01*
X55414Y33304D01*
X55341Y33268D01*
X55268Y33246D01*
X55210Y33231D01*
X55159Y33224D01*
X55115D01*
X55020Y33231D01*
X54933Y33253D01*
X54860Y33282D01*
X54794Y33318D01*
X54743Y33348D01*
X54699Y33377D01*
X54678Y33399D01*
X54670Y33406D01*
X54605Y33479D01*
X54561Y33552D01*
X54524Y33625D01*
X54503Y33698D01*
X54488Y33756D01*
X54481Y33807D01*
Y33836D01*
Y33851D01*
X54488Y33946D01*
X54510Y34033D01*
X54539Y34106D01*
X54576Y34171D01*
X54612Y34222D01*
X54641Y34266D01*
X54663Y34288D01*
X54670Y34295D01*
X54743Y34361D01*
X54816Y34405D01*
X54889Y34441D01*
X54962Y34463D01*
X55020Y34478D01*
X55071Y34485D01*
X55115D01*
X55210Y34478D01*
D02*
G37*
G36*
X74404Y35608D02*
X74463Y35593D01*
X74492Y35578D01*
X74506Y35571D01*
X74536Y35535D01*
X74550Y35491D01*
X74557Y35454D01*
Y35447D01*
Y35440D01*
X74550Y35403D01*
X74543Y35374D01*
X74536Y35352D01*
Y35345D01*
X74506Y35323D01*
X74477Y35301D01*
X74448Y35287D01*
X74441Y35280D01*
X74368Y35236D01*
X74310Y35192D01*
X74259Y35148D01*
X74222Y35112D01*
X74193Y35075D01*
X74171Y35046D01*
X74156Y35032D01*
Y35024D01*
X74127Y34966D01*
X74113Y34901D01*
X74084Y34762D01*
Y34704D01*
X74076Y34653D01*
Y34623D01*
Y34609D01*
Y33712D01*
X73734Y33136D01*
Y34609D01*
Y34689D01*
X73726Y34762D01*
X73712Y34828D01*
X73704Y34879D01*
X73690Y34922D01*
X73683Y34951D01*
X73675Y34966D01*
Y34973D01*
X73639Y35039D01*
X73595Y35090D01*
X73551Y35141D01*
X73508Y35177D01*
X73471Y35207D01*
X73442Y35228D01*
X73420Y35236D01*
X73413Y35243D01*
X73377Y35265D01*
X73340Y35280D01*
X73296Y35309D01*
X73274Y35323D01*
X73267Y35331D01*
X73245Y35360D01*
X73238Y35396D01*
X73231Y35425D01*
Y35433D01*
X73238Y35484D01*
X73260Y35520D01*
X73282Y35549D01*
X73289Y35557D01*
X73311Y35578D01*
X73347Y35593D01*
X73420Y35608D01*
X73449Y35615D01*
X74317D01*
X74404Y35608D01*
D02*
G37*
G36*
X36241D02*
X36299Y35593D01*
X36329Y35578D01*
X36343Y35571D01*
X36372Y35535D01*
X36387Y35491D01*
X36394Y35454D01*
Y35447D01*
Y35440D01*
X36387Y35403D01*
X36380Y35374D01*
X36372Y35352D01*
Y35345D01*
X36343Y35323D01*
X36314Y35301D01*
X36285Y35287D01*
X36278Y35280D01*
X36205Y35236D01*
X36146Y35192D01*
X36095Y35148D01*
X36059Y35112D01*
X36030Y35075D01*
X36008Y35046D01*
X35993Y35032D01*
Y35024D01*
X35964Y34966D01*
X35950Y34901D01*
X35920Y34762D01*
Y34704D01*
X35913Y34653D01*
Y34623D01*
Y34609D01*
Y33712D01*
X35570Y33136D01*
Y34609D01*
Y34689D01*
X35563Y34762D01*
X35549Y34828D01*
X35541Y34879D01*
X35527Y34922D01*
X35519Y34951D01*
X35512Y34966D01*
Y34973D01*
X35476Y35039D01*
X35432Y35090D01*
X35388Y35141D01*
X35344Y35177D01*
X35308Y35207D01*
X35279Y35228D01*
X35257Y35236D01*
X35250Y35243D01*
X35213Y35265D01*
X35177Y35280D01*
X35133Y35309D01*
X35111Y35323D01*
X35104Y35331D01*
X35082Y35360D01*
X35075Y35396D01*
X35067Y35425D01*
Y35433D01*
X35075Y35484D01*
X35097Y35520D01*
X35118Y35549D01*
X35126Y35557D01*
X35148Y35578D01*
X35184Y35593D01*
X35257Y35608D01*
X35286Y35615D01*
X36154D01*
X36241Y35608D01*
D02*
G37*
G36*
X50078Y35258D02*
X49968Y35228D01*
X49924Y35214D01*
X49888Y35192D01*
X49859Y35177D01*
X49837Y35163D01*
X49830Y35156D01*
X49823Y35148D01*
X49779Y35097D01*
X49757Y35054D01*
X49742Y35024D01*
X49735Y35010D01*
X49728Y34981D01*
X49720Y34944D01*
X49706Y34871D01*
Y34835D01*
Y34806D01*
Y34791D01*
Y34784D01*
Y33749D01*
Y33668D01*
X49720Y33603D01*
X49728Y33544D01*
X49742Y33494D01*
X49757Y33457D01*
X49764Y33428D01*
X49779Y33413D01*
Y33406D01*
X49815Y33355D01*
X49844Y33326D01*
X49874Y33304D01*
X49881Y33297D01*
X49903Y33282D01*
X49932Y33275D01*
X49997Y33253D01*
X50027Y33246D01*
X50049Y33238D01*
X50063Y33231D01*
X50070D01*
Y32881D01*
X49852Y32888D01*
X49662Y32903D01*
X49502Y32918D01*
X49371Y32939D01*
X49312Y32954D01*
X49268Y32961D01*
X49225Y32969D01*
X49188Y32983D01*
X49166Y32991D01*
X49145D01*
X49130Y32998D01*
X48991Y33063D01*
X48867Y33136D01*
X48765Y33217D01*
X48678Y33289D01*
X48605Y33355D01*
X48554Y33413D01*
X48525Y33450D01*
X48518Y33464D01*
X48445Y33588D01*
X48386Y33727D01*
X48350Y33865D01*
X48321Y33996D01*
X48306Y34106D01*
X48299Y34157D01*
X48292Y34201D01*
Y34230D01*
Y34259D01*
Y34273D01*
Y34281D01*
X48299Y34441D01*
X48328Y34587D01*
X48357Y34718D01*
X48401Y34828D01*
X48437Y34915D01*
X48474Y34988D01*
X48503Y35024D01*
X48510Y35039D01*
X48598Y35141D01*
X48693Y35236D01*
X48787Y35309D01*
X48882Y35374D01*
X48970Y35425D01*
X49035Y35454D01*
X49079Y35476D01*
X49086Y35484D01*
X49093D01*
X49159Y35506D01*
X49225Y35527D01*
X49378Y35557D01*
X49545Y35586D01*
X49706Y35600D01*
X49852Y35608D01*
X49910D01*
X49968Y35615D01*
X50078D01*
Y35258D01*
D02*
G37*
G36*
X28018Y35608D02*
X28084Y35593D01*
X28120Y35571D01*
X28135Y35564D01*
X28171Y35527D01*
X28193Y35484D01*
X28200Y35447D01*
Y35440D01*
Y35433D01*
X28193Y35389D01*
X28179Y35352D01*
X28135Y35301D01*
X28098Y35272D01*
X28084Y35265D01*
X28076D01*
X27967Y35228D01*
X27931Y35214D01*
X27894Y35192D01*
X27843Y35141D01*
X27814Y35097D01*
X27807Y35083D01*
Y35075D01*
X27785Y35017D01*
X27777Y34966D01*
X27770Y34930D01*
Y34915D01*
X27777Y34901D01*
Y34879D01*
X27792Y34828D01*
X27807Y34784D01*
X27814Y34769D01*
Y34762D01*
X28186Y33391D01*
X28011Y32786D01*
X27493Y34682D01*
X27442Y34813D01*
X27420Y34864D01*
X27391Y34915D01*
X27377Y34951D01*
X27355Y34988D01*
X27347Y35002D01*
X27340Y35010D01*
X27304Y35061D01*
X27267Y35105D01*
X27238Y35134D01*
X27209Y35163D01*
X27158Y35192D01*
X27151Y35199D01*
X27143D01*
X26976Y35280D01*
X26932Y35301D01*
X26910Y35323D01*
X26895Y35338D01*
X26888Y35345D01*
X26874Y35374D01*
X26859Y35403D01*
Y35433D01*
Y35440D01*
Y35476D01*
X26874Y35506D01*
X26895Y35549D01*
X26925Y35578D01*
X26932Y35586D01*
X26939D01*
X26961Y35593D01*
X26990Y35600D01*
X27056Y35615D01*
X27931D01*
X28018Y35608D01*
D02*
G37*
G36*
X89305Y35250D02*
X89232Y35228D01*
X89167Y35199D01*
X89123Y35177D01*
X89079Y35148D01*
X89050Y35126D01*
X89028Y35105D01*
X89013Y35097D01*
Y35090D01*
X88984Y35054D01*
X88970Y35002D01*
X88941Y34908D01*
Y34864D01*
X88933Y34828D01*
Y34798D01*
Y34791D01*
Y33931D01*
X88941Y33836D01*
X88948Y33763D01*
X88955Y33720D01*
X88963Y33712D01*
Y33705D01*
X88984Y33654D01*
X89013Y33610D01*
X89043Y33581D01*
X89050Y33574D01*
X89079Y33552D01*
X89116Y33530D01*
X89196Y33508D01*
X89232Y33494D01*
X89261D01*
X89283Y33486D01*
X89290D01*
Y33136D01*
X89232Y33122D01*
X89181Y33107D01*
X89130Y33085D01*
X89094Y33063D01*
X89065Y33042D01*
X89043Y33020D01*
X89035Y33012D01*
X89028Y33005D01*
X88984Y32932D01*
X88955Y32859D01*
X88948Y32823D01*
X88941Y32801D01*
Y32786D01*
Y32779D01*
Y32765D01*
X88933Y32735D01*
Y32662D01*
Y32626D01*
Y32597D01*
Y32575D01*
Y32568D01*
Y32028D01*
X88926Y31875D01*
X88897Y31737D01*
X88860Y31620D01*
X88809Y31525D01*
X88766Y31445D01*
X88729Y31387D01*
X88700Y31357D01*
X88693Y31343D01*
X88598Y31263D01*
X88489Y31204D01*
X88379Y31161D01*
X88270Y31132D01*
X88175Y31117D01*
X88102Y31110D01*
X88073Y31102D01*
X87949D01*
X87884Y31110D01*
X87818Y31117D01*
X87767Y31124D01*
X87723Y31132D01*
X87694Y31139D01*
X87672Y31146D01*
X87665D01*
X87548Y31190D01*
X87497Y31212D01*
X87454Y31241D01*
X87417Y31263D01*
X87388Y31285D01*
X87373Y31292D01*
X87366Y31299D01*
X87271Y31387D01*
X87198Y31467D01*
X87169Y31503D01*
X87147Y31532D01*
X87140Y31547D01*
X87133Y31554D01*
X87096Y31605D01*
X87074Y31656D01*
X87045Y31737D01*
X87038Y31766D01*
X87031Y31788D01*
Y31795D01*
Y31802D01*
X87038Y31846D01*
X87060Y31882D01*
X87082Y31912D01*
X87089Y31919D01*
X87133Y31955D01*
X87162Y31970D01*
X87191Y31977D01*
X87198D01*
X87227Y31970D01*
X87264Y31963D01*
X87315Y31926D01*
X87351Y31882D01*
X87359Y31875D01*
X87366Y31868D01*
X87388Y31839D01*
X87410Y31824D01*
X87417Y31809D01*
X87424D01*
X87446Y31802D01*
X87461D01*
X87483Y31809D01*
X87497Y31817D01*
X87519Y31853D01*
X87526Y31882D01*
Y31890D01*
Y31897D01*
Y32568D01*
Y32626D01*
X87541Y32684D01*
X87548Y32735D01*
X87563Y32779D01*
X87577Y32816D01*
X87592Y32845D01*
X87599Y32859D01*
X87607Y32866D01*
X87672Y32961D01*
X87738Y33042D01*
X87767Y33071D01*
X87789Y33092D01*
X87803Y33100D01*
X87811Y33107D01*
X87913Y33173D01*
X88007Y33217D01*
X88044Y33231D01*
X88073Y33246D01*
X88095Y33253D01*
X88102D01*
X88168Y33275D01*
X88241Y33297D01*
X88321Y33311D01*
X88394Y33326D01*
X88459Y33340D01*
X88511Y33348D01*
X88547Y33355D01*
X88561D01*
X88445Y33391D01*
X88350Y33421D01*
X88263Y33450D01*
X88197Y33479D01*
X88139Y33501D01*
X88102Y33515D01*
X88080Y33530D01*
X88073D01*
X87964Y33595D01*
X87913Y33632D01*
X87876Y33661D01*
X87840Y33690D01*
X87818Y33712D01*
X87803Y33727D01*
X87796Y33734D01*
X87701Y33851D01*
X87628Y33975D01*
X87577Y34099D01*
X87541Y34215D01*
X87519Y34317D01*
X87512Y34405D01*
X87505Y34434D01*
Y34456D01*
Y34470D01*
Y34478D01*
X87512Y34580D01*
X87526Y34675D01*
X87541Y34769D01*
X87570Y34849D01*
X87643Y34995D01*
X87716Y35119D01*
X87796Y35214D01*
X87869Y35280D01*
X87898Y35309D01*
X87913Y35323D01*
X87927Y35338D01*
X87935D01*
X88044Y35411D01*
X88161Y35469D01*
X88277Y35513D01*
X88379Y35542D01*
X88467Y35564D01*
X88540Y35578D01*
X88569D01*
X88591Y35586D01*
X88605D01*
X88707Y35593D01*
X88809Y35600D01*
X88911Y35608D01*
X89006Y35615D01*
X89305D01*
Y35250D01*
D02*
G37*
G36*
X58549D02*
X58476Y35228D01*
X58410Y35199D01*
X58366Y35177D01*
X58323Y35148D01*
X58293Y35126D01*
X58272Y35105D01*
X58257Y35097D01*
Y35090D01*
X58228Y35054D01*
X58213Y35002D01*
X58184Y34908D01*
Y34864D01*
X58177Y34828D01*
Y34798D01*
Y34791D01*
Y33931D01*
X58184Y33836D01*
X58191Y33763D01*
X58199Y33720D01*
X58206Y33712D01*
Y33705D01*
X58228Y33654D01*
X58257Y33610D01*
X58286Y33581D01*
X58293Y33574D01*
X58323Y33552D01*
X58359Y33530D01*
X58439Y33508D01*
X58476Y33494D01*
X58505D01*
X58527Y33486D01*
X58534D01*
Y33136D01*
X58476Y33122D01*
X58425Y33107D01*
X58374Y33085D01*
X58337Y33063D01*
X58308Y33042D01*
X58286Y33020D01*
X58279Y33012D01*
X58272Y33005D01*
X58228Y32932D01*
X58199Y32859D01*
X58191Y32823D01*
X58184Y32801D01*
Y32786D01*
Y32779D01*
Y32765D01*
X58177Y32735D01*
Y32662D01*
Y32626D01*
Y32597D01*
Y32575D01*
Y32568D01*
Y32028D01*
X58170Y31875D01*
X58140Y31737D01*
X58104Y31620D01*
X58053Y31525D01*
X58009Y31445D01*
X57973Y31387D01*
X57943Y31357D01*
X57936Y31343D01*
X57841Y31263D01*
X57732Y31204D01*
X57623Y31161D01*
X57513Y31132D01*
X57419Y31117D01*
X57346Y31110D01*
X57317Y31102D01*
X57193D01*
X57127Y31110D01*
X57061Y31117D01*
X57010Y31124D01*
X56967Y31132D01*
X56937Y31139D01*
X56916Y31146D01*
X56908D01*
X56792Y31190D01*
X56741Y31212D01*
X56697Y31241D01*
X56660Y31263D01*
X56631Y31285D01*
X56617Y31292D01*
X56609Y31299D01*
X56515Y31387D01*
X56442Y31467D01*
X56413Y31503D01*
X56391Y31532D01*
X56384Y31547D01*
X56376Y31554D01*
X56340Y31605D01*
X56318Y31656D01*
X56289Y31737D01*
X56281Y31766D01*
X56274Y31788D01*
Y31795D01*
Y31802D01*
X56281Y31846D01*
X56303Y31882D01*
X56325Y31912D01*
X56332Y31919D01*
X56376Y31955D01*
X56405Y31970D01*
X56435Y31977D01*
X56442D01*
X56471Y31970D01*
X56507Y31963D01*
X56558Y31926D01*
X56595Y31882D01*
X56602Y31875D01*
X56609Y31868D01*
X56631Y31839D01*
X56653Y31824D01*
X56660Y31809D01*
X56668D01*
X56690Y31802D01*
X56704D01*
X56726Y31809D01*
X56741Y31817D01*
X56763Y31853D01*
X56770Y31882D01*
Y31890D01*
Y31897D01*
Y32568D01*
Y32626D01*
X56784Y32684D01*
X56792Y32735D01*
X56806Y32779D01*
X56821Y32816D01*
X56836Y32845D01*
X56843Y32859D01*
X56850Y32866D01*
X56916Y32961D01*
X56981Y33042D01*
X57010Y33071D01*
X57032Y33092D01*
X57047Y33100D01*
X57054Y33107D01*
X57156Y33173D01*
X57251Y33217D01*
X57287Y33231D01*
X57317Y33246D01*
X57339Y33253D01*
X57346D01*
X57411Y33275D01*
X57484Y33297D01*
X57565Y33311D01*
X57637Y33326D01*
X57703Y33340D01*
X57754Y33348D01*
X57790Y33355D01*
X57805D01*
X57688Y33391D01*
X57594Y33421D01*
X57506Y33450D01*
X57441Y33479D01*
X57382Y33501D01*
X57346Y33515D01*
X57324Y33530D01*
X57317D01*
X57207Y33595D01*
X57156Y33632D01*
X57120Y33661D01*
X57083Y33690D01*
X57061Y33712D01*
X57047Y33727D01*
X57040Y33734D01*
X56945Y33851D01*
X56872Y33975D01*
X56821Y34099D01*
X56784Y34215D01*
X56763Y34317D01*
X56755Y34405D01*
X56748Y34434D01*
Y34456D01*
Y34470D01*
Y34478D01*
X56755Y34580D01*
X56770Y34675D01*
X56784Y34769D01*
X56814Y34849D01*
X56887Y34995D01*
X56959Y35119D01*
X57040Y35214D01*
X57112Y35280D01*
X57142Y35309D01*
X57156Y35323D01*
X57171Y35338D01*
X57178D01*
X57287Y35411D01*
X57404Y35469D01*
X57521Y35513D01*
X57623Y35542D01*
X57710Y35564D01*
X57783Y35578D01*
X57812D01*
X57834Y35586D01*
X57849D01*
X57951Y35593D01*
X58053Y35600D01*
X58155Y35608D01*
X58250Y35615D01*
X58549D01*
Y35250D01*
D02*
G37*
G36*
X45871D02*
X45798Y35228D01*
X45733Y35199D01*
X45689Y35177D01*
X45645Y35148D01*
X45616Y35126D01*
X45594Y35105D01*
X45580Y35097D01*
Y35090D01*
X45551Y35054D01*
X45536Y35002D01*
X45507Y34908D01*
Y34864D01*
X45500Y34828D01*
Y34798D01*
Y34791D01*
Y33931D01*
X45507Y33836D01*
X45514Y33763D01*
X45521Y33720D01*
X45529Y33712D01*
Y33705D01*
X45551Y33654D01*
X45580Y33610D01*
X45609Y33581D01*
X45616Y33574D01*
X45645Y33552D01*
X45682Y33530D01*
X45762Y33508D01*
X45798Y33494D01*
X45828D01*
X45849Y33486D01*
X45857D01*
Y33136D01*
X45798Y33122D01*
X45747Y33107D01*
X45696Y33085D01*
X45660Y33063D01*
X45631Y33042D01*
X45609Y33020D01*
X45602Y33012D01*
X45594Y33005D01*
X45551Y32932D01*
X45521Y32859D01*
X45514Y32823D01*
X45507Y32801D01*
Y32786D01*
Y32779D01*
Y32765D01*
X45500Y32735D01*
Y32662D01*
Y32626D01*
Y32597D01*
Y32575D01*
Y32568D01*
Y32028D01*
X45492Y31875D01*
X45463Y31737D01*
X45427Y31620D01*
X45376Y31525D01*
X45332Y31445D01*
X45295Y31387D01*
X45266Y31357D01*
X45259Y31343D01*
X45164Y31263D01*
X45055Y31204D01*
X44945Y31161D01*
X44836Y31132D01*
X44741Y31117D01*
X44668Y31110D01*
X44639Y31102D01*
X44515D01*
X44450Y31110D01*
X44384Y31117D01*
X44333Y31124D01*
X44289Y31132D01*
X44260Y31139D01*
X44238Y31146D01*
X44231D01*
X44114Y31190D01*
X44063Y31212D01*
X44020Y31241D01*
X43983Y31263D01*
X43954Y31285D01*
X43939Y31292D01*
X43932Y31299D01*
X43837Y31387D01*
X43764Y31467D01*
X43735Y31503D01*
X43714Y31532D01*
X43706Y31547D01*
X43699Y31554D01*
X43662Y31605D01*
X43641Y31656D01*
X43611Y31737D01*
X43604Y31766D01*
X43597Y31788D01*
Y31795D01*
Y31802D01*
X43604Y31846D01*
X43626Y31882D01*
X43648Y31912D01*
X43655Y31919D01*
X43699Y31955D01*
X43728Y31970D01*
X43757Y31977D01*
X43764D01*
X43794Y31970D01*
X43830Y31963D01*
X43881Y31926D01*
X43918Y31882D01*
X43925Y31875D01*
X43932Y31868D01*
X43954Y31839D01*
X43976Y31824D01*
X43983Y31809D01*
X43990D01*
X44012Y31802D01*
X44027D01*
X44049Y31809D01*
X44063Y31817D01*
X44085Y31853D01*
X44093Y31882D01*
Y31890D01*
Y31897D01*
Y32568D01*
Y32626D01*
X44107Y32684D01*
X44114Y32735D01*
X44129Y32779D01*
X44144Y32816D01*
X44158Y32845D01*
X44165Y32859D01*
X44173Y32866D01*
X44238Y32961D01*
X44304Y33042D01*
X44333Y33071D01*
X44355Y33092D01*
X44370Y33100D01*
X44377Y33107D01*
X44479Y33173D01*
X44574Y33217D01*
X44610Y33231D01*
X44639Y33246D01*
X44661Y33253D01*
X44668D01*
X44734Y33275D01*
X44807Y33297D01*
X44887Y33311D01*
X44960Y33326D01*
X45026Y33340D01*
X45077Y33348D01*
X45113Y33355D01*
X45128D01*
X45011Y33391D01*
X44916Y33421D01*
X44829Y33450D01*
X44763Y33479D01*
X44705Y33501D01*
X44668Y33515D01*
X44647Y33530D01*
X44639D01*
X44530Y33595D01*
X44479Y33632D01*
X44442Y33661D01*
X44406Y33690D01*
X44384Y33712D01*
X44370Y33727D01*
X44362Y33734D01*
X44267Y33851D01*
X44195Y33975D01*
X44144Y34099D01*
X44107Y34215D01*
X44085Y34317D01*
X44078Y34405D01*
X44071Y34434D01*
Y34456D01*
Y34470D01*
Y34478D01*
X44078Y34580D01*
X44093Y34675D01*
X44107Y34769D01*
X44136Y34849D01*
X44209Y34995D01*
X44282Y35119D01*
X44362Y35214D01*
X44435Y35280D01*
X44464Y35309D01*
X44479Y35323D01*
X44493Y35338D01*
X44501D01*
X44610Y35411D01*
X44727Y35469D01*
X44843Y35513D01*
X44945Y35542D01*
X45033Y35564D01*
X45106Y35578D01*
X45135D01*
X45157Y35586D01*
X45171D01*
X45274Y35593D01*
X45376Y35600D01*
X45478Y35608D01*
X45572Y35615D01*
X45871D01*
Y35250D01*
D02*
G37*
G36*
X91157Y35608D02*
X91215Y35593D01*
X91244Y35571D01*
X91259Y35564D01*
X91295Y35527D01*
X91310Y35484D01*
X91317Y35454D01*
Y35447D01*
Y35440D01*
X91310Y35396D01*
X91295Y35360D01*
X91251Y35301D01*
X91215Y35272D01*
X91201Y35265D01*
X91193D01*
X91157Y35250D01*
X91128Y35243D01*
X91091Y35228D01*
X91077Y35221D01*
X91069D01*
X91055Y35214D01*
X91040Y35199D01*
X91033Y35192D01*
Y35185D01*
X91004Y35141D01*
X90996Y35083D01*
X90989Y35039D01*
Y35032D01*
Y35024D01*
Y31773D01*
X90996Y31700D01*
X91011Y31649D01*
X91026Y31620D01*
X91033Y31613D01*
X91047Y31598D01*
X91055Y31583D01*
X91062Y31576D01*
X91069D01*
X91077Y31569D01*
X91091D01*
X91135Y31554D01*
X91179Y31540D01*
X91186Y31532D01*
X91193D01*
X91237Y31511D01*
X91266Y31489D01*
X91288Y31460D01*
X91303Y31430D01*
X91317Y31379D01*
Y31365D01*
Y31357D01*
X91310Y31306D01*
X91288Y31263D01*
X91266Y31241D01*
X91259Y31234D01*
X91201Y31212D01*
X91149Y31197D01*
X91098Y31190D01*
X89385D01*
X89342Y31197D01*
X89305Y31204D01*
X89276Y31212D01*
X89247Y31219D01*
X89232Y31226D01*
X89203Y31248D01*
X89181Y31270D01*
X89152Y31314D01*
X89145Y31350D01*
Y31365D01*
X89152Y31416D01*
X89167Y31452D01*
X89196Y31481D01*
X89225Y31503D01*
X89254Y31518D01*
X89283Y31532D01*
X89298Y31540D01*
X89305D01*
X89349Y31547D01*
X89378Y31562D01*
X89407D01*
X89422Y31569D01*
X89444Y31576D01*
X89451D01*
X89487Y31605D01*
X89495Y31613D01*
X89502Y31620D01*
X89524Y31671D01*
X89538Y31737D01*
X89546Y31780D01*
Y31795D01*
Y31802D01*
Y35615D01*
X91084D01*
X91157Y35608D01*
D02*
G37*
G36*
X86513D02*
X86571Y35593D01*
X86601Y35571D01*
X86615Y35564D01*
X86652Y35527D01*
X86666Y35484D01*
X86673Y35454D01*
Y35447D01*
Y35440D01*
X86666Y35396D01*
X86652Y35360D01*
X86608Y35301D01*
X86571Y35272D01*
X86557Y35265D01*
X86550D01*
X86513Y35250D01*
X86484Y35243D01*
X86447Y35228D01*
X86433Y35221D01*
X86426D01*
X86411Y35214D01*
X86396Y35199D01*
X86389Y35192D01*
Y35185D01*
X86360Y35141D01*
X86353Y35083D01*
X86345Y35039D01*
Y35032D01*
Y35024D01*
Y31773D01*
X86353Y31700D01*
X86367Y31649D01*
X86382Y31620D01*
X86389Y31613D01*
X86404Y31598D01*
X86411Y31583D01*
X86418Y31576D01*
X86426D01*
X86433Y31569D01*
X86447D01*
X86491Y31554D01*
X86535Y31540D01*
X86542Y31532D01*
X86550D01*
X86593Y31511D01*
X86622Y31489D01*
X86644Y31460D01*
X86659Y31430D01*
X86673Y31379D01*
Y31365D01*
Y31357D01*
X86666Y31306D01*
X86644Y31263D01*
X86622Y31241D01*
X86615Y31234D01*
X86557Y31212D01*
X86506Y31197D01*
X86455Y31190D01*
X84815D01*
X84742Y31197D01*
X84683Y31212D01*
X84654Y31226D01*
X84640Y31234D01*
X84603Y31270D01*
X84581Y31314D01*
X84574Y31343D01*
Y31357D01*
X84581Y31401D01*
X84596Y31438D01*
X84640Y31496D01*
X84683Y31525D01*
X84698Y31532D01*
X84705D01*
X84742Y31547D01*
X84771Y31554D01*
X84815Y31569D01*
X84829Y31576D01*
X84836D01*
X84844Y31583D01*
X84858Y31598D01*
X84865Y31605D01*
Y31613D01*
X84887Y31656D01*
X84895Y31715D01*
X84902Y31758D01*
Y31766D01*
Y31773D01*
Y35024D01*
X84895Y35097D01*
X84880Y35148D01*
X84873Y35177D01*
X84865Y35185D01*
X84851Y35207D01*
X84844Y35214D01*
X84836Y35221D01*
X84822Y35228D01*
X84807D01*
X84763Y35243D01*
X84720Y35258D01*
X84712Y35265D01*
X84705D01*
X84661Y35287D01*
X84632Y35309D01*
X84603Y35338D01*
X84588Y35367D01*
X84574Y35418D01*
Y35433D01*
Y35440D01*
X84581Y35491D01*
X84603Y35535D01*
X84632Y35557D01*
X84640Y35564D01*
X84698Y35593D01*
X84749Y35608D01*
X84793Y35615D01*
X86440D01*
X86513Y35608D01*
D02*
G37*
G36*
X79763D02*
X79821Y35593D01*
X79850Y35571D01*
X79865Y35564D01*
X79901Y35527D01*
X79916Y35484D01*
X79923Y35454D01*
Y35447D01*
Y35440D01*
X79916Y35396D01*
X79901Y35360D01*
X79857Y35301D01*
X79821Y35272D01*
X79806Y35265D01*
X79799D01*
X79763Y35250D01*
X79733Y35243D01*
X79697Y35228D01*
X79682Y35221D01*
X79675D01*
X79660Y35214D01*
X79646Y35199D01*
X79639Y35192D01*
Y35185D01*
X79609Y35141D01*
X79602Y35083D01*
X79595Y35039D01*
Y35032D01*
Y35024D01*
Y31773D01*
X79602Y31700D01*
X79617Y31649D01*
X79631Y31620D01*
X79639Y31613D01*
X79653Y31598D01*
X79660Y31583D01*
X79668Y31576D01*
X79675D01*
X79682Y31569D01*
X79697D01*
X79741Y31554D01*
X79784Y31540D01*
X79792Y31532D01*
X79799D01*
X79843Y31511D01*
X79872Y31489D01*
X79894Y31460D01*
X79908Y31430D01*
X79923Y31379D01*
Y31365D01*
Y31357D01*
X79916Y31306D01*
X79894Y31263D01*
X79872Y31241D01*
X79865Y31234D01*
X79806Y31212D01*
X79755Y31197D01*
X79704Y31190D01*
X78064D01*
X77991Y31197D01*
X77933Y31212D01*
X77904Y31226D01*
X77889Y31234D01*
X77852Y31270D01*
X77831Y31314D01*
X77823Y31343D01*
Y31357D01*
X77831Y31401D01*
X77845Y31438D01*
X77889Y31496D01*
X77933Y31525D01*
X77947Y31532D01*
X77955D01*
X77991Y31547D01*
X78020Y31554D01*
X78064Y31569D01*
X78079Y31576D01*
X78086D01*
X78093Y31583D01*
X78108Y31598D01*
X78115Y31605D01*
Y31613D01*
X78137Y31656D01*
X78144Y31715D01*
X78151Y31758D01*
Y31766D01*
Y31773D01*
Y35024D01*
X78144Y35097D01*
X78130Y35148D01*
X78122Y35177D01*
X78115Y35185D01*
X78100Y35207D01*
X78093Y35214D01*
X78086Y35221D01*
X78071Y35228D01*
X78057D01*
X78013Y35243D01*
X77969Y35258D01*
X77962Y35265D01*
X77955D01*
X77911Y35287D01*
X77882Y35309D01*
X77852Y35338D01*
X77838Y35367D01*
X77823Y35418D01*
Y35433D01*
Y35440D01*
X77831Y35491D01*
X77852Y35535D01*
X77882Y35557D01*
X77889Y35564D01*
X77947Y35593D01*
X77998Y35608D01*
X78042Y35615D01*
X79690D01*
X79763Y35608D01*
D02*
G37*
G36*
X76817Y32167D02*
Y32087D01*
X76832Y32014D01*
X76868Y31875D01*
X76919Y31773D01*
X76970Y31686D01*
X77029Y31620D01*
X77080Y31576D01*
X77116Y31547D01*
X77123Y31540D01*
X77131D01*
X77196Y31503D01*
X77233Y31474D01*
X77255Y31452D01*
X77262Y31445D01*
X77277Y31416D01*
X77284Y31394D01*
X77291Y31365D01*
Y31357D01*
X77277Y31299D01*
X77248Y31263D01*
X77196Y31234D01*
X77145Y31212D01*
X77094Y31197D01*
X77043Y31190D01*
X76198D01*
X76154Y31197D01*
X76110Y31204D01*
X76081Y31212D01*
X76059D01*
X76045Y31219D01*
X76037Y31226D01*
X76001Y31270D01*
X75979Y31306D01*
X75972Y31336D01*
Y31350D01*
Y31387D01*
X75986Y31416D01*
X76015Y31460D01*
X76045Y31489D01*
X76052Y31496D01*
X76059D01*
X76161Y31554D01*
X76220Y31591D01*
X76263Y31635D01*
X76307Y31671D01*
X76344Y31707D01*
X76365Y31744D01*
X76387Y31773D01*
X76394Y31788D01*
X76402Y31795D01*
X76424Y31853D01*
X76446Y31912D01*
X76467Y32035D01*
Y32087D01*
X76475Y32130D01*
Y32159D01*
Y32167D01*
Y33902D01*
X76817Y34470D01*
Y32167D01*
D02*
G37*
G36*
X77029Y35608D02*
X77080D01*
X77123Y35600D01*
X77153Y35593D01*
X77167D01*
X77182Y35586D01*
X77211Y35571D01*
X77233Y35549D01*
X77248Y35527D01*
X77255Y35520D01*
X77269Y35484D01*
X77277Y35454D01*
X77284Y35425D01*
Y35418D01*
X77277Y35382D01*
X77269Y35352D01*
X77262Y35331D01*
X77255Y35323D01*
X77204Y35280D01*
X77189Y35272D01*
X77182Y35265D01*
X77058Y35221D01*
X77007Y35199D01*
X76970Y35177D01*
X76949Y35156D01*
X76941Y35148D01*
X76927Y35126D01*
X76905Y35105D01*
X76868Y35046D01*
X76839Y35002D01*
X76825Y34988D01*
Y34981D01*
X74623Y31190D01*
X73734D01*
Y32619D01*
X75461Y35615D01*
X76963D01*
X77029Y35608D01*
D02*
G37*
G36*
X72494Y32116D02*
X72516Y32035D01*
X72538Y31970D01*
X72567Y31912D01*
X72589Y31861D01*
X72611Y31817D01*
X72626Y31788D01*
X72633Y31773D01*
X72640Y31766D01*
X72684Y31715D01*
X72720Y31671D01*
X72750Y31642D01*
X72764Y31635D01*
X72822Y31598D01*
X72888Y31569D01*
X72917Y31554D01*
X72939Y31540D01*
X72954Y31532D01*
X72961D01*
X73005Y31511D01*
X73041Y31481D01*
X73063Y31452D01*
X73085Y31430D01*
X73099Y31387D01*
Y31379D01*
Y31372D01*
X73092Y31314D01*
X73063Y31270D01*
X73041Y31241D01*
X73034Y31234D01*
X72975Y31212D01*
X72910Y31197D01*
X72866Y31190D01*
X72021D01*
X71940Y31197D01*
X71882Y31212D01*
X71838Y31241D01*
X71809Y31270D01*
X71794Y31299D01*
X71780Y31328D01*
Y31343D01*
Y31350D01*
X71787Y31387D01*
X71794Y31423D01*
X71831Y31474D01*
X71875Y31503D01*
X71882Y31511D01*
X71889D01*
X71999Y31562D01*
X72064Y31598D01*
X72108Y31642D01*
X72145Y31693D01*
X72166Y31744D01*
X72181Y31788D01*
X72188Y31817D01*
Y31846D01*
Y31853D01*
X72181Y31912D01*
X72174Y31970D01*
X72166Y32006D01*
Y32014D01*
Y32021D01*
X71598Y34113D01*
X71758Y34784D01*
X72494Y32116D01*
D02*
G37*
G36*
X71620Y35294D02*
X71022Y32662D01*
X71751D01*
X71838Y32276D01*
X70927D01*
X70825Y31802D01*
X70818Y31766D01*
X70810Y31737D01*
Y31715D01*
Y31707D01*
X70818Y31664D01*
X70825Y31635D01*
X70832Y31613D01*
X70840Y31605D01*
X70869Y31583D01*
X70898Y31562D01*
X70920Y31547D01*
X70934Y31540D01*
X70993Y31503D01*
X71022Y31474D01*
X71044Y31460D01*
X71051Y31452D01*
X71065Y31423D01*
X71073Y31394D01*
Y31372D01*
Y31357D01*
X71065Y31306D01*
X71044Y31263D01*
X71022Y31241D01*
X71014Y31234D01*
X70964Y31212D01*
X70912Y31197D01*
X70876Y31190D01*
X69243D01*
X69156Y31197D01*
X69097Y31219D01*
X69054Y31241D01*
X69017Y31277D01*
X69002Y31306D01*
X68995Y31328D01*
X68988Y31350D01*
Y31357D01*
X68995Y31394D01*
X69002Y31430D01*
X69017Y31445D01*
X69024Y31452D01*
X69054Y31481D01*
X69090Y31503D01*
X69126Y31518D01*
X69134Y31525D01*
X69141D01*
X69207Y31554D01*
X69243Y31591D01*
X69265Y31620D01*
X69272Y31627D01*
X69294Y31686D01*
X69309Y31744D01*
X69323Y31788D01*
X69331Y31795D01*
Y31802D01*
X70227Y35615D01*
X71539D01*
X71620Y35294D01*
D02*
G37*
G36*
X67741Y31802D02*
X67749Y31722D01*
X67763Y31664D01*
X67785Y31635D01*
X67792Y31620D01*
X67829Y31591D01*
X67836Y31576D01*
X67858D01*
X67873Y31569D01*
X67924Y31554D01*
X67967Y31547D01*
X67982Y31540D01*
X67989D01*
X68040Y31525D01*
X68077Y31496D01*
X68106Y31467D01*
X68120Y31438D01*
X68135Y31409D01*
X68142Y31387D01*
Y31372D01*
Y31365D01*
X68128Y31306D01*
X68106Y31270D01*
X68084Y31241D01*
X68069Y31234D01*
X68004Y31212D01*
X67938Y31197D01*
X67909Y31190D01*
X66137D01*
X66094Y31197D01*
X66057Y31204D01*
X66028Y31212D01*
X65999Y31219D01*
X65984Y31226D01*
X65955Y31248D01*
X65933Y31270D01*
X65904Y31314D01*
X65897Y31350D01*
Y31365D01*
X65904Y31416D01*
X65919Y31452D01*
X65948Y31481D01*
X65977Y31503D01*
X66006Y31518D01*
X66035Y31532D01*
X66050Y31540D01*
X66057D01*
X66101Y31547D01*
X66130Y31562D01*
X66159D01*
X66174Y31569D01*
X66196Y31576D01*
X66203D01*
X66240Y31605D01*
X66247Y31613D01*
X66254Y31620D01*
X66276Y31671D01*
X66291Y31737D01*
X66298Y31780D01*
Y31795D01*
Y31802D01*
Y35615D01*
X67741D01*
Y31802D01*
D02*
G37*
G36*
X60400Y35608D02*
X60459Y35593D01*
X60488Y35571D01*
X60502Y35564D01*
X60539Y35527D01*
X60553Y35484D01*
X60561Y35454D01*
Y35447D01*
Y35440D01*
X60553Y35396D01*
X60539Y35360D01*
X60495Y35301D01*
X60459Y35272D01*
X60444Y35265D01*
X60437D01*
X60400Y35250D01*
X60371Y35243D01*
X60335Y35228D01*
X60320Y35221D01*
X60313D01*
X60298Y35214D01*
X60284Y35199D01*
X60276Y35192D01*
Y35185D01*
X60247Y35141D01*
X60240Y35083D01*
X60233Y35039D01*
Y35032D01*
Y35024D01*
Y31773D01*
X60240Y31700D01*
X60255Y31649D01*
X60269Y31620D01*
X60276Y31613D01*
X60291Y31598D01*
X60298Y31583D01*
X60306Y31576D01*
X60313D01*
X60320Y31569D01*
X60335D01*
X60378Y31554D01*
X60422Y31540D01*
X60429Y31532D01*
X60437D01*
X60480Y31511D01*
X60510Y31489D01*
X60532Y31460D01*
X60546Y31430D01*
X60561Y31379D01*
Y31365D01*
Y31357D01*
X60553Y31306D01*
X60532Y31263D01*
X60510Y31241D01*
X60502Y31234D01*
X60444Y31212D01*
X60393Y31197D01*
X60342Y31190D01*
X58629D01*
X58585Y31197D01*
X58549Y31204D01*
X58519Y31212D01*
X58490Y31219D01*
X58476Y31226D01*
X58447Y31248D01*
X58425Y31270D01*
X58395Y31314D01*
X58388Y31350D01*
Y31365D01*
X58395Y31416D01*
X58410Y31452D01*
X58439Y31481D01*
X58468Y31503D01*
X58498Y31518D01*
X58527Y31532D01*
X58541Y31540D01*
X58549D01*
X58592Y31547D01*
X58622Y31562D01*
X58651D01*
X58665Y31569D01*
X58687Y31576D01*
X58694D01*
X58731Y31605D01*
X58738Y31613D01*
X58745Y31620D01*
X58767Y31671D01*
X58782Y31737D01*
X58789Y31780D01*
Y31795D01*
Y31802D01*
Y35615D01*
X60327D01*
X60400Y35608D01*
D02*
G37*
G36*
X51951D02*
X52009Y35593D01*
X52039Y35571D01*
X52053Y35564D01*
X52090Y35527D01*
X52104Y35484D01*
X52112Y35454D01*
Y35447D01*
Y35440D01*
X52104Y35396D01*
X52090Y35360D01*
X52046Y35301D01*
X52009Y35272D01*
X51995Y35265D01*
X51988D01*
X51951Y35250D01*
X51922Y35243D01*
X51886Y35228D01*
X51871Y35221D01*
X51864D01*
X51849Y35214D01*
X51834Y35199D01*
X51827Y35192D01*
Y35185D01*
X51798Y35141D01*
X51791Y35083D01*
X51784Y35039D01*
Y35032D01*
Y35024D01*
Y31773D01*
X51791Y31700D01*
X51805Y31649D01*
X51820Y31620D01*
X51827Y31613D01*
X51842Y31598D01*
X51849Y31583D01*
X51856Y31576D01*
X51864D01*
X51871Y31569D01*
X51886D01*
X51929Y31554D01*
X51973Y31540D01*
X51980Y31532D01*
X51988D01*
X52031Y31511D01*
X52061Y31489D01*
X52082Y31460D01*
X52097Y31430D01*
X52112Y31379D01*
Y31365D01*
Y31357D01*
X52104Y31306D01*
X52082Y31263D01*
X52061Y31241D01*
X52053Y31234D01*
X51995Y31212D01*
X51944Y31197D01*
X51893Y31190D01*
X50180D01*
X50136Y31197D01*
X50099Y31204D01*
X50070Y31212D01*
X50041Y31219D01*
X50027Y31226D01*
X49997Y31248D01*
X49976Y31270D01*
X49946Y31314D01*
X49939Y31350D01*
Y31365D01*
X49946Y31416D01*
X49961Y31452D01*
X49990Y31481D01*
X50019Y31503D01*
X50049Y31518D01*
X50078Y31532D01*
X50092Y31540D01*
X50099D01*
X50143Y31547D01*
X50172Y31562D01*
X50202D01*
X50216Y31569D01*
X50238Y31576D01*
X50245D01*
X50282Y31605D01*
X50289Y31613D01*
X50296Y31620D01*
X50318Y31671D01*
X50333Y31737D01*
X50340Y31780D01*
Y31795D01*
Y31802D01*
Y35615D01*
X51878D01*
X51951Y35608D01*
D02*
G37*
G36*
X47723D02*
X47781Y35593D01*
X47810Y35571D01*
X47825Y35564D01*
X47861Y35527D01*
X47876Y35484D01*
X47883Y35454D01*
Y35447D01*
Y35440D01*
X47876Y35396D01*
X47861Y35360D01*
X47818Y35301D01*
X47781Y35272D01*
X47767Y35265D01*
X47759D01*
X47723Y35250D01*
X47694Y35243D01*
X47657Y35228D01*
X47643Y35221D01*
X47635D01*
X47621Y35214D01*
X47606Y35199D01*
X47599Y35192D01*
Y35185D01*
X47570Y35141D01*
X47563Y35083D01*
X47555Y35039D01*
Y35032D01*
Y35024D01*
Y31773D01*
X47563Y31700D01*
X47577Y31649D01*
X47592Y31620D01*
X47599Y31613D01*
X47614Y31598D01*
X47621Y31583D01*
X47628Y31576D01*
X47635D01*
X47643Y31569D01*
X47657D01*
X47701Y31554D01*
X47745Y31540D01*
X47752Y31532D01*
X47759D01*
X47803Y31511D01*
X47832Y31489D01*
X47854Y31460D01*
X47869Y31430D01*
X47883Y31379D01*
Y31365D01*
Y31357D01*
X47876Y31306D01*
X47854Y31263D01*
X47832Y31241D01*
X47825Y31234D01*
X47767Y31212D01*
X47716Y31197D01*
X47665Y31190D01*
X45952D01*
X45908Y31197D01*
X45871Y31204D01*
X45842Y31212D01*
X45813Y31219D01*
X45798Y31226D01*
X45769Y31248D01*
X45747Y31270D01*
X45718Y31314D01*
X45711Y31350D01*
Y31365D01*
X45718Y31416D01*
X45733Y31452D01*
X45762Y31481D01*
X45791Y31503D01*
X45820Y31518D01*
X45849Y31532D01*
X45864Y31540D01*
X45871D01*
X45915Y31547D01*
X45944Y31562D01*
X45973D01*
X45988Y31569D01*
X46010Y31576D01*
X46017D01*
X46054Y31605D01*
X46061Y31613D01*
X46068Y31620D01*
X46090Y31671D01*
X46105Y31737D01*
X46112Y31780D01*
Y31795D01*
Y31802D01*
Y35615D01*
X47650D01*
X47723Y35608D01*
D02*
G37*
G36*
X42904Y32116D02*
X42926Y32035D01*
X42948Y31970D01*
X42977Y31912D01*
X42999Y31861D01*
X43021Y31817D01*
X43036Y31788D01*
X43043Y31773D01*
X43050Y31766D01*
X43094Y31715D01*
X43130Y31671D01*
X43159Y31642D01*
X43174Y31635D01*
X43232Y31598D01*
X43298Y31569D01*
X43327Y31554D01*
X43349Y31540D01*
X43363Y31532D01*
X43371D01*
X43415Y31511D01*
X43451Y31481D01*
X43473Y31452D01*
X43495Y31430D01*
X43509Y31387D01*
Y31379D01*
Y31372D01*
X43502Y31314D01*
X43473Y31270D01*
X43451Y31241D01*
X43444Y31234D01*
X43385Y31212D01*
X43320Y31197D01*
X43276Y31190D01*
X42430D01*
X42350Y31197D01*
X42292Y31212D01*
X42248Y31241D01*
X42219Y31270D01*
X42204Y31299D01*
X42190Y31328D01*
Y31343D01*
Y31350D01*
X42197Y31387D01*
X42204Y31423D01*
X42241Y31474D01*
X42285Y31503D01*
X42292Y31511D01*
X42299D01*
X42409Y31562D01*
X42474Y31598D01*
X42518Y31642D01*
X42554Y31693D01*
X42576Y31744D01*
X42591Y31788D01*
X42598Y31817D01*
Y31846D01*
Y31853D01*
X42591Y31912D01*
X42584Y31970D01*
X42576Y32006D01*
Y32014D01*
Y32021D01*
X42008Y34113D01*
X42168Y34784D01*
X42904Y32116D01*
D02*
G37*
G36*
X42030Y35294D02*
X41432Y32662D01*
X42161D01*
X42248Y32276D01*
X41337D01*
X41235Y31802D01*
X41228Y31766D01*
X41220Y31737D01*
Y31715D01*
Y31707D01*
X41228Y31664D01*
X41235Y31635D01*
X41242Y31613D01*
X41249Y31605D01*
X41279Y31583D01*
X41308Y31562D01*
X41330Y31547D01*
X41344Y31540D01*
X41403Y31503D01*
X41432Y31474D01*
X41454Y31460D01*
X41461Y31452D01*
X41475Y31423D01*
X41483Y31394D01*
Y31372D01*
Y31357D01*
X41475Y31306D01*
X41454Y31263D01*
X41432Y31241D01*
X41424Y31234D01*
X41373Y31212D01*
X41322Y31197D01*
X41286Y31190D01*
X39653D01*
X39565Y31197D01*
X39507Y31219D01*
X39463Y31241D01*
X39427Y31277D01*
X39412Y31306D01*
X39405Y31328D01*
X39398Y31350D01*
Y31357D01*
X39405Y31394D01*
X39412Y31430D01*
X39427Y31445D01*
X39434Y31452D01*
X39463Y31481D01*
X39500Y31503D01*
X39536Y31518D01*
X39544Y31525D01*
X39551D01*
X39617Y31554D01*
X39653Y31591D01*
X39675Y31620D01*
X39682Y31627D01*
X39704Y31686D01*
X39718Y31744D01*
X39733Y31788D01*
X39740Y31795D01*
Y31802D01*
X40637Y35615D01*
X41949D01*
X42030Y35294D01*
D02*
G37*
G36*
X38654Y32167D02*
Y32087D01*
X38669Y32014D01*
X38705Y31875D01*
X38756Y31773D01*
X38807Y31686D01*
X38866Y31620D01*
X38917Y31576D01*
X38953Y31547D01*
X38960Y31540D01*
X38968D01*
X39033Y31503D01*
X39070Y31474D01*
X39092Y31452D01*
X39099Y31445D01*
X39114Y31416D01*
X39121Y31394D01*
X39128Y31365D01*
Y31357D01*
X39114Y31299D01*
X39084Y31263D01*
X39033Y31234D01*
X38982Y31212D01*
X38931Y31197D01*
X38880Y31190D01*
X38035D01*
X37991Y31197D01*
X37947Y31204D01*
X37918Y31212D01*
X37896D01*
X37881Y31219D01*
X37874Y31226D01*
X37838Y31270D01*
X37816Y31306D01*
X37809Y31336D01*
Y31350D01*
Y31387D01*
X37823Y31416D01*
X37852Y31460D01*
X37881Y31489D01*
X37889Y31496D01*
X37896D01*
X37998Y31554D01*
X38056Y31591D01*
X38100Y31635D01*
X38144Y31671D01*
X38180Y31707D01*
X38202Y31744D01*
X38224Y31773D01*
X38231Y31788D01*
X38239Y31795D01*
X38260Y31853D01*
X38282Y31912D01*
X38304Y32035D01*
Y32087D01*
X38312Y32130D01*
Y32159D01*
Y32167D01*
Y33902D01*
X38654Y34470D01*
Y32167D01*
D02*
G37*
G36*
X38866Y35608D02*
X38917D01*
X38960Y35600D01*
X38989Y35593D01*
X39004D01*
X39019Y35586D01*
X39048Y35571D01*
X39070Y35549D01*
X39084Y35527D01*
X39092Y35520D01*
X39106Y35484D01*
X39114Y35454D01*
X39121Y35425D01*
Y35418D01*
X39114Y35382D01*
X39106Y35352D01*
X39099Y35331D01*
X39092Y35323D01*
X39041Y35280D01*
X39026Y35272D01*
X39019Y35265D01*
X38895Y35221D01*
X38844Y35199D01*
X38807Y35177D01*
X38785Y35156D01*
X38778Y35148D01*
X38763Y35126D01*
X38742Y35105D01*
X38705Y35046D01*
X38676Y35002D01*
X38662Y34988D01*
Y34981D01*
X36460Y31190D01*
X35570D01*
Y32619D01*
X37298Y35615D01*
X38800D01*
X38866Y35608D01*
D02*
G37*
G36*
X34331Y32116D02*
X34353Y32035D01*
X34375Y31970D01*
X34404Y31912D01*
X34426Y31861D01*
X34448Y31817D01*
X34462Y31788D01*
X34470Y31773D01*
X34477Y31766D01*
X34521Y31715D01*
X34557Y31671D01*
X34586Y31642D01*
X34601Y31635D01*
X34659Y31598D01*
X34725Y31569D01*
X34754Y31554D01*
X34776Y31540D01*
X34791Y31532D01*
X34798D01*
X34841Y31511D01*
X34878Y31481D01*
X34900Y31452D01*
X34922Y31430D01*
X34936Y31387D01*
Y31379D01*
Y31372D01*
X34929Y31314D01*
X34900Y31270D01*
X34878Y31241D01*
X34871Y31234D01*
X34812Y31212D01*
X34747Y31197D01*
X34703Y31190D01*
X33857D01*
X33777Y31197D01*
X33719Y31212D01*
X33675Y31241D01*
X33646Y31270D01*
X33631Y31299D01*
X33617Y31328D01*
Y31343D01*
Y31350D01*
X33624Y31387D01*
X33631Y31423D01*
X33668Y31474D01*
X33712Y31503D01*
X33719Y31511D01*
X33726D01*
X33836Y31562D01*
X33901Y31598D01*
X33945Y31642D01*
X33981Y31693D01*
X34003Y31744D01*
X34018Y31788D01*
X34025Y31817D01*
Y31846D01*
Y31853D01*
X34018Y31912D01*
X34010Y31970D01*
X34003Y32006D01*
Y32014D01*
Y32021D01*
X33435Y34113D01*
X33595Y34784D01*
X34331Y32116D01*
D02*
G37*
G36*
X33456Y35294D02*
X32859Y32662D01*
X33588D01*
X33675Y32276D01*
X32764D01*
X32662Y31802D01*
X32655Y31766D01*
X32647Y31737D01*
Y31715D01*
Y31707D01*
X32655Y31664D01*
X32662Y31635D01*
X32669Y31613D01*
X32676Y31605D01*
X32706Y31583D01*
X32735Y31562D01*
X32757Y31547D01*
X32771Y31540D01*
X32829Y31503D01*
X32859Y31474D01*
X32880Y31460D01*
X32888Y31452D01*
X32902Y31423D01*
X32910Y31394D01*
Y31372D01*
Y31357D01*
X32902Y31306D01*
X32880Y31263D01*
X32859Y31241D01*
X32851Y31234D01*
X32800Y31212D01*
X32749Y31197D01*
X32713Y31190D01*
X31080D01*
X30992Y31197D01*
X30934Y31219D01*
X30890Y31241D01*
X30854Y31277D01*
X30839Y31306D01*
X30832Y31328D01*
X30825Y31350D01*
Y31357D01*
X30832Y31394D01*
X30839Y31430D01*
X30854Y31445D01*
X30861Y31452D01*
X30890Y31481D01*
X30927Y31503D01*
X30963Y31518D01*
X30970Y31525D01*
X30978D01*
X31043Y31554D01*
X31080Y31591D01*
X31102Y31620D01*
X31109Y31627D01*
X31131Y31686D01*
X31146Y31744D01*
X31160Y31788D01*
X31167Y31795D01*
Y31802D01*
X32064Y35615D01*
X33376D01*
X33456Y35294D01*
D02*
G37*
G36*
X30533Y35608D02*
X30570Y35600D01*
X30599Y35593D01*
X30635Y35578D01*
X30650Y35571D01*
X30679Y35549D01*
X30701Y35520D01*
X30723Y35476D01*
X30737Y35433D01*
Y35425D01*
Y35418D01*
X30730Y35367D01*
X30723Y35338D01*
X30715Y35316D01*
X30708Y35309D01*
X30694Y35294D01*
X30672Y35280D01*
X30628Y35258D01*
X30584Y35236D01*
X30577Y35228D01*
X30570D01*
X30540Y35214D01*
X30519Y35192D01*
X30511Y35185D01*
X30504Y35177D01*
X30482Y35148D01*
X30468Y35112D01*
X30453Y35075D01*
Y35068D01*
Y35061D01*
X29301Y31190D01*
X28448D01*
X28135Y32320D01*
X28886Y34959D01*
X28893Y34988D01*
Y35017D01*
Y35046D01*
Y35054D01*
X28886Y35105D01*
X28878Y35148D01*
X28871Y35170D01*
X28864Y35177D01*
X28835Y35207D01*
X28798Y35236D01*
X28769Y35250D01*
X28754Y35258D01*
X28718Y35280D01*
X28689Y35309D01*
X28667Y35338D01*
X28652Y35367D01*
X28638Y35411D01*
Y35425D01*
Y35433D01*
X28645Y35462D01*
X28652Y35484D01*
X28660Y35506D01*
X28667Y35513D01*
X28681Y35542D01*
X28703Y35564D01*
X28711Y35571D01*
X28718Y35578D01*
X28776Y35600D01*
X28798Y35608D01*
X28827D01*
X28849Y35615D01*
X30482D01*
X30533Y35608D01*
D02*
G37*
G36*
X93963Y35688D02*
X94080Y35673D01*
X94189Y35644D01*
X94284Y35622D01*
X94364Y35600D01*
X94423Y35578D01*
X94459Y35564D01*
X94474Y35557D01*
X94583Y35506D01*
X94678Y35447D01*
X94773Y35382D01*
X94853Y35323D01*
X94918Y35272D01*
X94969Y35228D01*
X94999Y35199D01*
X95013Y35185D01*
X95130Y35061D01*
X95232Y34930D01*
X95312Y34806D01*
X95385Y34682D01*
X95436Y34572D01*
X95480Y34492D01*
X95494Y34456D01*
X95502Y34434D01*
X95509Y34419D01*
Y34412D01*
X95560Y34237D01*
X95604Y34062D01*
X95633Y33887D01*
X95647Y33734D01*
X95655Y33661D01*
X95662Y33595D01*
Y33537D01*
X95669Y33486D01*
Y33450D01*
Y33421D01*
Y33399D01*
Y33391D01*
X95662Y33187D01*
X95640Y32998D01*
X95611Y32816D01*
X95574Y32648D01*
X95524Y32487D01*
X95473Y32342D01*
X95414Y32210D01*
X95356Y32094D01*
X95297Y31992D01*
X95239Y31897D01*
X95188Y31824D01*
X95137Y31758D01*
X95101Y31707D01*
X95072Y31671D01*
X95050Y31649D01*
X95042Y31642D01*
X94948Y31554D01*
X94853Y31481D01*
X94751Y31416D01*
X94649Y31357D01*
X94547Y31306D01*
X94445Y31263D01*
X94255Y31190D01*
X94168Y31168D01*
X94087Y31146D01*
X94015Y31132D01*
X93949Y31117D01*
X93905Y31110D01*
X93861D01*
X93840Y31102D01*
X93832D01*
Y31452D01*
X93891Y31474D01*
X93942Y31496D01*
X93978Y31518D01*
X94007Y31540D01*
X94029Y31562D01*
X94044Y31583D01*
X94058Y31591D01*
Y31598D01*
X94080Y31649D01*
X94102Y31707D01*
X94124Y31846D01*
Y31904D01*
X94131Y31955D01*
Y31984D01*
Y31999D01*
Y34893D01*
Y34966D01*
X94124Y35024D01*
X94109Y35075D01*
X94095Y35112D01*
X94087Y35141D01*
X94073Y35170D01*
X94065Y35177D01*
Y35185D01*
X94036Y35221D01*
X94000Y35250D01*
X93927Y35301D01*
X93891Y35323D01*
X93861Y35338D01*
X93840Y35345D01*
X93832D01*
Y35702D01*
X93963Y35688D01*
D02*
G37*
G36*
X93563Y35345D02*
X93497Y35323D01*
X93453Y35301D01*
X93424Y35280D01*
X93417Y35272D01*
X93380Y35243D01*
X93344Y35207D01*
X93329Y35185D01*
X93322Y35170D01*
X93286Y35083D01*
X93264Y34995D01*
X93256Y34951D01*
Y34922D01*
Y34901D01*
Y34893D01*
Y31999D01*
X93264Y31904D01*
X93271Y31824D01*
X93286Y31751D01*
X93300Y31700D01*
X93322Y31656D01*
X93336Y31620D01*
X93344Y31605D01*
X93351Y31598D01*
X93380Y31562D01*
X93409Y31532D01*
X93431Y31511D01*
X93439Y31503D01*
X93475Y31481D01*
X93519Y31467D01*
X93548Y31460D01*
X93555Y31452D01*
X93563D01*
Y31102D01*
X93431Y31117D01*
X93300Y31146D01*
X93067Y31212D01*
X92965Y31255D01*
X92863Y31299D01*
X92768Y31343D01*
X92688Y31394D01*
X92615Y31445D01*
X92542Y31489D01*
X92491Y31525D01*
X92440Y31569D01*
X92403Y31598D01*
X92374Y31620D01*
X92360Y31635D01*
X92352Y31642D01*
X92243Y31766D01*
X92141Y31897D01*
X92061Y32035D01*
X91988Y32181D01*
X91922Y32327D01*
X91871Y32473D01*
X91827Y32611D01*
X91798Y32750D01*
X91769Y32881D01*
X91755Y33005D01*
X91740Y33114D01*
X91725Y33209D01*
Y33282D01*
X91718Y33340D01*
Y33377D01*
Y33391D01*
X91725Y33603D01*
X91747Y33800D01*
X91776Y33982D01*
X91820Y34157D01*
X91871Y34317D01*
X91930Y34463D01*
X91988Y34602D01*
X92046Y34718D01*
X92112Y34828D01*
X92170Y34922D01*
X92228Y35002D01*
X92279Y35068D01*
X92323Y35119D01*
X92352Y35156D01*
X92374Y35177D01*
X92382Y35185D01*
X92476Y35272D01*
X92571Y35345D01*
X92666Y35411D01*
X92753Y35462D01*
X92819Y35506D01*
X92877Y35535D01*
X92914Y35549D01*
X92928Y35557D01*
X93038Y35600D01*
X93147Y35629D01*
X93256Y35659D01*
X93351Y35673D01*
X93439Y35688D01*
X93504Y35695D01*
X93548Y35702D01*
X93563D01*
Y35345D01*
D02*
G37*
G36*
X82474Y35695D02*
X82525Y35688D01*
X82569D01*
X82606Y35680D01*
X82635Y35673D01*
X82649Y35666D01*
X82657D01*
X82766Y35629D01*
X82875Y35593D01*
X82970Y35549D01*
X83058Y35506D01*
X83131Y35469D01*
X83189Y35440D01*
X83218Y35418D01*
X83233Y35411D01*
X83393Y35287D01*
X83539Y35148D01*
X83655Y35010D01*
X83757Y34871D01*
X83838Y34755D01*
X83867Y34696D01*
X83896Y34653D01*
X83911Y34616D01*
X83925Y34587D01*
X83940Y34572D01*
Y34565D01*
X84020Y34361D01*
X84078Y34150D01*
X84122Y33946D01*
X84151Y33756D01*
X84158Y33668D01*
X84166Y33595D01*
X84173Y33523D01*
Y33464D01*
X84180Y33413D01*
Y33377D01*
Y33355D01*
Y33348D01*
X84166Y33092D01*
X84136Y32852D01*
X84115Y32743D01*
X84093Y32641D01*
X84071Y32546D01*
X84042Y32458D01*
X84020Y32385D01*
X83998Y32313D01*
X83976Y32254D01*
X83954Y32203D01*
X83932Y32159D01*
X83925Y32130D01*
X83911Y32116D01*
Y32108D01*
X83838Y31984D01*
X83765Y31875D01*
X83684Y31780D01*
X83619Y31693D01*
X83553Y31627D01*
X83502Y31576D01*
X83473Y31547D01*
X83459Y31532D01*
X83349Y31452D01*
X83247Y31379D01*
X83138Y31321D01*
X83043Y31277D01*
X82963Y31234D01*
X82897Y31212D01*
X82854Y31197D01*
X82846Y31190D01*
X82839D01*
X82744Y31161D01*
X82671Y31139D01*
X82627Y31124D01*
X82613D01*
X82547Y31110D01*
X82482Y31102D01*
X82416D01*
Y31467D01*
X82460Y31489D01*
X82503Y31511D01*
X82533Y31532D01*
X82562Y31554D01*
X82591Y31583D01*
X82598Y31598D01*
X82613Y31635D01*
X82620Y31678D01*
X82635Y31766D01*
X82642Y31809D01*
Y31839D01*
Y31861D01*
Y31868D01*
Y34886D01*
Y34951D01*
X82627Y35017D01*
X82598Y35119D01*
X82555Y35199D01*
X82496Y35258D01*
X82445Y35294D01*
X82402Y35323D01*
X82372Y35338D01*
X82358D01*
Y35702D01*
X82474Y35695D01*
D02*
G37*
G36*
X82073Y33428D02*
X82139Y33413D01*
X82175Y33391D01*
X82190Y33384D01*
X82234Y33348D01*
X82256Y33304D01*
X82263Y33268D01*
Y33260D01*
Y33253D01*
X82256Y33209D01*
X82241Y33165D01*
X82212Y33136D01*
X82183Y33114D01*
X82132Y33085D01*
X82117Y33078D01*
X82110D01*
X82066Y33071D01*
X82037Y33056D01*
X82008Y33049D01*
X81993D01*
X81971Y33034D01*
X81964D01*
X81942Y33027D01*
X81928Y33012D01*
X81913Y33005D01*
Y32998D01*
X81884Y32947D01*
X81869Y32888D01*
X81862Y32837D01*
Y32823D01*
Y32816D01*
Y31868D01*
X81869Y31766D01*
X81891Y31686D01*
X81898Y31656D01*
X81913Y31635D01*
X81920Y31620D01*
Y31613D01*
X81950Y31576D01*
X81971Y31547D01*
X81993Y31525D01*
X82000Y31518D01*
X82037Y31496D01*
X82088Y31481D01*
X82125Y31474D01*
X82132Y31467D01*
X82139D01*
Y31102D01*
X82015Y31110D01*
X81950Y31117D01*
X81891Y31124D01*
X81840Y31132D01*
X81804Y31139D01*
X81774Y31146D01*
X81767D01*
X81614Y31183D01*
X81549Y31197D01*
X81498Y31212D01*
X81446Y31226D01*
X81410Y31241D01*
X81388Y31248D01*
X81381D01*
X81235Y31314D01*
X81162Y31350D01*
X81104Y31387D01*
X81053Y31416D01*
X81009Y31438D01*
X80980Y31452D01*
X80973Y31460D01*
X80892Y31511D01*
X80827Y31562D01*
X80769Y31605D01*
X80717Y31649D01*
X80674Y31678D01*
X80645Y31707D01*
X80630Y31722D01*
X80623Y31729D01*
Y32837D01*
Y32903D01*
X80615Y32947D01*
X80608Y32969D01*
Y32976D01*
X80586Y33005D01*
X80564Y33034D01*
X80535Y33056D01*
X80528Y33063D01*
X80484Y33092D01*
X80462Y33122D01*
X80448Y33136D01*
X80440Y33144D01*
X80426Y33180D01*
X80411Y33217D01*
Y33246D01*
Y33253D01*
X80419Y33311D01*
X80440Y33355D01*
X80470Y33384D01*
X80477Y33391D01*
X80499Y33406D01*
X80535Y33421D01*
X80601Y33428D01*
X80630Y33435D01*
X81979D01*
X82073Y33428D01*
D02*
G37*
G36*
X63207Y35688D02*
X63324Y35673D01*
X63433Y35644D01*
X63528Y35622D01*
X63608Y35600D01*
X63666Y35578D01*
X63703Y35564D01*
X63717Y35557D01*
X63827Y35506D01*
X63921Y35447D01*
X64016Y35382D01*
X64096Y35323D01*
X64162Y35272D01*
X64213Y35228D01*
X64242Y35199D01*
X64257Y35185D01*
X64373Y35061D01*
X64475Y34930D01*
X64556Y34806D01*
X64628Y34682D01*
X64679Y34572D01*
X64723Y34492D01*
X64738Y34456D01*
X64745Y34434D01*
X64752Y34419D01*
Y34412D01*
X64803Y34237D01*
X64847Y34062D01*
X64876Y33887D01*
X64891Y33734D01*
X64898Y33661D01*
X64906Y33595D01*
Y33537D01*
X64913Y33486D01*
Y33450D01*
Y33421D01*
Y33399D01*
Y33391D01*
X64906Y33187D01*
X64884Y32998D01*
X64855Y32816D01*
X64818Y32648D01*
X64767Y32487D01*
X64716Y32342D01*
X64658Y32210D01*
X64599Y32094D01*
X64541Y31992D01*
X64483Y31897D01*
X64432Y31824D01*
X64381Y31758D01*
X64344Y31707D01*
X64315Y31671D01*
X64293Y31649D01*
X64286Y31642D01*
X64191Y31554D01*
X64096Y31481D01*
X63994Y31416D01*
X63892Y31357D01*
X63790Y31306D01*
X63688Y31263D01*
X63499Y31190D01*
X63411Y31168D01*
X63331Y31146D01*
X63258Y31132D01*
X63192Y31117D01*
X63149Y31110D01*
X63105D01*
X63083Y31102D01*
X63076D01*
Y31452D01*
X63134Y31474D01*
X63185Y31496D01*
X63222Y31518D01*
X63251Y31540D01*
X63273Y31562D01*
X63287Y31583D01*
X63302Y31591D01*
Y31598D01*
X63324Y31649D01*
X63345Y31707D01*
X63367Y31846D01*
Y31904D01*
X63375Y31955D01*
Y31984D01*
Y31999D01*
Y34893D01*
Y34966D01*
X63367Y35024D01*
X63353Y35075D01*
X63338Y35112D01*
X63331Y35141D01*
X63316Y35170D01*
X63309Y35177D01*
Y35185D01*
X63280Y35221D01*
X63243Y35250D01*
X63170Y35301D01*
X63134Y35323D01*
X63105Y35338D01*
X63083Y35345D01*
X63076D01*
Y35702D01*
X63207Y35688D01*
D02*
G37*
G36*
X62806Y35345D02*
X62740Y35323D01*
X62697Y35301D01*
X62668Y35280D01*
X62660Y35272D01*
X62624Y35243D01*
X62587Y35207D01*
X62573Y35185D01*
X62565Y35170D01*
X62529Y35083D01*
X62507Y34995D01*
X62500Y34951D01*
Y34922D01*
Y34901D01*
Y34893D01*
Y31999D01*
X62507Y31904D01*
X62514Y31824D01*
X62529Y31751D01*
X62543Y31700D01*
X62565Y31656D01*
X62580Y31620D01*
X62587Y31605D01*
X62595Y31598D01*
X62624Y31562D01*
X62653Y31532D01*
X62675Y31511D01*
X62682Y31503D01*
X62718Y31481D01*
X62762Y31467D01*
X62791Y31460D01*
X62799Y31452D01*
X62806D01*
Y31102D01*
X62675Y31117D01*
X62543Y31146D01*
X62310Y31212D01*
X62208Y31255D01*
X62106Y31299D01*
X62011Y31343D01*
X61931Y31394D01*
X61858Y31445D01*
X61785Y31489D01*
X61734Y31525D01*
X61683Y31569D01*
X61647Y31598D01*
X61618Y31620D01*
X61603Y31635D01*
X61596Y31642D01*
X61487Y31766D01*
X61384Y31897D01*
X61304Y32035D01*
X61231Y32181D01*
X61166Y32327D01*
X61115Y32473D01*
X61071Y32611D01*
X61042Y32750D01*
X61013Y32881D01*
X60998Y33005D01*
X60984Y33114D01*
X60969Y33209D01*
Y33282D01*
X60962Y33340D01*
Y33377D01*
Y33391D01*
X60969Y33603D01*
X60991Y33800D01*
X61020Y33982D01*
X61064Y34157D01*
X61115Y34317D01*
X61173Y34463D01*
X61231Y34602D01*
X61290Y34718D01*
X61355Y34828D01*
X61414Y34922D01*
X61472Y35002D01*
X61523Y35068D01*
X61567Y35119D01*
X61596Y35156D01*
X61618Y35177D01*
X61625Y35185D01*
X61720Y35272D01*
X61814Y35345D01*
X61909Y35411D01*
X61997Y35462D01*
X62062Y35506D01*
X62121Y35535D01*
X62157Y35549D01*
X62172Y35557D01*
X62281Y35600D01*
X62390Y35629D01*
X62500Y35659D01*
X62595Y35673D01*
X62682Y35688D01*
X62748Y35695D01*
X62791Y35702D01*
X62806D01*
Y35345D01*
D02*
G37*
G36*
X55210Y32356D02*
X55297Y32334D01*
X55370Y32305D01*
X55436Y32269D01*
X55487Y32232D01*
X55523Y32203D01*
X55552Y32181D01*
X55560Y32174D01*
X55618Y32101D01*
X55662Y32028D01*
X55698Y31955D01*
X55720Y31882D01*
X55735Y31824D01*
X55742Y31773D01*
Y31744D01*
Y31729D01*
X55735Y31635D01*
X55713Y31547D01*
X55684Y31474D01*
X55647Y31409D01*
X55618Y31357D01*
X55589Y31321D01*
X55567Y31292D01*
X55560Y31285D01*
X55487Y31226D01*
X55414Y31183D01*
X55341Y31146D01*
X55268Y31124D01*
X55210Y31110D01*
X55159Y31102D01*
X55115D01*
X55020Y31110D01*
X54933Y31132D01*
X54860Y31161D01*
X54794Y31197D01*
X54743Y31226D01*
X54699Y31255D01*
X54678Y31277D01*
X54670Y31285D01*
X54605Y31357D01*
X54561Y31430D01*
X54524Y31503D01*
X54503Y31576D01*
X54488Y31635D01*
X54481Y31686D01*
Y31715D01*
Y31729D01*
X54488Y31824D01*
X54510Y31912D01*
X54539Y31984D01*
X54576Y32050D01*
X54612Y32101D01*
X54641Y32145D01*
X54663Y32167D01*
X54670Y32174D01*
X54743Y32240D01*
X54816Y32283D01*
X54889Y32320D01*
X54962Y32342D01*
X55020Y32356D01*
X55071Y32364D01*
X55115D01*
X55210Y32356D01*
D02*
G37*
%LPC*%
G36*
X171636Y107644D02*
X169986D01*
Y107541D01*
X168853D01*
Y107438D01*
X168234D01*
Y107335D01*
X167822D01*
Y107232D01*
X167410D01*
Y107129D01*
X166998D01*
Y107026D01*
X166688D01*
Y106922D01*
X166379D01*
Y106819D01*
X166173D01*
Y106716D01*
X165967D01*
Y106613D01*
X165657D01*
Y106510D01*
X165451D01*
Y106407D01*
X165245D01*
Y106304D01*
X165039D01*
Y106201D01*
X164936D01*
Y106098D01*
X164730D01*
Y105995D01*
X164524D01*
Y105892D01*
X164421D01*
Y105789D01*
X164215D01*
Y105686D01*
X164111D01*
Y105582D01*
X163905D01*
Y105479D01*
X163802D01*
Y105376D01*
X163596D01*
Y105273D01*
X163493D01*
Y105170D01*
X163390D01*
Y105067D01*
X163287D01*
Y104964D01*
X163081D01*
Y104861D01*
X162978D01*
Y104758D01*
X162875D01*
Y104655D01*
X162772D01*
Y104552D01*
X162669D01*
Y104449D01*
X162566D01*
Y104346D01*
X162462D01*
Y104243D01*
X162359D01*
Y104139D01*
X162256D01*
Y104036D01*
X162153D01*
Y103933D01*
X162050D01*
Y103830D01*
X161947D01*
Y103727D01*
Y103624D01*
X161844D01*
Y103521D01*
X161741D01*
Y103418D01*
X161638D01*
Y103315D01*
X161535D01*
Y103212D01*
Y103109D01*
X161432D01*
Y103006D01*
X161329D01*
Y102903D01*
X161226D01*
Y102800D01*
Y102697D01*
X161123D01*
Y102594D01*
X161019D01*
Y102490D01*
Y102387D01*
X160916D01*
Y102284D01*
Y102181D01*
X160813D01*
Y102078D01*
X160710D01*
Y101975D01*
Y101872D01*
X160607D01*
Y101769D01*
Y101666D01*
X160504D01*
Y101563D01*
Y101460D01*
X160401D01*
Y101357D01*
Y101254D01*
X160298D01*
Y101151D01*
Y101048D01*
X160195D01*
Y100944D01*
Y100841D01*
X160092D01*
Y100738D01*
Y100635D01*
X159989D01*
Y100532D01*
Y100429D01*
Y100326D01*
X159886D01*
Y100223D01*
Y100120D01*
Y100017D01*
X159783D01*
Y99914D01*
Y99811D01*
Y99708D01*
X159679D01*
Y99604D01*
Y99501D01*
Y99398D01*
X159576D01*
Y99295D01*
Y99192D01*
Y99089D01*
Y98986D01*
X159473D01*
Y98883D01*
Y98780D01*
Y98677D01*
Y98574D01*
X159370D01*
Y98471D01*
Y98368D01*
Y98265D01*
Y98162D01*
Y98058D01*
Y97955D01*
X159267D01*
Y97852D01*
Y97749D01*
Y97646D01*
Y97543D01*
Y97440D01*
Y97337D01*
Y97234D01*
Y97131D01*
Y97028D01*
Y96925D01*
X159164D01*
Y96822D01*
Y96719D01*
Y96615D01*
Y96512D01*
Y96409D01*
Y96306D01*
Y96203D01*
Y96100D01*
Y95997D01*
Y95894D01*
Y95791D01*
Y95688D01*
Y95585D01*
Y95482D01*
X159267D01*
Y95379D01*
Y95276D01*
Y95173D01*
Y95069D01*
Y94966D01*
Y94863D01*
Y94760D01*
Y94657D01*
Y94554D01*
Y94451D01*
X159370D01*
Y94348D01*
Y94245D01*
Y94142D01*
Y94039D01*
Y93936D01*
Y93833D01*
X159473D01*
Y93730D01*
Y93626D01*
Y93523D01*
Y93420D01*
X159576D01*
Y93317D01*
Y93214D01*
Y93111D01*
Y93008D01*
X159679D01*
Y92905D01*
Y92802D01*
Y92699D01*
Y92596D01*
X159783D01*
Y92493D01*
Y92390D01*
Y92287D01*
X159886D01*
Y92184D01*
Y92080D01*
X159989D01*
Y91977D01*
Y91874D01*
Y91771D01*
X160092D01*
Y91668D01*
Y91565D01*
X160195D01*
Y91462D01*
Y91359D01*
Y91256D01*
X160298D01*
Y91153D01*
Y91050D01*
X160401D01*
Y90947D01*
Y90844D01*
X160504D01*
Y90741D01*
Y90637D01*
X160607D01*
Y90534D01*
X160710D01*
Y90431D01*
Y90328D01*
X160813D01*
Y90225D01*
Y90122D01*
X160916D01*
Y90019D01*
X161019D01*
Y89916D01*
Y89813D01*
X161123D01*
Y89710D01*
Y89607D01*
X161226D01*
Y89504D01*
X161329D01*
Y89401D01*
X161432D01*
Y89298D01*
Y89195D01*
X161535D01*
Y89091D01*
X161638D01*
Y88988D01*
X161741D01*
Y88885D01*
Y88782D01*
X161844D01*
Y88679D01*
X161947D01*
Y88576D01*
X162050D01*
Y88473D01*
X162153D01*
Y88370D01*
X162256D01*
Y88267D01*
X162359D01*
Y88164D01*
X162462D01*
Y88061D01*
Y87958D01*
X162566D01*
Y87855D01*
X162669D01*
Y87752D01*
X162772D01*
Y87648D01*
X162978D01*
Y87545D01*
X163081D01*
Y87442D01*
X163184D01*
Y87339D01*
X163287D01*
Y87236D01*
X163390D01*
Y87133D01*
X163493D01*
Y87030D01*
X163699D01*
Y86927D01*
X163802D01*
Y86824D01*
X163905D01*
Y86721D01*
X164111D01*
Y86618D01*
X164215D01*
Y86515D01*
X164318D01*
Y86412D01*
X164524D01*
Y86309D01*
X164627D01*
Y86206D01*
X164833D01*
Y86102D01*
X165039D01*
Y85999D01*
X165245D01*
Y85896D01*
X165348D01*
Y85793D01*
X165554D01*
Y85690D01*
X165761D01*
Y85587D01*
X165967D01*
Y85484D01*
X166173D01*
Y85381D01*
X166482D01*
Y85278D01*
X166688D01*
Y85175D01*
X166998D01*
Y85072D01*
X167307D01*
Y84969D01*
X167616D01*
Y84866D01*
X168028D01*
Y84763D01*
X168440D01*
Y84659D01*
X169162D01*
Y84556D01*
X171945D01*
Y84659D01*
X172563D01*
Y84763D01*
X173079D01*
Y84866D01*
X173491D01*
Y84969D01*
X173903D01*
Y85072D01*
X174212D01*
Y85175D01*
X174522D01*
Y85278D01*
X174831D01*
Y85381D01*
X175140D01*
Y85484D01*
X175346D01*
Y85587D01*
X175655D01*
Y85690D01*
X175861D01*
Y85793D01*
X176068D01*
Y85896D01*
X176377D01*
Y85999D01*
X176583D01*
Y86102D01*
X176789D01*
Y86206D01*
X176995D01*
Y86309D01*
X177201D01*
Y86412D01*
X177407D01*
Y86515D01*
X177614D01*
Y86618D01*
X177717D01*
Y86721D01*
X177923D01*
Y86824D01*
X178129D01*
Y86927D01*
X178335D01*
Y87030D01*
X178438D01*
Y87133D01*
X178644D01*
Y87236D01*
X178850D01*
Y87339D01*
X178954D01*
Y87442D01*
X179160D01*
Y87545D01*
X179366D01*
Y87648D01*
X179469D01*
Y87752D01*
X179675D01*
Y87855D01*
X179778D01*
Y87958D01*
X179984D01*
Y88061D01*
X180087D01*
Y88164D01*
X180293D01*
Y88267D01*
X180396D01*
Y88370D01*
X180499D01*
Y88473D01*
X180706D01*
Y88576D01*
X180809D01*
Y88679D01*
X181015D01*
Y88782D01*
X181118D01*
Y88885D01*
X181221D01*
Y88988D01*
X181427D01*
Y89091D01*
X181530D01*
Y89195D01*
X181633D01*
Y89298D01*
X181839D01*
Y89401D01*
X181942D01*
Y89504D01*
X182046D01*
Y89607D01*
X182252D01*
Y89710D01*
X182355D01*
Y89813D01*
X182458D01*
Y89916D01*
X182664D01*
Y90019D01*
X182767D01*
Y90122D01*
X182870D01*
Y90225D01*
X182973D01*
Y90328D01*
X183179D01*
Y90431D01*
X183282D01*
Y90534D01*
X183386D01*
Y90637D01*
X183489D01*
Y90741D01*
X183695D01*
Y90844D01*
X183798D01*
Y90947D01*
X183901D01*
Y91050D01*
X184004D01*
Y91153D01*
X184107D01*
Y91256D01*
X184313D01*
Y91359D01*
X184416D01*
Y91462D01*
X184519D01*
Y91565D01*
X184622D01*
Y91668D01*
X184725D01*
Y91771D01*
X184828D01*
Y91874D01*
X185035D01*
Y91977D01*
X185138D01*
Y92080D01*
X185241D01*
Y92184D01*
X185344D01*
Y92287D01*
X185447D01*
Y92390D01*
X185550D01*
Y92493D01*
X185653D01*
Y92596D01*
X185756D01*
Y92699D01*
X185859D01*
Y92802D01*
X185962D01*
Y92905D01*
X186065D01*
Y93008D01*
X186168D01*
Y93111D01*
X186271D01*
Y93214D01*
X186374D01*
Y93317D01*
X186477D01*
Y93420D01*
X186581D01*
Y93523D01*
X186684D01*
Y93626D01*
X186787D01*
Y93730D01*
X186890D01*
Y93833D01*
X187096D01*
Y93936D01*
X187199D01*
Y94039D01*
X187302D01*
Y94142D01*
X187405D01*
Y94245D01*
X187508D01*
Y94348D01*
X187611D01*
Y94451D01*
X187714D01*
Y94554D01*
X187817D01*
Y94657D01*
X187920D01*
Y94760D01*
X188024D01*
Y94863D01*
X188127D01*
Y94966D01*
X188230D01*
Y95069D01*
X188333D01*
Y95173D01*
X188436D01*
Y95276D01*
X188539D01*
Y95379D01*
X188642D01*
Y95482D01*
X188745D01*
Y95585D01*
X188848D01*
Y95688D01*
X188951D01*
Y95791D01*
X189054D01*
Y95894D01*
X189157D01*
Y95997D01*
X189260D01*
Y96100D01*
X189364D01*
Y96203D01*
X189260D01*
Y96306D01*
X189157D01*
Y96409D01*
X189054D01*
Y96512D01*
X188951D01*
Y96615D01*
X188848D01*
Y96719D01*
X188745D01*
Y96822D01*
X188642D01*
Y96925D01*
X188539D01*
Y97028D01*
X188436D01*
Y97131D01*
X188333D01*
Y97234D01*
X188230D01*
Y97337D01*
X188127D01*
Y97440D01*
X188024D01*
Y97543D01*
X187920D01*
Y97646D01*
X187817D01*
Y97749D01*
X187714D01*
Y97852D01*
X187611D01*
Y97955D01*
X187508D01*
Y98058D01*
X187405D01*
Y98162D01*
X187302D01*
Y98265D01*
X187199D01*
Y98368D01*
X187096D01*
Y98471D01*
X186993D01*
Y98574D01*
X186890D01*
Y98677D01*
X186787D01*
Y98780D01*
X186684D01*
Y98883D01*
X186581D01*
Y98986D01*
X186477D01*
Y99089D01*
X186374D01*
Y99192D01*
X186271D01*
Y99295D01*
X186168D01*
Y99398D01*
X186065D01*
Y99501D01*
X185859D01*
Y99604D01*
X185756D01*
Y99708D01*
X185653D01*
Y99811D01*
X185550D01*
Y99914D01*
X185447D01*
Y100017D01*
X185344D01*
Y100120D01*
X185241D01*
Y100223D01*
X185138D01*
Y100326D01*
X185035D01*
Y100429D01*
X184932D01*
Y100532D01*
X184828D01*
Y100635D01*
X184725D01*
Y100738D01*
X184622D01*
Y100841D01*
X184519D01*
Y100944D01*
X184416D01*
Y101048D01*
X184210D01*
Y101151D01*
X184107D01*
Y101254D01*
X184004D01*
Y101357D01*
X183901D01*
Y101460D01*
X183798D01*
Y101563D01*
X183695D01*
Y101666D01*
X183592D01*
Y101769D01*
X183489D01*
Y101872D01*
X183282D01*
Y101975D01*
X183179D01*
Y102078D01*
X183076D01*
Y102181D01*
X182973D01*
Y102284D01*
X182870D01*
Y102387D01*
X182767D01*
Y102490D01*
X182561D01*
Y102594D01*
X182458D01*
Y102697D01*
X182355D01*
Y102800D01*
X182252D01*
Y102903D01*
X182046D01*
Y103006D01*
X181942D01*
Y103109D01*
X181839D01*
Y103212D01*
X181736D01*
Y103315D01*
X181530D01*
Y103418D01*
X181427D01*
Y103521D01*
X181324D01*
Y103624D01*
X181118D01*
Y103727D01*
X181015D01*
Y103830D01*
X180912D01*
Y103933D01*
X180706D01*
Y104036D01*
X180603D01*
Y104139D01*
X180396D01*
Y104243D01*
X180293D01*
Y104346D01*
X180087D01*
Y104449D01*
X179984D01*
Y104552D01*
X179778D01*
Y104655D01*
X179675D01*
Y104758D01*
X179469D01*
Y104861D01*
X179366D01*
Y104964D01*
X179160D01*
Y105067D01*
X178954D01*
Y105170D01*
X178850D01*
Y105273D01*
X178644D01*
Y105376D01*
X178438D01*
Y105479D01*
X178335D01*
Y105582D01*
X178129D01*
Y105686D01*
X177923D01*
Y105789D01*
X177717D01*
Y105892D01*
X177510D01*
Y105995D01*
X177304D01*
Y106098D01*
X177098D01*
Y106201D01*
X176892D01*
Y106304D01*
X176583D01*
Y106407D01*
X176377D01*
Y106510D01*
X176171D01*
Y106613D01*
X175861D01*
Y106716D01*
X175552D01*
Y106819D01*
X175346D01*
Y106922D01*
X174934D01*
Y107026D01*
X174625D01*
Y107129D01*
X174212D01*
Y107232D01*
X173800D01*
Y107335D01*
X173285D01*
Y107438D01*
X172666D01*
Y107541D01*
X171636D01*
Y107644D01*
D02*
G37*
%LPD*%
D10*
X271654Y172441D02*
Y179528D01*
Y172441D02*
X281890D01*
Y179528D01*
X271654D02*
X281890D01*
X272047Y163386D02*
Y170472D01*
Y163386D02*
X282283D01*
Y170472D01*
X272047D02*
X282283D01*
X299213Y163386D02*
Y170472D01*
X288976D02*
X299213D01*
X288976Y163386D02*
Y170472D01*
Y163386D02*
X299213D01*
X288976Y172441D02*
X299213D01*
X288976D02*
Y179528D01*
X299213D01*
Y172441D02*
Y179528D01*
X256299Y191339D02*
Y203937D01*
Y191339D02*
X263386D01*
Y203937D01*
X256299D02*
X263386D01*
D55*
X240291Y47570D02*
X241931Y49209D01*
X245211D01*
X246850Y47570D01*
Y45930D01*
X245211Y44290D01*
X241931D01*
X240291Y42650D01*
Y41010D01*
X241931Y39370D01*
X245211D01*
X246850Y41010D01*
X237011Y39370D02*
Y49209D01*
X233731Y45930D01*
X230451Y49209D01*
Y39370D01*
X227172D02*
Y45930D01*
X223892Y49209D01*
X220612Y45930D01*
Y39370D01*
Y44290D01*
X227172D01*
X217332Y39370D02*
Y49209D01*
X212413D01*
X210773Y47570D01*
Y44290D01*
X212413Y42650D01*
X217332D01*
X214053D02*
X210773Y39370D01*
X207493Y49209D02*
X200934D01*
X204213D01*
Y39370D01*
X187814Y49209D02*
Y39370D01*
X182895D01*
X181255Y41010D01*
Y42650D01*
X182895Y44290D01*
X187814D01*
X182895D01*
X181255Y45930D01*
Y47570D01*
X182895Y49209D01*
X187814D01*
X177975Y39370D02*
Y45930D01*
X174695Y49209D01*
X171415Y45930D01*
Y39370D01*
Y44290D01*
X177975D01*
X168136Y49209D02*
X161576D01*
X164856D01*
Y39370D01*
X158296Y49209D02*
X151737D01*
X155017D01*
Y39370D01*
X141897Y49209D02*
X148457D01*
Y39370D01*
X141897D01*
X148457Y44290D02*
X145177D01*
X138618Y39370D02*
Y49209D01*
X133698D01*
X132058Y47570D01*
Y44290D01*
X133698Y42650D01*
X138618D01*
X135338D02*
X132058Y39370D01*
X94882Y51835D02*
X91602Y45276D01*
X88322Y51835D01*
X85043Y45276D02*
X81763D01*
X83403D01*
Y55115D01*
X85043Y53475D01*
X76843Y45276D02*
Y46916D01*
X75203D01*
Y45276D01*
X76843D01*
X68644Y53475D02*
X67004Y55115D01*
X63724D01*
X62084Y53475D01*
Y46916D01*
X63724Y45276D01*
X67004D01*
X68644Y46916D01*
Y53475D01*
X233598Y191270D02*
X235238Y192910D01*
X238518D01*
X240158Y191270D01*
Y189630D01*
X238518Y187990D01*
X235238D01*
X233598Y186351D01*
Y184711D01*
X235238Y183071D01*
X238518D01*
X240158Y184711D01*
X223759Y192910D02*
X230318D01*
Y183071D01*
X223759D01*
X230318Y187990D02*
X227038D01*
X213919Y191270D02*
X215559Y192910D01*
X218839D01*
X220479Y191270D01*
Y184711D01*
X218839Y183071D01*
X215559D01*
X213919Y184711D01*
X210640Y192910D02*
X204080D01*
X207360D01*
Y183071D01*
X200800Y192910D02*
X197520D01*
X199160D01*
Y183071D01*
X200800D01*
X197520D01*
X187681Y192910D02*
X190961D01*
X192601Y191270D01*
Y184711D01*
X190961Y183071D01*
X187681D01*
X186041Y184711D01*
Y191270D01*
X187681Y192910D01*
X182761Y183071D02*
Y192910D01*
X176202Y183071D01*
Y192910D01*
X156523D02*
X163083D01*
Y183071D01*
X156523D01*
X163083Y187990D02*
X159803D01*
M02*
