G04*
G04 #@! TF.GenerationSoftware,Altium Limited,Altium Designer,20.1.8 (145)*
G04*
G04 Layer_Physical_Order=2*
G04 Layer_Color=16711680*
%FSLAX25Y25*%
%MOIN*%
G70*
G04*
G04 #@! TF.SameCoordinates,2B98FD46-9CAB-426A-9CBD-916E77886E0C*
G04*
G04*
G04 #@! TF.FilePolarity,Positive*
G04*
G01*
G75*
%ADD20R,0.01968X0.03740*%
%ADD43C,0.06181*%
%ADD44R,0.06181X0.06181*%
%ADD51C,0.05118*%
%ADD52R,0.05118X0.05118*%
%ADD53R,0.05118X0.05118*%
%ADD54C,0.01968*%
%ADD55C,0.01181*%
%ADD56C,0.07087*%
%ADD57R,0.07087X0.07087*%
%ADD58R,0.04528X0.04528*%
%ADD59C,0.04528*%
%ADD60C,0.11811*%
%ADD61C,0.05906*%
%ADD62R,0.05906X0.05906*%
%ADD63R,0.09843X0.09843*%
%ADD64C,0.09843*%
%ADD65R,0.06693X0.06693*%
%ADD66C,0.06693*%
G04:AMPARAMS|DCode=67|XSize=78.74mil|YSize=62.99mil|CornerRadius=15.75mil|HoleSize=0mil|Usage=FLASHONLY|Rotation=270.000|XOffset=0mil|YOffset=0mil|HoleType=Round|Shape=RoundedRectangle|*
%AMROUNDEDRECTD67*
21,1,0.07874,0.03150,0,0,270.0*
21,1,0.04724,0.06299,0,0,270.0*
1,1,0.03150,-0.01575,-0.02362*
1,1,0.03150,-0.01575,0.02362*
1,1,0.03150,0.01575,0.02362*
1,1,0.03150,0.01575,-0.02362*
%
%ADD67ROUNDEDRECTD67*%
%ADD68O,0.06299X0.07874*%
%ADD69R,0.05906X0.05906*%
%ADD70C,0.07480*%
%ADD71C,0.02362*%
%ADD72R,0.03937X0.01968*%
G36*
X277685Y181799D02*
Y175984D01*
X277716Y175825D01*
Y173484D01*
X280945D01*
Y175825D01*
X280977Y175984D01*
Y182480D01*
X280851Y183110D01*
X280494Y183644D01*
X279868Y184271D01*
X279965Y184468D01*
X280162Y184683D01*
X280709Y184575D01*
X284358D01*
X285039Y183893D01*
Y159837D01*
X284627Y159581D01*
X284539Y159585D01*
X283858Y159721D01*
X283152Y159580D01*
X282553Y159180D01*
X282152Y158581D01*
X282012Y157874D01*
X282152Y157167D01*
X282553Y156568D01*
X283152Y156168D01*
X283858Y156027D01*
X284539Y156163D01*
X284627Y156167D01*
X285039Y155911D01*
Y155181D01*
X275319D01*
X268961Y161539D01*
Y176772D01*
X268866Y177248D01*
X268597Y177652D01*
X257966Y188282D01*
X257563Y188551D01*
X257087Y188646D01*
X198031D01*
X197555Y188551D01*
X197152Y188282D01*
X192781Y183911D01*
X192512Y183508D01*
X192417Y183031D01*
Y171980D01*
X192283Y171863D01*
X191312Y171735D01*
X190407Y171360D01*
X189630Y170764D01*
X189034Y169986D01*
X188659Y169081D01*
X188531Y168110D01*
X188659Y167139D01*
X189034Y166234D01*
X189630Y165457D01*
X190407Y164860D01*
X191312Y164486D01*
X192283Y164358D01*
X193255Y164486D01*
X194160Y164860D01*
X194937Y165457D01*
X195533Y166234D01*
X195908Y167139D01*
X196036Y168110D01*
X195908Y169081D01*
X195533Y169986D01*
X194937Y170764D01*
X194906Y170788D01*
Y182516D01*
X198547Y186157D01*
X256571D01*
X266472Y176256D01*
Y161024D01*
X266567Y160547D01*
X266837Y160144D01*
X273923Y153057D01*
X274327Y152787D01*
X274803Y152693D01*
X284918D01*
X285039Y152571D01*
Y120536D01*
X270105D01*
X265418Y125223D01*
Y135827D01*
X265323Y136303D01*
X265053Y136707D01*
X255604Y146156D01*
X255201Y146425D01*
X254724Y146520D01*
X209964D01*
X204906Y151578D01*
Y155433D01*
X204937Y155457D01*
X205533Y156234D01*
X205908Y157139D01*
X206036Y158110D01*
X205908Y159081D01*
X205533Y159986D01*
X204937Y160764D01*
X204160Y161360D01*
X203255Y161735D01*
X202284Y161863D01*
X201312Y161735D01*
X200407Y161360D01*
X199630Y160764D01*
X199034Y159986D01*
X198659Y159081D01*
X198531Y158110D01*
X198659Y157139D01*
X199034Y156234D01*
X199630Y155457D01*
X200407Y154860D01*
X201312Y154485D01*
X202283Y154358D01*
X202417Y154241D01*
Y151063D01*
X202512Y150587D01*
X202782Y150183D01*
X208569Y144396D01*
X208973Y144126D01*
X209449Y144031D01*
X254209D01*
X262929Y135311D01*
Y124708D01*
X263024Y124231D01*
X263293Y123828D01*
X268710Y118411D01*
X269113Y118142D01*
X269589Y118047D01*
X285039D01*
Y113843D01*
X253756D01*
X253523Y114405D01*
X252949Y115154D01*
X252201Y115728D01*
X251329Y116089D01*
X250394Y116212D01*
X249458Y116089D01*
X248587Y115728D01*
X247838Y115154D01*
X247264Y114405D01*
X246903Y113534D01*
X246780Y112598D01*
X246903Y111663D01*
X247264Y110792D01*
X247838Y110043D01*
X248587Y109469D01*
X249458Y109108D01*
X250394Y108985D01*
X251329Y109108D01*
X252201Y109469D01*
X252949Y110043D01*
X253523Y110792D01*
X253756Y111354D01*
X285039D01*
Y19499D01*
X284889Y19453D01*
X283753Y18846D01*
X282758Y18030D01*
X281941Y17034D01*
X281334Y15899D01*
X280961Y14667D01*
X280873Y13780D01*
X253976D01*
Y13819D01*
X246811D01*
Y13780D01*
X232091D01*
X231921Y14280D01*
X232066Y14391D01*
X232636Y15134D01*
X232995Y16000D01*
X233051Y16429D01*
X229528D01*
X226004D01*
X226060Y16000D01*
X226419Y15134D01*
X226989Y14391D01*
X227134Y14280D01*
X226964Y13780D01*
X223609D01*
X223439Y14280D01*
X223928Y14655D01*
X224439Y15321D01*
X224760Y16097D01*
X224870Y16929D01*
X224760Y17762D01*
X224439Y18537D01*
X223928Y19204D01*
X223262Y19715D01*
X222486Y20036D01*
X221654Y20146D01*
X220821Y20036D01*
X220045Y19715D01*
X219379Y19204D01*
X218868Y18537D01*
X218547Y17762D01*
X218437Y16929D01*
X218547Y16097D01*
X218868Y15321D01*
X219379Y14655D01*
X219868Y14280D01*
X219698Y13780D01*
X215735D01*
X215565Y14280D01*
X216054Y14655D01*
X216565Y15321D01*
X216886Y16097D01*
X216996Y16929D01*
X216886Y17762D01*
X216565Y18537D01*
X216054Y19204D01*
X215388Y19715D01*
X214612Y20036D01*
X213779Y20146D01*
X212947Y20036D01*
X212171Y19715D01*
X211505Y19204D01*
X210994Y18537D01*
X210673Y17762D01*
X210563Y16929D01*
X210673Y16097D01*
X210994Y15321D01*
X211505Y14655D01*
X211994Y14280D01*
X211824Y13780D01*
X207861D01*
X207691Y14280D01*
X208180Y14655D01*
X208691Y15321D01*
X209012Y16097D01*
X209122Y16929D01*
X209012Y17762D01*
X208691Y18537D01*
X208180Y19204D01*
X207514Y19715D01*
X206738Y20036D01*
X205906Y20146D01*
X205073Y20036D01*
X204297Y19715D01*
X203631Y19204D01*
X203120Y18537D01*
X202799Y17762D01*
X202689Y16929D01*
X202799Y16097D01*
X203120Y15321D01*
X203631Y14655D01*
X204120Y14280D01*
X203950Y13780D01*
X199987D01*
X199817Y14280D01*
X200306Y14655D01*
X200817Y15321D01*
X201138Y16097D01*
X201248Y16929D01*
X201138Y17762D01*
X200817Y18537D01*
X200306Y19204D01*
X199640Y19715D01*
X199276Y19865D01*
Y21926D01*
X206027Y28677D01*
X230315D01*
X230791Y28772D01*
X231195Y29041D01*
X243823Y41669D01*
X261417D01*
X261894Y41764D01*
X262297Y42033D01*
X267644Y47381D01*
X267717Y47366D01*
X268423Y47507D01*
X269022Y47907D01*
X269423Y48506D01*
X269563Y49213D01*
X269423Y49919D01*
X269022Y50518D01*
X268423Y50919D01*
X267717Y51059D01*
X267010Y50919D01*
X266411Y50518D01*
X266011Y49919D01*
X265870Y49213D01*
X265884Y49140D01*
X260902Y44158D01*
X243307D01*
X242831Y44063D01*
X242427Y43793D01*
X229800Y31166D01*
X205512D01*
X205036Y31071D01*
X204632Y30801D01*
X197152Y23321D01*
X196882Y22917D01*
X196787Y22441D01*
Y19865D01*
X196423Y19715D01*
X195757Y19204D01*
X195246Y18537D01*
X194925Y17762D01*
X194815Y16929D01*
X194925Y16097D01*
X195246Y15321D01*
X195757Y14655D01*
X196246Y14280D01*
X196076Y13780D01*
X193347D01*
Y20118D01*
X186969D01*
Y13780D01*
X169502D01*
X169288Y14232D01*
X169435Y14411D01*
X169985Y15440D01*
X170324Y16556D01*
X170389Y17217D01*
X164488D01*
X158588D01*
X158653Y16556D01*
X158991Y15440D01*
X159541Y14411D01*
X159688Y14232D01*
X159475Y13780D01*
X149030D01*
X148808Y14228D01*
X149337Y14917D01*
X149897Y16267D01*
X150087Y17717D01*
X149897Y19166D01*
X149337Y20516D01*
X148447Y21676D01*
X147288Y22566D01*
X145937Y23125D01*
X144488Y23316D01*
X143039Y23125D01*
X141689Y22566D01*
X140529Y21676D01*
X139639Y20516D01*
X139080Y19166D01*
X138889Y17717D01*
X139080Y16267D01*
X139639Y14917D01*
X140168Y14228D01*
X139947Y13780D01*
X130039D01*
Y21508D01*
X144974Y36443D01*
X145244Y36847D01*
X145339Y37323D01*
Y169563D01*
X149334Y173559D01*
X177393D01*
X177435Y173497D01*
X178033Y173097D01*
X178740Y172957D01*
X179447Y173097D01*
X180046Y173497D01*
X180446Y174097D01*
X180587Y174803D01*
X180446Y175510D01*
X180046Y176109D01*
X179447Y176509D01*
X178740Y176650D01*
X178033Y176509D01*
X177435Y176109D01*
X177393Y176048D01*
X148819D01*
X148343Y175953D01*
X147939Y175683D01*
X143215Y170959D01*
X142945Y170555D01*
X142850Y170079D01*
Y37838D01*
X128279Y23268D01*
X118937D01*
Y13780D01*
X81291D01*
X81070Y14228D01*
X81400Y14658D01*
X81840Y15721D01*
X81990Y16862D01*
X81840Y18003D01*
X81400Y19066D01*
X80699Y19979D01*
X79787Y20679D01*
X78724Y21120D01*
X77583Y21270D01*
X76442Y21120D01*
X75379Y20679D01*
X74466Y19979D01*
X73765Y19066D01*
X73325Y18003D01*
X73175Y16862D01*
X73325Y15721D01*
X73765Y14658D01*
X74096Y14228D01*
X73874Y13780D01*
X61291D01*
X61070Y14228D01*
X61400Y14658D01*
X61840Y15721D01*
X61990Y16862D01*
X61840Y18003D01*
X61400Y19066D01*
X60699Y19979D01*
X59787Y20679D01*
X58723Y21120D01*
X57583Y21270D01*
X56442Y21120D01*
X55379Y20679D01*
X54466Y19979D01*
X53765Y19066D01*
X53325Y18003D01*
X53175Y16862D01*
X53325Y15721D01*
X53765Y14658D01*
X54096Y14228D01*
X53874Y13780D01*
X19914D01*
X19827Y14667D01*
X19453Y15899D01*
X18846Y17034D01*
X18029Y18030D01*
X17034Y18846D01*
X15899Y19453D01*
X14667Y19827D01*
X13386Y19953D01*
Y189102D01*
X14667Y189228D01*
X15899Y189602D01*
X17034Y190209D01*
X18029Y191026D01*
X18846Y192021D01*
X19453Y193156D01*
X19827Y194388D01*
X19953Y195669D01*
X37756D01*
Y193858D01*
X44134D01*
Y195669D01*
X73796D01*
Y194072D01*
X80174D01*
Y195669D01*
X110839D01*
X114897Y191611D01*
Y190173D01*
X114335Y189941D01*
X113586Y189366D01*
X113012Y188618D01*
X112651Y187746D01*
X112644Y187687D01*
X112139D01*
X112119Y187843D01*
X111720Y188804D01*
X111087Y189630D01*
X110261Y190264D01*
X109300Y190662D01*
X108768Y190732D01*
Y186811D01*
Y182890D01*
X109300Y182960D01*
X110261Y183358D01*
X111087Y183992D01*
X111720Y184818D01*
X112119Y185779D01*
X112139Y185935D01*
X112644D01*
X112651Y185876D01*
X113012Y185004D01*
X113586Y184256D01*
X114335Y183682D01*
X115207Y183321D01*
X116142Y183197D01*
X117077Y183321D01*
X117948Y183682D01*
X118697Y184256D01*
X119271Y185004D01*
X119632Y185876D01*
X119640Y185935D01*
X120144D01*
X120165Y185779D01*
X120563Y184818D01*
X121197Y183992D01*
X122022Y183358D01*
X122984Y182960D01*
X123516Y182890D01*
Y186811D01*
Y190732D01*
X122984Y190662D01*
X122022Y190264D01*
X121197Y189630D01*
X120563Y188804D01*
X120165Y187843D01*
X120144Y187687D01*
X119640D01*
X119632Y187746D01*
X119271Y188618D01*
X118697Y189366D01*
X117948Y189941D01*
X117386Y190173D01*
Y192126D01*
X117291Y192602D01*
X117022Y193006D01*
X114820Y195207D01*
X115012Y195669D01*
X130244D01*
Y190394D01*
X128307D01*
Y188086D01*
X127807Y187987D01*
X127469Y188804D01*
X126835Y189630D01*
X126009Y190264D01*
X125048Y190662D01*
X124516Y190732D01*
Y186811D01*
Y182890D01*
X125048Y182960D01*
X126009Y183358D01*
X126835Y183992D01*
X127469Y184818D01*
X127807Y185635D01*
X128307Y185536D01*
Y183228D01*
X130244D01*
Y175879D01*
X98836Y144471D01*
X98479Y143937D01*
X98354Y143307D01*
Y126772D01*
X98479Y126142D01*
X98836Y125608D01*
X101986Y122458D01*
X102520Y122101D01*
X103150Y121976D01*
X120857D01*
X120947Y121916D01*
X121653Y121775D01*
X122360Y121916D01*
X122959Y122316D01*
X123360Y122915D01*
X123500Y123622D01*
X123360Y124329D01*
X122959Y124928D01*
X122360Y125328D01*
X121653Y125469D01*
X120947Y125328D01*
X120857Y125268D01*
X103831D01*
X101646Y127453D01*
Y142625D01*
X133054Y174033D01*
X133410Y174567D01*
X133536Y175197D01*
Y183228D01*
X135472D01*
Y190394D01*
X133536D01*
Y195669D01*
X253117D01*
X253269Y195169D01*
X253025Y195007D01*
X252625Y194407D01*
X252484Y193701D01*
X252625Y192994D01*
X253025Y192395D01*
X253624Y191995D01*
X254331Y191854D01*
X255037Y191995D01*
X255636Y192395D01*
X255677Y192456D01*
X257244D01*
Y192087D01*
X262441D01*
Y195169D01*
X262441Y195315D01*
X262792Y195669D01*
X263814D01*
X277685Y181799D01*
D02*
G37*
G36*
X280961Y194388D02*
X281334Y193156D01*
X281941Y192021D01*
X282758Y191026D01*
X283753Y190209D01*
X284889Y189602D01*
X285039Y189556D01*
Y187866D01*
X281390D01*
X274049Y195207D01*
X274241Y195669D01*
X280835D01*
X280961Y194388D01*
D02*
G37*
%LPC*%
G36*
X107768Y190732D02*
X107236Y190662D01*
X106274Y190264D01*
X105449Y189630D01*
X104815Y188804D01*
X104417Y187843D01*
X104347Y187311D01*
X107768D01*
Y190732D01*
D02*
G37*
G36*
X77485Y187005D02*
Y183981D01*
X80509D01*
X80453Y184410D01*
X80094Y185276D01*
X79524Y186020D01*
X78780Y186590D01*
X77914Y186949D01*
X77485Y187005D01*
D02*
G37*
G36*
X76485D02*
X76056Y186949D01*
X75190Y186590D01*
X74447Y186020D01*
X73876Y185276D01*
X73518Y184410D01*
X73461Y183981D01*
X76485D01*
Y187005D01*
D02*
G37*
G36*
X41445Y186792D02*
Y183768D01*
X44469D01*
X44412Y184197D01*
X44054Y185063D01*
X43483Y185806D01*
X42740Y186377D01*
X41874Y186735D01*
X41445Y186792D01*
D02*
G37*
G36*
X40445D02*
X40016Y186735D01*
X39150Y186377D01*
X38407Y185806D01*
X37836Y185063D01*
X37477Y184197D01*
X37421Y183768D01*
X40445D01*
Y186792D01*
D02*
G37*
G36*
X107768Y186311D02*
X104347D01*
X104417Y185779D01*
X104815Y184818D01*
X105449Y183992D01*
X106274Y183358D01*
X107236Y182960D01*
X107768Y182890D01*
Y186311D01*
D02*
G37*
G36*
X76485Y182981D02*
X73461D01*
X73518Y182552D01*
X73876Y181686D01*
X74447Y180943D01*
X75190Y180373D01*
X76056Y180014D01*
X76485Y179957D01*
Y182981D01*
D02*
G37*
G36*
X80509D02*
X77485D01*
Y179957D01*
X77914Y180014D01*
X78780Y180373D01*
X79524Y180943D01*
X80094Y181686D01*
X80453Y182552D01*
X80509Y182981D01*
D02*
G37*
G36*
X44469Y182768D02*
X41445D01*
Y179744D01*
X41874Y179800D01*
X42740Y180159D01*
X43483Y180729D01*
X44054Y181473D01*
X44412Y182339D01*
X44469Y182768D01*
D02*
G37*
G36*
X40445D02*
X37421D01*
X37477Y182339D01*
X37836Y181473D01*
X38407Y180729D01*
X39150Y180159D01*
X40016Y179800D01*
X40445Y179744D01*
Y182768D01*
D02*
G37*
G36*
X92520Y179012D02*
X91813Y178871D01*
X91723Y178811D01*
X72835D01*
X72205Y178686D01*
X71671Y178329D01*
X53149Y159808D01*
X52559Y159925D01*
X49409D01*
X48549Y159754D01*
X47820Y159267D01*
X47333Y158537D01*
X47161Y157677D01*
Y152953D01*
X47333Y152093D01*
X47820Y151363D01*
X48549Y150876D01*
X49338Y150719D01*
Y126627D01*
X48549Y126470D01*
X47820Y125982D01*
X47333Y125253D01*
X47161Y124393D01*
Y119668D01*
X47333Y118808D01*
X47820Y118079D01*
X48549Y117592D01*
X49338Y117435D01*
Y93342D01*
X48549Y93185D01*
X47820Y92698D01*
X47333Y91969D01*
X47161Y91108D01*
Y86384D01*
X47333Y85524D01*
X47820Y84794D01*
X48549Y84307D01*
X49338Y84150D01*
Y60058D01*
X48549Y59901D01*
X47820Y59413D01*
X47333Y58684D01*
X47161Y57824D01*
Y53099D01*
X47333Y52239D01*
X47820Y51510D01*
X48549Y51023D01*
X49409Y50852D01*
X52559D01*
X53419Y51023D01*
X54149Y51510D01*
X54636Y52239D01*
X54807Y53099D01*
Y57824D01*
X54636Y58684D01*
X54149Y59413D01*
X53419Y59901D01*
X52630Y60058D01*
Y84150D01*
X53419Y84307D01*
X54149Y84794D01*
X54636Y85524D01*
X54807Y86384D01*
Y91108D01*
X54636Y91969D01*
X54149Y92698D01*
X53419Y93185D01*
X52630Y93342D01*
Y117435D01*
X53419Y117592D01*
X54149Y118079D01*
X54636Y118808D01*
X54807Y119668D01*
Y124393D01*
X54636Y125253D01*
X54149Y125982D01*
X53419Y126470D01*
X52630Y126627D01*
Y150719D01*
X53419Y150876D01*
X54149Y151363D01*
X54636Y152093D01*
X54807Y152953D01*
Y156837D01*
X54887Y156890D01*
X73516Y175520D01*
X91723D01*
X91813Y175459D01*
X92520Y175319D01*
X93226Y175459D01*
X93825Y175860D01*
X94226Y176459D01*
X94366Y177165D01*
X94226Y177872D01*
X93825Y178471D01*
X93226Y178871D01*
X92520Y179012D01*
D02*
G37*
G36*
X274410Y181374D02*
X273703Y181234D01*
X273104Y180833D01*
X272704Y180234D01*
X272563Y179528D01*
X272671Y178984D01*
X272598Y178484D01*
X272598D01*
X272598Y178484D01*
Y173484D01*
X275827D01*
Y178389D01*
X276115Y178821D01*
X276256Y179528D01*
X276115Y180234D01*
X275715Y180833D01*
X275116Y181234D01*
X274410Y181374D01*
D02*
G37*
G36*
X118110Y172713D02*
X117404Y172572D01*
X116805Y172172D01*
X116764Y172110D01*
X94882D01*
X94406Y172016D01*
X94002Y171746D01*
X79829Y157573D01*
X79559Y157169D01*
X79464Y156693D01*
Y71653D01*
X79559Y71177D01*
X79829Y70774D01*
X97545Y53057D01*
X97949Y52787D01*
X98425Y52693D01*
X104291D01*
Y49961D01*
X112244D01*
Y57913D01*
X104291D01*
Y55181D01*
X98941D01*
X81953Y72169D01*
Y156177D01*
X95397Y169622D01*
X116764D01*
X116805Y169561D01*
X117404Y169160D01*
X118110Y169020D01*
X118817Y169160D01*
X119416Y169561D01*
X119816Y170159D01*
X119957Y170866D01*
X119816Y171573D01*
X119416Y172172D01*
X118817Y172572D01*
X118110Y172713D01*
D02*
G37*
G36*
X162784Y172170D02*
Y168610D01*
X166343D01*
X166269Y169178D01*
X165857Y170173D01*
X165201Y171028D01*
X164346Y171683D01*
X163351Y172096D01*
X162784Y172170D01*
D02*
G37*
G36*
X161784D02*
X161216Y172096D01*
X160221Y171683D01*
X159366Y171028D01*
X158710Y170173D01*
X158298Y169178D01*
X158223Y168610D01*
X161784D01*
Y172170D01*
D02*
G37*
G36*
X276220Y169429D02*
X272992D01*
Y164429D01*
X272992D01*
X273110Y164209D01*
X272900Y163896D01*
X272760Y163189D01*
X272900Y162482D01*
X273301Y161883D01*
X273900Y161483D01*
X274606Y161343D01*
X275313Y161483D01*
X275912Y161883D01*
X276312Y162482D01*
X276453Y163189D01*
X276312Y163896D01*
X276103Y164209D01*
X276220Y164429D01*
X276220D01*
Y169429D01*
D02*
G37*
G36*
X252284Y171863D02*
X251312Y171735D01*
X250407Y171360D01*
X249630Y170764D01*
X249034Y169986D01*
X248659Y169081D01*
X248531Y168110D01*
X248659Y167139D01*
X249034Y166234D01*
X249630Y165457D01*
X250407Y164860D01*
X251312Y164486D01*
X252284Y164358D01*
X253255Y164486D01*
X254160Y164860D01*
X254937Y165457D01*
X255533Y166234D01*
X255908Y167139D01*
X256036Y168110D01*
X255908Y169081D01*
X255533Y169986D01*
X254937Y170764D01*
X254160Y171360D01*
X253255Y171735D01*
X252284Y171863D01*
D02*
G37*
G36*
X242284D02*
X241312Y171735D01*
X240407Y171360D01*
X239630Y170764D01*
X239034Y169986D01*
X238659Y169081D01*
X238531Y168110D01*
X238659Y167139D01*
X239034Y166234D01*
X239630Y165457D01*
X240407Y164860D01*
X241312Y164486D01*
X242284Y164358D01*
X243255Y164486D01*
X244160Y164860D01*
X244937Y165457D01*
X245533Y166234D01*
X245908Y167139D01*
X246036Y168110D01*
X245908Y169081D01*
X245533Y169986D01*
X244937Y170764D01*
X244160Y171360D01*
X243255Y171735D01*
X242284Y171863D01*
D02*
G37*
G36*
X232283D02*
X231312Y171735D01*
X230407Y171360D01*
X229630Y170764D01*
X229034Y169986D01*
X228659Y169081D01*
X228531Y168110D01*
X228659Y167139D01*
X229034Y166234D01*
X229630Y165457D01*
X230407Y164860D01*
X231312Y164486D01*
X232283Y164358D01*
X233255Y164486D01*
X234160Y164860D01*
X234937Y165457D01*
X235533Y166234D01*
X235908Y167139D01*
X236036Y168110D01*
X235908Y169081D01*
X235533Y169986D01*
X234937Y170764D01*
X234160Y171360D01*
X233255Y171735D01*
X232283Y171863D01*
D02*
G37*
G36*
X222284D02*
X221312Y171735D01*
X220407Y171360D01*
X219630Y170764D01*
X219034Y169986D01*
X218659Y169081D01*
X218531Y168110D01*
X218659Y167139D01*
X219034Y166234D01*
X219630Y165457D01*
X220407Y164860D01*
X221312Y164486D01*
X222284Y164358D01*
X223255Y164486D01*
X224160Y164860D01*
X224937Y165457D01*
X225533Y166234D01*
X225908Y167139D01*
X226036Y168110D01*
X225908Y169081D01*
X225533Y169986D01*
X224937Y170764D01*
X224160Y171360D01*
X223255Y171735D01*
X222284Y171863D01*
D02*
G37*
G36*
X212283D02*
X211312Y171735D01*
X210407Y171360D01*
X209630Y170764D01*
X209034Y169986D01*
X208659Y169081D01*
X208531Y168110D01*
X208659Y167139D01*
X209034Y166234D01*
X209630Y165457D01*
X210407Y164860D01*
X211312Y164486D01*
X212283Y164358D01*
X213255Y164486D01*
X214160Y164860D01*
X214937Y165457D01*
X215533Y166234D01*
X215908Y167139D01*
X216036Y168110D01*
X215908Y169081D01*
X215533Y169986D01*
X214937Y170764D01*
X214160Y171360D01*
X213255Y171735D01*
X212283Y171863D01*
D02*
G37*
G36*
X202284D02*
X201312Y171735D01*
X200407Y171360D01*
X199630Y170764D01*
X199034Y169986D01*
X198659Y169081D01*
X198531Y168110D01*
X198659Y167139D01*
X199034Y166234D01*
X199630Y165457D01*
X200407Y164860D01*
X201312Y164486D01*
X202284Y164358D01*
X203255Y164486D01*
X204160Y164860D01*
X204937Y165457D01*
X205533Y166234D01*
X205908Y167139D01*
X206036Y168110D01*
X205908Y169081D01*
X205533Y169986D01*
X204937Y170764D01*
X204160Y171360D01*
X203255Y171735D01*
X202284Y171863D01*
D02*
G37*
G36*
X181102Y182740D02*
X145276D01*
X144799Y182646D01*
X144396Y182376D01*
X136522Y174502D01*
X136252Y174098D01*
X136157Y173622D01*
Y70638D01*
X136096Y70597D01*
X135696Y69998D01*
X135555Y69291D01*
X135696Y68585D01*
X136096Y67986D01*
X136695Y67585D01*
X137402Y67445D01*
X138108Y67585D01*
X138707Y67986D01*
X139108Y68585D01*
X139248Y69291D01*
X139108Y69998D01*
X138707Y70597D01*
X138646Y70638D01*
Y173107D01*
X145791Y180252D01*
X180587D01*
X182417Y178422D01*
Y171980D01*
X182283Y171863D01*
X181312Y171735D01*
X180407Y171360D01*
X179630Y170764D01*
X179034Y169986D01*
X178659Y169081D01*
X178531Y168110D01*
X178659Y167139D01*
X179034Y166234D01*
X179630Y165457D01*
X180407Y164860D01*
X181312Y164486D01*
X182283Y164358D01*
X183255Y164486D01*
X184160Y164860D01*
X184937Y165457D01*
X185533Y166234D01*
X185908Y167139D01*
X186036Y168110D01*
X185908Y169081D01*
X185533Y169986D01*
X184937Y170764D01*
X184906Y170788D01*
Y178937D01*
X184811Y179413D01*
X184541Y179817D01*
X181982Y182376D01*
X181579Y182646D01*
X181102Y182740D01*
D02*
G37*
G36*
X172283Y171863D02*
X171312Y171735D01*
X170407Y171360D01*
X169630Y170764D01*
X169034Y169986D01*
X168659Y169081D01*
X168531Y168110D01*
X168659Y167139D01*
X169034Y166234D01*
X169630Y165457D01*
X170407Y164860D01*
X171312Y164486D01*
X172283Y164358D01*
X173255Y164486D01*
X174160Y164860D01*
X174937Y165457D01*
X175533Y166234D01*
X175908Y167139D01*
X176036Y168110D01*
X175908Y169081D01*
X175533Y169986D01*
X174937Y170764D01*
X174160Y171360D01*
X173255Y171735D01*
X172283Y171863D01*
D02*
G37*
G36*
X166343Y167610D02*
X162784D01*
Y164050D01*
X163351Y164125D01*
X164346Y164537D01*
X165201Y165193D01*
X165857Y166047D01*
X166269Y167042D01*
X166343Y167610D01*
D02*
G37*
G36*
X161784D02*
X158223D01*
X158298Y167042D01*
X158710Y166047D01*
X159366Y165193D01*
X160221Y164537D01*
X161216Y164125D01*
X161784Y164050D01*
Y167610D01*
D02*
G37*
G36*
X281339Y169429D02*
X278110D01*
Y164429D01*
X278480D01*
Y161733D01*
X278215Y161337D01*
X278075Y160630D01*
X278215Y159923D01*
X278616Y159324D01*
X279215Y158924D01*
X279921Y158783D01*
X280628Y158924D01*
X281227Y159324D01*
X281627Y159923D01*
X281768Y160630D01*
X281627Y161337D01*
X281227Y161936D01*
X280969Y162108D01*
Y164429D01*
X281339D01*
Y169429D01*
D02*
G37*
G36*
X106410Y161056D02*
X105703Y160915D01*
X105104Y160515D01*
X105063Y160453D01*
X95036D01*
X94560Y160359D01*
X94156Y160089D01*
X86915Y152848D01*
X86646Y152445D01*
X86551Y151969D01*
Y93307D01*
X86646Y92831D01*
X86915Y92427D01*
X99776Y79566D01*
X100180Y79296D01*
X100656Y79202D01*
X103504D01*
Y76470D01*
X111457D01*
Y84423D01*
X103504D01*
Y81691D01*
X101172D01*
X89040Y93822D01*
Y151453D01*
X95551Y157965D01*
X105063D01*
X105104Y157904D01*
X105703Y157503D01*
X106410Y157363D01*
X107116Y157503D01*
X107715Y157904D01*
X108115Y158502D01*
X108256Y159209D01*
X108115Y159916D01*
X107715Y160515D01*
X107116Y160915D01*
X106410Y161056D01*
D02*
G37*
G36*
X256004Y161831D02*
X248563D01*
Y154390D01*
X256004D01*
Y161831D01*
D02*
G37*
G36*
X242284Y161863D02*
X241312Y161735D01*
X240407Y161360D01*
X239630Y160764D01*
X239034Y159986D01*
X238659Y159081D01*
X238531Y158110D01*
X238659Y157139D01*
X239034Y156234D01*
X239630Y155457D01*
X240407Y154860D01*
X241312Y154485D01*
X242284Y154358D01*
X243255Y154485D01*
X244160Y154860D01*
X244937Y155457D01*
X245533Y156234D01*
X245908Y157139D01*
X246036Y158110D01*
X245908Y159081D01*
X245533Y159986D01*
X244937Y160764D01*
X244160Y161360D01*
X243255Y161735D01*
X242284Y161863D01*
D02*
G37*
G36*
X232283D02*
X231312Y161735D01*
X230407Y161360D01*
X229630Y160764D01*
X229034Y159986D01*
X228659Y159081D01*
X228531Y158110D01*
X228659Y157139D01*
X229034Y156234D01*
X229630Y155457D01*
X230407Y154860D01*
X231312Y154485D01*
X232283Y154358D01*
X233255Y154485D01*
X234160Y154860D01*
X234937Y155457D01*
X235533Y156234D01*
X235908Y157139D01*
X236036Y158110D01*
X235908Y159081D01*
X235533Y159986D01*
X234937Y160764D01*
X234160Y161360D01*
X233255Y161735D01*
X232283Y161863D01*
D02*
G37*
G36*
X222284D02*
X221312Y161735D01*
X220407Y161360D01*
X219630Y160764D01*
X219034Y159986D01*
X218659Y159081D01*
X218531Y158110D01*
X218659Y157139D01*
X219034Y156234D01*
X219630Y155457D01*
X220407Y154860D01*
X221312Y154485D01*
X222284Y154358D01*
X223255Y154485D01*
X224160Y154860D01*
X224937Y155457D01*
X225533Y156234D01*
X225908Y157139D01*
X226036Y158110D01*
X225908Y159081D01*
X225533Y159986D01*
X224937Y160764D01*
X224160Y161360D01*
X223255Y161735D01*
X222284Y161863D01*
D02*
G37*
G36*
X212283D02*
X211312Y161735D01*
X210407Y161360D01*
X209630Y160764D01*
X209034Y159986D01*
X208659Y159081D01*
X208531Y158110D01*
X208659Y157139D01*
X209034Y156234D01*
X209630Y155457D01*
X210407Y154860D01*
X211312Y154485D01*
X212283Y154358D01*
X213255Y154485D01*
X214160Y154860D01*
X214937Y155457D01*
X215533Y156234D01*
X215908Y157139D01*
X216036Y158110D01*
X215908Y159081D01*
X215533Y159986D01*
X214937Y160764D01*
X214160Y161360D01*
X213255Y161735D01*
X212283Y161863D01*
D02*
G37*
G36*
X182283D02*
X181312Y161735D01*
X180407Y161360D01*
X179630Y160764D01*
X179034Y159986D01*
X178659Y159081D01*
X178531Y158110D01*
X178659Y157139D01*
X179034Y156234D01*
X179630Y155457D01*
X180407Y154860D01*
X181312Y154485D01*
X182283Y154358D01*
X183255Y154485D01*
X184160Y154860D01*
X184937Y155457D01*
X185533Y156234D01*
X185908Y157139D01*
X186036Y158110D01*
X185908Y159081D01*
X185533Y159986D01*
X184937Y160764D01*
X184160Y161360D01*
X183255Y161735D01*
X182283Y161863D01*
D02*
G37*
G36*
X162284D02*
X161312Y161735D01*
X160407Y161360D01*
X159630Y160764D01*
X159034Y159986D01*
X158659Y159081D01*
X158531Y158110D01*
X158659Y157139D01*
X159034Y156234D01*
X159630Y155457D01*
X160407Y154860D01*
X161312Y154485D01*
X162284Y154358D01*
X163255Y154485D01*
X164160Y154860D01*
X164937Y155457D01*
X165533Y156234D01*
X165908Y157139D01*
X166036Y158110D01*
X165908Y159081D01*
X165533Y159986D01*
X164937Y160764D01*
X164160Y161360D01*
X163255Y161735D01*
X162284Y161863D01*
D02*
G37*
G36*
X41142Y159915D02*
X40155Y159785D01*
X39236Y159404D01*
X38446Y158798D01*
X37840Y158009D01*
X37459Y157089D01*
X37330Y156102D01*
Y154528D01*
X37459Y153541D01*
X37840Y152621D01*
X38446Y151832D01*
X39236Y151226D01*
X40155Y150845D01*
X41142Y150715D01*
X42128Y150845D01*
X43048Y151226D01*
X43837Y151832D01*
X44443Y152621D01*
X44824Y153541D01*
X44954Y154528D01*
Y156102D01*
X44824Y157089D01*
X44443Y158009D01*
X43837Y158798D01*
X43048Y159404D01*
X42128Y159785D01*
X41142Y159915D01*
D02*
G37*
G36*
X276878Y151258D02*
Y148531D01*
X279604D01*
X279558Y148883D01*
X279229Y149678D01*
X278706Y150359D01*
X278024Y150882D01*
X277230Y151211D01*
X276878Y151258D01*
D02*
G37*
G36*
X275878Y151258D02*
X275526Y151211D01*
X274732Y150882D01*
X274050Y150359D01*
X273527Y149678D01*
X273198Y148883D01*
X273152Y148531D01*
X275878D01*
Y151258D01*
D02*
G37*
G36*
X279604Y147531D02*
X276878D01*
Y144805D01*
X277230Y144852D01*
X278024Y145181D01*
X278706Y145704D01*
X279229Y146386D01*
X279558Y147179D01*
X279604Y147531D01*
D02*
G37*
G36*
X275878D02*
X273152D01*
X273198Y147179D01*
X273527Y146386D01*
X274050Y145704D01*
X274732Y145181D01*
X275526Y144852D01*
X275878Y144805D01*
Y147531D01*
D02*
G37*
G36*
X276378Y143049D02*
X275623Y142949D01*
X274919Y142658D01*
X274314Y142194D01*
X273850Y141589D01*
X273559Y140885D01*
X273459Y140130D01*
X273559Y139374D01*
X273850Y138671D01*
X274314Y138066D01*
X274919Y137602D01*
X275623Y137311D01*
X276378Y137211D01*
X277133Y137311D01*
X277837Y137602D01*
X278442Y138066D01*
X278906Y138671D01*
X279197Y139374D01*
X279297Y140130D01*
X279197Y140885D01*
X278906Y141589D01*
X278442Y142194D01*
X277837Y142658D01*
X277133Y142949D01*
X276378Y143049D01*
D02*
G37*
G36*
X128453Y137783D02*
Y133965D01*
X132271D01*
X132187Y134599D01*
X131749Y135656D01*
X131053Y136565D01*
X130145Y137261D01*
X129087Y137699D01*
X128453Y137783D01*
D02*
G37*
G36*
X127453D02*
X126818Y137699D01*
X125761Y137261D01*
X124853Y136565D01*
X124156Y135656D01*
X123718Y134599D01*
X123635Y133965D01*
X127453D01*
Y137783D01*
D02*
G37*
G36*
X131693Y161056D02*
X130986Y160915D01*
X130387Y160515D01*
X129987Y159916D01*
X129846Y159209D01*
X129987Y158502D01*
X130387Y157904D01*
X130448Y157862D01*
Y153075D01*
X124681Y147307D01*
X114961D01*
X114484Y147213D01*
X114081Y146943D01*
X107073Y139935D01*
X106803Y139531D01*
X106708Y139055D01*
Y137441D01*
X103976D01*
Y129488D01*
X111929D01*
Y137441D01*
X109197D01*
Y138540D01*
X115476Y144819D01*
X125197D01*
X125673Y144913D01*
X126077Y145183D01*
X132573Y151679D01*
X132843Y152083D01*
X132937Y152559D01*
Y157862D01*
X132999Y157904D01*
X133399Y158502D01*
X133539Y159209D01*
X133399Y159916D01*
X132999Y160515D01*
X132399Y160915D01*
X131693Y161056D01*
D02*
G37*
G36*
X117953Y137475D02*
X116915Y137339D01*
X115947Y136938D01*
X115117Y136301D01*
X114479Y135470D01*
X114079Y134503D01*
X113942Y133465D01*
X114079Y132427D01*
X114479Y131459D01*
X115117Y130629D01*
X115947Y129991D01*
X116915Y129590D01*
X117953Y129454D01*
X118991Y129590D01*
X119958Y129991D01*
X120789Y130629D01*
X121426Y131459D01*
X121827Y132427D01*
X121963Y133465D01*
X121827Y134503D01*
X121426Y135470D01*
X120789Y136301D01*
X119958Y136938D01*
X118991Y137339D01*
X117953Y137475D01*
D02*
G37*
G36*
X200000Y183343D02*
X199293Y183202D01*
X198694Y182802D01*
X198294Y182203D01*
X198153Y181496D01*
X198294Y180789D01*
X198694Y180190D01*
X199293Y179790D01*
X200000Y179650D01*
X200707Y179790D01*
X201306Y180190D01*
X201347Y180252D01*
X252634D01*
X261354Y171532D01*
Y146012D01*
X261449Y145536D01*
X261719Y145132D01*
X273648Y133203D01*
X273559Y132988D01*
X273459Y132232D01*
X273559Y131477D01*
X273850Y130773D01*
X274314Y130168D01*
X274919Y129705D01*
X275623Y129413D01*
X276378Y129314D01*
X277133Y129413D01*
X277837Y129705D01*
X278442Y130168D01*
X278906Y130773D01*
X279197Y131477D01*
X279297Y132232D01*
X279197Y132988D01*
X278906Y133692D01*
X278442Y134296D01*
X277837Y134760D01*
X277133Y135052D01*
X276378Y135151D01*
X275623Y135052D01*
X275408Y134962D01*
X263843Y146527D01*
Y172047D01*
X263748Y172523D01*
X263478Y172927D01*
X254029Y182376D01*
X253626Y182646D01*
X253150Y182740D01*
X201347D01*
X201306Y182802D01*
X200707Y183202D01*
X200000Y183343D01*
D02*
G37*
G36*
X132271Y132965D02*
X128453D01*
Y129146D01*
X129087Y129230D01*
X130145Y129668D01*
X131053Y130365D01*
X131749Y131273D01*
X132187Y132330D01*
X132271Y132965D01*
D02*
G37*
G36*
X127453D02*
X123635D01*
X123718Y132330D01*
X124156Y131273D01*
X124853Y130365D01*
X125761Y129668D01*
X126818Y129230D01*
X127453Y129146D01*
Y132965D01*
D02*
G37*
G36*
X250894Y132267D02*
Y128846D01*
X254315D01*
X254245Y129378D01*
X253846Y130340D01*
X253213Y131166D01*
X252387Y131799D01*
X251426Y132197D01*
X250894Y132267D01*
D02*
G37*
G36*
X249894Y132267D02*
X249362Y132197D01*
X248400Y131799D01*
X247575Y131166D01*
X246941Y130340D01*
X246543Y129378D01*
X246473Y128846D01*
X249894D01*
Y132267D01*
D02*
G37*
G36*
X226839Y126643D02*
Y122626D01*
X230855D01*
X230765Y123312D01*
X230307Y124417D01*
X229579Y125366D01*
X228630Y126094D01*
X227525Y126552D01*
X226839Y126643D01*
D02*
G37*
G36*
X225839D02*
X225152Y126552D01*
X224047Y126094D01*
X223098Y125366D01*
X222370Y124417D01*
X221912Y123312D01*
X221822Y122626D01*
X225839D01*
Y126643D01*
D02*
G37*
G36*
X279272Y127224D02*
X273484D01*
Y121437D01*
X279272D01*
Y127224D01*
D02*
G37*
G36*
X192283Y161863D02*
X191312Y161735D01*
X190407Y161360D01*
X189630Y160764D01*
X189034Y159986D01*
X188659Y159081D01*
X188531Y158110D01*
X188659Y157139D01*
X189034Y156234D01*
X189630Y155457D01*
X190407Y154860D01*
X191312Y154485D01*
X192283Y154358D01*
X192417Y154241D01*
Y150039D01*
X192512Y149563D01*
X192781Y149160D01*
X205026Y136915D01*
X205429Y136646D01*
X205906Y136551D01*
X232555D01*
X240882Y128225D01*
Y123394D01*
X240820Y123353D01*
X240420Y122754D01*
X240280Y122047D01*
X240420Y121341D01*
X240820Y120742D01*
X241419Y120341D01*
X242126Y120201D01*
X242833Y120341D01*
X243432Y120742D01*
X243832Y121341D01*
X243972Y122047D01*
X243832Y122754D01*
X243432Y123353D01*
X243370Y123394D01*
Y128740D01*
X243276Y129216D01*
X243006Y129620D01*
X233951Y138675D01*
X233547Y138945D01*
X233071Y139040D01*
X206421D01*
X194906Y150555D01*
Y155433D01*
X194937Y155457D01*
X195533Y156234D01*
X195908Y157139D01*
X196036Y158110D01*
X195908Y159081D01*
X195533Y159986D01*
X194937Y160764D01*
X194160Y161360D01*
X193255Y161735D01*
X192283Y161863D01*
D02*
G37*
G36*
X216339Y126335D02*
X215249Y126192D01*
X214234Y125771D01*
X213362Y125102D01*
X212693Y124231D01*
X212273Y123215D01*
X212129Y122126D01*
X212273Y121037D01*
X212693Y120021D01*
X213362Y119150D01*
X214234Y118481D01*
X215249Y118060D01*
X216339Y117917D01*
X217428Y118060D01*
X218443Y118481D01*
X219315Y119150D01*
X219984Y120021D01*
X220404Y121037D01*
X220548Y122126D01*
X220404Y123215D01*
X219984Y124231D01*
X219315Y125102D01*
X218443Y125771D01*
X217428Y126192D01*
X216339Y126335D01*
D02*
G37*
G36*
X186339D02*
X185249Y126192D01*
X184234Y125771D01*
X183362Y125102D01*
X182693Y124231D01*
X182273Y123215D01*
X182129Y122126D01*
X182273Y121037D01*
X182693Y120021D01*
X183362Y119150D01*
X184234Y118481D01*
X185249Y118060D01*
X186339Y117917D01*
X187428Y118060D01*
X188443Y118481D01*
X189315Y119150D01*
X189984Y120021D01*
X190404Y121037D01*
X190548Y122126D01*
X190404Y123215D01*
X189984Y124231D01*
X189315Y125102D01*
X188443Y125771D01*
X187428Y126192D01*
X186339Y126335D01*
D02*
G37*
G36*
X156339D02*
X155249Y126192D01*
X154234Y125771D01*
X153362Y125102D01*
X152693Y124231D01*
X152273Y123215D01*
X152129Y122126D01*
X152273Y121037D01*
X152693Y120021D01*
X153362Y119150D01*
X154234Y118481D01*
X155249Y118060D01*
X156339Y117917D01*
X157428Y118060D01*
X158443Y118481D01*
X159315Y119150D01*
X159984Y120021D01*
X160404Y121037D01*
X160548Y122126D01*
X160404Y123215D01*
X159984Y124231D01*
X159315Y125102D01*
X158443Y125771D01*
X157428Y126192D01*
X156339Y126335D01*
D02*
G37*
G36*
X230855Y121626D02*
X226839D01*
Y117609D01*
X227525Y117700D01*
X228630Y118157D01*
X229579Y118886D01*
X230307Y119835D01*
X230765Y120940D01*
X230855Y121626D01*
D02*
G37*
G36*
X225839D02*
X221822D01*
X221912Y120940D01*
X222370Y119835D01*
X223098Y118886D01*
X224047Y118157D01*
X225152Y117700D01*
X225839Y117609D01*
Y121626D01*
D02*
G37*
G36*
X41142Y126630D02*
X40155Y126500D01*
X39236Y126119D01*
X38446Y125514D01*
X37840Y124724D01*
X37459Y123805D01*
X37330Y122818D01*
Y121243D01*
X37459Y120256D01*
X37840Y119337D01*
X38446Y118547D01*
X39236Y117942D01*
X40155Y117561D01*
X41142Y117431D01*
X42128Y117561D01*
X43048Y117942D01*
X43837Y118547D01*
X44443Y119337D01*
X44824Y120256D01*
X44954Y121243D01*
Y122818D01*
X44824Y123805D01*
X44443Y124724D01*
X43837Y125514D01*
X43048Y126119D01*
X42128Y126500D01*
X41142Y126630D01*
D02*
G37*
G36*
X254315Y127846D02*
X250394D01*
X246473D01*
X246543Y127315D01*
X246941Y126353D01*
X247575Y125527D01*
X248400Y124894D01*
X249362Y124495D01*
X249517Y124475D01*
Y123971D01*
X249458Y123963D01*
X248587Y123602D01*
X247838Y123028D01*
X247264Y122279D01*
X246903Y121408D01*
X246780Y120472D01*
X246903Y119537D01*
X247264Y118666D01*
X247838Y117917D01*
X248587Y117343D01*
X249458Y116982D01*
X250394Y116859D01*
X251329Y116982D01*
X252201Y117343D01*
X252949Y117917D01*
X253523Y118666D01*
X253884Y119537D01*
X254007Y120472D01*
X253884Y121408D01*
X253523Y122279D01*
X252949Y123028D01*
X252201Y123602D01*
X251329Y123963D01*
X251270Y123971D01*
Y124475D01*
X251426Y124495D01*
X252387Y124894D01*
X253213Y125527D01*
X253846Y126353D01*
X254245Y127315D01*
X254315Y127846D01*
D02*
G37*
G36*
X196339Y126335D02*
X195249Y126192D01*
X194234Y125771D01*
X193362Y125102D01*
X192693Y124231D01*
X192273Y123215D01*
X192129Y122126D01*
X192273Y121037D01*
X192693Y120021D01*
X193362Y119150D01*
X194234Y118481D01*
X195094Y118124D01*
Y116933D01*
X192792Y114630D01*
X179649D01*
X177583Y116697D01*
Y118124D01*
X178443Y118481D01*
X179315Y119150D01*
X179984Y120021D01*
X180404Y121037D01*
X180548Y122126D01*
X180404Y123215D01*
X179984Y124231D01*
X179315Y125102D01*
X178443Y125771D01*
X177428Y126192D01*
X176339Y126335D01*
X175249Y126192D01*
X174234Y125771D01*
X173362Y125102D01*
X172693Y124231D01*
X172273Y123215D01*
X172129Y122126D01*
X172273Y121037D01*
X172693Y120021D01*
X173362Y119150D01*
X174234Y118481D01*
X175094Y118124D01*
Y116181D01*
X175189Y115705D01*
X175459Y115301D01*
X178254Y112506D01*
X178658Y112236D01*
X179134Y112142D01*
X193307D01*
X193783Y112236D01*
X194187Y112506D01*
X197219Y115537D01*
X197488Y115941D01*
X197583Y116417D01*
Y118124D01*
X198443Y118481D01*
X199315Y119150D01*
X199984Y120021D01*
X200404Y121037D01*
X200548Y122126D01*
X200404Y123215D01*
X199984Y124231D01*
X199315Y125102D01*
X198443Y125771D01*
X197428Y126192D01*
X196339Y126335D01*
D02*
G37*
G36*
X206339D02*
X205249Y126192D01*
X204234Y125771D01*
X203362Y125102D01*
X202693Y124231D01*
X202273Y123215D01*
X202129Y122126D01*
X202273Y121037D01*
X202693Y120021D01*
X203362Y119150D01*
X204234Y118481D01*
X205094Y118124D01*
Y117090D01*
X195548Y107544D01*
X176893D01*
X167583Y116854D01*
Y118124D01*
X168443Y118481D01*
X169315Y119150D01*
X169984Y120021D01*
X170404Y121037D01*
X170548Y122126D01*
X170404Y123215D01*
X169984Y124231D01*
X169315Y125102D01*
X168443Y125771D01*
X167428Y126192D01*
X166339Y126335D01*
X165249Y126192D01*
X164234Y125771D01*
X163362Y125102D01*
X162693Y124231D01*
X162273Y123215D01*
X162129Y122126D01*
X162273Y121037D01*
X162693Y120021D01*
X163362Y119150D01*
X164234Y118481D01*
X165094Y118124D01*
Y116339D01*
X165189Y115862D01*
X165459Y115459D01*
X175498Y105419D01*
X175902Y105149D01*
X176378Y105055D01*
X196063D01*
X196539Y105149D01*
X196943Y105419D01*
X207219Y115695D01*
X207488Y116099D01*
X207583Y116575D01*
Y118124D01*
X208443Y118481D01*
X209315Y119150D01*
X209984Y120021D01*
X210404Y121037D01*
X210548Y122126D01*
X210404Y123215D01*
X209984Y124231D01*
X209315Y125102D01*
X208443Y125771D01*
X207428Y126192D01*
X206339Y126335D01*
D02*
G37*
G36*
X127823Y111274D02*
Y107455D01*
X131641D01*
X131557Y108090D01*
X131120Y109147D01*
X130423Y110055D01*
X129515Y110752D01*
X128457Y111190D01*
X127823Y111274D01*
D02*
G37*
G36*
X126823D02*
X126188Y111190D01*
X125131Y110752D01*
X124223Y110055D01*
X123526Y109147D01*
X123088Y108090D01*
X123005Y107455D01*
X126823D01*
Y111274D01*
D02*
G37*
G36*
X276878Y106379D02*
Y103653D01*
X279604D01*
X279558Y104005D01*
X279229Y104798D01*
X278706Y105480D01*
X278024Y106003D01*
X277230Y106332D01*
X276878Y106379D01*
D02*
G37*
G36*
X275878Y106379D02*
X275526Y106332D01*
X274732Y106003D01*
X274050Y105480D01*
X273527Y104798D01*
X273198Y104005D01*
X273152Y103653D01*
X275878D01*
Y106379D01*
D02*
G37*
G36*
X93701Y150272D02*
X92994Y150131D01*
X92395Y149731D01*
X91995Y149132D01*
X91854Y148425D01*
X91995Y147719D01*
X92395Y147119D01*
X92456Y147079D01*
Y115354D01*
X92551Y114878D01*
X92821Y114474D01*
X101220Y106076D01*
X101624Y105806D01*
X102100Y105711D01*
X103347D01*
Y102979D01*
X111299D01*
Y110932D01*
X103347D01*
Y108200D01*
X102615D01*
X94945Y115870D01*
Y147079D01*
X95007Y147119D01*
X95407Y147719D01*
X95547Y148425D01*
X95407Y149132D01*
X95007Y149731D01*
X94407Y150131D01*
X93701Y150272D01*
D02*
G37*
G36*
X117323Y110966D02*
X116285Y110829D01*
X115317Y110429D01*
X114487Y109791D01*
X113849Y108961D01*
X113449Y107993D01*
X113312Y106955D01*
X113449Y105917D01*
X113849Y104950D01*
X114487Y104119D01*
X115317Y103482D01*
X116285Y103081D01*
X117323Y102945D01*
X118361Y103081D01*
X119328Y103482D01*
X120159Y104119D01*
X120796Y104950D01*
X121197Y105917D01*
X121334Y106955D01*
X121197Y107993D01*
X120796Y108961D01*
X120159Y109791D01*
X119328Y110429D01*
X118361Y110829D01*
X117323Y110966D01*
D02*
G37*
G36*
X126823Y106455D02*
X123005D01*
X123088Y105821D01*
X123526Y104763D01*
X124223Y103855D01*
X125131Y103159D01*
X126188Y102721D01*
X126823Y102637D01*
Y106455D01*
D02*
G37*
G36*
X131641D02*
X127823D01*
Y102637D01*
X128457Y102721D01*
X129515Y103159D01*
X130423Y103855D01*
X131120Y104763D01*
X131557Y105821D01*
X131641Y106455D01*
D02*
G37*
G36*
X253976Y108307D02*
X246811D01*
Y101142D01*
X253976D01*
Y108307D01*
D02*
G37*
G36*
X279604Y102653D02*
X276878D01*
Y99926D01*
X277230Y99973D01*
X278024Y100302D01*
X278706Y100825D01*
X279229Y101507D01*
X279558Y102301D01*
X279604Y102653D01*
D02*
G37*
G36*
X275878D02*
X273152D01*
X273198Y102301D01*
X273527Y101507D01*
X274050Y100825D01*
X274732Y100302D01*
X275526Y99973D01*
X275878Y99926D01*
Y102653D01*
D02*
G37*
G36*
X276378Y98170D02*
X275623Y98070D01*
X274919Y97779D01*
X274314Y97315D01*
X273850Y96710D01*
X273559Y96006D01*
X273459Y95251D01*
X273559Y94496D01*
X273850Y93792D01*
X274314Y93187D01*
X274919Y92723D01*
X275623Y92432D01*
X276378Y92332D01*
X277133Y92432D01*
X277837Y92723D01*
X278442Y93187D01*
X278906Y93792D01*
X279197Y94496D01*
X279297Y95251D01*
X279197Y96006D01*
X278906Y96710D01*
X278442Y97315D01*
X277837Y97779D01*
X277133Y98070D01*
X276378Y98170D01*
D02*
G37*
G36*
X172283Y161863D02*
X171312Y161735D01*
X170407Y161360D01*
X169630Y160764D01*
X169034Y159986D01*
X168659Y159081D01*
X168531Y158110D01*
X168659Y157139D01*
X169034Y156234D01*
X169630Y155457D01*
X170407Y154860D01*
X171312Y154485D01*
X171984Y154397D01*
Y150000D01*
X172079Y149524D01*
X172348Y149120D01*
X191246Y130222D01*
X191650Y129953D01*
X192126Y129858D01*
X230587D01*
X234976Y125469D01*
Y98819D01*
X235071Y98343D01*
X235341Y97939D01*
X240852Y92427D01*
X241256Y92157D01*
X241732Y92063D01*
X260902D01*
X266049Y86915D01*
X266453Y86646D01*
X266929Y86551D01*
X273578D01*
X273850Y85894D01*
X274314Y85290D01*
X274919Y84826D01*
X275623Y84534D01*
X276378Y84435D01*
X277133Y84534D01*
X277837Y84826D01*
X278442Y85290D01*
X278906Y85894D01*
X279197Y86598D01*
X279297Y87353D01*
X279197Y88109D01*
X278906Y88813D01*
X278442Y89417D01*
X277837Y89881D01*
X277133Y90173D01*
X276378Y90272D01*
X275623Y90173D01*
X274919Y89881D01*
X274314Y89417D01*
X274025Y89040D01*
X267445D01*
X262297Y94187D01*
X261894Y94457D01*
X261417Y94551D01*
X242248D01*
X237465Y99334D01*
Y125984D01*
X237370Y126461D01*
X237100Y126864D01*
X231982Y131982D01*
X231579Y132252D01*
X231102Y132347D01*
X192641D01*
X174473Y150515D01*
Y155101D01*
X174937Y155457D01*
X175533Y156234D01*
X175908Y157139D01*
X176036Y158110D01*
X175908Y159081D01*
X175533Y159986D01*
X174937Y160764D01*
X174160Y161360D01*
X173255Y161735D01*
X172283Y161863D01*
D02*
G37*
G36*
X41142Y93346D02*
X40155Y93216D01*
X39236Y92835D01*
X38446Y92229D01*
X37840Y91439D01*
X37459Y90520D01*
X37330Y89534D01*
Y87959D01*
X37459Y86972D01*
X37840Y86053D01*
X38446Y85263D01*
X39236Y84657D01*
X40155Y84276D01*
X41142Y84146D01*
X42128Y84276D01*
X43048Y84657D01*
X43837Y85263D01*
X44443Y86053D01*
X44824Y86972D01*
X44954Y87959D01*
Y89534D01*
X44824Y90520D01*
X44443Y91439D01*
X43837Y92229D01*
X43048Y92835D01*
X42128Y93216D01*
X41142Y93346D01*
D02*
G37*
G36*
X250894Y85023D02*
Y81602D01*
X254315D01*
X254245Y82134D01*
X253846Y83096D01*
X253213Y83921D01*
X252387Y84555D01*
X251426Y84953D01*
X250894Y85023D01*
D02*
G37*
G36*
X249894D02*
X249362Y84953D01*
X248400Y84555D01*
X247575Y83921D01*
X246941Y83096D01*
X246543Y82134D01*
X246473Y81602D01*
X249894D01*
Y85023D01*
D02*
G37*
G36*
X127980Y84764D02*
Y80946D01*
X131799D01*
X131715Y81581D01*
X131277Y82638D01*
X130580Y83546D01*
X129672Y84243D01*
X128615Y84681D01*
X127980Y84764D01*
D02*
G37*
G36*
X126980D02*
X126346Y84681D01*
X125288Y84243D01*
X124380Y83546D01*
X123684Y82638D01*
X123246Y81581D01*
X123162Y80946D01*
X126980D01*
Y84764D01*
D02*
G37*
G36*
X279272Y82345D02*
X273484D01*
Y76558D01*
X279272D01*
Y82345D01*
D02*
G37*
G36*
X117480Y84457D02*
X116442Y84320D01*
X115475Y83920D01*
X114644Y83282D01*
X114007Y82451D01*
X113606Y81484D01*
X113470Y80446D01*
X113606Y79408D01*
X114007Y78441D01*
X114644Y77610D01*
X115475Y76973D01*
X116442Y76572D01*
X117480Y76436D01*
X118518Y76572D01*
X119486Y76973D01*
X120316Y77610D01*
X120954Y78441D01*
X121354Y79408D01*
X121491Y80446D01*
X121354Y81484D01*
X120954Y82451D01*
X120316Y83282D01*
X119486Y83920D01*
X118518Y84320D01*
X117480Y84457D01*
D02*
G37*
G36*
X131799Y79946D02*
X127980D01*
Y76128D01*
X128615Y76212D01*
X129672Y76650D01*
X130580Y77346D01*
X131277Y78254D01*
X131715Y79312D01*
X131799Y79946D01*
D02*
G37*
G36*
X126980D02*
X123162D01*
X123246Y79312D01*
X123684Y78254D01*
X124380Y77346D01*
X125288Y76650D01*
X126346Y76212D01*
X126980Y76128D01*
Y79946D01*
D02*
G37*
G36*
X254315Y80602D02*
X250394D01*
X246473D01*
X246543Y80071D01*
X246941Y79109D01*
X247575Y78283D01*
X248400Y77650D01*
X249362Y77251D01*
X249517Y77231D01*
Y76727D01*
X249458Y76719D01*
X248587Y76358D01*
X247838Y75783D01*
X247264Y75035D01*
X246903Y74164D01*
X246780Y73228D01*
X246903Y72293D01*
X247264Y71422D01*
X247838Y70673D01*
X248587Y70099D01*
X249458Y69738D01*
X250394Y69615D01*
X251329Y69738D01*
X252201Y70099D01*
X252949Y70673D01*
X253523Y71422D01*
X253884Y72293D01*
X254007Y73228D01*
X253884Y74164D01*
X253523Y75035D01*
X252949Y75783D01*
X252201Y76358D01*
X251329Y76719D01*
X251270Y76727D01*
Y77231D01*
X251426Y77251D01*
X252387Y77650D01*
X253213Y78283D01*
X253846Y79109D01*
X254245Y80071D01*
X254315Y80602D01*
D02*
G37*
G36*
X226839Y66643D02*
Y62626D01*
X230855D01*
X230765Y63312D01*
X230307Y64417D01*
X229579Y65366D01*
X228630Y66094D01*
X227525Y66552D01*
X226839Y66643D01*
D02*
G37*
G36*
X176839D02*
Y62626D01*
X180855D01*
X180765Y63312D01*
X180307Y64417D01*
X179579Y65366D01*
X178630Y66094D01*
X177525Y66552D01*
X176839Y66643D01*
D02*
G37*
G36*
X225839D02*
X225152Y66552D01*
X224047Y66094D01*
X223098Y65366D01*
X222370Y64417D01*
X221912Y63312D01*
X221822Y62626D01*
X225839D01*
Y66643D01*
D02*
G37*
G36*
X175839D02*
X175153Y66552D01*
X174047Y66094D01*
X173098Y65366D01*
X172370Y64417D01*
X171912Y63312D01*
X171822Y62626D01*
X175839D01*
Y66643D01*
D02*
G37*
G36*
X250394Y68968D02*
X249458Y68845D01*
X248587Y68484D01*
X247838Y67909D01*
X247264Y67161D01*
X246903Y66290D01*
X246780Y65354D01*
X246903Y64419D01*
X247264Y63547D01*
X247838Y62799D01*
X248587Y62225D01*
X249458Y61864D01*
X250394Y61741D01*
X251329Y61864D01*
X252201Y62225D01*
X252949Y62799D01*
X253523Y63547D01*
X253884Y64419D01*
X254007Y65354D01*
X253884Y66290D01*
X253523Y67161D01*
X252949Y67909D01*
X252201Y68484D01*
X251329Y68845D01*
X250394Y68968D01*
D02*
G37*
G36*
X276878Y61118D02*
Y58392D01*
X279604D01*
X279558Y58744D01*
X279229Y59538D01*
X278706Y60219D01*
X278024Y60743D01*
X277230Y61071D01*
X276878Y61118D01*
D02*
G37*
G36*
X275878D02*
X275526Y61071D01*
X274732Y60743D01*
X274050Y60219D01*
X273527Y59538D01*
X273198Y58744D01*
X273152Y58392D01*
X275878D01*
Y61118D01*
D02*
G37*
G36*
X186221Y66414D02*
X185131Y66271D01*
X184116Y65850D01*
X183244Y65181D01*
X182575Y64309D01*
X182155Y63294D01*
X182011Y62205D01*
X182155Y61115D01*
X182575Y60100D01*
X183244Y59228D01*
X184116Y58559D01*
X185131Y58139D01*
X186221Y57995D01*
X187310Y58139D01*
X188325Y58559D01*
X189197Y59228D01*
X189866Y60100D01*
X190286Y61115D01*
X190430Y62205D01*
X190286Y63294D01*
X189866Y64309D01*
X189197Y65181D01*
X188325Y65850D01*
X187310Y66271D01*
X186221Y66414D01*
D02*
G37*
G36*
X160512Y66299D02*
X152165D01*
Y57953D01*
X160512D01*
Y66299D01*
D02*
G37*
G36*
X216339Y66335D02*
X215249Y66192D01*
X214234Y65771D01*
X213362Y65102D01*
X212693Y64231D01*
X212273Y63215D01*
X212129Y62126D01*
X212273Y61036D01*
X212693Y60021D01*
X213362Y59150D01*
X214234Y58481D01*
X215249Y58060D01*
X216339Y57917D01*
X217428Y58060D01*
X218443Y58481D01*
X219315Y59150D01*
X219984Y60021D01*
X220404Y61036D01*
X220548Y62126D01*
X220404Y63215D01*
X219984Y64231D01*
X219315Y65102D01*
X218443Y65771D01*
X217428Y66192D01*
X216339Y66335D01*
D02*
G37*
G36*
X206339D02*
X205249Y66192D01*
X204234Y65771D01*
X203362Y65102D01*
X202693Y64231D01*
X202273Y63215D01*
X202129Y62126D01*
X202273Y61036D01*
X202693Y60021D01*
X203362Y59150D01*
X204234Y58481D01*
X205249Y58060D01*
X206339Y57917D01*
X207428Y58060D01*
X208443Y58481D01*
X209315Y59150D01*
X209984Y60021D01*
X210404Y61036D01*
X210548Y62126D01*
X210404Y63215D01*
X209984Y64231D01*
X209315Y65102D01*
X208443Y65771D01*
X207428Y66192D01*
X206339Y66335D01*
D02*
G37*
G36*
X196339D02*
X195249Y66192D01*
X194234Y65771D01*
X193362Y65102D01*
X192693Y64231D01*
X192273Y63215D01*
X192129Y62126D01*
X192273Y61036D01*
X192693Y60021D01*
X193362Y59150D01*
X194234Y58481D01*
X195249Y58060D01*
X196339Y57917D01*
X197428Y58060D01*
X198443Y58481D01*
X199315Y59150D01*
X199984Y60021D01*
X200404Y61036D01*
X200548Y62126D01*
X200404Y63215D01*
X199984Y64231D01*
X199315Y65102D01*
X198443Y65771D01*
X197428Y66192D01*
X196339Y66335D01*
D02*
G37*
G36*
X166339D02*
X165249Y66192D01*
X164234Y65771D01*
X163362Y65102D01*
X162693Y64231D01*
X162273Y63215D01*
X162129Y62126D01*
X162273Y61036D01*
X162693Y60021D01*
X163362Y59150D01*
X164234Y58481D01*
X165249Y58060D01*
X166339Y57917D01*
X167428Y58060D01*
X168443Y58481D01*
X169315Y59150D01*
X169984Y60021D01*
X170404Y61036D01*
X170548Y62126D01*
X170404Y63215D01*
X169984Y64231D01*
X169315Y65102D01*
X168443Y65771D01*
X167428Y66192D01*
X166339Y66335D01*
D02*
G37*
G36*
X230855Y61626D02*
X226839D01*
Y57609D01*
X227525Y57700D01*
X228630Y58157D01*
X229579Y58886D01*
X230307Y59835D01*
X230765Y60940D01*
X230855Y61626D01*
D02*
G37*
G36*
X180855D02*
X176839D01*
Y57609D01*
X177525Y57700D01*
X178630Y58157D01*
X179579Y58886D01*
X180307Y59835D01*
X180765Y60940D01*
X180855Y61626D01*
D02*
G37*
G36*
X225839D02*
X221822D01*
X221912Y60940D01*
X222370Y59835D01*
X223098Y58886D01*
X224047Y58157D01*
X225152Y57700D01*
X225839Y57609D01*
Y61626D01*
D02*
G37*
G36*
X175839D02*
X171822D01*
X171912Y60940D01*
X172370Y59835D01*
X173098Y58886D01*
X174047Y58157D01*
X175153Y57700D01*
X175839Y57609D01*
Y61626D01*
D02*
G37*
G36*
X279604Y57392D02*
X276878D01*
Y54666D01*
X277230Y54712D01*
X278024Y55041D01*
X278706Y55564D01*
X279229Y56246D01*
X279558Y57040D01*
X279604Y57392D01*
D02*
G37*
G36*
X275878D02*
X273152D01*
X273198Y57040D01*
X273527Y56246D01*
X274050Y55564D01*
X274732Y55041D01*
X275526Y54712D01*
X275878Y54666D01*
Y57392D01*
D02*
G37*
G36*
X128768Y58255D02*
Y54437D01*
X132586D01*
X132502Y55072D01*
X132064Y56129D01*
X131368Y57037D01*
X130460Y57734D01*
X129402Y58172D01*
X128768Y58255D01*
D02*
G37*
G36*
X127768D02*
X127133Y58172D01*
X126076Y57734D01*
X125168Y57037D01*
X124471Y56129D01*
X124033Y55072D01*
X123950Y54437D01*
X127768D01*
Y58255D01*
D02*
G37*
G36*
X253976Y61063D02*
X246811D01*
Y53898D01*
X253976D01*
Y61063D01*
D02*
G37*
G36*
X41142Y60061D02*
X40155Y59931D01*
X39236Y59550D01*
X38446Y58945D01*
X37840Y58155D01*
X37459Y57236D01*
X37330Y56249D01*
Y54674D01*
X37459Y53688D01*
X37840Y52768D01*
X38446Y51979D01*
X39236Y51373D01*
X40155Y50992D01*
X41142Y50862D01*
X42128Y50992D01*
X43048Y51373D01*
X43837Y51979D01*
X44443Y52768D01*
X44824Y53688D01*
X44954Y54674D01*
Y56249D01*
X44824Y57236D01*
X44443Y58155D01*
X43837Y58945D01*
X43048Y59550D01*
X42128Y59931D01*
X41142Y60061D01*
D02*
G37*
G36*
X118268Y57948D02*
X117230Y57811D01*
X116262Y57410D01*
X115432Y56773D01*
X114794Y55942D01*
X114394Y54975D01*
X114257Y53937D01*
X114394Y52899D01*
X114794Y51932D01*
X115432Y51101D01*
X116262Y50464D01*
X117230Y50063D01*
X118268Y49926D01*
X119306Y50063D01*
X120273Y50464D01*
X121104Y51101D01*
X121741Y51932D01*
X122142Y52899D01*
X122278Y53937D01*
X122142Y54975D01*
X121741Y55942D01*
X121104Y56773D01*
X120273Y57410D01*
X119306Y57811D01*
X118268Y57948D01*
D02*
G37*
G36*
X132586Y53437D02*
X128768D01*
Y49619D01*
X129402Y49702D01*
X130460Y50140D01*
X131368Y50837D01*
X132064Y51745D01*
X132502Y52802D01*
X132586Y53437D01*
D02*
G37*
G36*
X127768D02*
X123950D01*
X124033Y52802D01*
X124471Y51745D01*
X125168Y50837D01*
X126076Y50140D01*
X127133Y49702D01*
X127768Y49619D01*
Y53437D01*
D02*
G37*
G36*
X276378Y52909D02*
X275623Y52809D01*
X274919Y52518D01*
X274314Y52054D01*
X273850Y51450D01*
X273559Y50745D01*
X273459Y49990D01*
X273559Y49235D01*
X273850Y48531D01*
X274314Y47926D01*
X274919Y47462D01*
X275623Y47171D01*
X276378Y47071D01*
X277133Y47171D01*
X277837Y47462D01*
X278442Y47926D01*
X278906Y48531D01*
X279197Y49235D01*
X279297Y49990D01*
X279197Y50745D01*
X278906Y51450D01*
X278442Y52054D01*
X277837Y52518D01*
X277133Y52809D01*
X276378Y52909D01*
D02*
G37*
G36*
Y45011D02*
X275623Y44912D01*
X274919Y44620D01*
X274314Y44156D01*
X273850Y43552D01*
X273559Y42848D01*
X273459Y42092D01*
X273559Y41337D01*
X273850Y40633D01*
X274314Y40029D01*
X274919Y39565D01*
X275623Y39273D01*
X276378Y39174D01*
X277133Y39273D01*
X277837Y39565D01*
X278442Y40029D01*
X278906Y40633D01*
X279197Y41337D01*
X279297Y42092D01*
X279197Y42848D01*
X278906Y43552D01*
X278442Y44156D01*
X277837Y44620D01*
X277133Y44912D01*
X276378Y45011D01*
D02*
G37*
G36*
X161417Y54209D02*
X160711Y54068D01*
X160112Y53668D01*
X159711Y53069D01*
X159571Y52362D01*
X159711Y51656D01*
X160112Y51056D01*
X160711Y50656D01*
X161417Y50516D01*
X161490Y50530D01*
X175892Y36128D01*
X176295Y35858D01*
X176772Y35763D01*
X217945D01*
X217986Y35702D01*
X218585Y35302D01*
X219291Y35161D01*
X219998Y35302D01*
X220597Y35702D01*
X220997Y36301D01*
X221138Y37008D01*
X220997Y37714D01*
X220597Y38313D01*
X219998Y38714D01*
X219291Y38854D01*
X218585Y38714D01*
X217986Y38313D01*
X217945Y38252D01*
X177287D01*
X163249Y52290D01*
X163264Y52362D01*
X163123Y53069D01*
X162723Y53668D01*
X162124Y54068D01*
X161417Y54209D01*
D02*
G37*
G36*
X250894Y37779D02*
Y34358D01*
X254315D01*
X254245Y34890D01*
X253846Y35852D01*
X253213Y36677D01*
X252387Y37311D01*
X251426Y37709D01*
X250894Y37779D01*
D02*
G37*
G36*
X249894Y37779D02*
X249362Y37709D01*
X248400Y37311D01*
X247575Y36677D01*
X246941Y35852D01*
X246543Y34890D01*
X246473Y34358D01*
X249894D01*
Y37779D01*
D02*
G37*
G36*
X279272Y37085D02*
X273484D01*
Y31297D01*
X279272D01*
Y37085D01*
D02*
G37*
G36*
X250394Y33858D02*
D01*
Y33358D01*
X246473D01*
X246543Y32826D01*
X246941Y31865D01*
X247575Y31039D01*
X248400Y30406D01*
X249362Y30007D01*
X249517Y29987D01*
Y29482D01*
X249458Y29475D01*
X248587Y29114D01*
X247838Y28539D01*
X247264Y27791D01*
X246903Y26919D01*
X246780Y25984D01*
X246903Y25049D01*
X247264Y24178D01*
X247838Y23429D01*
X248587Y22855D01*
X249458Y22494D01*
X250394Y22371D01*
X251329Y22494D01*
X252201Y22855D01*
X252949Y23429D01*
X253523Y24178D01*
X253884Y25049D01*
X254007Y25984D01*
X253884Y26919D01*
X253523Y27791D01*
X252949Y28539D01*
X252201Y29114D01*
X251329Y29475D01*
X251270Y29482D01*
Y29987D01*
X251426Y30007D01*
X252387Y30406D01*
X253213Y31039D01*
X253846Y31865D01*
X254245Y32826D01*
X254315Y33358D01*
X250394D01*
Y33858D01*
D02*
G37*
G36*
X164988Y23617D02*
Y18216D01*
X170389D01*
X170324Y18877D01*
X169985Y19994D01*
X169435Y21022D01*
X168695Y21924D01*
X167794Y22664D01*
X166765Y23213D01*
X165649Y23552D01*
X164988Y23617D01*
D02*
G37*
G36*
X163988D02*
X163327Y23552D01*
X162211Y23213D01*
X161183Y22664D01*
X160281Y21924D01*
X159541Y21022D01*
X158991Y19994D01*
X158653Y18877D01*
X158588Y18216D01*
X163988D01*
Y23617D01*
D02*
G37*
G36*
X230028Y20453D02*
Y17429D01*
X233051D01*
X232995Y17858D01*
X232636Y18724D01*
X232066Y19467D01*
X231322Y20038D01*
X230457Y20397D01*
X230028Y20453D01*
D02*
G37*
G36*
X229028D02*
X228598Y20397D01*
X227733Y20038D01*
X226989Y19467D01*
X226419Y18724D01*
X226060Y17858D01*
X226004Y17429D01*
X229028D01*
Y20453D01*
D02*
G37*
G36*
X250394Y21724D02*
X249458Y21601D01*
X248587Y21240D01*
X247838Y20665D01*
X247264Y19917D01*
X246903Y19046D01*
X246780Y18110D01*
X246903Y17175D01*
X247264Y16304D01*
X247838Y15555D01*
X248587Y14981D01*
X249458Y14620D01*
X250394Y14497D01*
X251329Y14620D01*
X252201Y14981D01*
X252949Y15555D01*
X253523Y16304D01*
X253884Y17175D01*
X254007Y18110D01*
X253884Y19046D01*
X253523Y19917D01*
X252949Y20665D01*
X252201Y21240D01*
X251329Y21601D01*
X250394Y21724D01*
D02*
G37*
%LPD*%
D20*
X279331Y175984D02*
D03*
X274213D02*
D03*
X279724Y166929D02*
D03*
X274606D02*
D03*
X291535D02*
D03*
X296654D02*
D03*
Y175984D02*
D03*
X291535D02*
D03*
D43*
X162284Y168110D02*
D03*
X172283D02*
D03*
X182283D02*
D03*
X192283D02*
D03*
X202284D02*
D03*
X212283D02*
D03*
X222284D02*
D03*
X232283D02*
D03*
X242284D02*
D03*
X252284D02*
D03*
X162284Y158110D02*
D03*
X172283D02*
D03*
X182283D02*
D03*
X192283D02*
D03*
X202284D02*
D03*
X212283D02*
D03*
X222284D02*
D03*
X232283D02*
D03*
X242284D02*
D03*
D44*
X252284D02*
D03*
D51*
X76985Y183481D02*
D03*
X229528Y16929D02*
D03*
X221654D02*
D03*
X213779D02*
D03*
X205906D02*
D03*
X198031D02*
D03*
X40945Y183268D02*
D03*
D52*
X190157Y16929D02*
D03*
D53*
X76985Y197261D02*
D03*
X40945Y197047D02*
D03*
D54*
X291535Y175984D02*
Y179724D01*
X285039Y186221D02*
X291535Y179724D01*
X280709Y186221D02*
X285039D01*
X259842Y201575D02*
X265354D01*
X134252D02*
X259842D01*
X127165Y203937D02*
X131890Y199213D01*
X279331Y175984D02*
Y182480D01*
X264173Y197638D02*
X279331Y182480D01*
X265354Y201575D02*
X280709Y186221D01*
X229134Y197638D02*
X264173D01*
X40945Y197047D02*
X47835Y203937D01*
X127165D01*
X131890Y186811D02*
Y199213D01*
X131890Y199213D02*
X134252Y201575D01*
X72835Y177165D02*
X92520D01*
X53723Y158054D02*
X72835Y177165D01*
X100000Y126772D02*
Y143307D01*
X103150Y123622D02*
X121653D01*
X100000Y126772D02*
X103150Y123622D01*
X131890Y175197D02*
Y186811D01*
X100000Y143307D02*
X131890Y175197D01*
X50984Y55462D02*
Y88746D01*
Y122030D01*
Y155315D01*
D55*
X283858Y157874D02*
X286614D01*
X291535Y162795D01*
Y166929D01*
X267717Y161024D02*
X274803Y153937D01*
X285433D02*
X294094Y145276D01*
X274803Y153937D02*
X285433D01*
X296555Y166831D02*
X296654Y166929D01*
X296555Y163484D02*
Y166831D01*
X296457Y163386D02*
X296555Y163484D01*
Y176083D02*
X296654Y175984D01*
X296555Y176083D02*
Y179823D01*
X296457Y179921D02*
X296555Y179823D01*
X274606Y163189D02*
Y167282D01*
X274213Y175984D02*
X274311Y176083D01*
Y179429D01*
X274410Y179528D01*
X279724Y160827D02*
Y166929D01*
Y160827D02*
X279921Y160630D01*
X294094Y118898D02*
Y145276D01*
X250394Y112598D02*
X287795D01*
X294094Y118898D01*
X267717Y161024D02*
Y176772D01*
X257087Y187402D02*
X267717Y176772D01*
X269589Y119291D02*
X287795D01*
X264173Y124708D02*
Y135827D01*
Y124708D02*
X269589Y119291D01*
X254724Y145276D02*
X264173Y135827D01*
X262598Y146012D02*
X276378Y132232D01*
X209449Y145276D02*
X254724D01*
X287795Y119291D02*
Y119291D01*
X254331Y193701D02*
X259842D01*
X266929Y87795D02*
X276378D01*
X148819Y174803D02*
X178740D01*
X144095Y170079D02*
X148819Y174803D01*
X206339Y116575D02*
Y122126D01*
X196063Y106299D02*
X206339Y116575D01*
X176378Y106299D02*
X196063D01*
X166339Y116339D02*
Y122126D01*
X196339Y116417D02*
Y122126D01*
X176339Y116181D02*
X179134Y113386D01*
X193307D01*
X176339Y116181D02*
Y122126D01*
X166339Y116339D02*
X176378Y106299D01*
X193307Y113386D02*
X196339Y116417D01*
X53468Y158054D02*
X53723D01*
X50984Y155315D02*
Y155570D01*
X53468Y158054D01*
X198031Y187402D02*
X257087D01*
X193661Y183031D02*
X198031Y187402D01*
X80709Y71653D02*
X98425Y53937D01*
X80709Y156693D02*
X94882Y170866D01*
X80709Y71653D02*
Y156693D01*
X98425Y53937D02*
X108268D01*
X94882Y170866D02*
X118110D01*
X102100Y106955D02*
X107323D01*
X93701Y115354D02*
Y148425D01*
Y115354D02*
X102100Y106955D01*
X87795Y93307D02*
X100656Y80446D01*
X107480D01*
X87795Y93307D02*
Y151969D01*
X95036Y159209D02*
X106410D01*
X87795Y151969D02*
X95036Y159209D01*
X131693Y152559D02*
Y159209D01*
X125197Y146063D02*
X131693Y152559D01*
X107953Y139055D02*
X114961Y146063D01*
X125197D01*
X107953Y133465D02*
Y139055D01*
Y133465D02*
X110430Y135942D01*
X253150Y181496D02*
X262598Y172047D01*
X200000Y181496D02*
X253150D01*
X262598Y146012D02*
Y172047D01*
X161417Y52362D02*
X176772Y37008D01*
X219291D01*
X137402Y69291D02*
Y173622D01*
X145276Y181496D01*
X198031Y22441D02*
X205512Y29921D01*
X243307Y42913D02*
X261417D01*
X205512Y29921D02*
X230315D01*
X243307Y42913D01*
X261417D02*
X267717Y49213D01*
X203661Y151063D02*
X209449Y145276D01*
X173228Y150000D02*
X192126Y131102D01*
X193661Y150039D02*
X205906Y137795D01*
X172714Y157677D02*
X173147Y158110D01*
X173228Y150000D02*
Y157480D01*
X192126Y131102D02*
X231102D01*
X193661Y150039D02*
Y157913D01*
Y167913D02*
Y183031D01*
X144095Y37323D02*
Y170079D01*
X124488Y17717D02*
X144095Y37323D01*
X145276Y181496D02*
X181102D01*
X183661Y178937D01*
Y167913D02*
Y178937D01*
X236221Y98819D02*
X241732Y93307D01*
X231102Y131102D02*
X236221Y125984D01*
Y98819D02*
Y125984D01*
X241732Y93307D02*
X261417D01*
X266929Y87795D01*
X242126Y122047D02*
Y128740D01*
X205906Y137795D02*
X233071D01*
X242126Y128740D01*
X203661Y151063D02*
Y157913D01*
X198031Y16929D02*
Y22441D01*
X203117Y168140D02*
X203147Y168110D01*
X116142Y186811D02*
Y192126D01*
X76985Y197261D02*
X111007D01*
X116142Y192126D01*
D56*
X186221Y62205D02*
D03*
X226339Y122126D02*
D03*
X216339D02*
D03*
X206339D02*
D03*
X196339D02*
D03*
X186339D02*
D03*
X176339D02*
D03*
X166339D02*
D03*
X156339D02*
D03*
X226339Y62126D02*
D03*
X216339D02*
D03*
X206339D02*
D03*
X196339D02*
D03*
X176339D02*
D03*
X166339D02*
D03*
D57*
X156339D02*
D03*
D58*
X276378Y124331D02*
D03*
Y79452D02*
D03*
X276378Y34191D02*
D03*
D59*
X276378Y132232D02*
D03*
Y140130D02*
D03*
Y148031D02*
D03*
Y87353D02*
D03*
Y95251D02*
D03*
Y103153D02*
D03*
X276378Y42092D02*
D03*
Y49990D02*
D03*
Y57892D02*
D03*
D60*
X287402Y195669D02*
D03*
Y13386D02*
D03*
X13386D02*
D03*
Y195669D02*
D03*
D61*
X250394Y81102D02*
D03*
Y65354D02*
D03*
Y73228D02*
D03*
Y128347D02*
D03*
Y112598D02*
D03*
Y120472D02*
D03*
Y33858D02*
D03*
Y18110D02*
D03*
Y25984D02*
D03*
X108268Y186811D02*
D03*
X124016D02*
D03*
X116142D02*
D03*
D62*
X250394Y57480D02*
D03*
Y104724D02*
D03*
Y10236D02*
D03*
D63*
X124488Y17717D02*
D03*
D64*
X144488D02*
D03*
X164488D02*
D03*
D65*
X107953Y133465D02*
D03*
X107323Y106955D02*
D03*
X107480Y80446D02*
D03*
X108268Y53937D02*
D03*
D66*
X117953Y133465D02*
D03*
X127953D02*
D03*
X117323Y106955D02*
D03*
X127323D02*
D03*
X117480Y80446D02*
D03*
X127480D02*
D03*
X118268Y53937D02*
D03*
X128268D02*
D03*
D67*
X50984Y155315D02*
D03*
Y55462D02*
D03*
Y88746D02*
D03*
Y122030D02*
D03*
D68*
X41142Y155315D02*
D03*
Y55462D02*
D03*
Y88746D02*
D03*
Y122030D02*
D03*
D69*
X131890Y186811D02*
D03*
D70*
X57583Y16862D02*
D03*
X77583D02*
D03*
D71*
X283858Y157874D02*
D03*
X296457Y179921D02*
D03*
Y163386D02*
D03*
X274410Y179528D02*
D03*
X274606Y163189D02*
D03*
X279921Y160630D02*
D03*
X254331Y193701D02*
D03*
X229134Y197638D02*
D03*
X178740Y174803D02*
D03*
X92520Y177165D02*
D03*
X121653Y123622D02*
D03*
X118110Y170866D02*
D03*
X93701Y148425D02*
D03*
X106410Y159209D02*
D03*
X131693D02*
D03*
X161417Y52362D02*
D03*
X137402Y69291D02*
D03*
X219291Y37008D02*
D03*
X200000Y181496D02*
D03*
X242126Y122047D02*
D03*
X287795Y119291D02*
D03*
X267717Y49213D02*
D03*
D72*
X259842Y193701D02*
D03*
Y197638D02*
D03*
Y201575D02*
D03*
M02*
