M48
;Layer_Color=9474304
;FILE_FORMAT=2:5
INCH,LZ
;TYPE=PLATED
T1F00S00C0.01181
T2F00S00C0.03150
T3F00S00C0.03937
T4F00S00C0.04016
T5F00S00C0.04331
T6F00S00C0.04724
T7F00S00C0.05118
;TYPE=NON_PLATED
T8F00S00C0.11811
%
T01
X0161417Y0052362
X0219291Y0037008
X0267717Y0049213
X0287795Y0119291
X0283858Y0157874
X0279921Y016063
X0274606Y0163189
X027441Y0179528
X0296457Y0179921
Y0163386
X0254331Y0193701
X0229134Y0197638
X0242126Y0122047
X02Y0181496
X017874Y0174803
X0131693Y0159209
X011811Y0170866
X010641Y0159209
X0093701Y0148425
X009252Y0177165
X0121653Y0123622
X0137402Y0069291
T02
X0190157Y0016929
X0198031
X0205906
X0213779
X0221654
X0229528
X0276378Y0034191
Y0042092
Y004999
Y0057892
X0276378Y0079452
Y0087353
Y0095251
Y0103153
Y0124331
Y0132232
Y014013
Y0148031
X0076985Y0183481
Y0197261
X0040945Y0197047
Y0183268
T03
X0250394Y0010236
Y001811
Y0025984
Y0033858
Y005748
Y0065354
Y0073228
Y0081102
Y0104724
Y0112598
Y0120472
Y0128347
X013189Y0186811
X0124016
X0116142
X0108268
T04
X0222284Y015811
Y016811
X0232283
X0242284
X0252284
Y015811
X0242284
X0232283
X0212283
Y016811
X0202284
X0192283
X0182283
X0172283
X0162284
Y015811
X0172283
X0182283
X0192283
X0202284
T05
X0108268Y0053937
X0118268
X0128268
X0216339Y0062126
X0226339
Y0122126
X0216339
X0206339
X0196339
X0186339
X0176339
X0166339
X0156339
X0127953Y0133465
X0117953
X0107953
X0107323Y0106955
X0117323
X0127323
X012748Y0080446
X011748
X010748
X0156339Y0062126
X0166339
X0176339
X0186221Y0062205
X0196339Y0062126
X0206339
T06
X0041142Y0055462
X0050984
Y0088746
X0041142
Y012203
X0050984
Y0155315
X0041142
T07
X0057583Y0016862
X0077583
X0124488Y0017717
X0144488
X0164488
T08
X0013386Y0013386
X0287402
Y0195669
X0013386
M30
