G04*
G04 #@! TF.GenerationSoftware,Altium Limited,Altium Designer,20.1.8 (145)*
G04*
G04 Layer_Color=16711935*
%FSLAX25Y25*%
%MOIN*%
G70*
G04*
G04 #@! TF.SameCoordinates,5DAE46FA-DCB4-4479-A142-53610109B6E0*
G04*
G04*
G04 #@! TF.FilePolarity,Negative*
G04*
G01*
G75*
%ADD33C,0.12611*%
%ADD34C,0.05918*%
%ADD35R,0.05918X0.05918*%
%ADD36C,0.06706*%
%ADD37R,0.06706X0.06706*%
%ADD38R,0.10642X0.10642*%
%ADD39C,0.10642*%
%ADD40R,0.07887X0.07887*%
%ADD41C,0.07887*%
%ADD42C,0.05524*%
%ADD43R,0.05524X0.05524*%
%ADD44C,0.06181*%
%ADD45R,0.06181X0.06181*%
%ADD46R,0.07493X0.07493*%
%ADD47C,0.07493*%
G04:AMPARAMS|DCode=48|XSize=86.74mil|YSize=70.99mil|CornerRadius=19.75mil|HoleSize=0mil|Usage=FLASHONLY|Rotation=270.000|XOffset=0mil|YOffset=0mil|HoleType=Round|Shape=RoundedRectangle|*
%AMROUNDEDRECTD48*
21,1,0.08674,0.03150,0,0,270.0*
21,1,0.04724,0.07099,0,0,270.0*
1,1,0.03950,-0.01575,-0.02362*
1,1,0.03950,-0.01575,0.02362*
1,1,0.03950,0.01575,0.02362*
1,1,0.03950,0.01575,-0.02362*
%
%ADD48ROUNDEDRECTD48*%
%ADD49O,0.07099X0.08674*%
%ADD50R,0.06706X0.06706*%
%ADD51C,0.08280*%
%ADD52C,0.05118*%
%ADD53R,0.05118X0.05118*%
%ADD54R,0.05118X0.05118*%
D33*
X287402Y195669D02*
D03*
Y13386D02*
D03*
X13386D02*
D03*
Y195669D02*
D03*
D34*
X76985Y183481D02*
D03*
D35*
Y197261D02*
D03*
D36*
X250394Y81102D02*
D03*
Y65354D02*
D03*
Y73228D02*
D03*
Y128347D02*
D03*
Y112598D02*
D03*
Y120472D02*
D03*
Y33858D02*
D03*
Y18110D02*
D03*
Y25984D02*
D03*
X108268Y186811D02*
D03*
X124016D02*
D03*
X116142D02*
D03*
D37*
X250394Y57480D02*
D03*
Y104724D02*
D03*
Y10236D02*
D03*
D38*
X124488Y17717D02*
D03*
D39*
X144488D02*
D03*
X164488D02*
D03*
D40*
X156339Y62126D02*
D03*
D41*
X166339D02*
D03*
X176339D02*
D03*
X196339D02*
D03*
X206339D02*
D03*
X216339D02*
D03*
X226339D02*
D03*
X156339Y122126D02*
D03*
X166339D02*
D03*
X176339D02*
D03*
X186339D02*
D03*
X196339D02*
D03*
X206339D02*
D03*
X216339D02*
D03*
X226339D02*
D03*
X186221Y62205D02*
D03*
D42*
X276378Y123015D02*
D03*
Y117109D02*
D03*
Y111204D02*
D03*
Y88352D02*
D03*
Y82447D02*
D03*
Y76541D02*
D03*
Y41879D02*
D03*
Y47784D02*
D03*
Y53690D02*
D03*
D43*
Y105298D02*
D03*
Y70636D02*
D03*
Y35973D02*
D03*
D44*
X163661Y167913D02*
D03*
X173661D02*
D03*
X183661D02*
D03*
X193661D02*
D03*
X203661D02*
D03*
X213661D02*
D03*
X223661D02*
D03*
X233661D02*
D03*
X243661D02*
D03*
X253661D02*
D03*
X163661Y157913D02*
D03*
X173661D02*
D03*
X183661D02*
D03*
X193661D02*
D03*
X203661D02*
D03*
X213661D02*
D03*
X223661D02*
D03*
X233661D02*
D03*
X243661D02*
D03*
D45*
X253661D02*
D03*
D46*
X107953Y133465D02*
D03*
X107323Y106955D02*
D03*
X107480Y80446D02*
D03*
X108268Y53937D02*
D03*
D47*
X117953Y133465D02*
D03*
X127953D02*
D03*
X117323Y106955D02*
D03*
X127323D02*
D03*
X117480Y80446D02*
D03*
X127480D02*
D03*
X118268Y53937D02*
D03*
X128268D02*
D03*
D48*
X50984Y155315D02*
D03*
Y55462D02*
D03*
Y88746D02*
D03*
Y122030D02*
D03*
D49*
X41142Y155315D02*
D03*
Y55462D02*
D03*
Y88746D02*
D03*
Y122030D02*
D03*
D50*
X131890Y186811D02*
D03*
D51*
X57583Y16862D02*
D03*
X77583D02*
D03*
D52*
X229528Y16929D02*
D03*
X221654D02*
D03*
X213779D02*
D03*
X205906D02*
D03*
X198031D02*
D03*
X40945Y183268D02*
D03*
D53*
X190157Y16929D02*
D03*
D54*
X40945Y197047D02*
D03*
M02*
