G04*
G04 #@! TF.GenerationSoftware,Altium Limited,Altium Designer,20.1.8 (145)*
G04*
G04 Layer_Physical_Order=1*
G04 Layer_Color=255*
%FSLAX25Y25*%
%MOIN*%
G70*
G04*
G04 #@! TF.SameCoordinates,5DAE46FA-DCB4-4479-A142-53610109B6E0*
G04*
G04*
G04 #@! TF.FilePolarity,Positive*
G04*
G01*
G75*
%ADD17R,0.01968X0.03740*%
%ADD18R,0.03150X0.03150*%
G04:AMPARAMS|DCode=19|XSize=31.5mil|YSize=31.5mil|CornerRadius=7.87mil|HoleSize=0mil|Usage=FLASHONLY|Rotation=180.000|XOffset=0mil|YOffset=0mil|HoleType=Round|Shape=RoundedRectangle|*
%AMROUNDEDRECTD19*
21,1,0.03150,0.01575,0,0,180.0*
21,1,0.01575,0.03150,0,0,180.0*
1,1,0.01575,-0.00787,0.00787*
1,1,0.01575,0.00787,0.00787*
1,1,0.01575,0.00787,-0.00787*
1,1,0.01575,-0.00787,-0.00787*
%
%ADD19ROUNDEDRECTD19*%
%ADD20R,0.01968X0.03937*%
%ADD21R,0.06693X0.09843*%
%ADD22R,0.03740X0.01968*%
G04:AMPARAMS|DCode=23|XSize=31.5mil|YSize=31.5mil|CornerRadius=7.87mil|HoleSize=0mil|Usage=FLASHONLY|Rotation=90.000|XOffset=0mil|YOffset=0mil|HoleType=Round|Shape=RoundedRectangle|*
%AMROUNDEDRECTD23*
21,1,0.03150,0.01575,0,0,90.0*
21,1,0.01575,0.03150,0,0,90.0*
1,1,0.01575,0.00787,0.00787*
1,1,0.01575,0.00787,-0.00787*
1,1,0.01575,-0.00787,-0.00787*
1,1,0.01575,-0.00787,0.00787*
%
%ADD23ROUNDEDRECTD23*%
%ADD24R,0.03150X0.03150*%
%ADD44C,0.06181*%
%ADD45R,0.06181X0.06181*%
%ADD52C,0.05118*%
%ADD53R,0.05118X0.05118*%
%ADD54R,0.05118X0.05118*%
%ADD55C,0.01968*%
%ADD56C,0.01181*%
%ADD57C,0.11811*%
%ADD58C,0.05906*%
%ADD59R,0.05906X0.05906*%
%ADD60R,0.09843X0.09843*%
%ADD61C,0.09843*%
%ADD62R,0.07087X0.07087*%
%ADD63C,0.07087*%
%ADD64C,0.04724*%
%ADD65R,0.04724X0.04724*%
%ADD66R,0.06693X0.06693*%
%ADD67C,0.06693*%
G04:AMPARAMS|DCode=68|XSize=78.74mil|YSize=62.99mil|CornerRadius=15.75mil|HoleSize=0mil|Usage=FLASHONLY|Rotation=270.000|XOffset=0mil|YOffset=0mil|HoleType=Round|Shape=RoundedRectangle|*
%AMROUNDEDRECTD68*
21,1,0.07874,0.03150,0,0,270.0*
21,1,0.04724,0.06299,0,0,270.0*
1,1,0.03150,-0.01575,-0.02362*
1,1,0.03150,-0.01575,0.02362*
1,1,0.03150,0.01575,0.02362*
1,1,0.03150,0.01575,-0.02362*
%
%ADD68ROUNDEDRECTD68*%
%ADD69O,0.06299X0.07874*%
%ADD70R,0.05906X0.05906*%
%ADD71C,0.07480*%
%ADD72C,0.02362*%
G36*
X278598Y194388D02*
X278972Y193156D01*
X279579Y192021D01*
X280396Y191026D01*
X281391Y190209D01*
X282526Y189602D01*
X283758Y189228D01*
X285039Y189102D01*
Y180987D01*
X284539Y180780D01*
X283447Y181872D01*
X282913Y182229D01*
X282283Y182354D01*
X276781D01*
X276691Y182415D01*
X275984Y182555D01*
X275278Y182415D01*
X274679Y182014D01*
X274278Y181415D01*
X274138Y180709D01*
X274278Y180002D01*
X274679Y179403D01*
X275278Y179003D01*
X275984Y178862D01*
X276691Y179003D01*
X276781Y179063D01*
X281602D01*
X282212Y178452D01*
Y174443D01*
X282244Y174284D01*
Y171844D01*
X285039D01*
Y171331D01*
X275590D01*
X274961Y171205D01*
X274427Y170849D01*
X273049Y169471D01*
X272692Y168937D01*
X272567Y168307D01*
Y164780D01*
X272598Y164622D01*
Y162280D01*
X275827D01*
Y164622D01*
X275858Y164780D01*
Y167625D01*
X276272Y168039D01*
X285039D01*
Y166025D01*
X280945D01*
Y167280D01*
X277716D01*
Y162280D01*
X280945D01*
Y163536D01*
X285039D01*
Y155909D01*
X280945D01*
Y157164D01*
X277716D01*
Y152164D01*
X280945D01*
Y153420D01*
X285039D01*
Y146006D01*
X280945D01*
Y147262D01*
X277716D01*
Y142262D01*
X280945D01*
Y143517D01*
X285039D01*
Y135890D01*
X280945D01*
Y137146D01*
X277716D01*
Y132146D01*
X280945D01*
Y133401D01*
X285039D01*
Y129599D01*
X281316D01*
X280686Y129473D01*
X280152Y129116D01*
X276988Y125952D01*
X276378Y126033D01*
X275597Y125930D01*
X274869Y125628D01*
X274244Y125149D01*
X273764Y124524D01*
X273463Y123796D01*
X273360Y123015D01*
X273463Y122234D01*
X273764Y121506D01*
X274244Y120881D01*
X274869Y120401D01*
X275034Y120333D01*
Y119791D01*
X274869Y119723D01*
X274244Y119243D01*
X273764Y118618D01*
X273463Y117890D01*
X273360Y117109D01*
X273463Y116328D01*
X273764Y115600D01*
X274244Y114975D01*
X274869Y114496D01*
X275034Y114427D01*
Y113886D01*
X274869Y113817D01*
X274244Y113338D01*
X273764Y112713D01*
X273463Y111985D01*
X273360Y111204D01*
X273463Y110423D01*
X273764Y109695D01*
X274174Y109160D01*
X274029Y108660D01*
X273016D01*
Y105798D01*
X276378D01*
X279740D01*
Y108660D01*
X278727D01*
X278582Y109160D01*
X278992Y109695D01*
X279293Y110423D01*
X279396Y111204D01*
X279293Y111985D01*
X278992Y112713D01*
X278512Y113338D01*
X277887Y113817D01*
X277721Y113886D01*
Y114427D01*
X277887Y114496D01*
X278512Y114975D01*
X278992Y115600D01*
X279293Y116328D01*
X279396Y117109D01*
X279293Y117890D01*
X278992Y118618D01*
X278512Y119243D01*
X277887Y119723D01*
X277722Y119791D01*
Y120333D01*
X277887Y120401D01*
X278512Y120881D01*
X278992Y121506D01*
X279293Y122234D01*
X279396Y123015D01*
X279316Y123625D01*
X281998Y126307D01*
X285039D01*
Y34043D01*
X269957Y18961D01*
X253895D01*
X253884Y19046D01*
X253523Y19917D01*
X252949Y20665D01*
X252201Y21240D01*
X251329Y21601D01*
X250394Y21724D01*
X249458Y21601D01*
X248587Y21240D01*
X247838Y20665D01*
X247264Y19917D01*
X246903Y19046D01*
X246780Y18110D01*
X246903Y17175D01*
X247264Y16304D01*
X247838Y15555D01*
X248587Y14981D01*
X249291Y14689D01*
X249192Y14189D01*
X246441D01*
Y13780D01*
X231483D01*
X231313Y14280D01*
X231802Y14655D01*
X232313Y15321D01*
X232634Y16097D01*
X232744Y16929D01*
X232634Y17762D01*
X232313Y18537D01*
X231802Y19204D01*
X231136Y19715D01*
X230360Y20036D01*
X229528Y20146D01*
X228695Y20036D01*
X227919Y19715D01*
X227253Y19204D01*
X226742Y18537D01*
X226421Y17762D01*
X226311Y16929D01*
X226421Y16097D01*
X226742Y15321D01*
X227253Y14655D01*
X227742Y14280D01*
X227572Y13780D01*
X223609D01*
X223439Y14280D01*
X223928Y14655D01*
X224439Y15321D01*
X224760Y16097D01*
X224870Y16929D01*
X224760Y17762D01*
X224439Y18537D01*
X223928Y19204D01*
X223262Y19715D01*
X222898Y19865D01*
Y23500D01*
X238675Y39278D01*
X238945Y39681D01*
X239040Y40157D01*
Y136886D01*
X244541Y142388D01*
X244811Y142791D01*
X244906Y143268D01*
Y154402D01*
X245538Y154664D01*
X246315Y155260D01*
X246911Y156037D01*
X247286Y156942D01*
X247414Y157913D01*
X247286Y158885D01*
X246911Y159790D01*
X246315Y160567D01*
X245538Y161163D01*
X244633Y161538D01*
X243661Y161666D01*
X242690Y161538D01*
X241785Y161163D01*
X241008Y160567D01*
X240412Y159790D01*
X240037Y158885D01*
X239909Y157913D01*
X240037Y156942D01*
X240412Y156037D01*
X241008Y155260D01*
X241785Y154664D01*
X242417Y154402D01*
Y143783D01*
X236915Y138282D01*
X236646Y137878D01*
X236551Y137402D01*
Y40673D01*
X220774Y24896D01*
X220504Y24492D01*
X220409Y24016D01*
Y19865D01*
X220045Y19715D01*
X219379Y19204D01*
X218868Y18537D01*
X218547Y17762D01*
X218437Y16929D01*
X218547Y16097D01*
X218868Y15321D01*
X219379Y14655D01*
X219868Y14280D01*
X219698Y13780D01*
X215735D01*
X215565Y14280D01*
X216054Y14655D01*
X216565Y15321D01*
X216886Y16097D01*
X216996Y16929D01*
X216886Y17762D01*
X216565Y18537D01*
X216054Y19204D01*
X215388Y19715D01*
X215024Y19865D01*
Y30981D01*
X219219Y35176D01*
X219291Y35161D01*
X219998Y35302D01*
X220597Y35702D01*
X220997Y36301D01*
X221138Y37008D01*
X220997Y37714D01*
X220597Y38313D01*
X219998Y38714D01*
X219291Y38854D01*
X218585Y38714D01*
X217986Y38313D01*
X217585Y37714D01*
X217445Y37008D01*
X217459Y36936D01*
X212900Y32376D01*
X212630Y31972D01*
X212535Y31496D01*
Y19865D01*
X212171Y19715D01*
X211505Y19204D01*
X210994Y18537D01*
X210673Y17762D01*
X210563Y16929D01*
X210673Y16097D01*
X210994Y15321D01*
X211505Y14655D01*
X211994Y14280D01*
X211824Y13780D01*
X207861D01*
X207691Y14280D01*
X208180Y14655D01*
X208691Y15321D01*
X209012Y16097D01*
X209122Y16929D01*
X209012Y17762D01*
X208691Y18537D01*
X208180Y19204D01*
X207514Y19715D01*
X207150Y19865D01*
Y35705D01*
X212327Y40882D01*
X227559D01*
X228035Y40976D01*
X228439Y41246D01*
X234541Y47348D01*
X234811Y47752D01*
X234906Y48228D01*
Y154402D01*
X235538Y154664D01*
X236315Y155260D01*
X236911Y156037D01*
X237286Y156942D01*
X237414Y157913D01*
X237286Y158885D01*
X236911Y159790D01*
X236315Y160567D01*
X235538Y161163D01*
X234633Y161538D01*
X233661Y161666D01*
X232690Y161538D01*
X231785Y161163D01*
X231008Y160567D01*
X230412Y159790D01*
X230037Y158885D01*
X229909Y157913D01*
X230037Y156942D01*
X230412Y156037D01*
X231008Y155260D01*
X231785Y154664D01*
X232417Y154402D01*
Y48744D01*
X227044Y43370D01*
X211811D01*
X211335Y43276D01*
X210931Y43006D01*
X205026Y37100D01*
X204756Y36697D01*
X204661Y36220D01*
Y19865D01*
X204297Y19715D01*
X203631Y19204D01*
X203120Y18537D01*
X202799Y17762D01*
X202689Y16929D01*
X202799Y16097D01*
X203120Y15321D01*
X203631Y14655D01*
X204120Y14280D01*
X203950Y13780D01*
X199987D01*
X199817Y14280D01*
X200306Y14655D01*
X200817Y15321D01*
X201138Y16097D01*
X201248Y16929D01*
X201138Y17762D01*
X200817Y18537D01*
X200306Y19204D01*
X199640Y19715D01*
X198864Y20036D01*
X198031Y20146D01*
X197199Y20036D01*
X196423Y19715D01*
X195757Y19204D01*
X195246Y18537D01*
X194925Y17762D01*
X194815Y16929D01*
X194925Y16097D01*
X195246Y15321D01*
X195757Y14655D01*
X196246Y14280D01*
X196076Y13780D01*
X193717D01*
Y16429D01*
X190157D01*
X186598D01*
Y13780D01*
X169030D01*
X168808Y14228D01*
X169337Y14917D01*
X169896Y16267D01*
X170087Y17717D01*
X169896Y19166D01*
X169337Y20516D01*
X168447Y21676D01*
X167288Y22566D01*
X165937Y23125D01*
X164488Y23316D01*
X163039Y23125D01*
X161689Y22566D01*
X160529Y21676D01*
X159639Y20516D01*
X159080Y19166D01*
X158889Y17717D01*
X159080Y16267D01*
X159639Y14917D01*
X160168Y14228D01*
X159947Y13780D01*
X149502D01*
X149288Y14232D01*
X149435Y14411D01*
X149985Y15440D01*
X150324Y16556D01*
X150389Y17217D01*
X144488D01*
X138587D01*
X138653Y16556D01*
X138991Y15440D01*
X139541Y14411D01*
X139688Y14232D01*
X139474Y13780D01*
X130039D01*
Y23268D01*
X118937D01*
Y13780D01*
X104205D01*
Y18898D01*
X104173Y19057D01*
Y21398D01*
X100945D01*
Y19057D01*
X100913Y18898D01*
Y13780D01*
X81291D01*
X81070Y14228D01*
X81400Y14658D01*
X81840Y15721D01*
X81990Y16862D01*
X81989Y16876D01*
X82318Y17252D01*
X95827D01*
Y16398D01*
X99055D01*
Y18739D01*
X99087Y18898D01*
Y25893D01*
X105800Y32606D01*
X185039D01*
X185669Y32732D01*
X186203Y33088D01*
X197502Y44387D01*
X197859Y44921D01*
X197984Y45551D01*
Y58291D01*
X198443Y58481D01*
X199315Y59150D01*
X199984Y60021D01*
X200174Y60480D01*
X202503D01*
X202693Y60021D01*
X203362Y59150D01*
X204234Y58481D01*
X205249Y58060D01*
X206339Y57917D01*
X207428Y58060D01*
X208443Y58481D01*
X209315Y59150D01*
X209984Y60021D01*
X210404Y61036D01*
X210548Y62126D01*
X210404Y63215D01*
X209984Y64231D01*
X209315Y65102D01*
X208443Y65771D01*
X207428Y66192D01*
X206339Y66335D01*
X205249Y66192D01*
X204234Y65771D01*
X203362Y65102D01*
X202693Y64231D01*
X202503Y63772D01*
X200174D01*
X199984Y64231D01*
X199315Y65102D01*
X198443Y65771D01*
X197428Y66192D01*
X196339Y66335D01*
X195249Y66192D01*
X194234Y65771D01*
X193362Y65102D01*
X192693Y64231D01*
X192273Y63215D01*
X192129Y62126D01*
X192273Y61036D01*
X192693Y60021D01*
X193362Y59150D01*
X194234Y58481D01*
X194693Y58291D01*
Y46233D01*
X184358Y35898D01*
X105118D01*
X104488Y35772D01*
X103954Y35416D01*
X96277Y27738D01*
X95920Y27205D01*
X95795Y26575D01*
Y20543D01*
X81102D01*
X80472Y20418D01*
X80288Y20295D01*
X79787Y20679D01*
X78724Y21120D01*
X77583Y21270D01*
X76442Y21120D01*
X75379Y20679D01*
X74466Y19979D01*
X73765Y19066D01*
X73325Y18003D01*
X73175Y16862D01*
X73325Y15721D01*
X73765Y14658D01*
X74096Y14228D01*
X73874Y13780D01*
X61291D01*
X61070Y14228D01*
X61400Y14658D01*
X61840Y15721D01*
X61990Y16862D01*
X61840Y18003D01*
X61609Y18561D01*
X73686Y30638D01*
X88976D01*
X89606Y30763D01*
X90140Y31120D01*
X100288Y41268D01*
X177953D01*
X178583Y41393D01*
X179116Y41750D01*
X187384Y50017D01*
X187741Y50551D01*
X187866Y51181D01*
Y58369D01*
X188325Y58559D01*
X189197Y59228D01*
X189866Y60100D01*
X190286Y61115D01*
X190430Y62205D01*
X190286Y63294D01*
X189866Y64309D01*
X189197Y65181D01*
X188325Y65850D01*
X187866Y66040D01*
Y67822D01*
X190839Y70795D01*
X211917D01*
X214693Y68019D01*
Y65961D01*
X214234Y65771D01*
X213362Y65102D01*
X212693Y64231D01*
X212273Y63215D01*
X212129Y62126D01*
X212273Y61036D01*
X212693Y60021D01*
X213362Y59150D01*
X214234Y58481D01*
X215249Y58060D01*
X216339Y57917D01*
X217428Y58060D01*
X218443Y58481D01*
X219315Y59150D01*
X219984Y60021D01*
X220404Y61036D01*
X220548Y62126D01*
X220404Y63215D01*
X219984Y64231D01*
X219315Y65102D01*
X218443Y65771D01*
X217984Y65961D01*
Y68701D01*
X217859Y69331D01*
X217502Y69864D01*
X213762Y73605D01*
X213228Y73962D01*
X212598Y74087D01*
X190157D01*
X189528Y73962D01*
X188994Y73605D01*
X185057Y69668D01*
X184700Y69134D01*
X184575Y68504D01*
Y66040D01*
X184116Y65850D01*
X183244Y65181D01*
X182575Y64309D01*
X182155Y63294D01*
X182011Y62205D01*
X182155Y61115D01*
X182575Y60100D01*
X183244Y59228D01*
X184116Y58559D01*
X184575Y58369D01*
Y51863D01*
X177271Y44559D01*
X99606D01*
X98976Y44434D01*
X98443Y44077D01*
X88295Y33929D01*
X73004D01*
X72374Y33804D01*
X71840Y33447D01*
X59282Y20889D01*
X58723Y21120D01*
X57583Y21270D01*
X56442Y21120D01*
X55379Y20679D01*
X55002Y20390D01*
X54961Y20418D01*
X54331Y20543D01*
X40000D01*
Y21398D01*
X36772D01*
Y19057D01*
X36740Y18898D01*
X36772Y18739D01*
Y16398D01*
X40000D01*
Y17252D01*
X52847D01*
X53177Y16876D01*
X53175Y16862D01*
X53325Y15721D01*
X53765Y14658D01*
X54096Y14228D01*
X53874Y13780D01*
X34914D01*
Y18898D01*
X34882Y19057D01*
Y21398D01*
X31654D01*
Y19057D01*
X31622Y18898D01*
Y13780D01*
X19953D01*
X19827Y15061D01*
X19453Y16293D01*
X18846Y17428D01*
X18029Y18423D01*
X17034Y19240D01*
X15899Y19847D01*
X14667Y20220D01*
X13386Y20347D01*
Y43984D01*
X13886Y44136D01*
X13939Y44057D01*
X14408Y43744D01*
X14961Y43634D01*
X16535D01*
X17088Y43744D01*
X17557Y44057D01*
X17666Y44220D01*
X32334D01*
X32963Y44346D01*
X33497Y44702D01*
X39895Y51100D01*
X40155Y50992D01*
X41142Y50862D01*
X42128Y50992D01*
X43048Y51373D01*
X43837Y51979D01*
X44443Y52768D01*
X44824Y53688D01*
X44954Y54674D01*
Y56249D01*
X44824Y57236D01*
X44443Y58155D01*
X43837Y58945D01*
X43048Y59550D01*
X42788Y59658D01*
Y60539D01*
X46351Y64102D01*
X72008D01*
Y55866D01*
X79961D01*
Y60019D01*
X115607D01*
X116622Y59003D01*
Y57559D01*
X116262Y57410D01*
X115432Y56773D01*
X114794Y55942D01*
X114394Y54975D01*
X114257Y53937D01*
X114394Y52899D01*
X114794Y51932D01*
X115432Y51101D01*
X116262Y50464D01*
X117230Y50063D01*
X118268Y49926D01*
X119306Y50063D01*
X120273Y50464D01*
X121104Y51101D01*
X121741Y51932D01*
X122142Y52899D01*
X122278Y53937D01*
X122142Y54975D01*
X121741Y55942D01*
X121104Y56773D01*
X120273Y57410D01*
X119913Y57559D01*
Y59685D01*
X119788Y60315D01*
X119431Y60849D01*
X117452Y62828D01*
X116918Y63185D01*
X116288Y63310D01*
X79961D01*
Y66969D01*
X74307D01*
X73858Y67269D01*
X73228Y67394D01*
X45669D01*
X45039Y67269D01*
X44506Y66912D01*
X39978Y62384D01*
X39621Y61850D01*
X39496Y61221D01*
Y59658D01*
X39236Y59550D01*
X38446Y58945D01*
X37840Y58155D01*
X37459Y57236D01*
X37330Y56249D01*
Y54674D01*
X37459Y53688D01*
X37567Y53427D01*
X31652Y47512D01*
X17666D01*
X17557Y47675D01*
X17088Y47989D01*
X16535Y48099D01*
X14961D01*
X14408Y47989D01*
X13939Y47675D01*
X13886Y47596D01*
X13386Y47748D01*
Y49132D01*
X13543Y49567D01*
X17953D01*
Y53976D01*
X17394D01*
Y57851D01*
X18248D01*
Y61080D01*
X15907D01*
X15748Y61111D01*
X15589Y61080D01*
X13386D01*
Y62938D01*
X15748D01*
X15907Y62969D01*
X18248D01*
Y66198D01*
X15907D01*
X15748Y66229D01*
X13386D01*
Y77055D01*
X13886Y77207D01*
X13939Y77128D01*
X14408Y76815D01*
X14961Y76705D01*
X16535D01*
X17088Y76815D01*
X17557Y77128D01*
X17666Y77291D01*
X32120D01*
X32750Y77416D01*
X33284Y77773D01*
X39895Y84384D01*
X40155Y84276D01*
X41142Y84146D01*
X42128Y84276D01*
X43048Y84657D01*
X43837Y85263D01*
X44443Y86053D01*
X44824Y86972D01*
X44954Y87959D01*
Y89534D01*
X44824Y90520D01*
X44443Y91439D01*
X43837Y92229D01*
X43057Y92828D01*
X43047Y92843D01*
X42976Y93405D01*
X46745Y97173D01*
X72008D01*
Y89297D01*
X79961D01*
Y93236D01*
X111129D01*
X115834Y88531D01*
Y84069D01*
X115475Y83920D01*
X114644Y83282D01*
X114007Y82451D01*
X113606Y81484D01*
X113470Y80446D01*
X113606Y79408D01*
X114007Y78441D01*
X114644Y77610D01*
X115475Y76973D01*
X116442Y76572D01*
X117480Y76436D01*
X118518Y76572D01*
X119486Y76973D01*
X120316Y77610D01*
X120954Y78441D01*
X121354Y79408D01*
X121491Y80446D01*
X121354Y81484D01*
X120954Y82451D01*
X120316Y83282D01*
X119486Y83920D01*
X119126Y84069D01*
Y89213D01*
X119001Y89842D01*
X118644Y90376D01*
X112975Y96046D01*
X112441Y96402D01*
X111811Y96528D01*
X79961D01*
Y100400D01*
X73556D01*
X73228Y100465D01*
X46063D01*
X45433Y100339D01*
X44899Y99983D01*
X39978Y95061D01*
X39621Y94528D01*
X39496Y93898D01*
Y92943D01*
X39236Y92835D01*
X38446Y92229D01*
X37840Y91439D01*
X37459Y90520D01*
X37330Y89534D01*
Y87959D01*
X37459Y86972D01*
X37567Y86712D01*
X31438Y80583D01*
X17666D01*
X17557Y80746D01*
X17088Y81059D01*
X16535Y81169D01*
X14961D01*
X14408Y81059D01*
X13939Y80746D01*
X13886Y80667D01*
X13386Y80819D01*
Y82203D01*
X13543Y82638D01*
X17953D01*
Y87047D01*
X17394D01*
Y90922D01*
X18248D01*
Y94151D01*
X15907D01*
X15748Y94182D01*
X15589Y94151D01*
X13386D01*
Y96009D01*
X15748D01*
X15907Y96040D01*
X18248D01*
Y99269D01*
X15907D01*
X15748Y99300D01*
X13386D01*
Y110323D01*
X13886Y110475D01*
X13939Y110396D01*
X14408Y110082D01*
X14961Y109972D01*
X16535D01*
X17088Y110082D01*
X17557Y110396D01*
X17666Y110559D01*
X32103D01*
X32733Y110684D01*
X33267Y111041D01*
X39895Y117669D01*
X40155Y117561D01*
X41142Y117431D01*
X42128Y117561D01*
X43048Y117942D01*
X43837Y118547D01*
X44443Y119337D01*
X44824Y120256D01*
X44954Y121243D01*
Y122818D01*
X44824Y123805D01*
X44443Y124724D01*
X43837Y125514D01*
X43048Y126119D01*
X42844Y126204D01*
X42796Y126689D01*
X46745Y130638D01*
X72008D01*
Y122582D01*
X77661D01*
X78110Y122282D01*
X78740Y122156D01*
X110949D01*
X115677Y117429D01*
Y110578D01*
X115317Y110429D01*
X114487Y109791D01*
X113849Y108961D01*
X113449Y107993D01*
X113312Y106955D01*
X113449Y105917D01*
X113849Y104950D01*
X114487Y104119D01*
X115317Y103482D01*
X116285Y103081D01*
X117323Y102945D01*
X118361Y103081D01*
X119328Y103482D01*
X120159Y104119D01*
X120796Y104950D01*
X121197Y105917D01*
X121334Y106955D01*
X121197Y107993D01*
X120796Y108961D01*
X120159Y109791D01*
X119328Y110429D01*
X118969Y110578D01*
Y118110D01*
X118843Y118740D01*
X118487Y119274D01*
X112795Y124966D01*
X112261Y125323D01*
X111631Y125448D01*
X79961D01*
Y133684D01*
X74038D01*
X73858Y133804D01*
X73228Y133929D01*
X46063D01*
X45433Y133804D01*
X44899Y133447D01*
X39978Y128526D01*
X39621Y127992D01*
X39496Y127362D01*
Y126227D01*
X39236Y126119D01*
X38446Y125514D01*
X37840Y124724D01*
X37459Y123805D01*
X37330Y122818D01*
Y121243D01*
X37459Y120256D01*
X37567Y119996D01*
X31422Y113850D01*
X17666D01*
X17557Y114014D01*
X17088Y114327D01*
X16535Y114437D01*
X14961D01*
X14408Y114327D01*
X13939Y114014D01*
X13886Y113935D01*
X13386Y114086D01*
Y115471D01*
X13543Y115905D01*
X17953D01*
Y120315D01*
X17394D01*
Y124190D01*
X18248D01*
Y127418D01*
X15907D01*
X15748Y127450D01*
X15589Y127418D01*
X13386D01*
Y129277D01*
X32497D01*
X33127Y129402D01*
X33661Y129759D01*
X47926Y144024D01*
X72008D01*
Y140118D01*
X79961D01*
Y151221D01*
X72008D01*
Y147315D01*
X60524D01*
X54807Y153032D01*
Y157677D01*
X54636Y158537D01*
X54149Y159267D01*
X53419Y159754D01*
X52559Y159925D01*
X49409D01*
X48549Y159754D01*
X47820Y159267D01*
X47333Y158537D01*
X47161Y157677D01*
Y152953D01*
X47333Y152093D01*
X47820Y151363D01*
X48549Y150876D01*
X49409Y150705D01*
X52479D01*
X55407Y147777D01*
X55216Y147315D01*
X47244D01*
X46614Y147190D01*
X46080Y146833D01*
X31815Y132568D01*
X13386D01*
Y143591D01*
X13886Y143743D01*
X13939Y143663D01*
X14408Y143350D01*
X14961Y143240D01*
X16535D01*
X17088Y143350D01*
X17557Y143663D01*
X17666Y143827D01*
X32087D01*
X32716Y143952D01*
X33250Y144309D01*
X39895Y150953D01*
X40155Y150845D01*
X41142Y150715D01*
X42128Y150845D01*
X43048Y151226D01*
X43837Y151832D01*
X44443Y152621D01*
X44824Y153541D01*
X44954Y154528D01*
Y156102D01*
X44824Y157089D01*
X44443Y158009D01*
X43837Y158798D01*
X43048Y159404D01*
X42788Y159512D01*
Y160145D01*
X46745Y164102D01*
X72008D01*
Y155866D01*
X79961D01*
Y159281D01*
X80461Y159338D01*
X84181Y155617D01*
Y146457D01*
X84306Y145827D01*
X84663Y145293D01*
X88600Y141356D01*
X89134Y140999D01*
X89764Y140874D01*
X113700D01*
X116307Y138267D01*
Y137087D01*
X115947Y136938D01*
X115117Y136301D01*
X114479Y135470D01*
X114079Y134503D01*
X113942Y133465D01*
X114079Y132427D01*
X114479Y131459D01*
X115117Y130629D01*
X115947Y129991D01*
X116915Y129590D01*
X117953Y129454D01*
X118991Y129590D01*
X119958Y129991D01*
X120789Y130629D01*
X121426Y131459D01*
X121827Y132427D01*
X121963Y133465D01*
X121827Y134503D01*
X121426Y135470D01*
X120789Y136301D01*
X119958Y136938D01*
X119599Y137087D01*
Y138949D01*
X119473Y139579D01*
X119116Y140113D01*
X115546Y143683D01*
X115012Y144040D01*
X114382Y144166D01*
X90446D01*
X87473Y147138D01*
Y156299D01*
X87347Y156929D01*
X86990Y157463D01*
X82266Y162187D01*
X81732Y162544D01*
X81102Y162669D01*
X79961D01*
Y166969D01*
X74307D01*
X73858Y167269D01*
X73228Y167394D01*
X46063D01*
X45433Y167269D01*
X44899Y166912D01*
X39978Y161990D01*
X39621Y161457D01*
X39496Y160827D01*
Y159512D01*
X39236Y159404D01*
X38446Y158798D01*
X37840Y158009D01*
X37459Y157089D01*
X37330Y156102D01*
Y154528D01*
X37459Y153541D01*
X37567Y153281D01*
X31405Y147118D01*
X17666D01*
X17557Y147282D01*
X17088Y147595D01*
X16535Y147705D01*
X14961D01*
X14408Y147595D01*
X13939Y147282D01*
X13886Y147202D01*
X13386Y147354D01*
Y148739D01*
X13543Y149173D01*
X17953D01*
Y153583D01*
X17394D01*
Y157638D01*
X18248D01*
Y160866D01*
X15907D01*
X15748Y160898D01*
X15589Y160866D01*
X13386D01*
Y162724D01*
X15748D01*
X15907Y162756D01*
X18248D01*
Y165984D01*
X15907D01*
X15748Y166016D01*
X13386D01*
Y189102D01*
X14667Y189228D01*
X15899Y189602D01*
X17034Y190209D01*
X18029Y191026D01*
X18846Y192021D01*
X19453Y193156D01*
X19827Y194388D01*
X19953Y195669D01*
X37756D01*
Y193858D01*
X44134D01*
Y195669D01*
X73796D01*
Y194072D01*
X80174D01*
Y195669D01*
X92295D01*
X92486Y195207D01*
X91356Y194077D01*
X90999Y193543D01*
X90874Y192913D01*
Y177962D01*
X90814Y177872D01*
X90673Y177165D01*
X90814Y176459D01*
X91214Y175860D01*
X91813Y175459D01*
X92520Y175319D01*
X93226Y175459D01*
X93825Y175860D01*
X94226Y176459D01*
X94366Y177165D01*
X94226Y177872D01*
X94165Y177962D01*
Y192232D01*
X97603Y195669D01*
X101918D01*
X102109Y195207D01*
X98006Y191104D01*
X97736Y190701D01*
X97641Y190224D01*
Y166125D01*
X97272D01*
Y161125D01*
X100500D01*
Y166125D01*
X100130D01*
Y189709D01*
X106027Y195606D01*
X210902D01*
X232220Y174288D01*
Y171343D01*
X231785Y171163D01*
X231008Y170567D01*
X230412Y169790D01*
X230037Y168885D01*
X229909Y167913D01*
X230037Y166942D01*
X230412Y166037D01*
X231008Y165260D01*
X231785Y164664D01*
X232690Y164289D01*
X233661Y164161D01*
X234633Y164289D01*
X235538Y164664D01*
X236315Y165260D01*
X236911Y166037D01*
X237286Y166942D01*
X237414Y167913D01*
X237286Y168885D01*
X236911Y169790D01*
X236315Y170567D01*
X235538Y171163D01*
X234709Y171507D01*
Y174803D01*
X234614Y175279D01*
X234345Y175683D01*
X214820Y195207D01*
X215012Y195669D01*
X226806D01*
X230163Y192313D01*
X230184Y192207D01*
X230584Y191608D01*
X231183Y191207D01*
X231890Y191067D01*
X232596Y191207D01*
X233195Y191608D01*
X233596Y192207D01*
X233736Y192913D01*
X233596Y193620D01*
X233195Y194219D01*
X232596Y194619D01*
X232490Y194641D01*
X231923Y195207D01*
X232115Y195669D01*
X251063D01*
X272289Y174443D01*
X269592Y171746D01*
X269323Y171342D01*
X269228Y170866D01*
Y146063D01*
X269323Y145587D01*
X269592Y145183D01*
X270774Y144002D01*
X271177Y143732D01*
X271654Y143638D01*
X272598D01*
Y142262D01*
X275827D01*
Y147262D01*
X272598D01*
Y146297D01*
X272098Y146197D01*
X271717Y146578D01*
Y170351D01*
X274565Y173199D01*
X278307D01*
Y171844D01*
X281535D01*
Y177041D01*
X278307D01*
Y175687D01*
X274565D01*
X255045Y195207D01*
X255236Y195669D01*
X278472D01*
X278598Y194388D01*
D02*
G37*
G36*
X285039Y29870D02*
Y20347D01*
X283758Y20220D01*
X282526Y19847D01*
X281391Y19240D01*
X280396Y18423D01*
X279579Y17428D01*
X278972Y16293D01*
X278598Y15061D01*
X278472Y13780D01*
X254346D01*
Y14189D01*
X251595D01*
X251496Y14689D01*
X252201Y14981D01*
X252949Y15555D01*
X253523Y16304D01*
X253593Y16472D01*
X270472D01*
X270949Y16567D01*
X271352Y16837D01*
X284577Y30062D01*
X285039Y29870D01*
D02*
G37*
%LPC*%
G36*
X135472Y190394D02*
X128307D01*
Y183228D01*
X135472D01*
Y190394D01*
D02*
G37*
G36*
X124016Y190425D02*
X123081Y190302D01*
X122209Y189941D01*
X121461Y189366D01*
X120886Y188618D01*
X120525Y187746D01*
X120402Y186811D01*
X120525Y185876D01*
X120886Y185004D01*
X121461Y184256D01*
X122209Y183682D01*
X123081Y183321D01*
X124016Y183197D01*
X124951Y183321D01*
X125822Y183682D01*
X126571Y184256D01*
X127145Y185004D01*
X127506Y185876D01*
X127629Y186811D01*
X127506Y187746D01*
X127145Y188618D01*
X126571Y189366D01*
X125822Y189941D01*
X124951Y190302D01*
X124016Y190425D01*
D02*
G37*
G36*
X116142D02*
X115207Y190302D01*
X114335Y189941D01*
X113586Y189366D01*
X113012Y188618D01*
X112651Y187746D01*
X112528Y186811D01*
X112651Y185876D01*
X113012Y185004D01*
X113586Y184256D01*
X114335Y183682D01*
X115207Y183321D01*
X116142Y183197D01*
X117077Y183321D01*
X117948Y183682D01*
X118697Y184256D01*
X119271Y185004D01*
X119632Y185876D01*
X119755Y186811D01*
X119632Y187746D01*
X119271Y188618D01*
X118697Y189366D01*
X117948Y189941D01*
X117077Y190302D01*
X116142Y190425D01*
D02*
G37*
G36*
X108268D02*
X107332Y190302D01*
X106461Y189941D01*
X105712Y189366D01*
X105138Y188618D01*
X104777Y187746D01*
X104654Y186811D01*
X104777Y185876D01*
X105138Y185004D01*
X105712Y184256D01*
X106461Y183682D01*
X107332Y183321D01*
X108268Y183197D01*
X109203Y183321D01*
X110074Y183682D01*
X110823Y184256D01*
X111397Y185004D01*
X111758Y185876D01*
X111881Y186811D01*
X111758Y187746D01*
X111397Y188618D01*
X110823Y189366D01*
X110074Y189941D01*
X109203Y190302D01*
X108268Y190425D01*
D02*
G37*
G36*
X76985Y186698D02*
X76153Y186588D01*
X75377Y186267D01*
X74711Y185756D01*
X74200Y185090D01*
X73878Y184314D01*
X73769Y183481D01*
X73878Y182649D01*
X74200Y181873D01*
X74711Y181207D01*
X75377Y180696D01*
X76153Y180374D01*
X76985Y180265D01*
X77818Y180374D01*
X78593Y180696D01*
X79260Y181207D01*
X79771Y181873D01*
X80092Y182649D01*
X80202Y183481D01*
X80092Y184314D01*
X79771Y185090D01*
X79260Y185756D01*
X78593Y186267D01*
X77818Y186588D01*
X76985Y186698D01*
D02*
G37*
G36*
X40945Y186484D02*
X40112Y186375D01*
X39337Y186053D01*
X38671Y185542D01*
X38159Y184876D01*
X37838Y184100D01*
X37728Y183268D01*
X37838Y182435D01*
X38159Y181659D01*
X38671Y180993D01*
X39337Y180482D01*
X40112Y180161D01*
X40945Y180051D01*
X41777Y180161D01*
X42553Y180482D01*
X43219Y180993D01*
X43730Y181659D01*
X44052Y182435D01*
X44161Y183268D01*
X44052Y184100D01*
X43730Y184876D01*
X43219Y185542D01*
X42553Y186053D01*
X41777Y186375D01*
X40945Y186484D01*
D02*
G37*
G36*
X200000Y183343D02*
X199293Y183202D01*
X198694Y182802D01*
X198653Y182740D01*
X176378D01*
X175902Y182646D01*
X175498Y182376D01*
X172782Y179659D01*
X172512Y179256D01*
X172417Y178779D01*
Y171425D01*
X171785Y171163D01*
X171008Y170567D01*
X170412Y169790D01*
X170037Y168885D01*
X169909Y167913D01*
X170037Y166942D01*
X170412Y166037D01*
X171008Y165260D01*
X171785Y164664D01*
X172690Y164289D01*
X173661Y164161D01*
X174633Y164289D01*
X175538Y164664D01*
X176315Y165260D01*
X176911Y166037D01*
X177286Y166942D01*
X177414Y167913D01*
X177286Y168885D01*
X176911Y169790D01*
X176315Y170567D01*
X175538Y171163D01*
X174906Y171425D01*
Y178264D01*
X176893Y180252D01*
X198653D01*
X198694Y180190D01*
X199293Y179790D01*
X200000Y179650D01*
X200707Y179790D01*
X201306Y180190D01*
X201706Y180789D01*
X201847Y181496D01*
X201706Y182203D01*
X201306Y182802D01*
X200707Y183202D01*
X200000Y183343D01*
D02*
G37*
G36*
X207874Y192583D02*
X152362D01*
X151886Y192488D01*
X151482Y192218D01*
X140036Y180772D01*
X120472D01*
X119996Y180677D01*
X119592Y180408D01*
X110648Y171463D01*
X110378Y171059D01*
X110283Y170583D01*
Y166125D01*
X109913D01*
Y161125D01*
X113142D01*
Y166125D01*
X112772D01*
Y170067D01*
X120988Y178283D01*
X140551D01*
X141027Y178378D01*
X141431Y178648D01*
X152878Y190094D01*
X207359D01*
X222417Y175036D01*
Y171425D01*
X221785Y171163D01*
X221008Y170567D01*
X220412Y169790D01*
X220037Y168885D01*
X219909Y167913D01*
X220037Y166942D01*
X220412Y166037D01*
X221008Y165260D01*
X221785Y164664D01*
X222690Y164289D01*
X223661Y164161D01*
X224633Y164289D01*
X225538Y164664D01*
X226315Y165260D01*
X226911Y166037D01*
X227286Y166942D01*
X227414Y167913D01*
X227286Y168885D01*
X226911Y169790D01*
X226315Y170567D01*
X225538Y171163D01*
X224906Y171425D01*
Y175551D01*
X224811Y176027D01*
X224541Y176431D01*
X208754Y192218D01*
X208350Y192488D01*
X207874Y192583D01*
D02*
G37*
G36*
X204724Y187465D02*
X156299D01*
X155823Y187370D01*
X155419Y187100D01*
X144367Y176048D01*
X130709D01*
X130232Y175953D01*
X129829Y175683D01*
X123289Y169144D01*
X123020Y168740D01*
X122925Y168264D01*
Y166125D01*
X122555D01*
Y161125D01*
X125784D01*
Y166125D01*
X125414D01*
Y167748D01*
X131224Y173559D01*
X144882D01*
X145358Y173653D01*
X145762Y173923D01*
X156815Y184976D01*
X204209D01*
X212535Y176650D01*
Y171474D01*
X211785Y171163D01*
X211008Y170567D01*
X210412Y169790D01*
X210037Y168885D01*
X209909Y167913D01*
X210037Y166942D01*
X210412Y166037D01*
X211008Y165260D01*
X211785Y164664D01*
X212690Y164289D01*
X213661Y164161D01*
X214633Y164289D01*
X215538Y164664D01*
X216315Y165260D01*
X216911Y166037D01*
X217286Y166942D01*
X217414Y167913D01*
X217286Y168885D01*
X216911Y169790D01*
X216315Y170567D01*
X215538Y171163D01*
X215024Y171376D01*
Y177165D01*
X214929Y177642D01*
X214659Y178045D01*
X205604Y187100D01*
X205201Y187370D01*
X204724Y187465D01*
D02*
G37*
G36*
X178740Y176650D02*
X178033Y176509D01*
X177435Y176109D01*
X177034Y175510D01*
X176894Y174803D01*
X177034Y174097D01*
X177435Y173497D01*
X178033Y173097D01*
X178740Y172957D01*
X179447Y173097D01*
X180046Y173497D01*
X180087Y173559D01*
X200009D01*
X201905Y171663D01*
X201833Y171300D01*
X201735Y171125D01*
X201008Y170567D01*
X200412Y169790D01*
X200037Y168885D01*
X199909Y167913D01*
X200037Y166942D01*
X200412Y166037D01*
X201008Y165260D01*
X201785Y164664D01*
X202690Y164289D01*
X203661Y164161D01*
X204633Y164289D01*
X205538Y164664D01*
X206315Y165260D01*
X206911Y166037D01*
X207286Y166942D01*
X207414Y167913D01*
X207286Y168885D01*
X206911Y169790D01*
X206315Y170567D01*
X205538Y171163D01*
X204906Y171425D01*
Y171666D01*
X204811Y172142D01*
X204541Y172546D01*
X201404Y175683D01*
X201000Y175953D01*
X200524Y176048D01*
X180087D01*
X180046Y176109D01*
X179447Y176509D01*
X178740Y176650D01*
D02*
G37*
G36*
X193661Y171666D02*
X192690Y171538D01*
X191785Y171163D01*
X191008Y170567D01*
X190412Y169790D01*
X190037Y168885D01*
X189909Y167913D01*
X190037Y166942D01*
X190412Y166037D01*
X191008Y165260D01*
X191785Y164664D01*
X192690Y164289D01*
X193661Y164161D01*
X194633Y164289D01*
X195538Y164664D01*
X196315Y165260D01*
X196911Y166037D01*
X197286Y166942D01*
X197414Y167913D01*
X197286Y168885D01*
X196911Y169790D01*
X196315Y170567D01*
X195538Y171163D01*
X194633Y171538D01*
X193661Y171666D01*
D02*
G37*
G36*
X183661D02*
X182690Y171538D01*
X181785Y171163D01*
X181008Y170567D01*
X180412Y169790D01*
X180037Y168885D01*
X179909Y167913D01*
X180037Y166942D01*
X180412Y166037D01*
X181008Y165260D01*
X181785Y164664D01*
X182690Y164289D01*
X183661Y164161D01*
X184633Y164289D01*
X185538Y164664D01*
X186315Y165260D01*
X186911Y166037D01*
X187286Y166942D01*
X187414Y167913D01*
X187286Y168885D01*
X186911Y169790D01*
X186315Y170567D01*
X185538Y171163D01*
X184633Y171538D01*
X183661Y171666D01*
D02*
G37*
G36*
X163661D02*
X162690Y171538D01*
X161785Y171163D01*
X161008Y170567D01*
X160412Y169790D01*
X160037Y168885D01*
X159909Y167913D01*
X160037Y166942D01*
X160412Y166037D01*
X161008Y165260D01*
X161785Y164664D01*
X162690Y164289D01*
X163661Y164161D01*
X164633Y164289D01*
X165538Y164664D01*
X166315Y165260D01*
X166911Y166037D01*
X167286Y166942D01*
X167414Y167913D01*
X167286Y168885D01*
X166911Y169790D01*
X166315Y170567D01*
X165538Y171163D01*
X164633Y171538D01*
X163661Y171666D01*
D02*
G37*
G36*
X257752Y162004D02*
X254162D01*
Y158413D01*
X257752D01*
Y162004D01*
D02*
G37*
G36*
X253162D02*
X249571D01*
Y158413D01*
X253162D01*
Y162004D01*
D02*
G37*
G36*
X203661Y161666D02*
X202690Y161538D01*
X201785Y161163D01*
X201008Y160567D01*
X200412Y159790D01*
X200037Y158885D01*
X199909Y157913D01*
X200037Y156942D01*
X200412Y156037D01*
X201008Y155260D01*
X201785Y154664D01*
X202690Y154289D01*
X203661Y154161D01*
X204633Y154289D01*
X205538Y154664D01*
X206315Y155260D01*
X206911Y156037D01*
X207286Y156942D01*
X207414Y157913D01*
X207286Y158885D01*
X206911Y159790D01*
X206315Y160567D01*
X205538Y161163D01*
X204633Y161538D01*
X203661Y161666D01*
D02*
G37*
G36*
X193661D02*
X192690Y161538D01*
X191785Y161163D01*
X191008Y160567D01*
X190412Y159790D01*
X190037Y158885D01*
X189909Y157913D01*
X190037Y156942D01*
X190412Y156037D01*
X191008Y155260D01*
X191785Y154664D01*
X192690Y154289D01*
X193661Y154161D01*
X194633Y154289D01*
X195538Y154664D01*
X196315Y155260D01*
X196911Y156037D01*
X197286Y156942D01*
X197414Y157913D01*
X197286Y158885D01*
X196911Y159790D01*
X196315Y160567D01*
X195538Y161163D01*
X194633Y161538D01*
X193661Y161666D01*
D02*
G37*
G36*
X173661D02*
X172690Y161538D01*
X171785Y161163D01*
X171008Y160567D01*
X170412Y159790D01*
X170037Y158885D01*
X169909Y157913D01*
X170037Y156942D01*
X170412Y156037D01*
X171008Y155260D01*
X171785Y154664D01*
X172690Y154289D01*
X173661Y154161D01*
X174633Y154289D01*
X175538Y154664D01*
X176315Y155260D01*
X176911Y156037D01*
X177286Y156942D01*
X177414Y157913D01*
X177286Y158885D01*
X176911Y159790D01*
X176315Y160567D01*
X175538Y161163D01*
X174633Y161538D01*
X173661Y161666D01*
D02*
G37*
G36*
X138425Y166125D02*
X135197D01*
Y161125D01*
X138425D01*
Y162535D01*
X142792D01*
X148293Y157034D01*
X148697Y156764D01*
X149173Y156669D01*
X160150D01*
X160412Y156037D01*
X161008Y155260D01*
X161785Y154664D01*
X162690Y154289D01*
X163661Y154161D01*
X164633Y154289D01*
X165538Y154664D01*
X166315Y155260D01*
X166911Y156037D01*
X167286Y156942D01*
X167414Y157913D01*
X167286Y158885D01*
X166911Y159790D01*
X166315Y160567D01*
X165538Y161163D01*
X164633Y161538D01*
X163661Y161666D01*
X162690Y161538D01*
X161785Y161163D01*
X161008Y160567D01*
X160412Y159790D01*
X160150Y159158D01*
X149689D01*
X144187Y164659D01*
X143783Y164929D01*
X143307Y165024D01*
X138425D01*
Y166125D01*
D02*
G37*
G36*
X257752Y157413D02*
X254162D01*
Y153823D01*
X257752D01*
Y157413D01*
D02*
G37*
G36*
X253162D02*
X249571D01*
Y153823D01*
X253162D01*
Y157413D01*
D02*
G37*
G36*
X133307Y166125D02*
X130079D01*
Y161125D01*
X130448D01*
Y160556D01*
X130387Y160515D01*
X129987Y159916D01*
X129846Y159209D01*
X129987Y158502D01*
X130387Y157904D01*
X130448Y157862D01*
Y157293D01*
X130079D01*
Y152293D01*
X133307D01*
Y157293D01*
X132937D01*
Y157862D01*
X132999Y157904D01*
X133399Y158502D01*
X133539Y159209D01*
X133399Y159916D01*
X132999Y160515D01*
X132937Y160556D01*
Y161125D01*
X133307D01*
Y166125D01*
D02*
G37*
G36*
X118110Y172713D02*
X117404Y172572D01*
X116805Y172172D01*
X116404Y171573D01*
X116264Y170866D01*
X116404Y170159D01*
X116805Y169561D01*
X117404Y169160D01*
X117807Y169080D01*
Y166125D01*
X117437D01*
Y161125D01*
X117807D01*
Y157293D01*
X117437D01*
Y152293D01*
X120665D01*
Y157293D01*
X120296D01*
Y161125D01*
X120665D01*
Y166125D01*
X120296D01*
Y169925D01*
X120201Y170401D01*
X119941Y170790D01*
X119957Y170866D01*
X119816Y171573D01*
X119416Y172172D01*
X118817Y172572D01*
X118110Y172713D01*
D02*
G37*
G36*
X108024Y166125D02*
X104795D01*
Y161125D01*
X105165D01*
Y160556D01*
X105104Y160515D01*
X104703Y159916D01*
X104563Y159209D01*
X104703Y158502D01*
X105104Y157904D01*
X105165Y157862D01*
Y157293D01*
X104795D01*
Y152293D01*
X108024D01*
Y157293D01*
X107654D01*
Y157862D01*
X107715Y157904D01*
X108115Y158502D01*
X108256Y159209D01*
X108115Y159916D01*
X107715Y160515D01*
X107654Y160556D01*
Y161125D01*
X108024D01*
Y166125D01*
D02*
G37*
G36*
X276009Y161664D02*
X275302Y161524D01*
X274703Y161124D01*
X274303Y160524D01*
X274282Y160418D01*
X273049Y159185D01*
X272692Y158651D01*
X272567Y158022D01*
Y154664D01*
X272598Y154505D01*
Y152164D01*
X275827D01*
Y154505D01*
X275858Y154664D01*
Y157340D01*
X276609Y158091D01*
X276715Y158112D01*
X277314Y158512D01*
X277715Y159111D01*
X277855Y159818D01*
X277715Y160524D01*
X277314Y161124D01*
X276715Y161524D01*
X276009Y161664D01*
D02*
G37*
G36*
X138425Y157293D02*
X135197D01*
Y152293D01*
X135567D01*
Y151500D01*
X134130Y150063D01*
X126500D01*
X125414Y151149D01*
Y152293D01*
X125784D01*
Y157293D01*
X122555D01*
Y152293D01*
X122925D01*
Y150634D01*
X122939Y150563D01*
X122529Y150063D01*
X114295D01*
X112772Y151586D01*
Y152293D01*
X113142D01*
Y157293D01*
X109913D01*
Y152293D01*
X110283D01*
Y151071D01*
X110378Y150595D01*
X110399Y150563D01*
X110132Y150063D01*
X101303D01*
X100130Y151236D01*
Y152293D01*
X100500D01*
Y157293D01*
X97272D01*
Y152293D01*
X97641D01*
Y150720D01*
X97736Y150244D01*
X98006Y149840D01*
X99907Y147939D01*
X100311Y147669D01*
X100787Y147574D01*
X130988D01*
X131179Y147113D01*
X127073Y143006D01*
X126803Y142602D01*
X126708Y142126D01*
Y137253D01*
X125947Y136938D01*
X125117Y136301D01*
X124479Y135470D01*
X124079Y134503D01*
X123942Y133465D01*
X124079Y132427D01*
X124479Y131459D01*
X125117Y130629D01*
X125947Y129991D01*
X126915Y129590D01*
X127953Y129454D01*
X128991Y129590D01*
X129958Y129991D01*
X130789Y130629D01*
X131426Y131459D01*
X131827Y132427D01*
X131963Y133465D01*
X131827Y134503D01*
X131426Y135470D01*
X130789Y136301D01*
X129958Y136938D01*
X129197Y137253D01*
Y141611D01*
X135526Y147939D01*
X137691Y150104D01*
X137961Y150508D01*
X138055Y150984D01*
Y152293D01*
X138425D01*
Y157293D01*
D02*
G37*
G36*
X95382Y166125D02*
X92154D01*
Y161125D01*
X92523D01*
Y157293D01*
X92154D01*
Y152293D01*
X92490D01*
Y149794D01*
X92395Y149731D01*
X91995Y149132D01*
X91854Y148425D01*
X91995Y147719D01*
X92395Y147119D01*
X92994Y146719D01*
X93701Y146579D01*
X94407Y146719D01*
X95007Y147119D01*
X95407Y147719D01*
X95547Y148425D01*
X95407Y149132D01*
X95007Y149731D01*
X94979Y149750D01*
Y152293D01*
X95382D01*
Y157293D01*
X95012D01*
Y161125D01*
X95382D01*
Y166125D01*
D02*
G37*
G36*
X276197Y137516D02*
X274713D01*
Y135146D01*
X276197D01*
Y137516D01*
D02*
G37*
G36*
X273713D02*
X272228D01*
Y135146D01*
X273713D01*
Y137516D01*
D02*
G37*
G36*
X276197Y134146D02*
X274713D01*
Y131776D01*
X276197D01*
Y134146D01*
D02*
G37*
G36*
X273713D02*
X272228D01*
Y131776D01*
X273713D01*
Y134146D01*
D02*
G37*
G36*
X111929Y137441D02*
X103976D01*
Y129488D01*
X111929D01*
Y137441D01*
D02*
G37*
G36*
X250394Y131960D02*
X249458Y131837D01*
X248587Y131476D01*
X247838Y130902D01*
X247264Y130153D01*
X246903Y129282D01*
X246780Y128347D01*
X246903Y127411D01*
X247264Y126540D01*
X247838Y125791D01*
X248587Y125217D01*
X249458Y124856D01*
X250394Y124733D01*
X251329Y124856D01*
X252201Y125217D01*
X252949Y125791D01*
X253523Y126540D01*
X253884Y127411D01*
X254007Y128347D01*
X253884Y129282D01*
X253523Y130153D01*
X252949Y130902D01*
X252201Y131476D01*
X251329Y131837D01*
X250394Y131960D01*
D02*
G37*
G36*
X216839Y126643D02*
Y122626D01*
X220855D01*
X220765Y123312D01*
X220307Y124417D01*
X219579Y125366D01*
X218630Y126094D01*
X217525Y126552D01*
X216839Y126643D01*
D02*
G37*
G36*
X156839D02*
Y122626D01*
X160855D01*
X160765Y123312D01*
X160307Y124417D01*
X159579Y125366D01*
X158630Y126094D01*
X157525Y126552D01*
X156839Y126643D01*
D02*
G37*
G36*
X215839D02*
X215153Y126552D01*
X214047Y126094D01*
X213098Y125366D01*
X212370Y124417D01*
X211912Y123312D01*
X211822Y122626D01*
X215839D01*
Y126643D01*
D02*
G37*
G36*
X155839D02*
X155152Y126552D01*
X154047Y126094D01*
X153098Y125366D01*
X152370Y124417D01*
X151912Y123312D01*
X151822Y122626D01*
X155839D01*
Y126643D01*
D02*
G37*
G36*
X226339Y126335D02*
X225249Y126192D01*
X224234Y125771D01*
X223362Y125102D01*
X222693Y124231D01*
X222273Y123215D01*
X222129Y122126D01*
X222273Y121037D01*
X222693Y120021D01*
X223362Y119150D01*
X224234Y118481D01*
X225249Y118060D01*
X226339Y117917D01*
X227428Y118060D01*
X228443Y118481D01*
X229315Y119150D01*
X229984Y120021D01*
X230404Y121037D01*
X230548Y122126D01*
X230404Y123215D01*
X229984Y124231D01*
X229315Y125102D01*
X228443Y125771D01*
X227428Y126192D01*
X226339Y126335D01*
D02*
G37*
G36*
X223661Y161666D02*
X222690Y161538D01*
X221785Y161163D01*
X221008Y160567D01*
X220412Y159790D01*
X220037Y158885D01*
X219909Y157913D01*
X220037Y156942D01*
X220412Y156037D01*
X221008Y155260D01*
X221785Y154664D01*
X222690Y154289D01*
X222771Y154278D01*
Y148941D01*
X205419Y131589D01*
X205150Y131185D01*
X205055Y130709D01*
Y126111D01*
X204234Y125771D01*
X203362Y125102D01*
X202693Y124231D01*
X202273Y123215D01*
X202129Y122126D01*
X202273Y121037D01*
X202693Y120021D01*
X203362Y119150D01*
X204234Y118481D01*
X205249Y118060D01*
X206339Y117917D01*
X207428Y118060D01*
X208443Y118481D01*
X209315Y119150D01*
X209984Y120021D01*
X210404Y121037D01*
X210548Y122126D01*
X210404Y123215D01*
X209984Y124231D01*
X209315Y125102D01*
X208443Y125771D01*
X207544Y126144D01*
Y130193D01*
X224896Y147545D01*
X225165Y147949D01*
X225260Y148425D01*
Y154549D01*
X225538Y154664D01*
X226315Y155260D01*
X226911Y156037D01*
X227286Y156942D01*
X227414Y157913D01*
X227286Y158885D01*
X226911Y159790D01*
X226315Y160567D01*
X225538Y161163D01*
X224633Y161538D01*
X223661Y161666D01*
D02*
G37*
G36*
X213661D02*
X212690Y161538D01*
X211785Y161163D01*
X211008Y160567D01*
X210412Y159790D01*
X210037Y158885D01*
X209909Y157913D01*
X210037Y156942D01*
X210412Y156037D01*
X211008Y155260D01*
X211785Y154664D01*
X212535Y154353D01*
Y149728D01*
X195459Y132652D01*
X195189Y132248D01*
X195094Y131772D01*
Y126128D01*
X194234Y125771D01*
X193362Y125102D01*
X192693Y124231D01*
X192273Y123215D01*
X192129Y122126D01*
X192273Y121037D01*
X192693Y120021D01*
X193362Y119150D01*
X194234Y118481D01*
X195249Y118060D01*
X196339Y117917D01*
X197428Y118060D01*
X198443Y118481D01*
X199315Y119150D01*
X199984Y120021D01*
X200404Y121037D01*
X200548Y122126D01*
X200404Y123215D01*
X199984Y124231D01*
X199315Y125102D01*
X198443Y125771D01*
X197583Y126128D01*
Y131256D01*
X214659Y148333D01*
X214929Y148736D01*
X215024Y149213D01*
Y154451D01*
X215538Y154664D01*
X216315Y155260D01*
X216911Y156037D01*
X217286Y156942D01*
X217414Y157913D01*
X217286Y158885D01*
X216911Y159790D01*
X216315Y160567D01*
X215538Y161163D01*
X214633Y161538D01*
X213661Y161666D01*
D02*
G37*
G36*
X176339Y126335D02*
X175249Y126192D01*
X174234Y125771D01*
X173362Y125102D01*
X172693Y124231D01*
X172273Y123215D01*
X172129Y122126D01*
X172273Y121037D01*
X172693Y120021D01*
X173362Y119150D01*
X174234Y118481D01*
X175249Y118060D01*
X176339Y117917D01*
X177428Y118060D01*
X178443Y118481D01*
X179315Y119150D01*
X179984Y120021D01*
X180404Y121037D01*
X180548Y122126D01*
X180404Y123215D01*
X179984Y124231D01*
X179315Y125102D01*
X178443Y125771D01*
X177428Y126192D01*
X176339Y126335D01*
D02*
G37*
G36*
X166339D02*
X165249Y126192D01*
X164234Y125771D01*
X163362Y125102D01*
X162693Y124231D01*
X162273Y123215D01*
X162129Y122126D01*
X162273Y121037D01*
X162693Y120021D01*
X163362Y119150D01*
X164234Y118481D01*
X165249Y118060D01*
X166339Y117917D01*
X167428Y118060D01*
X168443Y118481D01*
X169315Y119150D01*
X169984Y120021D01*
X170404Y121037D01*
X170548Y122126D01*
X170404Y123215D01*
X169984Y124231D01*
X169315Y125102D01*
X168443Y125771D01*
X167428Y126192D01*
X166339Y126335D01*
D02*
G37*
G36*
X220855Y121626D02*
X216839D01*
Y117609D01*
X217525Y117700D01*
X218630Y118157D01*
X219579Y118886D01*
X220307Y119835D01*
X220765Y120940D01*
X220855Y121626D01*
D02*
G37*
G36*
X160855D02*
X156839D01*
Y117609D01*
X157525Y117700D01*
X158630Y118157D01*
X159579Y118886D01*
X160307Y119835D01*
X160765Y120940D01*
X160855Y121626D01*
D02*
G37*
G36*
X215839D02*
X211822D01*
X211912Y120940D01*
X212370Y119835D01*
X213098Y118886D01*
X214047Y118157D01*
X215153Y117700D01*
X215839Y117609D01*
Y121626D01*
D02*
G37*
G36*
X155839D02*
X151822D01*
X151912Y120940D01*
X152370Y119835D01*
X153098Y118886D01*
X154047Y118157D01*
X155152Y117700D01*
X155839Y117609D01*
Y121626D01*
D02*
G37*
G36*
X250394Y124086D02*
X249458Y123963D01*
X248587Y123602D01*
X247838Y123028D01*
X247264Y122279D01*
X246903Y121408D01*
X246780Y120472D01*
X246903Y119537D01*
X247264Y118666D01*
X247838Y117917D01*
X248587Y117343D01*
X249458Y116982D01*
X250394Y116859D01*
X251329Y116982D01*
X252201Y117343D01*
X252949Y117917D01*
X253523Y118666D01*
X253884Y119537D01*
X254007Y120472D01*
X253884Y121408D01*
X253523Y122279D01*
X252949Y123028D01*
X252201Y123602D01*
X251329Y123963D01*
X250394Y124086D01*
D02*
G37*
G36*
X52559Y126641D02*
X49409D01*
X48549Y126470D01*
X47820Y125982D01*
X47333Y125253D01*
X47161Y124393D01*
Y119668D01*
X47333Y118808D01*
X47820Y118079D01*
X48549Y117592D01*
X49409Y117420D01*
X52479D01*
X58679Y111221D01*
X59213Y110864D01*
X59843Y110739D01*
X72008D01*
Y106834D01*
X79961D01*
Y117936D01*
X72008D01*
Y114031D01*
X60524D01*
X54807Y119748D01*
Y124393D01*
X54636Y125253D01*
X54149Y125982D01*
X53419Y126470D01*
X52559Y126641D01*
D02*
G37*
G36*
X250394Y116212D02*
X249458Y116089D01*
X248587Y115728D01*
X247838Y115154D01*
X247264Y114405D01*
X246903Y113534D01*
X246780Y112598D01*
X246903Y111663D01*
X247264Y110792D01*
X247838Y110043D01*
X248587Y109469D01*
X249291Y109177D01*
X249192Y108677D01*
X246441D01*
Y105224D01*
X250394D01*
X254346D01*
Y108677D01*
X251595D01*
X251496Y109177D01*
X252201Y109469D01*
X252949Y110043D01*
X253523Y110792D01*
X253884Y111663D01*
X254007Y112598D01*
X253884Y113534D01*
X253523Y114405D01*
X252949Y115154D01*
X252201Y115728D01*
X251329Y116089D01*
X250394Y116212D01*
D02*
G37*
G36*
X111299Y110932D02*
X103347D01*
Y102979D01*
X111299D01*
Y110932D01*
D02*
G37*
G36*
X127323Y110966D02*
X126285Y110829D01*
X125318Y110429D01*
X124487Y109791D01*
X123849Y108961D01*
X123449Y107993D01*
X123312Y106955D01*
X123449Y105917D01*
X123849Y104950D01*
X124487Y104119D01*
X125318Y103482D01*
X126285Y103081D01*
X127323Y102945D01*
X128361Y103081D01*
X129328Y103482D01*
X130159Y104119D01*
X130796Y104950D01*
X131197Y105917D01*
X131333Y106955D01*
X131197Y107993D01*
X130796Y108961D01*
X130159Y109791D01*
X129328Y110429D01*
X128361Y110829D01*
X127323Y110966D01*
D02*
G37*
G36*
X183283Y104839D02*
X181799D01*
Y102469D01*
X183283D01*
Y104839D01*
D02*
G37*
G36*
X180799D02*
X179315D01*
Y102469D01*
X180799D01*
Y104839D01*
D02*
G37*
G36*
X279740Y104798D02*
X276878D01*
Y101936D01*
X279740D01*
Y104798D01*
D02*
G37*
G36*
X275878D02*
X273016D01*
Y101936D01*
X275878D01*
Y104798D01*
D02*
G37*
G36*
X254346Y104224D02*
X250894D01*
Y100772D01*
X254346D01*
Y104224D01*
D02*
G37*
G36*
X249894D02*
X246441D01*
Y100772D01*
X249894D01*
Y104224D01*
D02*
G37*
G36*
X183661Y161666D02*
X182690Y161538D01*
X181785Y161163D01*
X181008Y160567D01*
X180412Y159790D01*
X180037Y158885D01*
X179909Y157913D01*
X180037Y156942D01*
X180412Y156037D01*
X181008Y155260D01*
X181785Y154664D01*
X182417Y154402D01*
Y140748D01*
X182512Y140272D01*
X182782Y139868D01*
X184976Y137674D01*
Y126079D01*
X184234Y125771D01*
X183362Y125102D01*
X182693Y124231D01*
X182273Y123215D01*
X182129Y122126D01*
X182273Y121037D01*
X182693Y120021D01*
X183362Y119150D01*
X184234Y118481D01*
X185134Y118108D01*
Y104469D01*
X184803D01*
Y99468D01*
X188031D01*
Y104469D01*
X187622D01*
Y118141D01*
X188443Y118481D01*
X189315Y119150D01*
X189984Y120021D01*
X190404Y121037D01*
X190548Y122126D01*
X190404Y123215D01*
X189984Y124231D01*
X189315Y125102D01*
X188443Y125771D01*
X187465Y126177D01*
Y138189D01*
X187370Y138665D01*
X187100Y139069D01*
X184906Y141263D01*
Y154402D01*
X185538Y154664D01*
X186315Y155260D01*
X186911Y156037D01*
X187286Y156942D01*
X187414Y157913D01*
X187286Y158885D01*
X186911Y159790D01*
X186315Y160567D01*
X185538Y161163D01*
X184633Y161538D01*
X183661Y161666D01*
D02*
G37*
G36*
X183283Y101469D02*
X181799D01*
Y99098D01*
X183283D01*
Y101469D01*
D02*
G37*
G36*
X180799D02*
X179315D01*
Y99098D01*
X180799D01*
Y101469D01*
D02*
G37*
G36*
X250394Y84716D02*
X249458Y84593D01*
X248587Y84232D01*
X247838Y83658D01*
X247264Y82909D01*
X246903Y82038D01*
X246780Y81102D01*
X246903Y80167D01*
X247264Y79296D01*
X247838Y78547D01*
X248587Y77973D01*
X249458Y77612D01*
X250394Y77489D01*
X251329Y77612D01*
X252201Y77973D01*
X252949Y78547D01*
X253523Y79296D01*
X253884Y80167D01*
X254007Y81102D01*
X253884Y82038D01*
X253523Y82909D01*
X252949Y83658D01*
X252201Y84232D01*
X251329Y84593D01*
X250394Y84716D01*
D02*
G37*
G36*
X111457Y84423D02*
X103504D01*
Y76470D01*
X111457D01*
Y84423D01*
D02*
G37*
G36*
X127480Y84457D02*
X126442Y84320D01*
X125475Y83920D01*
X124644Y83282D01*
X124007Y82451D01*
X123606Y81484D01*
X123470Y80446D01*
X123606Y79408D01*
X124007Y78441D01*
X124644Y77610D01*
X125475Y76973D01*
X126442Y76572D01*
X127480Y76436D01*
X128518Y76572D01*
X129486Y76973D01*
X130316Y77610D01*
X130954Y78441D01*
X131354Y79408D01*
X131491Y80446D01*
X131354Y81484D01*
X130954Y82451D01*
X130316Y83282D01*
X129486Y83920D01*
X128518Y84320D01*
X127480Y84457D01*
D02*
G37*
G36*
X52559Y93356D02*
X49409D01*
X48549Y93185D01*
X47820Y92698D01*
X47333Y91969D01*
X47161Y91108D01*
Y86384D01*
X47333Y85524D01*
X47820Y84794D01*
X48549Y84307D01*
X49409Y84136D01*
X52479D01*
X58679Y77937D01*
X59213Y77580D01*
X59843Y77455D01*
X72008D01*
Y73549D01*
X79961D01*
Y84651D01*
X72008D01*
Y80746D01*
X60524D01*
X54807Y86463D01*
Y91108D01*
X54636Y91969D01*
X54149Y92698D01*
X53419Y93185D01*
X52559Y93356D01*
D02*
G37*
G36*
X276378Y91370D02*
X275597Y91268D01*
X274869Y90966D01*
X274244Y90486D01*
X273764Y89861D01*
X273463Y89134D01*
X273360Y88352D01*
X273463Y87571D01*
X273764Y86843D01*
X274244Y86218D01*
X274869Y85739D01*
X275034Y85670D01*
Y85129D01*
X274869Y85061D01*
X274244Y84581D01*
X273764Y83956D01*
X273463Y83228D01*
X273360Y82447D01*
X273463Y81666D01*
X273764Y80938D01*
X274244Y80313D01*
X274869Y79833D01*
X275034Y79765D01*
Y79224D01*
X274869Y79155D01*
X274244Y78675D01*
X273764Y78050D01*
X273463Y77322D01*
X273360Y76541D01*
X273463Y75760D01*
X273764Y75032D01*
X274174Y74498D01*
X274029Y73998D01*
X273016D01*
Y71136D01*
X276378D01*
X279740D01*
Y73998D01*
X278727D01*
X278582Y74498D01*
X278992Y75032D01*
X279293Y75760D01*
X279396Y76541D01*
X279293Y77322D01*
X278992Y78050D01*
X278512Y78675D01*
X277887Y79155D01*
X277721Y79224D01*
Y79765D01*
X277887Y79833D01*
X278512Y80313D01*
X278992Y80938D01*
X279293Y81666D01*
X279396Y82447D01*
X279293Y83228D01*
X278992Y83956D01*
X278512Y84581D01*
X277887Y85061D01*
X277722Y85129D01*
Y85670D01*
X277887Y85739D01*
X278512Y86218D01*
X278992Y86843D01*
X279293Y87571D01*
X279396Y88352D01*
X279293Y89134D01*
X278992Y89861D01*
X278512Y90486D01*
X277887Y90966D01*
X277159Y91268D01*
X276378Y91370D01*
D02*
G37*
G36*
X250394Y76842D02*
X249458Y76719D01*
X248587Y76358D01*
X247838Y75783D01*
X247264Y75035D01*
X246903Y74164D01*
X246780Y73228D01*
X246903Y72293D01*
X247264Y71422D01*
X247838Y70673D01*
X248587Y70099D01*
X249458Y69738D01*
X250394Y69615D01*
X251329Y69738D01*
X252201Y70099D01*
X252949Y70673D01*
X253523Y71422D01*
X253884Y72293D01*
X254007Y73228D01*
X253884Y74164D01*
X253523Y75035D01*
X252949Y75783D01*
X252201Y76358D01*
X251329Y76719D01*
X250394Y76842D01*
D02*
G37*
G36*
X279740Y70136D02*
X276878D01*
Y67274D01*
X279740D01*
Y70136D01*
D02*
G37*
G36*
X275878D02*
X273016D01*
Y67274D01*
X275878D01*
Y70136D01*
D02*
G37*
G36*
X166839Y66643D02*
Y62626D01*
X170855D01*
X170765Y63312D01*
X170307Y64417D01*
X169579Y65366D01*
X168630Y66094D01*
X167525Y66552D01*
X166839Y66643D01*
D02*
G37*
G36*
X165839D02*
X165153Y66552D01*
X164047Y66094D01*
X163098Y65366D01*
X162370Y64417D01*
X161912Y63312D01*
X161822Y62626D01*
X165839D01*
Y66643D01*
D02*
G37*
G36*
X242126Y123894D02*
X241419Y123753D01*
X240820Y123353D01*
X240420Y122754D01*
X240280Y122047D01*
X240420Y121341D01*
X240820Y120742D01*
X240882Y120701D01*
Y68611D01*
X240976Y68135D01*
X241246Y67731D01*
X244503Y64474D01*
X244906Y64205D01*
X245383Y64110D01*
X247031D01*
X247264Y63547D01*
X247838Y62799D01*
X248587Y62225D01*
X249291Y61933D01*
X249192Y61433D01*
X246441D01*
Y57980D01*
X250394D01*
X254346D01*
Y61433D01*
X251595D01*
X251496Y61933D01*
X252201Y62225D01*
X252949Y62799D01*
X253523Y63547D01*
X253884Y64419D01*
X254007Y65354D01*
X253884Y66290D01*
X253523Y67161D01*
X252949Y67909D01*
X252201Y68484D01*
X251329Y68845D01*
X250394Y68968D01*
X249458Y68845D01*
X248587Y68484D01*
X247838Y67909D01*
X247264Y67161D01*
X247031Y66599D01*
X245898D01*
X243370Y69126D01*
Y120701D01*
X243432Y120742D01*
X243832Y121341D01*
X243972Y122047D01*
X243832Y122754D01*
X243432Y123353D01*
X242833Y123753D01*
X242126Y123894D01*
D02*
G37*
G36*
X121653Y125469D02*
X120947Y125328D01*
X120348Y124928D01*
X119948Y124329D01*
X119807Y123622D01*
X119948Y122915D01*
X120348Y122316D01*
X120947Y121916D01*
X121053Y121895D01*
X122458Y120490D01*
X122992Y120133D01*
X123622Y120008D01*
X137901D01*
X142055Y115854D01*
Y74764D01*
X142180Y74134D01*
X142537Y73600D01*
X152165Y63972D01*
Y57953D01*
X160512D01*
Y66299D01*
X154493D01*
X145347Y75445D01*
Y116535D01*
X145221Y117165D01*
X144864Y117699D01*
X139746Y122817D01*
X139213Y123174D01*
X138583Y123299D01*
X124304D01*
X123381Y124223D01*
X123360Y124329D01*
X122959Y124928D01*
X122360Y125328D01*
X121653Y125469D01*
D02*
G37*
G36*
X226339Y66335D02*
X225249Y66192D01*
X224234Y65771D01*
X223362Y65102D01*
X222693Y64231D01*
X222273Y63215D01*
X222129Y62126D01*
X222273Y61036D01*
X222693Y60021D01*
X223362Y59150D01*
X224234Y58481D01*
X225249Y58060D01*
X226339Y57917D01*
X227428Y58060D01*
X228443Y58481D01*
X229315Y59150D01*
X229984Y60021D01*
X230404Y61036D01*
X230548Y62126D01*
X230404Y63215D01*
X229984Y64231D01*
X229315Y65102D01*
X228443Y65771D01*
X227428Y66192D01*
X226339Y66335D01*
D02*
G37*
G36*
X176339D02*
X175249Y66192D01*
X174234Y65771D01*
X173362Y65102D01*
X172693Y64231D01*
X172273Y63215D01*
X172129Y62126D01*
X172273Y61036D01*
X172693Y60021D01*
X173362Y59150D01*
X174234Y58481D01*
X175249Y58060D01*
X176339Y57917D01*
X177428Y58060D01*
X178443Y58481D01*
X179315Y59150D01*
X179984Y60021D01*
X180404Y61036D01*
X180548Y62126D01*
X180404Y63215D01*
X179984Y64231D01*
X179315Y65102D01*
X178443Y65771D01*
X177428Y66192D01*
X176339Y66335D01*
D02*
G37*
G36*
X170855Y61626D02*
X166839D01*
Y57609D01*
X167525Y57700D01*
X168630Y58157D01*
X169579Y58886D01*
X170307Y59835D01*
X170765Y60940D01*
X170855Y61626D01*
D02*
G37*
G36*
X165839D02*
X161822D01*
X161912Y60940D01*
X162370Y59835D01*
X163098Y58886D01*
X164047Y58157D01*
X165153Y57700D01*
X165839Y57609D01*
Y61626D01*
D02*
G37*
G36*
X254346Y56980D02*
X250894D01*
Y53528D01*
X254346D01*
Y56980D01*
D02*
G37*
G36*
X249894D02*
X246441D01*
Y53528D01*
X249894D01*
Y56980D01*
D02*
G37*
G36*
X137402Y71138D02*
X136695Y70997D01*
X136096Y70597D01*
X135696Y69998D01*
X135555Y69291D01*
X135696Y68585D01*
X136096Y67986D01*
X136157Y67945D01*
Y59449D01*
X136252Y58973D01*
X136522Y58569D01*
X143608Y51482D01*
X144012Y51213D01*
X144488Y51118D01*
X160071D01*
X160112Y51056D01*
X160711Y50656D01*
X161417Y50516D01*
X162124Y50656D01*
X162723Y51056D01*
X163123Y51656D01*
X163264Y52362D01*
X163123Y53069D01*
X162723Y53668D01*
X162124Y54068D01*
X161417Y54209D01*
X160711Y54068D01*
X160112Y53668D01*
X160071Y53607D01*
X145004D01*
X138646Y59964D01*
Y67945D01*
X138707Y67986D01*
X139108Y68585D01*
X139248Y69291D01*
X139108Y69998D01*
X138707Y70597D01*
X138108Y70997D01*
X137402Y71138D01*
D02*
G37*
G36*
X112244Y57913D02*
X104291D01*
Y49961D01*
X112244D01*
Y57913D01*
D02*
G37*
G36*
X128268Y57948D02*
X127230Y57811D01*
X126262Y57410D01*
X125432Y56773D01*
X124794Y55942D01*
X124394Y54975D01*
X124257Y53937D01*
X124394Y52899D01*
X124794Y51932D01*
X125432Y51101D01*
X126262Y50464D01*
X127230Y50063D01*
X128268Y49926D01*
X129306Y50063D01*
X130273Y50464D01*
X131104Y51101D01*
X131741Y51932D01*
X132142Y52899D01*
X132278Y53937D01*
X132142Y54975D01*
X131741Y55942D01*
X131104Y56773D01*
X130273Y57410D01*
X129306Y57811D01*
X128268Y57948D01*
D02*
G37*
G36*
X260630Y178016D02*
X246457D01*
X245981Y177921D01*
X245577Y177652D01*
X242781Y174856D01*
X242512Y174453D01*
X242417Y173976D01*
Y171425D01*
X241785Y171163D01*
X241008Y170567D01*
X240412Y169790D01*
X240037Y168885D01*
X239909Y167913D01*
X240037Y166942D01*
X240412Y166037D01*
X241008Y165260D01*
X241785Y164664D01*
X242690Y164289D01*
X243661Y164161D01*
X244633Y164289D01*
X245538Y164664D01*
X246315Y165260D01*
X246911Y166037D01*
X247286Y166942D01*
X247414Y167913D01*
X247286Y168885D01*
X246911Y169790D01*
X246315Y170567D01*
X245538Y171163D01*
X244906Y171425D01*
Y173461D01*
X246972Y175527D01*
X260115D01*
X262900Y172742D01*
X262900Y172742D01*
X265291Y170351D01*
Y50495D01*
X265386Y50019D01*
X265655Y49615D01*
X265901Y49369D01*
X265870Y49213D01*
X266011Y48506D01*
X266411Y47907D01*
X267010Y47507D01*
X267717Y47366D01*
X268423Y47507D01*
X269022Y47907D01*
X269423Y48506D01*
X269563Y49213D01*
X269423Y49919D01*
X269022Y50518D01*
X268423Y50919D01*
X267780Y51047D01*
Y170866D01*
X267685Y171342D01*
X267415Y171746D01*
X264660Y174502D01*
X264660Y174502D01*
X261510Y177652D01*
X261106Y177921D01*
X260630Y178016D01*
D02*
G37*
G36*
X52559Y60072D02*
X49409D01*
X48549Y59901D01*
X47820Y59413D01*
X47333Y58684D01*
X47161Y57824D01*
Y53099D01*
X47333Y52239D01*
X47820Y51510D01*
X48549Y51023D01*
X49409Y50852D01*
X52479D01*
X57104Y46227D01*
X57638Y45870D01*
X58268Y45745D01*
X72008D01*
Y40118D01*
X79961D01*
Y51221D01*
X72008D01*
Y49036D01*
X58950D01*
X54807Y53179D01*
Y57824D01*
X54636Y58684D01*
X54149Y59413D01*
X53419Y59901D01*
X52559Y60072D01*
D02*
G37*
G36*
X253661Y171666D02*
X252690Y171538D01*
X251785Y171163D01*
X251008Y170567D01*
X250412Y169790D01*
X250037Y168885D01*
X249909Y167913D01*
X250037Y166942D01*
X250412Y166037D01*
X251008Y165260D01*
X251785Y164664D01*
X252690Y164289D01*
X253661Y164161D01*
X254633Y164289D01*
X255538Y164664D01*
X256315Y165260D01*
X256911Y166037D01*
X257024Y166309D01*
X257613Y166426D01*
X260173Y163866D01*
Y46063D01*
X260268Y45587D01*
X260537Y45183D01*
X264474Y41246D01*
X264878Y40976D01*
X265354Y40882D01*
X273552D01*
X273764Y40370D01*
X274174Y39836D01*
X274029Y39336D01*
X273016D01*
Y36473D01*
X276378D01*
X279740D01*
Y39336D01*
X278727D01*
X278582Y39836D01*
X278992Y40370D01*
X279293Y41098D01*
X279396Y41879D01*
X279293Y42660D01*
X278992Y43388D01*
X278512Y44013D01*
X277887Y44493D01*
X277721Y44561D01*
Y45102D01*
X277887Y45171D01*
X278512Y45650D01*
X278992Y46275D01*
X279293Y47003D01*
X279396Y47784D01*
X279293Y48566D01*
X278992Y49293D01*
X278512Y49918D01*
X277887Y50398D01*
X277722Y50467D01*
Y51008D01*
X277887Y51076D01*
X278512Y51556D01*
X278992Y52181D01*
X279293Y52909D01*
X279396Y53690D01*
X279293Y54471D01*
X278992Y55199D01*
X278512Y55824D01*
X277887Y56304D01*
X277159Y56605D01*
X276378Y56708D01*
X275597Y56605D01*
X274869Y56304D01*
X274244Y55824D01*
X273764Y55199D01*
X273463Y54471D01*
X273360Y53690D01*
X273463Y52909D01*
X273764Y52181D01*
X274244Y51556D01*
X274869Y51076D01*
X275034Y51008D01*
Y50467D01*
X274869Y50398D01*
X274244Y49918D01*
X273764Y49293D01*
X273463Y48566D01*
X273360Y47784D01*
X273463Y47003D01*
X273764Y46275D01*
X274244Y45650D01*
X274869Y45171D01*
X275034Y45102D01*
Y44561D01*
X274869Y44493D01*
X274244Y44013D01*
X273764Y43388D01*
X273757Y43370D01*
X265870D01*
X262662Y46578D01*
Y164382D01*
X262567Y164858D01*
X262297Y165262D01*
X258766Y168793D01*
X258362Y169063D01*
X257886Y169158D01*
X257173D01*
X256911Y169790D01*
X256315Y170567D01*
X255538Y171163D01*
X254633Y171538D01*
X253661Y171666D01*
D02*
G37*
G36*
X279740Y35473D02*
X276878D01*
Y32611D01*
X279740D01*
Y35473D01*
D02*
G37*
G36*
X275878D02*
X273016D01*
Y32611D01*
X275878D01*
Y35473D01*
D02*
G37*
G36*
X250394Y37472D02*
X249458Y37349D01*
X248587Y36988D01*
X247838Y36413D01*
X247264Y35665D01*
X246903Y34793D01*
X246780Y33858D01*
X246903Y32923D01*
X247264Y32052D01*
X247838Y31303D01*
X248587Y30729D01*
X249458Y30368D01*
X250394Y30245D01*
X251329Y30368D01*
X252201Y30729D01*
X252949Y31303D01*
X253523Y32052D01*
X253884Y32923D01*
X254007Y33858D01*
X253884Y34793D01*
X253523Y35665D01*
X252949Y36413D01*
X252201Y36988D01*
X251329Y37349D01*
X250394Y37472D01*
D02*
G37*
G36*
Y29598D02*
X249458Y29475D01*
X248587Y29114D01*
X247838Y28539D01*
X247264Y27791D01*
X246903Y26919D01*
X246780Y25984D01*
X246903Y25049D01*
X247264Y24178D01*
X247838Y23429D01*
X248587Y22855D01*
X249458Y22494D01*
X250394Y22371D01*
X251329Y22494D01*
X252201Y22855D01*
X252949Y23429D01*
X253523Y24178D01*
X253884Y25049D01*
X254007Y25984D01*
X253884Y26919D01*
X253523Y27791D01*
X252949Y28539D01*
X252201Y29114D01*
X251329Y29475D01*
X250394Y29598D01*
D02*
G37*
G36*
X144988Y23617D02*
Y18216D01*
X150389D01*
X150324Y18877D01*
X149985Y19994D01*
X149435Y21022D01*
X148695Y21924D01*
X147794Y22664D01*
X146765Y23213D01*
X145649Y23552D01*
X144988Y23617D01*
D02*
G37*
G36*
X143988D02*
X143327Y23552D01*
X142211Y23213D01*
X141183Y22664D01*
X140281Y21924D01*
X139541Y21022D01*
X138991Y19994D01*
X138653Y18877D01*
X138587Y18216D01*
X143988D01*
Y23617D01*
D02*
G37*
G36*
X193717Y20488D02*
X190657D01*
Y17429D01*
X193717D01*
Y20488D01*
D02*
G37*
G36*
X189657D02*
X186598D01*
Y17429D01*
X189657D01*
Y20488D01*
D02*
G37*
%LPD*%
D17*
X274213Y164780D02*
D03*
X279331D02*
D03*
X186417Y101969D02*
D03*
X181299D02*
D03*
X279331Y144762D02*
D03*
X274213D02*
D03*
X279331Y134646D02*
D03*
X274213D02*
D03*
Y154664D02*
D03*
X279331D02*
D03*
X93768Y163625D02*
D03*
X98886D02*
D03*
X98886Y154793D02*
D03*
X93768D02*
D03*
X106410D02*
D03*
X111528D02*
D03*
X111528Y163625D02*
D03*
X106410D02*
D03*
X119051Y154793D02*
D03*
X124169D02*
D03*
X124169Y163625D02*
D03*
X119051D02*
D03*
X131693Y154793D02*
D03*
X136811D02*
D03*
X136811Y163625D02*
D03*
X131693D02*
D03*
X38386Y18898D02*
D03*
X33268D02*
D03*
X102559D02*
D03*
X97441D02*
D03*
D18*
X287992Y144762D02*
D03*
Y134646D02*
D03*
X287992Y164780D02*
D03*
X287992Y154664D02*
D03*
X33268Y8661D02*
D03*
X102559D02*
D03*
D19*
X293898Y144762D02*
D03*
Y134646D02*
D03*
X293898Y164780D02*
D03*
X293898Y154664D02*
D03*
X39173Y8661D02*
D03*
X96653D02*
D03*
D20*
X287795Y174443D02*
D03*
X283858D02*
D03*
X279921D02*
D03*
D21*
X75984Y161417D02*
D03*
Y145669D02*
D03*
Y61417D02*
D03*
Y45669D02*
D03*
Y79100D02*
D03*
Y94848D02*
D03*
Y112385D02*
D03*
Y128133D02*
D03*
D22*
X15748Y164370D02*
D03*
Y159252D02*
D03*
Y64584D02*
D03*
Y59466D02*
D03*
Y97654D02*
D03*
Y92536D02*
D03*
Y130922D02*
D03*
Y125804D02*
D03*
D23*
Y145473D02*
D03*
Y45866D02*
D03*
Y78937D02*
D03*
Y112205D02*
D03*
D24*
Y151378D02*
D03*
Y51772D02*
D03*
Y84842D02*
D03*
Y118110D02*
D03*
D44*
X163661Y167913D02*
D03*
X173661D02*
D03*
X183661D02*
D03*
X193661D02*
D03*
X203661D02*
D03*
X213661D02*
D03*
X223661D02*
D03*
X233661D02*
D03*
X243661D02*
D03*
X253661D02*
D03*
X163661Y157913D02*
D03*
X173661D02*
D03*
X183661D02*
D03*
X193661D02*
D03*
X203661D02*
D03*
X213661D02*
D03*
X223661D02*
D03*
X233661D02*
D03*
X243661D02*
D03*
D45*
X253661D02*
D03*
D52*
X76985Y183481D02*
D03*
X229528Y16929D02*
D03*
X221654D02*
D03*
X213779D02*
D03*
X205906D02*
D03*
X198031D02*
D03*
X40945Y183268D02*
D03*
D53*
X190157Y16929D02*
D03*
D54*
X76985Y197261D02*
D03*
X40945Y197047D02*
D03*
D55*
X157087Y4724D02*
X164567Y12205D01*
X96653Y8661D02*
X96797Y8518D01*
Y5878D02*
Y8518D01*
Y5878D02*
X97950Y4724D01*
X157087D01*
X224016Y200787D02*
X231890Y192913D01*
X92520D02*
X100394Y200787D01*
X224016D01*
X274213Y158022D02*
X276009Y159818D01*
X274213Y154664D02*
Y158022D01*
X190157Y12598D02*
Y16929D01*
Y12598D02*
X192520Y10236D01*
X250394D01*
X85827Y146457D02*
Y156299D01*
X89764Y142520D02*
X114382D01*
X85827Y146457D02*
X89764Y142520D01*
X117953Y133465D02*
Y138949D01*
X114382Y142520D02*
X117953Y138949D01*
X88976Y32283D02*
X99606Y42913D01*
X177953D02*
X186221Y51181D01*
X99606Y42913D02*
X177953D01*
X186221Y51181D02*
Y62205D01*
Y68504D01*
X105118Y34252D02*
X185039D01*
X196339Y45551D02*
Y62126D01*
X185039Y34252D02*
X196339Y45551D01*
X97441Y26575D02*
X105118Y34252D01*
X290945Y127953D02*
X293898Y130905D01*
X281316Y127953D02*
X290945D01*
X293898Y130905D02*
Y144762D01*
X276378Y123015D02*
X281316Y127953D01*
X216339Y62126D02*
Y68701D01*
X212598Y72441D02*
X216339Y68701D01*
X196339Y62126D02*
X206339D01*
X190157Y72441D02*
X212598D01*
X186221Y68504D02*
X190157Y72441D01*
X275984Y180709D02*
X282283D01*
X92520Y177165D02*
Y192913D01*
X58268Y47391D02*
X75984D01*
X290158Y181496D02*
X292520D01*
X287795Y174443D02*
Y179134D01*
X290158Y181496D01*
X123622Y121653D02*
X138583D01*
X121653Y123622D02*
X123622Y121653D01*
X138583D02*
X143701Y116535D01*
Y74764D02*
Y116535D01*
Y74764D02*
X156339Y62126D01*
X283858Y174443D02*
Y179134D01*
X282283Y180709D02*
X283858Y179134D01*
X293898Y144762D02*
Y154664D01*
X293898Y154664D02*
Y164780D01*
X286221Y169685D02*
X287795Y171260D01*
Y174443D01*
X275590Y169685D02*
X286221D01*
X274213Y164780D02*
Y168307D01*
X275590Y169685D01*
X39173Y8661D02*
X96653D01*
X97441Y18898D02*
Y26575D01*
X73004Y32283D02*
X88976D01*
X57583Y16862D02*
X73004Y32283D01*
X81102Y161024D02*
X85827Y156299D01*
X76378Y161024D02*
X81102D01*
X78740Y123802D02*
X111631D01*
X117323Y118110D01*
Y106955D02*
Y118110D01*
X76018Y94882D02*
X111811D01*
X117480Y80446D02*
Y89213D01*
X111811Y94882D02*
X117480Y89213D01*
X75984Y61664D02*
X116288D01*
X118268Y59685D01*
Y53937D02*
Y59685D01*
X32497Y130922D02*
X47244Y145669D01*
X59843D01*
X15748Y130922D02*
X32497D01*
X7874Y100394D02*
Y133858D01*
Y66929D02*
Y100394D01*
X10613Y97654D02*
X15748D01*
X7874Y100394D02*
X10613Y97654D01*
X7874Y133858D02*
Y161811D01*
X10810Y130922D02*
X15748D01*
X7874Y133858D02*
X10810Y130922D01*
X7874Y66929D02*
X10220Y64584D01*
X15748D01*
X7874Y161811D02*
X10433Y164370D01*
X15748D01*
Y45866D02*
X32334D01*
X41142Y54674D01*
X15748Y51772D02*
Y59466D01*
Y78937D02*
X32120D01*
X41142Y87959D01*
X15748Y84842D02*
Y92536D01*
Y112205D02*
X32103D01*
X41142Y121243D01*
X15748Y118110D02*
Y125804D01*
Y145473D02*
X32087D01*
X41142Y154528D01*
X15748Y151378D02*
Y159252D01*
X45669Y65748D02*
X73228D01*
X41142Y55462D02*
Y61221D01*
X45669Y65748D01*
X46063Y98819D02*
X73228D01*
X41142Y88746D02*
Y93898D01*
X46063Y98819D01*
Y132283D02*
X73228D01*
X41142Y122030D02*
Y127362D01*
X46063Y132283D01*
Y165748D02*
X73228D01*
X41142Y155315D02*
Y160827D01*
X46063Y165748D01*
X59843Y145669D02*
X75984D01*
X50984Y154528D02*
X59843Y145669D01*
Y112385D02*
X75984D01*
X50984Y121243D02*
X59843Y112385D01*
Y79100D02*
X75984D01*
X50984Y87959D02*
X59843Y79100D01*
X50984Y54674D02*
X58268Y47391D01*
X102559Y8661D02*
Y18898D01*
X33268Y8661D02*
Y18898D01*
X81102D02*
X97441D01*
X38386D02*
X54331D01*
D56*
X76985Y197261D02*
X84055Y204331D01*
X244162D02*
X274049Y174443D01*
X84055Y204331D02*
X244162D01*
X221654Y24016D02*
X237795Y40157D01*
Y137402D02*
X243661Y143268D01*
X237795Y40157D02*
Y137402D01*
X196339Y131772D02*
X213779Y149213D01*
X196339Y122126D02*
Y131772D01*
X213779Y149213D02*
Y157795D01*
X213661Y157913D02*
X213779Y157795D01*
X186221Y122244D02*
Y138189D01*
X183661Y140748D02*
Y157913D01*
Y140748D02*
X186221Y138189D01*
X178740Y174803D02*
X200524D01*
X203661Y171666D01*
X270472Y146063D02*
Y170866D01*
X274049Y174443D02*
X279921D01*
X270472Y170866D02*
X274049Y174443D01*
X98886Y190224D02*
X105512Y196850D01*
X211417D02*
X233465Y174803D01*
X105512Y196850D02*
X211417D01*
X137402Y59449D02*
Y69291D01*
X118110Y170866D02*
X119051Y169925D01*
Y163625D02*
Y169925D01*
X106410Y159209D02*
Y163625D01*
Y154793D02*
Y159209D01*
X93701Y148425D02*
X93734Y148459D01*
Y154760D01*
X131693Y159209D02*
Y163625D01*
Y154793D02*
Y159209D01*
X93734Y154760D02*
X93768Y154793D01*
X274093Y144882D02*
X274213Y144762D01*
X271654Y144882D02*
X274093D01*
X270472Y146063D02*
X271654Y144882D01*
X263780Y173622D02*
X266535Y170866D01*
X267717Y49213D02*
Y49314D01*
X266535Y50495D02*
X267717Y49314D01*
X266535Y50495D02*
Y170866D01*
X263780Y173622D02*
X263780D01*
X260630Y176772D02*
X263780Y173622D01*
X246457Y176772D02*
X260630D01*
X253661Y167913D02*
X257886D01*
X261417Y164382D01*
Y46063D02*
Y164382D01*
Y46063D02*
X265354Y42126D01*
X279331Y164780D02*
X287992D01*
X279331Y134646D02*
X287992D01*
X279331Y154664D02*
X287992D01*
X144488Y52362D02*
X161417D01*
X137402Y59449D02*
X144488Y52362D01*
X213779Y31496D02*
X219291Y37008D01*
X205906Y16929D02*
Y36220D01*
X211811Y42126D01*
X227559D01*
X213779Y16929D02*
Y31496D01*
X227559Y42126D02*
X233661Y48228D01*
X176378Y181496D02*
X200000D01*
X173661Y178779D02*
X176378Y181496D01*
X173661Y167913D02*
Y178779D01*
X203661Y167913D02*
Y171666D01*
X242126Y68611D02*
X245383Y65354D01*
X242126Y68611D02*
Y122047D01*
X245383Y65354D02*
X250394D01*
X270472Y17717D02*
X287795Y35039D01*
Y119291D01*
X130709Y174803D02*
X144882D01*
X204724Y186221D02*
X213779Y177165D01*
Y168032D02*
Y177165D01*
X144882Y174803D02*
X156299Y186221D01*
X204724D01*
X140551Y179528D02*
X152362Y191339D01*
X207874D02*
X223661Y175551D01*
X152362Y191339D02*
X207874D01*
X120472Y179528D02*
X140551D01*
X223661Y167913D02*
Y175551D01*
X250394Y18110D02*
X250787Y17717D01*
X270472D01*
X243661Y167913D02*
Y173976D01*
X246457Y176772D01*
X233661Y48228D02*
Y157913D01*
X243661Y143268D02*
Y157913D01*
X221654Y16929D02*
Y24016D01*
X98886Y163625D02*
Y190224D01*
X127953Y133465D02*
Y142126D01*
X134646Y148819D01*
X125984D02*
X134646D01*
X113779D02*
X125984D01*
X124169Y150634D02*
Y154793D01*
Y150634D02*
X125984Y148819D01*
X100787D02*
X113779D01*
X111528Y151071D02*
Y154793D01*
Y151071D02*
X113779Y148819D01*
X134646D02*
X136811Y150984D01*
Y154793D01*
X98886Y150720D02*
X100787Y148819D01*
X98886Y150720D02*
Y154793D01*
X164488Y17717D02*
X164567Y17638D01*
Y12205D02*
Y17638D01*
X111528Y170583D02*
X120472Y179528D01*
X111528Y163625D02*
Y170583D01*
X206299Y122165D02*
X206339Y122126D01*
X206299Y122165D02*
Y130709D01*
X224016Y148425D01*
Y157559D01*
X223661Y157913D02*
X224016Y157559D01*
X213661Y167913D02*
X213779Y168032D01*
X276344Y42126D02*
X276378Y42092D01*
X265354Y42126D02*
X276344D01*
X186339Y122126D02*
X186378Y122087D01*
Y102008D02*
Y122087D01*
Y102008D02*
X186417Y101969D01*
X186221Y122244D02*
X186339Y122126D01*
X233465Y168110D02*
X233661Y167913D01*
X233465Y168110D02*
Y174803D01*
X124169Y163625D02*
Y168264D01*
X130709Y174803D01*
X143307Y163779D02*
X149173Y157913D01*
X136966Y163779D02*
X143307D01*
X149173Y157913D02*
X163661D01*
X136811Y163625D02*
X136966Y163779D01*
X93768Y154793D02*
Y163625D01*
X119051Y154793D02*
Y163625D01*
Y154793D02*
X119051Y154793D01*
X131693Y154793D02*
X131693Y154793D01*
X75984Y161417D02*
X76378Y161024D01*
X75984Y126558D02*
Y128133D01*
Y126558D02*
X78740Y123802D01*
X75984Y94848D02*
X76018Y94882D01*
X41142Y54674D02*
Y55462D01*
Y87959D02*
Y88746D01*
Y121243D02*
Y122030D01*
Y154528D02*
Y155315D01*
X75984Y61664D02*
Y62992D01*
X73228Y65748D02*
X75984Y62992D01*
Y94848D02*
Y96063D01*
X73228Y98819D02*
X75984Y96063D01*
Y128133D02*
Y129527D01*
X73228Y132283D02*
X75984Y129527D01*
Y161417D02*
Y162992D01*
X73228Y165748D02*
X75984Y162992D01*
X50984Y154528D02*
Y155315D01*
Y121243D02*
Y122030D01*
Y87959D02*
Y88746D01*
Y54674D02*
Y55462D01*
X102559Y18898D02*
X102559Y18898D01*
X33268Y8661D02*
X33268Y8661D01*
X77583Y16862D02*
X79067D01*
X81102Y18898D01*
X56366Y16862D02*
X57583D01*
X54331Y18898D02*
X56366Y16862D01*
X279331Y144762D02*
X287992D01*
D57*
X287402Y195669D02*
D03*
Y13386D02*
D03*
X13386D02*
D03*
Y195669D02*
D03*
D58*
X250394Y81102D02*
D03*
Y65354D02*
D03*
Y73228D02*
D03*
Y128347D02*
D03*
Y112598D02*
D03*
Y120472D02*
D03*
Y33858D02*
D03*
Y18110D02*
D03*
Y25984D02*
D03*
X108268Y186811D02*
D03*
X124016D02*
D03*
X116142D02*
D03*
D59*
X250394Y57480D02*
D03*
Y104724D02*
D03*
Y10236D02*
D03*
D60*
X124488Y17717D02*
D03*
D61*
X144488D02*
D03*
X164488D02*
D03*
D62*
X156339Y62126D02*
D03*
D63*
X166339D02*
D03*
X176339D02*
D03*
X196339D02*
D03*
X206339D02*
D03*
X216339D02*
D03*
X226339D02*
D03*
X156339Y122126D02*
D03*
X166339D02*
D03*
X176339D02*
D03*
X186339D02*
D03*
X196339D02*
D03*
X206339D02*
D03*
X216339D02*
D03*
X226339D02*
D03*
X186221Y62205D02*
D03*
D64*
X276378Y123015D02*
D03*
Y117109D02*
D03*
Y111204D02*
D03*
Y88352D02*
D03*
Y82447D02*
D03*
Y76541D02*
D03*
Y41879D02*
D03*
Y47784D02*
D03*
Y53690D02*
D03*
D65*
Y105298D02*
D03*
Y70636D02*
D03*
Y35973D02*
D03*
D66*
X107953Y133465D02*
D03*
X107323Y106955D02*
D03*
X107480Y80446D02*
D03*
X108268Y53937D02*
D03*
D67*
X117953Y133465D02*
D03*
X127953D02*
D03*
X117323Y106955D02*
D03*
X127323D02*
D03*
X117480Y80446D02*
D03*
X127480D02*
D03*
X118268Y53937D02*
D03*
X128268D02*
D03*
D68*
X50984Y155315D02*
D03*
Y55462D02*
D03*
Y88746D02*
D03*
Y122030D02*
D03*
D69*
X41142Y155315D02*
D03*
Y55462D02*
D03*
Y88746D02*
D03*
Y122030D02*
D03*
D70*
X131890Y186811D02*
D03*
D71*
X57583Y16862D02*
D03*
X77583D02*
D03*
D72*
X276009Y159818D02*
D03*
X178740Y174803D02*
D03*
X275984Y180709D02*
D03*
X231890Y192913D02*
D03*
X92520Y177165D02*
D03*
X292520Y181496D02*
D03*
X121653Y123622D02*
D03*
X118110Y170866D02*
D03*
X93701Y148425D02*
D03*
X106410Y159209D02*
D03*
X131693D02*
D03*
X161417Y52362D02*
D03*
X137402Y69291D02*
D03*
X219291Y37008D02*
D03*
X200000Y181496D02*
D03*
X242126Y122047D02*
D03*
X287795Y119291D02*
D03*
X267717Y49213D02*
D03*
M02*
