G04*
G04 #@! TF.GenerationSoftware,Altium Limited,Altium Designer,20.1.8 (145)*
G04*
G04 Layer_Color=65535*
%FSLAX25Y25*%
%MOIN*%
G70*
G04*
G04 #@! TF.SameCoordinates,5DAE46FA-DCB4-4479-A142-53610109B6E0*
G04*
G04*
G04 #@! TF.FilePolarity,Positive*
G04*
G01*
G75*
%ADD10C,0.00984*%
%ADD11C,0.00787*%
%ADD12C,0.00591*%
%ADD13C,0.00394*%
%ADD14R,0.01181X0.07480*%
%ADD15R,0.12299X0.01968*%
%ADD16R,0.07480X0.01181*%
G36*
X81984Y38043D02*
D01*
D02*
G37*
G36*
X112598Y33465D02*
D01*
D02*
G37*
G36*
X81984Y71474D02*
D01*
D02*
G37*
G36*
Y104759D02*
D01*
D02*
G37*
G36*
Y138043D02*
D01*
D02*
G37*
D10*
X95020Y133465D02*
G03*
X95020Y133465I-492J0D01*
G01*
X94547Y80446D02*
G03*
X94547Y80446I-492J0D01*
G01*
X95335Y53937D02*
G03*
X95335Y53937I-492J0D01*
G01*
X94390Y106955D02*
G03*
X94390Y106955I-492J0D01*
G01*
X276870Y97031D02*
G03*
X276870Y97031I-492J0D01*
G01*
Y62368D02*
G03*
X276870Y62368I-492J0D01*
G01*
Y27706D02*
G03*
X276870Y27706I-492J0D01*
G01*
X254153Y152362D02*
G03*
X254153Y152362I-492J0D01*
G01*
X179823Y16929D02*
G03*
X179823Y16929I-492J0D01*
G01*
D11*
X85654Y16862D02*
G03*
X85654Y16862I-8071J0D01*
G01*
X65654D02*
G03*
X65654Y16862I-8071J0D01*
G01*
X47583Y12150D02*
G03*
X48173Y11809I394J0D01*
G01*
X49551Y11923D02*
G03*
X48961Y12264I-394J0D01*
G01*
Y8193D02*
G03*
X49551Y8534I197J341D01*
G01*
X48173Y8647D02*
G03*
X47583Y8306I-197J-341D01*
G01*
X88961Y8193D02*
G03*
X89551Y8534I197J341D01*
G01*
Y11923D02*
G03*
X88961Y12264I-394J0D01*
G01*
X86205Y30512D02*
G03*
X85614Y30171I-197J-341D01*
G01*
X86992Y30057D02*
G03*
X87583Y30398I197J341D01*
G01*
Y26554D02*
G03*
X86992Y26895I-394J0D01*
G01*
X85614Y26782D02*
G03*
X86205Y26441I394J0D01*
G01*
X45614Y26782D02*
G03*
X46205Y26441I394J0D01*
G01*
Y30512D02*
G03*
X45614Y30171I-197J-341D01*
G01*
X67241Y203462D02*
X86926D01*
X281890Y161237D02*
Y168324D01*
X271654Y161237D02*
X281890D01*
X271654D02*
Y168324D01*
X281890D01*
X261417Y49803D02*
Y88779D01*
X243701Y49803D02*
X261417D01*
X243701Y88779D02*
X261417D01*
X243701Y49803D02*
Y88779D01*
X178740Y105512D02*
X188976D01*
X178740Y98469D02*
Y105512D01*
X188976Y98469D02*
Y105512D01*
X178740Y98469D02*
X188976D01*
X261417Y97047D02*
Y136024D01*
X243701Y97047D02*
X261417D01*
X243701Y136024D02*
X261417D01*
X243701Y97047D02*
Y136024D01*
X261417Y2559D02*
Y41535D01*
X243701Y2559D02*
X261417D01*
X243701Y41535D02*
X261417D01*
X243701Y2559D02*
Y41535D01*
X148031Y48819D02*
Y135433D01*
X236614D01*
Y48819D02*
Y135433D01*
X148031Y48819D02*
X236614D01*
X271654Y148305D02*
X281890D01*
X271654Y141218D02*
Y148305D01*
Y141218D02*
X281890D01*
Y148305D01*
X284646D02*
X298031D01*
Y141218D02*
Y148305D01*
X284646Y141218D02*
X298031D01*
X284646D02*
Y148305D01*
X298031D01*
Y141218D02*
Y148305D01*
X284646Y141218D02*
X298031D01*
X284646D02*
Y148305D01*
X271654Y138189D02*
X281890D01*
X271654Y131102D02*
Y138189D01*
Y131102D02*
X281890D01*
Y138189D01*
X284646D02*
X298031D01*
Y131102D02*
Y138189D01*
X284646Y131102D02*
X298031D01*
X284646D02*
Y138189D01*
X298031D01*
Y131102D02*
Y138189D01*
X284646Y131102D02*
X298031D01*
X284646D02*
Y138189D01*
X270866Y99393D02*
X294488D01*
Y128920D01*
X270866D02*
X294488D01*
X270866Y99393D02*
Y128920D01*
Y64730D02*
X294488D01*
Y94258D01*
X270866D02*
X294488D01*
X270866Y64730D02*
Y94258D01*
Y30068D02*
Y59596D01*
X294488D01*
Y30068D02*
Y59596D01*
X270866Y30068D02*
X294488D01*
X284646Y168324D02*
X298031D01*
Y161237D02*
Y168324D01*
X284646Y161237D02*
X298031D01*
X284646D02*
Y168324D01*
X298031D01*
Y161237D02*
Y168324D01*
X284646Y161237D02*
X298031D01*
X284646D02*
Y168324D01*
X290158Y170900D02*
Y177986D01*
X277559D02*
X290158D01*
X277559Y170900D02*
Y177986D01*
Y170900D02*
X290158D01*
X281890Y151121D02*
Y158208D01*
X271654Y151121D02*
X281890D01*
X271654D02*
Y158208D01*
X281890D01*
X284646D02*
X298031D01*
Y151121D02*
Y158208D01*
X284646Y151121D02*
X298031D01*
X284646D02*
Y158208D01*
X298031D01*
Y151121D02*
Y158208D01*
X284646Y151121D02*
X298031D01*
X284646D02*
Y158208D01*
X268661Y174213D02*
Y208465D01*
X148661D02*
X268661D01*
X148661Y174213D02*
Y208465D01*
Y174213D02*
X268661D01*
X97087Y126516D02*
Y145020D01*
X138819Y126516D02*
Y145020D01*
X97087Y126516D02*
X138819D01*
X97087Y145020D02*
X138819D01*
X97087Y143051D02*
X138819D01*
X91209Y160125D02*
X101445D01*
Y167168D01*
X91209Y160125D02*
Y167168D01*
X101445D01*
X91209Y158293D02*
X101445D01*
X91209Y151250D02*
Y158293D01*
X101445Y151250D02*
Y158293D01*
X91209Y151250D02*
X101445D01*
X103850D02*
X114087D01*
Y158293D01*
X103850Y151250D02*
Y158293D01*
X114087D01*
X103850Y167168D02*
X114087D01*
X103850Y160125D02*
Y167168D01*
X114087Y160125D02*
Y167168D01*
X103850Y160125D02*
X114087D01*
X116492Y151250D02*
X126728D01*
Y158293D01*
X116492Y151250D02*
Y158293D01*
X126728D01*
X116492Y167168D02*
X126728D01*
X116492Y160125D02*
Y167168D01*
X126728Y160125D02*
Y167168D01*
X116492Y160125D02*
X126728D01*
X129134Y151250D02*
X139370D01*
Y158293D01*
X129134Y151250D02*
Y158293D01*
X139370D01*
X129134Y167168D02*
X139370D01*
X129134Y160125D02*
Y167168D01*
X139370Y160125D02*
Y167168D01*
X129134Y160125D02*
X139370D01*
X69984Y168504D02*
X81984D01*
X69984Y137008D02*
Y168504D01*
Y137008D02*
X81984D01*
Y168504D01*
X100591Y197835D02*
X139567D01*
Y180118D02*
Y197835D01*
X100591Y180118D02*
Y197835D01*
Y180118D02*
X139567D01*
X96457Y100007D02*
Y118510D01*
X138189Y100007D02*
Y118510D01*
X96457Y100007D02*
X138189D01*
X96457Y118510D02*
X138189D01*
X96457Y116542D02*
X138189D01*
X96614Y73497D02*
Y92001D01*
X138347Y73497D02*
Y92001D01*
X96614Y73497D02*
X138347D01*
X96614Y92001D02*
X138347D01*
X96614Y90033D02*
X138347D01*
X69984Y68504D02*
X81984D01*
X69984Y37008D02*
Y68504D01*
Y37008D02*
X81984D01*
Y68504D01*
Y70439D02*
Y101935D01*
X69984Y70439D02*
X81984D01*
X69984D02*
Y101935D01*
X81984D01*
Y103723D02*
Y135220D01*
X69984Y103723D02*
X81984D01*
X69984D02*
Y135220D01*
X81984D01*
X47583Y33398D02*
X87583D01*
X47583Y29717D02*
Y33398D01*
X46205Y30512D02*
X47583Y29717D01*
X45614Y26782D02*
Y30171D01*
X46205Y26441D02*
X47583Y27236D01*
Y1901D02*
Y27236D01*
Y1901D02*
X87583D01*
Y33398D01*
X86205Y26441D02*
X86992Y26895D01*
X86205Y30512D02*
X86992Y30057D01*
X85614Y26782D02*
Y30171D01*
X87583Y8988D02*
X88961Y8193D01*
X87583Y11468D02*
X88961Y12264D01*
X89551Y8534D02*
Y11923D01*
X48173Y8647D02*
X48961Y8193D01*
X49551Y8534D02*
Y11923D01*
X48173Y11809D02*
X48961Y12264D01*
X47583Y7020D02*
X87583D01*
X47583Y26705D02*
X87583D01*
X69512Y24736D02*
X85654D01*
X69512Y8988D02*
X85654D01*
Y1901D02*
Y24736D01*
X49512D02*
X65654D01*
X49512Y8988D02*
X65654D01*
Y1901D02*
Y24736D01*
X69512Y1901D02*
Y24736D01*
X49512Y1901D02*
Y24736D01*
X47583Y4657D02*
X87583D01*
X47583Y1901D02*
Y33398D01*
X83488Y8988D02*
Y24736D01*
X71677Y8988D02*
Y24736D01*
X63488Y8988D02*
Y24736D01*
X51677Y8988D02*
Y24736D01*
X29921Y5118D02*
Y12205D01*
Y5118D02*
X43307D01*
Y12205D01*
X29921D02*
X43307D01*
X29921Y5118D02*
Y12205D01*
Y5118D02*
X43307D01*
Y12205D01*
X29921D02*
X43307D01*
X30709Y15354D02*
Y22441D01*
X40945D01*
Y15354D02*
Y22441D01*
X30709Y15354D02*
X40945D01*
X237992Y5394D02*
Y28228D01*
X181693D02*
X237992D01*
X181693Y5394D02*
Y28228D01*
Y5394D02*
X237992D01*
X92520Y5118D02*
X105905D01*
X92520D02*
Y12205D01*
X105905D01*
Y5118D02*
Y12205D01*
X92520Y5118D02*
X105905D01*
X92520D02*
Y12205D01*
X105905D01*
Y5118D02*
Y12205D01*
X94882Y22441D02*
X105118D01*
X94882Y15354D02*
Y22441D01*
Y15354D02*
X105118D01*
Y22441D01*
X12205Y156693D02*
X19291D01*
X12205D02*
Y166929D01*
X19291D01*
Y156693D02*
Y166929D01*
X97402Y46988D02*
Y65492D01*
X139134Y46988D02*
Y65492D01*
X97402Y46988D02*
X139134D01*
X97402Y65492D02*
X139134D01*
X97402Y63524D02*
X139134D01*
X12205Y154724D02*
X19291D01*
X12205Y141339D02*
Y154724D01*
Y141339D02*
X19291D01*
Y154724D01*
X12205D02*
X19291D01*
X12205Y141339D02*
Y154724D01*
Y141339D02*
X19291D01*
Y154724D01*
X12205Y56906D02*
X19291D01*
X12205D02*
Y67143D01*
X19291D01*
Y56906D02*
Y67143D01*
X12205Y89977D02*
X19291D01*
X12205D02*
Y100214D01*
X19291D01*
Y89977D02*
Y100214D01*
X12205Y123245D02*
X19291D01*
X12205D02*
Y133481D01*
X19291D01*
Y123245D02*
Y133481D01*
X12205Y55118D02*
X19291D01*
X12205Y41732D02*
Y55118D01*
Y41732D02*
X19291D01*
Y55118D01*
X12205D02*
X19291D01*
X12205Y41732D02*
Y55118D01*
Y41732D02*
X19291D01*
Y55118D01*
X12205Y88189D02*
X19291D01*
X12205Y74803D02*
Y88189D01*
Y74803D02*
X19291D01*
Y88189D01*
X12205D02*
X19291D01*
X12205Y74803D02*
Y88189D01*
Y74803D02*
X19291D01*
Y88189D01*
X12205Y121457D02*
X19291D01*
X12205Y108071D02*
Y121457D01*
Y108071D02*
X19291D01*
Y121457D01*
X12205D02*
X19291D01*
X12205Y108071D02*
Y121457D01*
Y108071D02*
X19291D01*
Y121457D01*
X31201Y203248D02*
X50886D01*
D12*
X57677Y190157D02*
G03*
X57677Y190157I-16732J0D01*
G01*
X93717Y190371D02*
G03*
X93717Y190371I-16732J0D01*
G01*
D13*
X112284Y1969D02*
Y35039D01*
X176850Y1969D02*
Y35039D01*
X112284D02*
X176850D01*
X112284Y1969D02*
X176850D01*
X120472Y1969D02*
Y4331D01*
X128347D01*
Y1969D02*
Y4331D01*
X140551Y1969D02*
Y4331D01*
X148425D01*
Y1969D02*
Y4331D01*
X112598Y5906D02*
X176772Y5906D01*
X112598Y33465D02*
X176772Y33465D01*
X112402Y32283D02*
X176575Y32283D01*
X160630Y4331D02*
X168504D01*
X160630Y1969D02*
Y4331D01*
X168504Y1969D02*
Y4331D01*
X30315Y141142D02*
X61811D01*
Y167520D01*
X30315D02*
X61811D01*
X42126Y163583D02*
X50787D01*
Y167520D01*
X42126Y163583D02*
Y167520D01*
X30315Y141142D02*
Y167520D01*
Y41288D02*
X61811D01*
Y67666D01*
X30315D02*
X61811D01*
X42126Y63729D02*
X50787D01*
Y67666D01*
X42126Y63729D02*
Y67666D01*
X30315Y41288D02*
Y67666D01*
Y74573D02*
X61811D01*
Y100951D01*
X30315D02*
X61811D01*
X42126Y97014D02*
X50787D01*
Y100951D01*
X42126Y97014D02*
Y100951D01*
X30315Y74573D02*
Y100951D01*
Y107857D02*
X61811D01*
Y134235D01*
X30315D02*
X61811D01*
X42126Y130298D02*
X50787D01*
Y134235D01*
X42126Y130298D02*
Y134235D01*
X30315Y107857D02*
Y134235D01*
X244882Y93306D02*
X246719D01*
X245800D01*
Y90551D01*
X247637D02*
Y92388D01*
X248555Y93306D01*
X249474Y92388D01*
Y90551D01*
Y91929D01*
X247637D01*
X252229Y92847D02*
X251769Y93306D01*
X250851D01*
X250392Y92847D01*
Y91010D01*
X250851Y90551D01*
X251769D01*
X252229Y91010D01*
X253147Y93306D02*
Y90551D01*
Y91470D01*
X254984Y93306D01*
X253606Y91929D01*
X254984Y90551D01*
X260494D02*
X258657D01*
X260494Y92388D01*
Y92847D01*
X260034Y93306D01*
X259116D01*
X258657Y92847D01*
X245276Y46062D02*
X247112D01*
X246194D01*
Y43307D01*
X248031D02*
Y45144D01*
X248949Y46062D01*
X249867Y45144D01*
Y43307D01*
Y44685D01*
X248031D01*
X252622Y45603D02*
X252163Y46062D01*
X251245D01*
X250786Y45603D01*
Y43766D01*
X251245Y43307D01*
X252163D01*
X252622Y43766D01*
X253541Y46062D02*
Y43307D01*
Y44225D01*
X255377Y46062D01*
X254000Y44685D01*
X255377Y43307D01*
X259051D02*
X259969D01*
X259510D01*
Y46062D01*
X259051Y45603D01*
X39042Y135827D02*
Y138582D01*
X40419D01*
X40878Y138123D01*
Y137204D01*
X40419Y136745D01*
X39042D01*
X41797Y138582D02*
Y136286D01*
X42256Y135827D01*
X43174D01*
X43634Y136286D01*
Y138582D01*
X44552Y135827D02*
Y138582D01*
X45470Y137663D01*
X46389Y138582D01*
Y135827D01*
X47307D02*
Y138582D01*
X48684D01*
X49144Y138123D01*
Y137204D01*
X48684Y136745D01*
X47307D01*
X52817Y135827D02*
X53735D01*
X53276D01*
Y138582D01*
X52817Y138123D01*
X38583Y102362D02*
Y105117D01*
X39960D01*
X40419Y104658D01*
Y103740D01*
X39960Y103280D01*
X38583D01*
X41338Y105117D02*
Y102821D01*
X41797Y102362D01*
X42715D01*
X43174Y102821D01*
Y105117D01*
X44093Y102362D02*
Y105117D01*
X45011Y104199D01*
X45929Y105117D01*
Y102362D01*
X46848D02*
Y105117D01*
X48225D01*
X48684Y104658D01*
Y103740D01*
X48225Y103280D01*
X46848D01*
X54194Y102362D02*
X52358D01*
X54194Y104199D01*
Y104658D01*
X53735Y105117D01*
X52817D01*
X52358Y104658D01*
X38583Y68898D02*
Y71653D01*
X39960D01*
X40419Y71193D01*
Y70275D01*
X39960Y69816D01*
X38583D01*
X41338Y71653D02*
Y69357D01*
X41797Y68898D01*
X42715D01*
X43174Y69357D01*
Y71653D01*
X44093Y68898D02*
Y71653D01*
X45011Y70734D01*
X45929Y71653D01*
Y68898D01*
X46848D02*
Y71653D01*
X48225D01*
X48684Y71193D01*
Y70275D01*
X48225Y69816D01*
X46848D01*
X52358Y71193D02*
X52817Y71653D01*
X53735D01*
X54194Y71193D01*
Y70734D01*
X53735Y70275D01*
X53276D01*
X53735D01*
X54194Y69816D01*
Y69357D01*
X53735Y68898D01*
X52817D01*
X52358Y69357D01*
X118898Y45275D02*
X120734D01*
X119816D01*
Y42520D01*
X123489Y45275D02*
X121653D01*
Y42520D01*
X123489D01*
X121653Y43897D02*
X122571D01*
X124408Y42520D02*
Y45275D01*
X125326Y44356D01*
X126244Y45275D01*
Y42520D01*
X127163D02*
Y45275D01*
X128540D01*
X128999Y44815D01*
Y43897D01*
X128540Y43438D01*
X127163D01*
X131754Y45275D02*
X129918D01*
Y42520D01*
X131754D01*
X129918Y43897D02*
X130836D01*
X132673Y42520D02*
Y45275D01*
X134050D01*
X134509Y44815D01*
Y43897D01*
X134050Y43438D01*
X132673D01*
X133591D02*
X134509Y42520D01*
X135428D02*
Y44356D01*
X136346Y45275D01*
X137264Y44356D01*
Y42520D01*
Y43897D01*
X135428D01*
X138183Y45275D02*
X140020D01*
X139101D01*
Y42520D01*
X140938Y45275D02*
Y42979D01*
X141397Y42520D01*
X142315D01*
X142774Y42979D01*
Y45275D01*
X143693Y42520D02*
Y45275D01*
X145070D01*
X145529Y44815D01*
Y43897D01*
X145070Y43438D01*
X143693D01*
X144611D02*
X145529Y42520D01*
X148284Y45275D02*
X146448D01*
Y42520D01*
X148284D01*
X146448Y43897D02*
X147366D01*
X153795Y44815D02*
X153335Y45275D01*
X152417D01*
X151958Y44815D01*
Y44356D01*
X152417Y43897D01*
X153335D01*
X153795Y43438D01*
Y42979D01*
X153335Y42520D01*
X152417D01*
X151958Y42979D01*
X156550Y45275D02*
X154713D01*
Y42520D01*
X156550D01*
X154713Y43897D02*
X155631D01*
X157468Y42520D02*
Y45275D01*
X159305Y42520D01*
Y45275D01*
X162060Y44815D02*
X161600Y45275D01*
X160682D01*
X160223Y44815D01*
Y44356D01*
X160682Y43897D01*
X161600D01*
X162060Y43438D01*
Y42979D01*
X161600Y42520D01*
X160682D01*
X160223Y42979D01*
X164356Y45275D02*
X163437D01*
X162978Y44815D01*
Y42979D01*
X163437Y42520D01*
X164356D01*
X164815Y42979D01*
Y44815D01*
X164356Y45275D01*
X165733Y42520D02*
Y45275D01*
X167111D01*
X167570Y44815D01*
Y43897D01*
X167111Y43438D01*
X165733D01*
X166651D02*
X167570Y42520D01*
X295933Y39632D02*
Y37795D01*
X297310D01*
Y38714D01*
Y37795D01*
X298688D01*
X298229Y42387D02*
X298688D01*
Y40550D01*
X297310Y41469D01*
X295933Y40550D01*
Y42387D01*
X296392D01*
X298688Y43305D02*
X296851D01*
Y44683D01*
X297310Y45142D01*
X298688D01*
X299606Y46979D02*
Y47438D01*
X299147Y47897D01*
X296851D01*
Y46520D01*
X297310Y46060D01*
X298229D01*
X298688Y46520D01*
Y47897D01*
Y50193D02*
Y49275D01*
X298229Y48815D01*
X297310D01*
X296851Y49275D01*
Y50193D01*
X297310Y50652D01*
X297770D01*
Y48815D01*
X296851Y51570D02*
X298688D01*
X297770D01*
X297310Y52030D01*
X296851Y52489D01*
Y52948D01*
X193175Y34251D02*
X191339D01*
Y32874D01*
X192257D01*
X191339D01*
Y31496D01*
X194094Y34251D02*
Y31496D01*
X195930D01*
X196849D02*
Y33333D01*
X197767Y34251D01*
X198685Y33333D01*
Y31496D01*
Y32874D01*
X196849D01*
X201440Y33792D02*
X200981Y34251D01*
X200063D01*
X199604Y33792D01*
Y33333D01*
X200063Y32874D01*
X200981D01*
X201440Y32414D01*
Y31955D01*
X200981Y31496D01*
X200063D01*
X199604Y31955D01*
X202359Y34251D02*
Y31496D01*
Y32874D01*
X204195D01*
Y34251D01*
Y31496D01*
X205114Y34251D02*
Y33792D01*
X206032Y32874D01*
X206950Y33792D01*
Y34251D01*
X206032Y32874D02*
Y31496D01*
X212460Y33792D02*
X212001Y34251D01*
X211083D01*
X210624Y33792D01*
Y33333D01*
X211083Y32874D01*
X212001D01*
X212460Y32414D01*
Y31955D01*
X212001Y31496D01*
X211083D01*
X210624Y31955D01*
X213379Y31496D02*
Y34251D01*
X214756D01*
X215215Y33792D01*
Y32874D01*
X214756Y32414D01*
X213379D01*
X217511Y34251D02*
X216593D01*
X216134Y33792D01*
Y31955D01*
X216593Y31496D01*
X217511D01*
X217970Y31955D01*
Y33792D01*
X217511Y34251D01*
X218889D02*
X220725D01*
X219807D01*
Y31496D01*
X221644Y34251D02*
X223481D01*
X222562D01*
Y31496D01*
X226236Y34251D02*
X224399D01*
Y31496D01*
X226236D01*
X224399Y32874D02*
X225317D01*
X227154Y31496D02*
Y34251D01*
X228531D01*
X228991Y33792D01*
Y32874D01*
X228531Y32414D01*
X227154D01*
X228072D02*
X228991Y31496D01*
X93701Y30315D02*
Y33070D01*
X94619Y32152D01*
X95538Y33070D01*
Y30315D01*
X97833Y33070D02*
X96915D01*
X96456Y32611D01*
Y30774D01*
X96915Y30315D01*
X97833D01*
X98292Y30774D01*
Y32611D01*
X97833Y33070D01*
X99211D02*
X101048D01*
X100129D01*
Y30315D01*
X103343Y33070D02*
X102425D01*
X101966Y32611D01*
Y30774D01*
X102425Y30315D01*
X103343D01*
X103803Y30774D01*
Y32611D01*
X103343Y33070D01*
X104721Y30315D02*
Y33070D01*
X106098D01*
X106558Y32611D01*
Y31692D01*
X106098Y31233D01*
X104721D01*
X105639D02*
X106558Y30315D01*
X29528D02*
Y33070D01*
X30446Y32152D01*
X31364Y33070D01*
Y30315D01*
X33660Y33070D02*
X32742D01*
X32283Y32611D01*
Y30774D01*
X32742Y30315D01*
X33660D01*
X34119Y30774D01*
Y32611D01*
X33660Y33070D01*
X35038D02*
X36874D01*
X35956D01*
Y30315D01*
X39170Y33070D02*
X38252D01*
X37793Y32611D01*
Y30774D01*
X38252Y30315D01*
X39170D01*
X39629Y30774D01*
Y32611D01*
X39170Y33070D01*
X40548Y30315D02*
Y33070D01*
X41925D01*
X42384Y32611D01*
Y31692D01*
X41925Y31233D01*
X40548D01*
X41466D02*
X42384Y30315D01*
X267389Y131102D02*
X266930Y131562D01*
Y132480D01*
X267389Y132939D01*
X267848D01*
X268307Y132480D01*
Y132021D01*
Y132480D01*
X268767Y132939D01*
X269226D01*
X269685Y132480D01*
Y131562D01*
X269226Y131102D01*
X266930Y133857D02*
X268767D01*
X269685Y134776D01*
X268767Y135694D01*
X266930D01*
X267389Y136612D02*
X266930Y137072D01*
Y137990D01*
X267389Y138449D01*
X267848D01*
X268307Y137990D01*
Y137531D01*
Y137990D01*
X268767Y138449D01*
X269226D01*
X269685Y137990D01*
Y137072D01*
X269226Y136612D01*
X266930Y144356D02*
Y142520D01*
X268307D01*
X267848Y143438D01*
Y143897D01*
X268307Y144356D01*
X269226D01*
X269685Y143897D01*
Y142979D01*
X269226Y142520D01*
X266930Y145275D02*
X268767D01*
X269685Y146193D01*
X268767Y147111D01*
X266930D01*
X269685Y152362D02*
X266930D01*
Y153740D01*
X267389Y154199D01*
X268307D01*
X268767Y153740D01*
Y152362D01*
X266930Y155117D02*
X268767D01*
X269685Y156036D01*
X268767Y156954D01*
X266930D01*
X269685Y161417D02*
Y162336D01*
Y161876D01*
X266930D01*
X267389Y161417D01*
X269685Y165550D02*
Y163713D01*
X267848Y165550D01*
X267389D01*
X266930Y165091D01*
Y164172D01*
X267389Y163713D01*
X266930Y166468D02*
X268767D01*
X269685Y167386D01*
X268767Y168305D01*
X266930D01*
X93701Y28346D02*
Y25591D01*
X95078D01*
X95538Y26050D01*
Y26509D01*
X95078Y26968D01*
X93701D01*
X95078D01*
X95538Y27427D01*
Y27886D01*
X95078Y28346D01*
X93701D01*
X96456D02*
Y25591D01*
X98292D01*
X99211D02*
Y27427D01*
X100129Y28346D01*
X101048Y27427D01*
Y25591D01*
Y26968D01*
X99211D01*
X103803Y27886D02*
X103343Y28346D01*
X102425D01*
X101966Y27886D01*
Y26050D01*
X102425Y25591D01*
X103343D01*
X103803Y26050D01*
X104721Y28346D02*
Y25591D01*
Y26509D01*
X106558Y28346D01*
X105180Y26968D01*
X106558Y25591D01*
X32283D02*
Y28346D01*
X33661D01*
X34120Y27886D01*
Y26968D01*
X33661Y26509D01*
X32283D01*
X33202D02*
X34120Y25591D01*
X36875Y28346D02*
X35039D01*
Y25591D01*
X36875D01*
X35039Y26968D02*
X35957D01*
X37793Y28346D02*
Y25591D01*
X39171D01*
X39630Y26050D01*
Y27886D01*
X39171Y28346D01*
X37793D01*
X116142Y40550D02*
Y40091D01*
X117060Y39173D01*
X117978Y40091D01*
Y40550D01*
X117060Y39173D02*
Y37795D01*
X120733Y40550D02*
X118897D01*
Y37795D01*
X120733D01*
X118897Y39173D02*
X119815D01*
X121652Y40550D02*
Y37795D01*
X123488D01*
X124407Y40550D02*
Y37795D01*
X126243D01*
X128539Y40550D02*
X127621D01*
X127162Y40091D01*
Y38254D01*
X127621Y37795D01*
X128539D01*
X128998Y38254D01*
Y40091D01*
X128539Y40550D01*
X129917D02*
Y37795D01*
X130835Y38714D01*
X131754Y37795D01*
Y40550D01*
X157874D02*
Y37795D01*
X159251D01*
X159711Y38254D01*
Y38714D01*
X159251Y39173D01*
X157874D01*
X159251D01*
X159711Y39632D01*
Y40091D01*
X159251Y40550D01*
X157874D01*
X160629D02*
Y37795D01*
X162466D01*
X163384D02*
Y39632D01*
X164302Y40550D01*
X165221Y39632D01*
Y37795D01*
Y39173D01*
X163384D01*
X167976Y40091D02*
X167517Y40550D01*
X166598D01*
X166139Y40091D01*
Y38254D01*
X166598Y37795D01*
X167517D01*
X167976Y38254D01*
X168894Y40550D02*
Y37795D01*
Y38714D01*
X170731Y40550D01*
X169353Y39173D01*
X170731Y37795D01*
X140551D02*
Y40550D01*
X141929D01*
X142388Y40091D01*
Y39173D01*
X141929Y38714D01*
X140551D01*
X141470D02*
X142388Y37795D01*
X145143Y40550D02*
X143306D01*
Y37795D01*
X145143D01*
X143306Y39173D02*
X144225D01*
X146061Y40550D02*
Y37795D01*
X147439D01*
X147898Y38254D01*
Y40091D01*
X147439Y40550D01*
X146061D01*
D14*
X297441Y154468D02*
D03*
D03*
Y164584D02*
D03*
D03*
X93110Y8858D02*
D03*
D03*
X42717Y8465D02*
D03*
D03*
X297441Y144565D02*
D03*
D03*
X297441Y134449D02*
D03*
D03*
D15*
X75835Y71423D02*
D03*
X75835Y104708D02*
D03*
X75835Y137992D02*
D03*
X75835Y37992D02*
D03*
D16*
X15551Y141929D02*
D03*
D03*
X15551Y42323D02*
D03*
D03*
Y75394D02*
D03*
D03*
X15552Y108661D02*
D03*
D03*
M02*
